G04 #@! TF.GenerationSoftware,KiCad,Pcbnew,8.0.4*
G04 #@! TF.CreationDate,2026-05-21T19:01:33-07:00*
G04 #@! TF.ProjectId,microSD_Switch_Reader,6d696372-6f53-4445-9f53-77697463685f,rev?*
G04 #@! TF.SameCoordinates,Original*
G04 #@! TF.FileFunction,Copper,L3,Inr*
G04 #@! TF.FilePolarity,Positive*
%FSLAX46Y46*%
G04 Gerber Fmt 4.6, Leading zero omitted, Abs format (unit mm)*
G04 Created by KiCad (PCBNEW 8.0.4) date 2026-05-21 19:01:33*
%MOMM*%
%LPD*%
G01*
G04 APERTURE LIST*
G04 #@! TA.AperFunction,ComponentPad*
%ADD10O,1.400000X0.800000*%
G04 #@! TD*
G04 #@! TA.AperFunction,ViaPad*
%ADD11C,0.400000*%
G04 #@! TD*
G04 #@! TA.AperFunction,Conductor*
%ADD12C,0.800000*%
G04 #@! TD*
G04 #@! TA.AperFunction,Conductor*
%ADD13C,0.400000*%
G04 #@! TD*
G04 APERTURE END LIST*
D10*
G04 #@! TO.N,unconnected-(J5-SHIELD-PadS1)*
G04 #@! TO.C,J5*
X133010000Y-75670000D03*
G04 #@! TO.N,N/C*
X133010000Y-83930000D03*
X127060000Y-84290000D03*
X127060000Y-75310000D03*
G04 #@! TD*
D11*
G04 #@! TO.N,+3V3*
X127400000Y-93200000D03*
X134400000Y-94500000D03*
X125700000Y-91200000D03*
X143650000Y-95550000D03*
X150285000Y-95215000D03*
X150500000Y-92400000D03*
X137900000Y-89800000D03*
X145035000Y-89965000D03*
G04 #@! TO.N,GND*
X154300000Y-104052500D03*
X147000000Y-75150000D03*
X159900000Y-86950000D03*
X156200000Y-88000000D03*
X147008924Y-105232720D03*
X134200000Y-101300000D03*
X160900000Y-75600000D03*
X142800000Y-77300000D03*
X131700000Y-79400000D03*
X138000000Y-88700000D03*
X165300000Y-106300000D03*
X142950000Y-99350000D03*
X137400000Y-105800000D03*
X151300000Y-75150000D03*
X142800000Y-89200000D03*
X150000000Y-98900000D03*
X147800000Y-87500000D03*
X142400000Y-126400000D03*
X143900000Y-104900000D03*
X147900000Y-99500000D03*
X162100000Y-76450000D03*
X151900000Y-102300000D03*
X160100000Y-92400000D03*
X126400000Y-100800000D03*
X149400000Y-104250000D03*
X146100000Y-84400000D03*
X143950000Y-99350000D03*
X148950000Y-104850000D03*
X157700000Y-105602500D03*
X148300000Y-86700000D03*
X135200000Y-76500000D03*
X148100000Y-84400000D03*
X162150000Y-92400000D03*
X137700000Y-83100000D03*
X132900000Y-88600000D03*
X165300000Y-109500000D03*
X146200000Y-99800000D03*
X151900000Y-98900000D03*
X150700000Y-79650000D03*
X141450000Y-99350000D03*
X153000000Y-92200000D03*
X149250000Y-75900000D03*
X139400000Y-101000000D03*
X142850000Y-105600000D03*
X157700000Y-81600000D03*
X142400000Y-127200000D03*
X141300000Y-94800000D03*
X140900000Y-77300000D03*
X150049999Y-82249999D03*
X157000000Y-99250000D03*
X134300000Y-87700000D03*
X141350000Y-98000000D03*
X157550000Y-82900000D03*
X149250000Y-75050000D03*
X158300000Y-99400000D03*
X142300000Y-81500000D03*
X140300000Y-97900000D03*
X152200000Y-91400000D03*
X125700000Y-92500000D03*
X147100000Y-79200000D03*
X135800000Y-88600000D03*
X151049999Y-82249999D03*
X162300000Y-86950000D03*
X130900000Y-83000000D03*
X141900000Y-87100000D03*
X145800000Y-101700000D03*
X138500000Y-103900000D03*
X151100000Y-97200000D03*
X136300000Y-102700000D03*
X154000000Y-97000000D03*
X141300000Y-95800000D03*
X143300000Y-126400000D03*
X130900000Y-81200000D03*
X130800000Y-77800000D03*
X142500000Y-102904003D03*
X151049999Y-83949999D03*
X150200000Y-86700000D03*
X142400000Y-97000000D03*
X139600000Y-96500000D03*
X141300000Y-91200000D03*
X130800000Y-76000000D03*
X145500000Y-105200000D03*
X137400000Y-103900000D03*
X149250000Y-76850000D03*
X144400000Y-84900000D03*
X139100000Y-90300000D03*
X145000000Y-84300000D03*
X137700000Y-81100000D03*
X146650000Y-93250000D03*
X140600000Y-102700000D03*
X142950000Y-78850000D03*
X162200000Y-95400000D03*
X142600000Y-83200000D03*
X139500000Y-103200000D03*
X150600000Y-93700000D03*
X143300000Y-127200000D03*
X159600000Y-76450000D03*
X146300000Y-106050000D03*
X145950000Y-98100000D03*
X125700000Y-100800000D03*
X150049999Y-83949999D03*
X143600000Y-105600000D03*
X160000000Y-95400000D03*
X139400000Y-75600000D03*
X148950000Y-97100000D03*
G04 #@! TO.N,Net-(U3-AVDD12)*
X145000000Y-95700000D03*
X147850000Y-90000000D03*
G04 #@! TO.N,+5V*
X134050000Y-80950000D03*
X134100000Y-78400000D03*
X137800000Y-85300000D03*
X146100000Y-76800000D03*
X143400000Y-83200000D03*
X147812500Y-75262500D03*
X143635000Y-94635000D03*
X146100000Y-76200000D03*
G04 #@! TO.N,Net-(J3-DAT3{slash}CD)*
X146850000Y-104650000D03*
X137900000Y-104500000D03*
G04 #@! TO.N,Net-(J3-CMD)*
X136950000Y-102950000D03*
X139400000Y-101600000D03*
G04 #@! TO.N,Net-(J3-CLK)*
X139600000Y-97150000D03*
X134600000Y-101900000D03*
G04 #@! TO.N,Net-(J3-DAT0)*
X139300000Y-103900000D03*
X143200000Y-104900000D03*
G04 #@! TO.N,Net-(J3-DAT2)*
X148300000Y-104900000D03*
X137200000Y-105028974D03*
G04 #@! TO.N,USB_DP*
X150549999Y-83449999D03*
X132400000Y-79700000D03*
X135700000Y-79800000D03*
G04 #@! TO.N,USB_DN*
X132400000Y-79100000D03*
X150549999Y-82849999D03*
G04 #@! TO.N,SD_SW*
X156050000Y-98350000D03*
X158700000Y-93525000D03*
X150100000Y-103950000D03*
X145800000Y-102550000D03*
X140100000Y-105700000D03*
G04 #@! TO.N,Net-(J2-CMD)*
X142950001Y-100000000D03*
X145000000Y-105600000D03*
G04 #@! TO.N,Net-(J2-CLK)*
X144300000Y-105600000D03*
X141450002Y-100000000D03*
G04 #@! TO.N,EXTLoad_SW*
X158650000Y-88150000D03*
X155840000Y-82200000D03*
G04 #@! TO.N,Net-(U3-SPI_MOSI)*
X130505000Y-88595000D03*
X143500000Y-92480000D03*
G04 #@! TO.N,Net-(U3-SPI_CK)*
X130565000Y-89865000D03*
X143000000Y-92980000D03*
G04 #@! TO.N,SD_VCC_DEV*
X145005000Y-126800000D03*
X153050000Y-105300000D03*
G04 #@! TO.N,Net-(IC1-CC2)*
X134100000Y-80200000D03*
X144200000Y-82700000D03*
G04 #@! TO.N,Net-(IC1-CC1)*
X135725000Y-78725000D03*
X144800000Y-81200000D03*
G04 #@! TO.N,/C_TX2P*
X131500000Y-81800000D03*
X137700000Y-81800000D03*
G04 #@! TO.N,/C_TX2N*
X137700000Y-82400000D03*
X131500000Y-82400000D03*
G04 #@! TO.N,/RX1P*
X131300000Y-77200000D03*
X140312133Y-76712133D03*
G04 #@! TO.N,/RX1N*
X131300000Y-76600000D03*
X139887867Y-76287867D03*
G04 #@! TO.N,+3V3_SYS*
X145000000Y-76100000D03*
X144800000Y-79200000D03*
X140300000Y-99900000D03*
X153245000Y-94175000D03*
X158900000Y-86590000D03*
X160200000Y-99575000D03*
X156225000Y-90395000D03*
X162300000Y-85950000D03*
X160300000Y-103000000D03*
X158300000Y-103795000D03*
X160187500Y-91200000D03*
X152200000Y-76550000D03*
X145420000Y-99820000D03*
X159900000Y-85950000D03*
X158900000Y-82360000D03*
X152800000Y-79650000D03*
X152200000Y-77150000D03*
G04 #@! TO.N,Net-(J3-VDD)*
X126400000Y-103000000D03*
X151000000Y-101500000D03*
X125700000Y-103000000D03*
X149900000Y-105800000D03*
G04 #@! TO.N,/C_TXP*
X146800000Y-84450000D03*
X148950000Y-86721636D03*
G04 #@! TO.N,/C_TXN*
X149550000Y-86721636D03*
X147400000Y-84450000D03*
G04 #@! TO.N,Net-(U3-SD_CM)*
X143550000Y-99850000D03*
X147350000Y-99100000D03*
G04 #@! TO.N,Net-(U3-SD_D1)*
X141300000Y-102700000D03*
X142500000Y-102300000D03*
G04 #@! TO.N,Net-(U3-SD_CK)*
X141950000Y-98000000D03*
X146350000Y-97650000D03*
G04 #@! TD*
D12*
G04 #@! TO.N,Net-(U3-AVDD12)*
X147850000Y-94050000D02*
X147850000Y-90000000D01*
X145000000Y-95700000D02*
X146200000Y-95700000D01*
X146200000Y-95700000D02*
X147850000Y-94050000D01*
D13*
G04 #@! TO.N,+3V3_SYS*
X152396000Y-97804000D02*
X152400000Y-97800000D01*
G04 #@! TD*
G04 #@! TA.AperFunction,Conductor*
G04 #@! TO.N,GND*
G36*
X146051433Y-97917825D02*
G01*
X146111658Y-97978050D01*
X146135771Y-97990336D01*
X146179035Y-98033599D01*
X146188607Y-98094031D01*
X146160831Y-98148548D01*
X146139753Y-98169625D01*
X146093875Y-98215504D01*
X146039361Y-98243281D01*
X146023873Y-98244500D01*
X145990499Y-98244500D01*
X145974373Y-98245134D01*
X145968191Y-98245620D01*
X145957766Y-98246441D01*
X145942234Y-98246441D01*
X145933675Y-98245767D01*
X145925627Y-98245134D01*
X145909501Y-98244500D01*
X145909489Y-98244500D01*
X145851232Y-98244500D01*
X145793041Y-98225593D01*
X145757077Y-98176093D01*
X145752232Y-98145500D01*
X145752232Y-98109924D01*
X145753451Y-98094436D01*
X145759782Y-98054467D01*
X145769351Y-98025014D01*
X145783157Y-97997920D01*
X145801356Y-97972870D01*
X145822870Y-97951356D01*
X145847920Y-97933157D01*
X145875744Y-97918979D01*
X145894562Y-97912038D01*
X145894540Y-97911970D01*
X145896291Y-97911400D01*
X145897579Y-97910926D01*
X145898235Y-97910767D01*
X145898242Y-97910767D01*
X145950840Y-97893676D01*
X146012024Y-97893676D01*
X146051433Y-97917825D01*
G37*
G04 #@! TD.AperFunction*
G04 #@! TA.AperFunction,Conductor*
G36*
X141395527Y-97809779D02*
G01*
X141424981Y-97819350D01*
X141445930Y-97830025D01*
X141493911Y-97854473D01*
X141495048Y-97855052D01*
X141497970Y-97856541D01*
X141541234Y-97899806D01*
X141550805Y-97960235D01*
X141544508Y-97999996D01*
X141544508Y-97999999D01*
X141544508Y-98000000D01*
X141550250Y-98036257D01*
X141565100Y-98130013D01*
X141555529Y-98190445D01*
X141512264Y-98233710D01*
X141467319Y-98244500D01*
X141267070Y-98244500D01*
X141208879Y-98225593D01*
X141172915Y-98176093D01*
X141168070Y-98145500D01*
X141168070Y-98097865D01*
X141166224Y-98086214D01*
X141155021Y-98015479D01*
X141155021Y-97984517D01*
X141159780Y-97954468D01*
X141169348Y-97925020D01*
X141183157Y-97897919D01*
X141201356Y-97872870D01*
X141222870Y-97851356D01*
X141247919Y-97833157D01*
X141275020Y-97819348D01*
X141304470Y-97809779D01*
X141334518Y-97805021D01*
X141365481Y-97805021D01*
X141395527Y-97809779D01*
G37*
G04 #@! TD.AperFunction*
G04 #@! TA.AperFunction,Conductor*
G36*
X148995524Y-96909779D02*
G01*
X149024980Y-96919351D01*
X149052078Y-96933159D01*
X149077135Y-96951363D01*
X149098638Y-96972866D01*
X149116841Y-96997921D01*
X149130649Y-97025020D01*
X149140219Y-97054473D01*
X149141254Y-97061009D01*
X149144888Y-97083953D01*
X149144977Y-97084510D01*
X149144977Y-97115488D01*
X149139802Y-97148158D01*
X149133486Y-97170553D01*
X149126978Y-97186263D01*
X149111335Y-97264909D01*
X149111335Y-97295500D01*
X149092428Y-97353691D01*
X149042928Y-97389655D01*
X149012335Y-97394500D01*
X148887863Y-97394500D01*
X148829672Y-97375593D01*
X148793708Y-97326093D01*
X148789087Y-97288841D01*
X148789761Y-97278839D01*
X148780191Y-97218414D01*
X148780190Y-97218412D01*
X148780190Y-97218409D01*
X148765298Y-97172580D01*
X148761672Y-97157476D01*
X148761668Y-97157449D01*
X148755021Y-97115480D01*
X148755021Y-97084517D01*
X148759780Y-97054468D01*
X148769350Y-97025017D01*
X148783157Y-96997919D01*
X148801356Y-96972870D01*
X148822870Y-96951356D01*
X148847919Y-96933157D01*
X148875020Y-96919348D01*
X148904468Y-96909780D01*
X148934518Y-96905021D01*
X148965481Y-96905021D01*
X148995524Y-96909779D01*
G37*
G04 #@! TD.AperFunction*
G04 #@! TA.AperFunction,Conductor*
G36*
X151145526Y-97009779D02*
G01*
X151174984Y-97019352D01*
X151183297Y-97023588D01*
X151202075Y-97033156D01*
X151227133Y-97051361D01*
X151282740Y-97106968D01*
X151282741Y-97106970D01*
X151285686Y-97109915D01*
X151323623Y-97139823D01*
X151363034Y-97163974D01*
X151381244Y-97173905D01*
X151454302Y-97190580D01*
X151506827Y-97221962D01*
X151530874Y-97278223D01*
X151517260Y-97337875D01*
X151502281Y-97357097D01*
X151493880Y-97365499D01*
X151439365Y-97393280D01*
X151423872Y-97394500D01*
X151009150Y-97394500D01*
X150950959Y-97375593D01*
X150914995Y-97326093D01*
X150910150Y-97295506D01*
X150910147Y-97247839D01*
X150909401Y-97243131D01*
X150909399Y-97243122D01*
X150905485Y-97218414D01*
X150905022Y-97215487D01*
X150905022Y-97184515D01*
X150909309Y-97157452D01*
X150909309Y-97157449D01*
X150909780Y-97154469D01*
X150919350Y-97125016D01*
X150933156Y-97097921D01*
X150951356Y-97072870D01*
X150972870Y-97051356D01*
X150997922Y-97033156D01*
X151025020Y-97019348D01*
X151054470Y-97009779D01*
X151084518Y-97005021D01*
X151115482Y-97005021D01*
X151145526Y-97009779D01*
G37*
G04 #@! TD.AperFunction*
G04 #@! TA.AperFunction,Conductor*
G36*
X139645527Y-96309779D02*
G01*
X139674975Y-96319347D01*
X139702078Y-96333157D01*
X139727131Y-96351359D01*
X139748638Y-96372866D01*
X139766841Y-96397921D01*
X139780649Y-96425020D01*
X139790219Y-96454473D01*
X139794977Y-96484510D01*
X139794977Y-96515486D01*
X139790220Y-96545521D01*
X139780648Y-96574980D01*
X139763670Y-96608300D01*
X139750749Y-96627640D01*
X139745141Y-96634206D01*
X139745139Y-96634209D01*
X139726923Y-96659283D01*
X139724267Y-96663026D01*
X139724265Y-96663028D01*
X139715504Y-96684872D01*
X139676292Y-96731841D01*
X139616961Y-96746791D01*
X139608135Y-96745796D01*
X139600002Y-96744508D01*
X139599997Y-96744508D01*
X139554055Y-96751784D01*
X139493623Y-96742212D01*
X139450359Y-96698947D01*
X139440789Y-96669494D01*
X139433828Y-96625546D01*
X139431616Y-96618738D01*
X139414043Y-96564655D01*
X139410416Y-96549549D01*
X139409778Y-96545521D01*
X139405020Y-96515482D01*
X139405020Y-96484524D01*
X139409780Y-96454464D01*
X139419350Y-96425017D01*
X139433157Y-96397919D01*
X139451356Y-96372870D01*
X139472870Y-96351356D01*
X139497919Y-96333157D01*
X139525020Y-96319348D01*
X139554470Y-96309779D01*
X139584518Y-96305021D01*
X139615481Y-96305021D01*
X139645527Y-96309779D01*
G37*
G04 #@! TD.AperFunction*
G04 #@! TA.AperFunction,Conductor*
G36*
X146695525Y-93059779D02*
G01*
X146724980Y-93069350D01*
X146741536Y-93077786D01*
X146752075Y-93083156D01*
X146777133Y-93101361D01*
X146798637Y-93122865D01*
X146816841Y-93147920D01*
X146829701Y-93173157D01*
X146837561Y-93187193D01*
X146845686Y-93200453D01*
X146884944Y-93242923D01*
X146910560Y-93298489D01*
X146898623Y-93358498D01*
X146853693Y-93400031D01*
X146827733Y-93407905D01*
X146775554Y-93416169D01*
X146714657Y-93435956D01*
X146699551Y-93439582D01*
X146665486Y-93444977D01*
X146634512Y-93444977D01*
X146604474Y-93440219D01*
X146575020Y-93430649D01*
X146547921Y-93416841D01*
X146522866Y-93398638D01*
X146501363Y-93377135D01*
X146483158Y-93352078D01*
X146471124Y-93328459D01*
X146471123Y-93328458D01*
X146469347Y-93324974D01*
X146459778Y-93295520D01*
X146455020Y-93265482D01*
X146455020Y-93234524D01*
X146459780Y-93204464D01*
X146469348Y-93175020D01*
X146483157Y-93147919D01*
X146501356Y-93122870D01*
X146522870Y-93101356D01*
X146547922Y-93083156D01*
X146575020Y-93069348D01*
X146604470Y-93059779D01*
X146634518Y-93055021D01*
X146665482Y-93055021D01*
X146695525Y-93059779D01*
G37*
G04 #@! TD.AperFunction*
G04 #@! TA.AperFunction,Conductor*
G36*
X132171499Y-75224407D02*
G01*
X132207463Y-75273907D01*
X132207463Y-75335093D01*
X132199045Y-75353999D01*
X132150423Y-75438214D01*
X132138795Y-75481613D01*
X132109500Y-75590943D01*
X132109500Y-75749057D01*
X132150423Y-75901784D01*
X132229480Y-76038716D01*
X132341284Y-76150520D01*
X132478216Y-76229577D01*
X132630943Y-76270500D01*
X132630945Y-76270500D01*
X133389055Y-76270500D01*
X133389057Y-76270500D01*
X133541784Y-76229577D01*
X133587756Y-76203034D01*
X133647604Y-76190313D01*
X133703500Y-76215199D01*
X133732883Y-76263148D01*
X133734500Y-76269181D01*
X133734500Y-76269183D01*
X133770312Y-76402836D01*
X133839495Y-76522665D01*
X133937335Y-76620505D01*
X134057164Y-76689688D01*
X134190817Y-76725500D01*
X134190819Y-76725500D01*
X134329181Y-76725500D01*
X134329183Y-76725500D01*
X134462836Y-76689688D01*
X134582665Y-76620505D01*
X134680505Y-76522665D01*
X134749688Y-76402836D01*
X134780494Y-76287867D01*
X139482375Y-76287867D01*
X139489319Y-76331713D01*
X139502221Y-76413170D01*
X139502222Y-76413174D01*
X139557811Y-76522273D01*
X139559817Y-76526209D01*
X139649525Y-76615917D01*
X139762563Y-76673513D01*
X139833032Y-76684674D01*
X139887547Y-76712450D01*
X139915325Y-76766966D01*
X139926487Y-76837436D01*
X139926488Y-76837440D01*
X139962997Y-76909092D01*
X139984083Y-76950475D01*
X140073791Y-77040183D01*
X140186829Y-77097779D01*
X140312133Y-77117625D01*
X140437437Y-77097779D01*
X140550475Y-77040183D01*
X140640183Y-76950475D01*
X140697779Y-76837437D01*
X140717625Y-76712133D01*
X140697779Y-76586829D01*
X140640183Y-76473791D01*
X140550475Y-76384083D01*
X140546539Y-76382077D01*
X140437440Y-76326488D01*
X140437437Y-76326487D01*
X140422811Y-76324170D01*
X140366966Y-76315325D01*
X140312450Y-76287547D01*
X140284674Y-76233032D01*
X140273513Y-76162563D01*
X140215917Y-76049525D01*
X140126209Y-75959817D01*
X140085326Y-75938986D01*
X140013174Y-75902222D01*
X140013171Y-75902221D01*
X139887867Y-75882375D01*
X139762563Y-75902221D01*
X139762559Y-75902222D01*
X139649526Y-75959816D01*
X139559816Y-76049526D01*
X139502222Y-76162559D01*
X139502221Y-76162563D01*
X139482881Y-76284675D01*
X139482375Y-76287867D01*
X134780494Y-76287867D01*
X134785500Y-76269183D01*
X134785500Y-76130817D01*
X134749688Y-75997164D01*
X134680505Y-75877335D01*
X134582665Y-75779495D01*
X134462836Y-75710312D01*
X134329183Y-75674500D01*
X134190817Y-75674500D01*
X134057164Y-75710312D01*
X134057163Y-75710312D01*
X134057161Y-75710313D01*
X134051170Y-75712795D01*
X134050455Y-75711070D01*
X133999138Y-75721971D01*
X133943246Y-75697077D01*
X133912661Y-75644085D01*
X133910500Y-75623515D01*
X133910500Y-75590944D01*
X133906524Y-75576105D01*
X133869577Y-75438216D01*
X133869576Y-75438214D01*
X133820955Y-75353999D01*
X133808234Y-75294151D01*
X133833121Y-75238256D01*
X133886109Y-75207663D01*
X133906692Y-75205500D01*
X145223850Y-75205500D01*
X145282041Y-75224407D01*
X145293861Y-75234504D01*
X145340710Y-75281364D01*
X145340712Y-75281367D01*
X145565406Y-75506117D01*
X145593177Y-75560637D01*
X145594394Y-75576105D01*
X145594414Y-75867837D01*
X145575511Y-75926029D01*
X145526013Y-75961996D01*
X145464828Y-75962001D01*
X145415325Y-75926040D01*
X145399029Y-75887312D01*
X145399002Y-75887320D01*
X145398931Y-75887078D01*
X145397811Y-75884417D01*
X145397352Y-75881713D01*
X145361408Y-75797617D01*
X145325444Y-75748117D01*
X145301203Y-75720372D01*
X145222693Y-75673464D01*
X145222691Y-75673463D01*
X145222689Y-75673462D01*
X145164499Y-75654556D01*
X145164500Y-75654556D01*
X145101003Y-75644500D01*
X145101000Y-75644500D01*
X144199000Y-75644500D01*
X144166856Y-75647030D01*
X144136206Y-75651883D01*
X144131718Y-75652646D01*
X144131713Y-75652647D01*
X144047617Y-75688591D01*
X143998118Y-75724555D01*
X143970372Y-75748797D01*
X143923464Y-75827307D01*
X143923462Y-75827310D01*
X143904556Y-75885499D01*
X143894500Y-75948996D01*
X143894500Y-75949000D01*
X143894500Y-79199999D01*
X143894500Y-79649999D01*
X143894500Y-79658992D01*
X143894943Y-79670279D01*
X143895134Y-79675123D01*
X143896353Y-79690602D01*
X143896354Y-79690607D01*
X143918115Y-79767769D01*
X143918117Y-79767775D01*
X143945894Y-79822291D01*
X143983681Y-79874300D01*
X143983683Y-79874302D01*
X143983686Y-79874306D01*
X144725694Y-80616314D01*
X144725707Y-80616326D01*
X144725714Y-80616333D01*
X144737533Y-80627260D01*
X144737544Y-80627269D01*
X144749195Y-80637220D01*
X144781167Y-80689386D01*
X144776370Y-80750383D01*
X144736636Y-80796911D01*
X144700393Y-80810284D01*
X144674695Y-80814354D01*
X144674692Y-80814355D01*
X144561659Y-80871949D01*
X144471949Y-80961659D01*
X144414355Y-81074692D01*
X144414354Y-81074696D01*
X144394508Y-81200000D01*
X144411408Y-81306706D01*
X144414354Y-81325303D01*
X144414355Y-81325307D01*
X144459727Y-81414354D01*
X144471950Y-81438342D01*
X144561658Y-81528050D01*
X144674696Y-81585646D01*
X144800000Y-81605492D01*
X144925304Y-81585646D01*
X145038342Y-81528050D01*
X145128050Y-81438342D01*
X145185646Y-81325304D01*
X145205492Y-81200000D01*
X145185646Y-81074696D01*
X145128050Y-80961658D01*
X145040893Y-80874501D01*
X145013118Y-80819987D01*
X145022689Y-80759555D01*
X145065954Y-80716290D01*
X145110899Y-80705500D01*
X150273872Y-80705500D01*
X150332063Y-80724407D01*
X150343876Y-80734496D01*
X151665504Y-82056124D01*
X151693281Y-82110641D01*
X151694500Y-82126128D01*
X151694500Y-82200000D01*
X151694500Y-82899999D01*
X151694500Y-86949999D01*
X151694500Y-87999999D01*
X151694500Y-90941812D01*
X151694957Y-90953458D01*
X151695134Y-90957943D01*
X151696353Y-90973426D01*
X151718115Y-91050588D01*
X151718116Y-91050591D01*
X151745893Y-91105108D01*
X151745897Y-91105114D01*
X151765492Y-91136301D01*
X151765496Y-91136306D01*
X151835697Y-91194915D01*
X151864869Y-91209779D01*
X151890215Y-91222694D01*
X151907312Y-91229552D01*
X151924408Y-91236410D01*
X151970033Y-91239486D01*
X152015658Y-91242563D01*
X152015658Y-91242562D01*
X152015659Y-91242563D01*
X152032051Y-91239966D01*
X152076090Y-91232992D01*
X152080645Y-91231511D01*
X152133519Y-91214332D01*
X152148616Y-91210706D01*
X152184518Y-91205021D01*
X152215481Y-91205021D01*
X152245527Y-91209779D01*
X152274975Y-91219347D01*
X152302078Y-91233157D01*
X152327131Y-91251359D01*
X152348638Y-91272866D01*
X152366841Y-91297921D01*
X152380649Y-91325020D01*
X152390219Y-91354473D01*
X152394977Y-91384510D01*
X152394977Y-91415488D01*
X152390219Y-91445525D01*
X152380648Y-91474981D01*
X152366844Y-91502073D01*
X152348638Y-91527132D01*
X152327132Y-91548638D01*
X152302074Y-91566842D01*
X152274981Y-91580648D01*
X152245525Y-91590219D01*
X152226068Y-91593301D01*
X152215487Y-91594977D01*
X152184513Y-91594977D01*
X152152793Y-91589953D01*
X152126836Y-91582079D01*
X152126715Y-91582023D01*
X152122589Y-91580121D01*
X152108237Y-91574176D01*
X152108235Y-91574175D01*
X152108234Y-91574175D01*
X152071378Y-91566844D01*
X152029593Y-91558532D01*
X151968407Y-91558532D01*
X151968389Y-91558532D01*
X151931717Y-91561834D01*
X151931715Y-91561834D01*
X151931713Y-91561835D01*
X151873124Y-91586877D01*
X151847614Y-91597780D01*
X151798118Y-91633742D01*
X151770372Y-91657984D01*
X151723464Y-91736494D01*
X151723462Y-91736497D01*
X151704556Y-91794686D01*
X151694500Y-91858183D01*
X151694500Y-91860533D01*
X151694256Y-91861283D01*
X151694195Y-91862061D01*
X151694008Y-91862046D01*
X151675593Y-91918724D01*
X151626093Y-91954688D01*
X151568471Y-91954692D01*
X151568286Y-91955465D01*
X151565069Y-91954692D01*
X151564924Y-91954693D01*
X151564509Y-91954558D01*
X151564500Y-91954556D01*
X151501003Y-91944500D01*
X151501000Y-91944500D01*
X148599000Y-91944500D01*
X148581691Y-91945862D01*
X148566850Y-91947030D01*
X148564980Y-91947327D01*
X148504549Y-91937751D01*
X148461287Y-91894484D01*
X148450500Y-91849545D01*
X148450500Y-89920944D01*
X148435510Y-89865001D01*
X148409577Y-89768216D01*
X148330520Y-89631284D01*
X148218716Y-89519480D01*
X148081784Y-89440423D01*
X147929057Y-89399500D01*
X147770943Y-89399500D01*
X147694579Y-89419961D01*
X147618214Y-89440423D01*
X147553999Y-89477498D01*
X147494151Y-89490219D01*
X147438255Y-89465332D01*
X147407663Y-89412343D01*
X147405500Y-89391761D01*
X147405500Y-86741021D01*
X147405500Y-86741008D01*
X147404866Y-86724883D01*
X147404610Y-86721635D01*
X148544508Y-86721635D01*
X148544508Y-86721636D01*
X148564354Y-86846939D01*
X148564355Y-86846943D01*
X148596372Y-86909779D01*
X148621950Y-86959978D01*
X148711658Y-87049686D01*
X148824696Y-87107282D01*
X148950000Y-87127128D01*
X149075304Y-87107282D01*
X149188342Y-87049686D01*
X149188348Y-87049679D01*
X149191810Y-87047166D01*
X149250000Y-87028259D01*
X149308190Y-87047166D01*
X149311654Y-87049682D01*
X149311658Y-87049686D01*
X149424696Y-87107282D01*
X149550000Y-87127128D01*
X149675304Y-87107282D01*
X149788342Y-87049686D01*
X149878050Y-86959978D01*
X149935646Y-86846940D01*
X149955492Y-86721636D01*
X149935646Y-86596332D01*
X149878050Y-86483294D01*
X149788342Y-86393586D01*
X149784406Y-86391580D01*
X149675307Y-86335991D01*
X149675304Y-86335990D01*
X149550000Y-86316144D01*
X149424696Y-86335990D01*
X149424692Y-86335991D01*
X149311656Y-86393586D01*
X149308185Y-86396109D01*
X149249993Y-86415012D01*
X149191815Y-86396109D01*
X149188343Y-86393586D01*
X149075307Y-86335991D01*
X149075304Y-86335990D01*
X148950000Y-86316144D01*
X148824696Y-86335990D01*
X148824692Y-86335991D01*
X148711659Y-86393585D01*
X148621949Y-86483295D01*
X148564355Y-86596328D01*
X148564354Y-86596332D01*
X148544508Y-86721635D01*
X147404610Y-86721635D01*
X147403647Y-86709396D01*
X147381884Y-86632228D01*
X147354107Y-86577711D01*
X147316314Y-86525694D01*
X145358373Y-84567753D01*
X145358366Y-84567747D01*
X145358363Y-84567744D01*
X145333868Y-84546823D01*
X145333842Y-84546802D01*
X145308806Y-84528612D01*
X145305034Y-84525936D01*
X145305030Y-84525934D01*
X145288336Y-84519238D01*
X145220150Y-84491887D01*
X145220146Y-84491886D01*
X145220143Y-84491885D01*
X145159721Y-84482316D01*
X145129232Y-84482310D01*
X145118170Y-84478713D01*
X145095828Y-84482252D01*
X145095793Y-84482258D01*
X145091435Y-84482946D01*
X145091351Y-84482961D01*
X145015486Y-84494977D01*
X144984512Y-84494977D01*
X144935619Y-84487233D01*
X144935616Y-84487233D01*
X144911766Y-84487233D01*
X144853575Y-84468326D01*
X144840260Y-84449999D01*
X146394508Y-84449999D01*
X146394508Y-84450000D01*
X146414354Y-84575303D01*
X146414355Y-84575307D01*
X146442882Y-84631294D01*
X146471950Y-84688342D01*
X146561658Y-84778050D01*
X146674696Y-84835646D01*
X146800000Y-84855492D01*
X146925304Y-84835646D01*
X147038342Y-84778050D01*
X147038348Y-84778043D01*
X147041810Y-84775530D01*
X147100000Y-84756623D01*
X147158190Y-84775530D01*
X147161654Y-84778046D01*
X147161658Y-84778050D01*
X147274696Y-84835646D01*
X147400000Y-84855492D01*
X147525304Y-84835646D01*
X147638342Y-84778050D01*
X147728050Y-84688342D01*
X147785646Y-84575304D01*
X147805492Y-84450000D01*
X147785646Y-84324696D01*
X147728050Y-84211658D01*
X147638342Y-84121950D01*
X147634406Y-84119944D01*
X147525307Y-84064355D01*
X147525304Y-84064354D01*
X147400000Y-84044508D01*
X147274696Y-84064354D01*
X147274692Y-84064355D01*
X147161656Y-84121950D01*
X147158185Y-84124473D01*
X147099993Y-84143376D01*
X147041815Y-84124473D01*
X147038343Y-84121950D01*
X146925307Y-84064355D01*
X146925304Y-84064354D01*
X146800000Y-84044508D01*
X146674696Y-84064354D01*
X146674692Y-84064355D01*
X146561659Y-84121949D01*
X146471949Y-84211659D01*
X146414355Y-84324692D01*
X146414354Y-84324696D01*
X146394508Y-84449999D01*
X144840260Y-84449999D01*
X144817611Y-84418826D01*
X144812766Y-84388233D01*
X144812766Y-84364381D01*
X144811701Y-84357663D01*
X144805021Y-84315480D01*
X144805021Y-84284517D01*
X144817683Y-84204574D01*
X144820213Y-84172427D01*
X144820213Y-84141453D01*
X144820161Y-84136844D01*
X144797816Y-84048160D01*
X144770039Y-83993643D01*
X144732246Y-83941626D01*
X144054369Y-83263749D01*
X144026594Y-83209235D01*
X144036165Y-83148803D01*
X144079430Y-83105538D01*
X144139861Y-83095967D01*
X144200000Y-83105492D01*
X144325304Y-83085646D01*
X144438342Y-83028050D01*
X144528050Y-82938342D01*
X144573063Y-82849999D01*
X150144507Y-82849999D01*
X150159967Y-82947613D01*
X150164353Y-82975302D01*
X150164354Y-82975306D01*
X150221949Y-83088342D01*
X150224472Y-83091814D01*
X150243375Y-83150006D01*
X150224472Y-83208184D01*
X150221949Y-83211655D01*
X150164354Y-83324691D01*
X150164353Y-83324695D01*
X150144507Y-83449998D01*
X150144507Y-83449999D01*
X150164353Y-83575302D01*
X150164354Y-83575306D01*
X150219943Y-83684405D01*
X150221949Y-83688341D01*
X150311657Y-83778049D01*
X150424695Y-83835645D01*
X150549999Y-83855491D01*
X150675303Y-83835645D01*
X150788341Y-83778049D01*
X150878049Y-83688341D01*
X150935645Y-83575303D01*
X150955491Y-83449999D01*
X150935645Y-83324695D01*
X150878049Y-83211657D01*
X150878045Y-83211653D01*
X150875529Y-83208189D01*
X150856622Y-83149999D01*
X150875529Y-83091809D01*
X150878042Y-83088347D01*
X150878049Y-83088341D01*
X150935645Y-82975303D01*
X150955491Y-82849999D01*
X150935645Y-82724695D01*
X150878049Y-82611657D01*
X150788341Y-82521949D01*
X150784405Y-82519943D01*
X150675306Y-82464354D01*
X150675303Y-82464353D01*
X150549999Y-82444507D01*
X150424695Y-82464353D01*
X150424691Y-82464354D01*
X150311658Y-82521948D01*
X150221948Y-82611658D01*
X150164354Y-82724691D01*
X150164353Y-82724695D01*
X150146251Y-82838990D01*
X150144507Y-82849999D01*
X144573063Y-82849999D01*
X144585646Y-82825304D01*
X144605492Y-82700000D01*
X144585646Y-82574696D01*
X144528050Y-82461658D01*
X144438342Y-82371950D01*
X144434406Y-82369944D01*
X144325307Y-82314355D01*
X144325304Y-82314354D01*
X144200000Y-82294508D01*
X144074696Y-82314354D01*
X144074692Y-82314355D01*
X143961659Y-82371949D01*
X143871949Y-82461659D01*
X143814355Y-82574692D01*
X143814354Y-82574696D01*
X143794508Y-82699999D01*
X143794508Y-82700000D01*
X143804941Y-82765873D01*
X143795370Y-82826305D01*
X143752105Y-82869570D01*
X143691673Y-82879141D01*
X143655202Y-82864451D01*
X143654885Y-82865018D01*
X143650644Y-82862643D01*
X143650643Y-82862642D01*
X143580685Y-82823464D01*
X143543823Y-82811487D01*
X143522491Y-82804556D01*
X143522492Y-82804556D01*
X143458995Y-82794500D01*
X143458992Y-82794500D01*
X143089729Y-82794500D01*
X143089726Y-82794500D01*
X143041754Y-82800178D01*
X142996820Y-82810966D01*
X142996812Y-82810968D01*
X142994103Y-82811765D01*
X142976913Y-82816821D01*
X142899477Y-82865477D01*
X142899472Y-82865481D01*
X142856217Y-82908735D01*
X142842627Y-82925013D01*
X142832597Y-82937027D01*
X142801123Y-83015494D01*
X142798547Y-83021915D01*
X142788978Y-83082335D01*
X142788978Y-83146636D01*
X142794977Y-83184512D01*
X142794977Y-83215488D01*
X142790219Y-83245525D01*
X142780649Y-83274979D01*
X142769210Y-83297430D01*
X142766844Y-83302073D01*
X142748638Y-83327132D01*
X142727132Y-83348638D01*
X142702074Y-83366842D01*
X142674981Y-83380648D01*
X142645525Y-83390219D01*
X142620420Y-83394195D01*
X142615487Y-83394977D01*
X142584512Y-83394977D01*
X142566874Y-83392183D01*
X142554473Y-83390219D01*
X142525020Y-83380649D01*
X142497921Y-83366841D01*
X142472866Y-83348638D01*
X142451362Y-83327134D01*
X142433157Y-83302076D01*
X142433155Y-83302073D01*
X142419350Y-83274979D01*
X142409779Y-83245525D01*
X142405021Y-83215481D01*
X142405022Y-83184511D01*
X142405634Y-83180648D01*
X142411022Y-83146635D01*
X142412919Y-83098366D01*
X142409293Y-83052286D01*
X142406623Y-83031713D01*
X142370679Y-82947617D01*
X142334715Y-82898117D01*
X142310474Y-82870372D01*
X142231964Y-82823464D01*
X142231962Y-82823463D01*
X142231960Y-82823462D01*
X142173770Y-82804556D01*
X142173771Y-82804556D01*
X142110274Y-82794500D01*
X142110271Y-82794500D01*
X138204492Y-82794500D01*
X138172348Y-82797030D01*
X138141698Y-82801883D01*
X138137210Y-82802646D01*
X138137205Y-82802647D01*
X138131067Y-82805271D01*
X138070128Y-82810753D01*
X138017605Y-82779369D01*
X137993560Y-82723106D01*
X138007178Y-82663455D01*
X138022153Y-82644238D01*
X138028050Y-82638342D01*
X138085646Y-82525304D01*
X138105492Y-82400000D01*
X138085646Y-82274696D01*
X138028050Y-82161658D01*
X138028046Y-82161654D01*
X138025530Y-82158190D01*
X138006623Y-82100000D01*
X138025530Y-82041810D01*
X138028043Y-82038348D01*
X138028050Y-82038342D01*
X138085646Y-81925304D01*
X138105492Y-81800000D01*
X138085646Y-81674696D01*
X138028050Y-81561658D01*
X137938342Y-81471950D01*
X137872383Y-81438342D01*
X137825307Y-81414355D01*
X137825304Y-81414354D01*
X137700000Y-81394508D01*
X137574696Y-81414354D01*
X137574692Y-81414355D01*
X137461659Y-81471949D01*
X137371949Y-81561659D01*
X137314355Y-81674692D01*
X137314354Y-81674696D01*
X137294508Y-81799999D01*
X137294508Y-81800000D01*
X137314354Y-81925303D01*
X137314355Y-81925307D01*
X137371950Y-82038343D01*
X137374473Y-82041815D01*
X137393376Y-82100007D01*
X137374473Y-82158185D01*
X137371950Y-82161656D01*
X137314355Y-82274692D01*
X137314354Y-82274696D01*
X137294508Y-82400000D01*
X137313822Y-82521948D01*
X137314354Y-82525303D01*
X137314355Y-82525307D01*
X137349179Y-82593652D01*
X137371950Y-82638342D01*
X137380938Y-82647330D01*
X137408714Y-82701845D01*
X137399143Y-82762277D01*
X137355878Y-82805542D01*
X137295446Y-82815113D01*
X137280343Y-82811487D01*
X137259016Y-82804558D01*
X137259008Y-82804556D01*
X137195511Y-82794500D01*
X137195508Y-82794500D01*
X134866069Y-82794500D01*
X134866065Y-82794500D01*
X134866055Y-82794501D01*
X134807712Y-82802960D01*
X134807700Y-82802963D01*
X134753773Y-82818937D01*
X134724374Y-82830159D01*
X134724373Y-82830160D01*
X134714428Y-82837970D01*
X134656984Y-82859039D01*
X134598128Y-82842319D01*
X134583286Y-82830116D01*
X134582665Y-82829495D01*
X134462836Y-82760312D01*
X134329183Y-82724500D01*
X134190817Y-82724500D01*
X134057164Y-82760312D01*
X133937331Y-82829497D01*
X133935175Y-82831654D01*
X133933227Y-82832646D01*
X133932185Y-82833446D01*
X133932036Y-82833252D01*
X133880657Y-82859427D01*
X133820225Y-82849851D01*
X133814400Y-82846632D01*
X133813165Y-82845894D01*
X133775624Y-82823464D01*
X133775621Y-82823463D01*
X133775620Y-82823462D01*
X133717430Y-82804556D01*
X133717431Y-82804556D01*
X133653934Y-82794500D01*
X133653931Y-82794500D01*
X131908893Y-82794500D01*
X131850702Y-82775593D01*
X131814738Y-82726093D01*
X131814738Y-82664907D01*
X131824690Y-82645373D01*
X131824513Y-82645283D01*
X131828051Y-82638340D01*
X131885646Y-82525304D01*
X131905492Y-82400000D01*
X131885646Y-82274696D01*
X131828050Y-82161658D01*
X131828046Y-82161654D01*
X131825530Y-82158190D01*
X131806623Y-82100000D01*
X131825530Y-82041810D01*
X131828043Y-82038348D01*
X131828050Y-82038342D01*
X131885646Y-81925304D01*
X131905492Y-81800000D01*
X131892819Y-81719986D01*
X131902390Y-81659555D01*
X131945655Y-81616290D01*
X131990600Y-81605500D01*
X134258978Y-81605500D01*
X134258992Y-81605500D01*
X134275117Y-81604866D01*
X134290604Y-81603647D01*
X134367772Y-81581884D01*
X134422289Y-81554107D01*
X134474306Y-81516314D01*
X134716314Y-81274306D01*
X134727269Y-81262456D01*
X134737358Y-81250643D01*
X134776536Y-81180685D01*
X134795443Y-81122494D01*
X134802706Y-81076636D01*
X134805500Y-81058995D01*
X134805500Y-80505399D01*
X134799822Y-80457427D01*
X134789032Y-80412482D01*
X134783178Y-80392582D01*
X134734520Y-80315144D01*
X134734518Y-80315142D01*
X134691264Y-80271887D01*
X134691257Y-80271881D01*
X134691255Y-80271879D01*
X134662973Y-80248267D01*
X134578091Y-80214219D01*
X134578087Y-80214218D01*
X134578084Y-80214217D01*
X134578083Y-80214216D01*
X134576967Y-80214040D01*
X134576404Y-80213753D01*
X134572723Y-80212737D01*
X134572931Y-80211983D01*
X134522453Y-80186258D01*
X134494682Y-80131748D01*
X134485646Y-80074696D01*
X134428050Y-79961658D01*
X134338342Y-79871950D01*
X134290219Y-79847430D01*
X134225307Y-79814355D01*
X134225304Y-79814354D01*
X134134675Y-79800000D01*
X135294508Y-79800000D01*
X135314253Y-79924669D01*
X135314354Y-79925303D01*
X135314355Y-79925307D01*
X135317650Y-79931773D01*
X135371950Y-80038342D01*
X135461658Y-80128050D01*
X135574696Y-80185646D01*
X135700000Y-80205492D01*
X135825304Y-80185646D01*
X135938342Y-80128050D01*
X136028050Y-80038342D01*
X136085646Y-79925304D01*
X136105492Y-79800000D01*
X136085646Y-79674696D01*
X136028050Y-79561658D01*
X135938342Y-79471950D01*
X135931300Y-79468362D01*
X135825307Y-79414355D01*
X135825304Y-79414354D01*
X135700000Y-79394508D01*
X135574696Y-79414354D01*
X135574692Y-79414355D01*
X135461659Y-79471949D01*
X135371949Y-79561659D01*
X135314355Y-79674692D01*
X135314354Y-79674696D01*
X135297674Y-79780013D01*
X135294508Y-79800000D01*
X134134675Y-79800000D01*
X134100000Y-79794508D01*
X133974696Y-79814354D01*
X133974692Y-79814355D01*
X133861659Y-79871949D01*
X133829611Y-79903997D01*
X133775094Y-79931773D01*
X133722655Y-79924669D01*
X133722489Y-79925182D01*
X133719662Y-79924263D01*
X133718662Y-79924128D01*
X133717197Y-79923462D01*
X133659007Y-79904556D01*
X133659008Y-79904556D01*
X133595511Y-79894500D01*
X133595508Y-79894500D01*
X132890600Y-79894500D01*
X132832409Y-79875593D01*
X132796445Y-79826093D01*
X132792819Y-79780013D01*
X132794758Y-79767775D01*
X132805492Y-79700000D01*
X132785646Y-79574696D01*
X132728050Y-79461658D01*
X132728046Y-79461654D01*
X132725530Y-79458190D01*
X132706623Y-79400000D01*
X132725530Y-79341810D01*
X132728043Y-79338348D01*
X132728050Y-79338342D01*
X132785646Y-79225304D01*
X132805492Y-79100000D01*
X132806711Y-79092304D01*
X132809320Y-79092717D01*
X132824399Y-79046309D01*
X132873899Y-79010345D01*
X132904492Y-79005500D01*
X134258978Y-79005500D01*
X134258992Y-79005500D01*
X134275117Y-79004866D01*
X134290604Y-79003647D01*
X134367772Y-78981884D01*
X134422289Y-78954107D01*
X134474306Y-78916314D01*
X134616314Y-78774306D01*
X134627269Y-78762456D01*
X134637358Y-78750643D01*
X134651719Y-78724999D01*
X135319508Y-78724999D01*
X135319508Y-78725000D01*
X135339354Y-78850303D01*
X135339355Y-78850307D01*
X135394944Y-78959406D01*
X135396950Y-78963342D01*
X135486658Y-79053050D01*
X135599696Y-79110646D01*
X135725000Y-79130492D01*
X135850304Y-79110646D01*
X135963342Y-79053050D01*
X136053050Y-78963342D01*
X136110646Y-78850304D01*
X136130492Y-78725000D01*
X136110646Y-78599696D01*
X136053050Y-78486658D01*
X135963342Y-78396950D01*
X135959406Y-78394944D01*
X135850307Y-78339355D01*
X135850304Y-78339354D01*
X135725000Y-78319508D01*
X135599696Y-78339354D01*
X135599692Y-78339355D01*
X135486659Y-78396949D01*
X135396949Y-78486659D01*
X135339355Y-78599692D01*
X135339354Y-78599696D01*
X135319508Y-78724999D01*
X134651719Y-78724999D01*
X134676536Y-78680685D01*
X134695443Y-78622494D01*
X134702327Y-78579026D01*
X134705500Y-78558995D01*
X134705500Y-78141021D01*
X134705500Y-78141008D01*
X134704866Y-78124883D01*
X134703647Y-78109396D01*
X134681884Y-78032228D01*
X134654107Y-77977711D01*
X134616314Y-77925694D01*
X134474306Y-77783686D01*
X134474292Y-77783673D01*
X134474285Y-77783666D01*
X134462465Y-77772739D01*
X134453967Y-77765481D01*
X134450643Y-77762642D01*
X134380685Y-77723464D01*
X134355940Y-77715424D01*
X134322491Y-77704556D01*
X134322492Y-77704556D01*
X134258995Y-77694500D01*
X134258992Y-77694500D01*
X131610899Y-77694500D01*
X131552708Y-77675593D01*
X131516744Y-77626093D01*
X131516744Y-77564907D01*
X131540893Y-77525498D01*
X131628050Y-77438342D01*
X131685646Y-77325304D01*
X131705492Y-77200000D01*
X131685646Y-77074696D01*
X131628050Y-76961658D01*
X131628046Y-76961654D01*
X131625530Y-76958190D01*
X131606623Y-76900000D01*
X131625530Y-76841810D01*
X131628043Y-76838348D01*
X131628050Y-76838342D01*
X131685646Y-76725304D01*
X131705492Y-76600000D01*
X131685646Y-76474696D01*
X131628050Y-76361658D01*
X131538342Y-76271950D01*
X131490586Y-76247617D01*
X131425307Y-76214355D01*
X131425304Y-76214354D01*
X131300000Y-76194508D01*
X131174696Y-76214354D01*
X131174692Y-76214355D01*
X131061658Y-76271950D01*
X131061654Y-76271952D01*
X131054924Y-76278683D01*
X131000406Y-76306459D01*
X130939974Y-76296885D01*
X130921478Y-76284675D01*
X130864300Y-76236941D01*
X130864299Y-76236940D01*
X130864294Y-76236936D01*
X130856628Y-76233030D01*
X130809785Y-76209163D01*
X130809780Y-76209161D01*
X130809778Y-76209160D01*
X130748629Y-76189293D01*
X130747447Y-76189009D01*
X130745173Y-76188170D01*
X130744930Y-76188091D01*
X130744933Y-76188081D01*
X130725622Y-76180956D01*
X130697922Y-76166841D01*
X130672866Y-76148638D01*
X130651360Y-76127132D01*
X130633156Y-76102075D01*
X130619350Y-76074981D01*
X130609778Y-76045525D01*
X130605021Y-76015484D01*
X130605022Y-75992798D01*
X130604945Y-75992798D01*
X130604945Y-75992787D01*
X130605022Y-75991801D01*
X130605023Y-75984511D01*
X130606162Y-75977321D01*
X130606162Y-75977317D01*
X130609781Y-75954465D01*
X130619348Y-75925022D01*
X130633158Y-75897918D01*
X130651355Y-75872871D01*
X130672870Y-75851356D01*
X130697919Y-75833157D01*
X130725020Y-75819348D01*
X130754470Y-75809779D01*
X130784518Y-75805021D01*
X130815481Y-75805021D01*
X130845527Y-75809779D01*
X130874977Y-75819348D01*
X130904831Y-75834560D01*
X130924176Y-75847486D01*
X130938698Y-75859890D01*
X130942406Y-75863057D01*
X130955910Y-75872868D01*
X130967461Y-75881260D01*
X130971222Y-75883928D01*
X131056104Y-75917976D01*
X131056109Y-75917976D01*
X131056110Y-75917977D01*
X131107020Y-75926040D01*
X131116536Y-75927547D01*
X131153292Y-75930025D01*
X131220155Y-75913177D01*
X131241973Y-75907680D01*
X131241973Y-75907679D01*
X131241976Y-75907679D01*
X131296492Y-75879902D01*
X131348508Y-75842111D01*
X131648836Y-75541783D01*
X131956125Y-75234496D01*
X132010641Y-75206719D01*
X132026128Y-75205500D01*
X132113308Y-75205500D01*
X132171499Y-75224407D01*
G37*
G04 #@! TD.AperFunction*
G04 #@! TA.AperFunction,Conductor*
G36*
X134345524Y-87509779D02*
G01*
X134374979Y-87519350D01*
X134379086Y-87521443D01*
X134379087Y-87521444D01*
X134445046Y-87555052D01*
X134450673Y-87557919D01*
X134493938Y-87601183D01*
X134503509Y-87661615D01*
X134503509Y-87661618D01*
X134496415Y-87706396D01*
X134496416Y-87706400D01*
X134490219Y-87745524D01*
X134480648Y-87774981D01*
X134466844Y-87802073D01*
X134448638Y-87827132D01*
X134427132Y-87848638D01*
X134402074Y-87866842D01*
X134374981Y-87880648D01*
X134345525Y-87890219D01*
X134320420Y-87894195D01*
X134315487Y-87894977D01*
X134284512Y-87894977D01*
X134266874Y-87892183D01*
X134254473Y-87890219D01*
X134225020Y-87880649D01*
X134197921Y-87866841D01*
X134172866Y-87848638D01*
X134151363Y-87827135D01*
X134133158Y-87802077D01*
X134119350Y-87774978D01*
X134109779Y-87745523D01*
X134098244Y-87672695D01*
X134097814Y-87668793D01*
X134097708Y-87668806D01*
X134097479Y-87666869D01*
X134097478Y-87666856D01*
X134096636Y-87661541D01*
X134106206Y-87601111D01*
X134149470Y-87557845D01*
X134154954Y-87555050D01*
X134154955Y-87555051D01*
X134225021Y-87519348D01*
X134254471Y-87509779D01*
X134284518Y-87505021D01*
X134315481Y-87505021D01*
X134345524Y-87509779D01*
G37*
G04 #@! TD.AperFunction*
G04 #@! TA.AperFunction,Conductor*
G36*
X141945527Y-86909779D02*
G01*
X141974975Y-86919347D01*
X142002078Y-86933157D01*
X142027131Y-86951359D01*
X142048638Y-86972866D01*
X142066841Y-86997921D01*
X142080649Y-87025020D01*
X142090219Y-87054473D01*
X142092052Y-87066047D01*
X142093360Y-87074306D01*
X142094977Y-87084510D01*
X142094977Y-87115488D01*
X142089802Y-87148158D01*
X142083486Y-87170553D01*
X142076978Y-87186263D01*
X142061335Y-87264909D01*
X142061335Y-87295500D01*
X142042428Y-87353691D01*
X141992928Y-87389655D01*
X141962335Y-87394500D01*
X141837863Y-87394500D01*
X141779672Y-87375593D01*
X141743708Y-87326093D01*
X141739087Y-87288841D01*
X141739761Y-87278839D01*
X141730191Y-87218414D01*
X141730190Y-87218412D01*
X141730190Y-87218409D01*
X141715298Y-87172580D01*
X141711672Y-87157476D01*
X141710081Y-87147430D01*
X141705021Y-87115480D01*
X141705021Y-87084517D01*
X141709780Y-87054468D01*
X141719350Y-87025017D01*
X141733157Y-86997919D01*
X141751356Y-86972870D01*
X141772870Y-86951356D01*
X141797919Y-86933157D01*
X141825020Y-86919348D01*
X141854470Y-86909779D01*
X141884518Y-86905021D01*
X141915481Y-86905021D01*
X141945527Y-86909779D01*
G37*
G04 #@! TD.AperFunction*
G04 #@! TA.AperFunction,Conductor*
G36*
X137947717Y-82800047D02*
G01*
X137975495Y-82854564D01*
X137965924Y-82914996D01*
X137962703Y-82920823D01*
X137928957Y-82977304D01*
X137928956Y-82977308D01*
X137923004Y-82995625D01*
X137922982Y-82995655D01*
X137910730Y-83033401D01*
X137910718Y-83033435D01*
X137908548Y-83040112D01*
X137906367Y-83043113D01*
X137904049Y-83052770D01*
X137904480Y-83055488D01*
X137896415Y-83106396D01*
X137896416Y-83106400D01*
X137890219Y-83145524D01*
X137880649Y-83174978D01*
X137869210Y-83197430D01*
X137866844Y-83202073D01*
X137848638Y-83227132D01*
X137827132Y-83248638D01*
X137802074Y-83266842D01*
X137786107Y-83274979D01*
X137774981Y-83280648D01*
X137745525Y-83290219D01*
X137720420Y-83294195D01*
X137715487Y-83294977D01*
X137684512Y-83294977D01*
X137666874Y-83292183D01*
X137654473Y-83290219D01*
X137625020Y-83280649D01*
X137597921Y-83266841D01*
X137572866Y-83248638D01*
X137551363Y-83227135D01*
X137533158Y-83202077D01*
X137519350Y-83174978D01*
X137509777Y-83145515D01*
X137505110Y-83116048D01*
X137498240Y-83072668D01*
X137497783Y-83068777D01*
X137497707Y-83068787D01*
X137497477Y-83066849D01*
X137492632Y-83036253D01*
X137491861Y-83031718D01*
X137491860Y-83031713D01*
X137455916Y-82947616D01*
X137455914Y-82947613D01*
X137441633Y-82927957D01*
X137422725Y-82869766D01*
X137441632Y-82811576D01*
X137491132Y-82775612D01*
X137552317Y-82775611D01*
X137566666Y-82781554D01*
X137574696Y-82785646D01*
X137700000Y-82805492D01*
X137825304Y-82785646D01*
X137832768Y-82781843D01*
X137893200Y-82772271D01*
X137947717Y-82800047D01*
G37*
G04 #@! TD.AperFunction*
G04 #@! TA.AperFunction,Conductor*
G36*
X130945524Y-81009779D02*
G01*
X130974973Y-81019347D01*
X130989564Y-81026782D01*
X130989566Y-81026783D01*
X130989568Y-81026784D01*
X130989569Y-81026785D01*
X131068793Y-81067151D01*
X131072188Y-81068965D01*
X131074219Y-81070102D01*
X131095859Y-81086480D01*
X131310829Y-81301450D01*
X131338606Y-81355967D01*
X131329035Y-81416399D01*
X131285773Y-81459662D01*
X131261659Y-81471949D01*
X131171949Y-81561659D01*
X131114355Y-81674692D01*
X131114354Y-81674696D01*
X131102281Y-81750923D01*
X131076883Y-81800770D01*
X131084593Y-81806372D01*
X131102281Y-81849076D01*
X131114354Y-81925303D01*
X131114355Y-81925307D01*
X131171950Y-82038343D01*
X131174473Y-82041815D01*
X131193376Y-82100007D01*
X131174473Y-82158185D01*
X131171950Y-82161656D01*
X131114355Y-82274692D01*
X131114354Y-82274696D01*
X131102281Y-82350923D01*
X131076883Y-82400770D01*
X131084593Y-82406372D01*
X131102280Y-82449075D01*
X131113823Y-82521949D01*
X131114354Y-82525303D01*
X131114355Y-82525307D01*
X131149179Y-82593652D01*
X131171950Y-82638342D01*
X131232777Y-82699169D01*
X131260553Y-82753684D01*
X131250982Y-82814116D01*
X131215445Y-82852996D01*
X131195553Y-82865495D01*
X131195550Y-82865497D01*
X131136944Y-82935694D01*
X131136940Y-82935700D01*
X131109163Y-82990215D01*
X131089293Y-83051371D01*
X131089012Y-83052543D01*
X131088181Y-83054794D01*
X131088094Y-83055063D01*
X131088083Y-83055059D01*
X131080960Y-83074365D01*
X131066842Y-83102074D01*
X131048636Y-83127134D01*
X131027132Y-83148638D01*
X131002074Y-83166842D01*
X130986109Y-83174978D01*
X130974981Y-83180648D01*
X130945525Y-83190219D01*
X130920420Y-83194195D01*
X130915487Y-83194977D01*
X130884512Y-83194977D01*
X130866874Y-83192183D01*
X130854473Y-83190219D01*
X130825020Y-83180649D01*
X130797921Y-83166841D01*
X130772866Y-83148638D01*
X130751362Y-83127134D01*
X130733156Y-83102075D01*
X130725740Y-83087521D01*
X130725741Y-83087521D01*
X130719349Y-83074977D01*
X130709779Y-83045521D01*
X130708312Y-83036258D01*
X130705022Y-83015488D01*
X130705022Y-82984518D01*
X130709780Y-82954474D01*
X130719352Y-82925013D01*
X130733155Y-82897924D01*
X130751361Y-82872866D01*
X130801293Y-82822935D01*
X130801300Y-82822927D01*
X130806955Y-82817272D01*
X130806956Y-82817273D01*
X130812465Y-82811765D01*
X130812468Y-82811760D01*
X130812472Y-82811757D01*
X130814314Y-82809696D01*
X130814368Y-82809744D01*
X130819054Y-82804498D01*
X130826403Y-82797150D01*
X130829628Y-82793852D01*
X130834793Y-82785206D01*
X130840541Y-82776911D01*
X130845212Y-82768461D01*
X130845326Y-82768524D01*
X130847358Y-82764175D01*
X130876536Y-82715342D01*
X130895443Y-82657151D01*
X130905500Y-82593649D01*
X130905500Y-82464563D01*
X130924407Y-82406372D01*
X130934759Y-82398850D01*
X130916290Y-82380381D01*
X130905500Y-82335436D01*
X130905500Y-81864563D01*
X130924407Y-81806372D01*
X130934759Y-81798850D01*
X130916290Y-81780381D01*
X130905500Y-81735436D01*
X130905500Y-81606356D01*
X130903870Y-81585645D01*
X130902970Y-81574206D01*
X130898125Y-81543613D01*
X130898116Y-81543556D01*
X130897353Y-81539068D01*
X130897352Y-81539063D01*
X130887630Y-81516318D01*
X130861407Y-81454966D01*
X130831872Y-81414315D01*
X130814145Y-81389917D01*
X130812479Y-81388251D01*
X130812478Y-81388249D01*
X130806970Y-81382741D01*
X130806966Y-81382738D01*
X130751363Y-81327135D01*
X130733159Y-81302078D01*
X130719351Y-81274980D01*
X130709779Y-81245524D01*
X130705021Y-81215480D01*
X130705021Y-81184517D01*
X130709780Y-81154468D01*
X130719348Y-81125020D01*
X130733157Y-81097919D01*
X130751356Y-81072870D01*
X130772870Y-81051356D01*
X130797919Y-81033157D01*
X130825020Y-81019348D01*
X130854468Y-81009780D01*
X130884518Y-81005021D01*
X130915481Y-81005021D01*
X130945524Y-81009779D01*
G37*
G04 #@! TD.AperFunction*
G04 #@! TA.AperFunction,Conductor*
G36*
X131970090Y-79131200D02*
G01*
X132006055Y-79180699D01*
X132009682Y-79195806D01*
X132014354Y-79225303D01*
X132014355Y-79225307D01*
X132071950Y-79338343D01*
X132074473Y-79341815D01*
X132093376Y-79400007D01*
X132074473Y-79458185D01*
X132071950Y-79461656D01*
X132014355Y-79574692D01*
X132014354Y-79574696D01*
X131994508Y-79699999D01*
X131994508Y-79700001D01*
X132004032Y-79760137D01*
X131994460Y-79820569D01*
X131951195Y-79863833D01*
X131890763Y-79873404D01*
X131836247Y-79845627D01*
X131586275Y-79595655D01*
X131568070Y-79570597D01*
X131555051Y-79545046D01*
X131519348Y-79474977D01*
X131509780Y-79445528D01*
X131507334Y-79430083D01*
X131507333Y-79430083D01*
X131505021Y-79415484D01*
X131505021Y-79384516D01*
X131507244Y-79370490D01*
X131507244Y-79370488D01*
X131509780Y-79354469D01*
X131519348Y-79325022D01*
X131533158Y-79297918D01*
X131551355Y-79272871D01*
X131572870Y-79251356D01*
X131597920Y-79233157D01*
X131625020Y-79219348D01*
X131654476Y-79209779D01*
X131706899Y-79201477D01*
X131706899Y-79201476D01*
X131706902Y-79201476D01*
X131768050Y-79181608D01*
X131822565Y-79153831D01*
X131853710Y-79131202D01*
X131911898Y-79112294D01*
X131970090Y-79131200D01*
G37*
G04 #@! TD.AperFunction*
G04 #@! TA.AperFunction,Conductor*
G36*
X131036756Y-77507393D02*
G01*
X131055982Y-77522374D01*
X131061658Y-77528050D01*
X131074115Y-77534397D01*
X131118889Y-77557211D01*
X131162153Y-77600476D01*
X131171724Y-77660908D01*
X131143946Y-77715424D01*
X131126616Y-77729245D01*
X131068950Y-77765480D01*
X131068946Y-77765483D01*
X131025683Y-77808747D01*
X130987896Y-77860757D01*
X130987896Y-77860758D01*
X130966842Y-77902076D01*
X130948638Y-77927132D01*
X130927132Y-77948638D01*
X130902074Y-77966842D01*
X130880751Y-77977708D01*
X130874981Y-77980648D01*
X130845525Y-77990219D01*
X130820420Y-77994195D01*
X130815487Y-77994977D01*
X130784512Y-77994977D01*
X130766874Y-77992183D01*
X130754473Y-77990219D01*
X130725020Y-77980649D01*
X130697921Y-77966841D01*
X130672866Y-77948638D01*
X130651363Y-77927135D01*
X130633158Y-77902077D01*
X130619350Y-77874978D01*
X130609779Y-77845523D01*
X130605021Y-77815480D01*
X130605021Y-77784517D01*
X130609780Y-77754468D01*
X130619348Y-77725020D01*
X130633157Y-77697919D01*
X130651356Y-77672870D01*
X130672870Y-77651356D01*
X130697919Y-77633157D01*
X130725529Y-77619088D01*
X130751154Y-77610203D01*
X130764452Y-77607559D01*
X130779558Y-77603933D01*
X130852383Y-77570362D01*
X130901883Y-77534398D01*
X130920846Y-77517829D01*
X130977104Y-77493781D01*
X131036756Y-77507393D01*
G37*
G04 #@! TD.AperFunction*
G04 #@! TA.AperFunction,Conductor*
G36*
X164400897Y-72400016D02*
G01*
X164536676Y-72402437D01*
X164548984Y-72403428D01*
X164818667Y-72442202D01*
X164832457Y-72445201D01*
X165093027Y-72521712D01*
X165106260Y-72526647D01*
X165353286Y-72639460D01*
X165365675Y-72646226D01*
X165469032Y-72712650D01*
X165594132Y-72793047D01*
X165605439Y-72801512D01*
X165810668Y-72979343D01*
X165820656Y-72989331D01*
X165998487Y-73194560D01*
X166006952Y-73205867D01*
X166153771Y-73434320D01*
X166160541Y-73446718D01*
X166273351Y-73693738D01*
X166278287Y-73706972D01*
X166354796Y-73967536D01*
X166357798Y-73981339D01*
X166396570Y-74251007D01*
X166397562Y-74263330D01*
X166399984Y-74399101D01*
X166400000Y-74400867D01*
X166400000Y-114399132D01*
X166399984Y-114400898D01*
X166397562Y-114536669D01*
X166396570Y-114548992D01*
X166357798Y-114818660D01*
X166354796Y-114832463D01*
X166278287Y-115093027D01*
X166273351Y-115106261D01*
X166160541Y-115353281D01*
X166153771Y-115365679D01*
X166006952Y-115594132D01*
X165998487Y-115605439D01*
X165820656Y-115810668D01*
X165810668Y-115820656D01*
X165605439Y-115998487D01*
X165594132Y-116006952D01*
X165365679Y-116153771D01*
X165353281Y-116160541D01*
X165106261Y-116273351D01*
X165093027Y-116278287D01*
X164832463Y-116354796D01*
X164818660Y-116357798D01*
X164548992Y-116396570D01*
X164536669Y-116397562D01*
X164405773Y-116399897D01*
X164400896Y-116399984D01*
X164399132Y-116400000D01*
X151599988Y-116400000D01*
X151501748Y-116402406D01*
X151309014Y-116440743D01*
X151127464Y-116515944D01*
X151127450Y-116515951D01*
X150964078Y-116625113D01*
X150825113Y-116764078D01*
X150715951Y-116927450D01*
X150715944Y-116927464D01*
X150640743Y-117109014D01*
X150602406Y-117301748D01*
X150600000Y-117399988D01*
X150600000Y-122758992D01*
X150581093Y-122817183D01*
X150571004Y-122828996D01*
X150017147Y-123382853D01*
X149964152Y-123441278D01*
X149903835Y-123586883D01*
X149903834Y-123586886D01*
X149900000Y-123665695D01*
X149900000Y-124500005D01*
X149901921Y-124539396D01*
X149901922Y-124539401D01*
X149932075Y-124612199D01*
X149932076Y-124612200D01*
X149932077Y-124612202D01*
X149987798Y-124667923D01*
X150060600Y-124698078D01*
X150073733Y-124698718D01*
X150099994Y-124700000D01*
X150100000Y-124700000D01*
X150495031Y-124700000D01*
X150553222Y-124718907D01*
X150565035Y-124728996D01*
X150571004Y-124734965D01*
X150598781Y-124789482D01*
X150600000Y-124804969D01*
X150600000Y-126201906D01*
X150599882Y-126206733D01*
X150596992Y-126265937D01*
X150589573Y-126298999D01*
X150542416Y-126412834D01*
X150524291Y-126441447D01*
X150484477Y-126485354D01*
X150481143Y-126488856D01*
X149470000Y-127500000D01*
X139600000Y-127500000D01*
X139600000Y-126799999D01*
X144599508Y-126799999D01*
X144599508Y-126800000D01*
X144619354Y-126925303D01*
X144619355Y-126925307D01*
X144674944Y-127034406D01*
X144676950Y-127038342D01*
X144766658Y-127128050D01*
X144879696Y-127185646D01*
X145005000Y-127205492D01*
X145130304Y-127185646D01*
X145243342Y-127128050D01*
X145333050Y-127038342D01*
X145390646Y-126925304D01*
X145410492Y-126800000D01*
X145390646Y-126674696D01*
X145333050Y-126561658D01*
X145243342Y-126471950D01*
X145183477Y-126441447D01*
X145130307Y-126414355D01*
X145130304Y-126414354D01*
X145005000Y-126394508D01*
X144879696Y-126414354D01*
X144879692Y-126414355D01*
X144766659Y-126471949D01*
X144676949Y-126561659D01*
X144619355Y-126674692D01*
X144619354Y-126674696D01*
X144599508Y-126799999D01*
X139600000Y-126799999D01*
X139600000Y-117600000D01*
X139600000Y-117400000D01*
X139597593Y-117301746D01*
X139559256Y-117109013D01*
X139484055Y-116927463D01*
X139484053Y-116927460D01*
X139484048Y-116927450D01*
X139374886Y-116764078D01*
X139374883Y-116764075D01*
X139374881Y-116764072D01*
X139235928Y-116625119D01*
X139235924Y-116625116D01*
X139235921Y-116625113D01*
X139072549Y-116515951D01*
X139072535Y-116515944D01*
X138890985Y-116440743D01*
X138698249Y-116402406D01*
X138698253Y-116402406D01*
X138600012Y-116400000D01*
X138600000Y-116400000D01*
X126100868Y-116400000D01*
X126099103Y-116399984D01*
X126094027Y-116399893D01*
X125963330Y-116397562D01*
X125951007Y-116396570D01*
X125681339Y-116357798D01*
X125667536Y-116354796D01*
X125406972Y-116278287D01*
X125393738Y-116273351D01*
X125146718Y-116160541D01*
X125134320Y-116153771D01*
X124905867Y-116006952D01*
X124894560Y-115998487D01*
X124689331Y-115820656D01*
X124679343Y-115810668D01*
X124501512Y-115605439D01*
X124493047Y-115594132D01*
X124346228Y-115365679D01*
X124339458Y-115353281D01*
X124226648Y-115106261D01*
X124221712Y-115093027D01*
X124145203Y-114832463D01*
X124142202Y-114818667D01*
X124103428Y-114548984D01*
X124102437Y-114536676D01*
X124100016Y-114400897D01*
X124100000Y-114399132D01*
X124100000Y-113897644D01*
X125199500Y-113897644D01*
X125199500Y-114102355D01*
X125231521Y-114304529D01*
X125294780Y-114499219D01*
X125387712Y-114681609D01*
X125387714Y-114681613D01*
X125508029Y-114847213D01*
X125508031Y-114847215D01*
X125508034Y-114847219D01*
X125652781Y-114991966D01*
X125652784Y-114991968D01*
X125652786Y-114991970D01*
X125818386Y-115112285D01*
X125818390Y-115112287D01*
X126000781Y-115205220D01*
X126195466Y-115268477D01*
X126195467Y-115268477D01*
X126195470Y-115268478D01*
X126397645Y-115300500D01*
X126397648Y-115300500D01*
X126602355Y-115300500D01*
X126804529Y-115268478D01*
X126804530Y-115268477D01*
X126804534Y-115268477D01*
X126999219Y-115205220D01*
X127181610Y-115112287D01*
X127347219Y-114991966D01*
X127491966Y-114847219D01*
X127612287Y-114681610D01*
X127705220Y-114499219D01*
X127768477Y-114304534D01*
X127800500Y-114102352D01*
X127800500Y-113897648D01*
X127800500Y-113897644D01*
X162699500Y-113897644D01*
X162699500Y-114102355D01*
X162731521Y-114304529D01*
X162794780Y-114499219D01*
X162887712Y-114681609D01*
X162887714Y-114681613D01*
X163008029Y-114847213D01*
X163008031Y-114847215D01*
X163008034Y-114847219D01*
X163152781Y-114991966D01*
X163152784Y-114991968D01*
X163152786Y-114991970D01*
X163318386Y-115112285D01*
X163318390Y-115112287D01*
X163500781Y-115205220D01*
X163695466Y-115268477D01*
X163695467Y-115268477D01*
X163695470Y-115268478D01*
X163897645Y-115300500D01*
X163897648Y-115300500D01*
X164102355Y-115300500D01*
X164304529Y-115268478D01*
X164304530Y-115268477D01*
X164304534Y-115268477D01*
X164499219Y-115205220D01*
X164681610Y-115112287D01*
X164847219Y-114991966D01*
X164991966Y-114847219D01*
X165112287Y-114681610D01*
X165205220Y-114499219D01*
X165268477Y-114304534D01*
X165300500Y-114102352D01*
X165300500Y-113897648D01*
X165300500Y-113897644D01*
X165268478Y-113695470D01*
X165268477Y-113695466D01*
X165205220Y-113500781D01*
X165112287Y-113318390D01*
X165112285Y-113318386D01*
X164991970Y-113152786D01*
X164991968Y-113152784D01*
X164991966Y-113152781D01*
X164847219Y-113008034D01*
X164847215Y-113008031D01*
X164847213Y-113008029D01*
X164681613Y-112887714D01*
X164681609Y-112887712D01*
X164499219Y-112794780D01*
X164304529Y-112731521D01*
X164102355Y-112699500D01*
X164102352Y-112699500D01*
X163897648Y-112699500D01*
X163897645Y-112699500D01*
X163695470Y-112731521D01*
X163500780Y-112794780D01*
X163318390Y-112887712D01*
X163318386Y-112887714D01*
X163152786Y-113008029D01*
X163008029Y-113152786D01*
X162887714Y-113318386D01*
X162887712Y-113318390D01*
X162794780Y-113500780D01*
X162731521Y-113695470D01*
X162699500Y-113897644D01*
X127800500Y-113897644D01*
X127768478Y-113695470D01*
X127768477Y-113695466D01*
X127705220Y-113500781D01*
X127612287Y-113318390D01*
X127612285Y-113318386D01*
X127491970Y-113152786D01*
X127491968Y-113152784D01*
X127491966Y-113152781D01*
X127347219Y-113008034D01*
X127347215Y-113008031D01*
X127347213Y-113008029D01*
X127181613Y-112887714D01*
X127181609Y-112887712D01*
X126999219Y-112794780D01*
X126804529Y-112731521D01*
X126602355Y-112699500D01*
X126602352Y-112699500D01*
X126397648Y-112699500D01*
X126397645Y-112699500D01*
X126195470Y-112731521D01*
X126000780Y-112794780D01*
X125818390Y-112887712D01*
X125818386Y-112887714D01*
X125652786Y-113008029D01*
X125508029Y-113152786D01*
X125387714Y-113318386D01*
X125387712Y-113318390D01*
X125294780Y-113500780D01*
X125231521Y-113695470D01*
X125199500Y-113897644D01*
X124100000Y-113897644D01*
X124100000Y-105699999D01*
X139694508Y-105699999D01*
X139694508Y-105700000D01*
X139714354Y-105825303D01*
X139714355Y-105825307D01*
X139765306Y-105925303D01*
X139771950Y-105938342D01*
X139861658Y-106028050D01*
X139974696Y-106085646D01*
X140100000Y-106105492D01*
X140225304Y-106085646D01*
X140338342Y-106028050D01*
X140428050Y-105938342D01*
X140485646Y-105825304D01*
X140505492Y-105700000D01*
X140489654Y-105599999D01*
X143894508Y-105599999D01*
X143894508Y-105600000D01*
X143914354Y-105725303D01*
X143914355Y-105725307D01*
X143952413Y-105799999D01*
X143971950Y-105838342D01*
X144061658Y-105928050D01*
X144174696Y-105985646D01*
X144300000Y-106005492D01*
X144425304Y-105985646D01*
X144538342Y-105928050D01*
X144579998Y-105886393D01*
X144634513Y-105858618D01*
X144694945Y-105868189D01*
X144720000Y-105886392D01*
X144761658Y-105928050D01*
X144874696Y-105985646D01*
X145000000Y-106005492D01*
X145125304Y-105985646D01*
X145238342Y-105928050D01*
X145328050Y-105838342D01*
X145347586Y-105800000D01*
X149494508Y-105800000D01*
X149508191Y-105886395D01*
X149514354Y-105925303D01*
X149514355Y-105925307D01*
X149515753Y-105928050D01*
X149571950Y-106038342D01*
X149661658Y-106128050D01*
X149774696Y-106185646D01*
X149900000Y-106205492D01*
X150025304Y-106185646D01*
X150138342Y-106128050D01*
X150228050Y-106038342D01*
X150285646Y-105925304D01*
X150305492Y-105800000D01*
X150285646Y-105674696D01*
X150228050Y-105561658D01*
X150138342Y-105471950D01*
X150118143Y-105461658D01*
X150025307Y-105414355D01*
X150025304Y-105414354D01*
X149900000Y-105394508D01*
X149774696Y-105414354D01*
X149774692Y-105414355D01*
X149661659Y-105471949D01*
X149571949Y-105561659D01*
X149514355Y-105674692D01*
X149514354Y-105674696D01*
X149506339Y-105725304D01*
X149494508Y-105800000D01*
X145347586Y-105800000D01*
X145385646Y-105725304D01*
X145405492Y-105600000D01*
X145385646Y-105474696D01*
X145328050Y-105361658D01*
X145238342Y-105271950D01*
X145229243Y-105267314D01*
X145125307Y-105214355D01*
X145125304Y-105214354D01*
X145000000Y-105194508D01*
X144874696Y-105214354D01*
X144874692Y-105214355D01*
X144761659Y-105271949D01*
X144761658Y-105271949D01*
X144761658Y-105271950D01*
X144720001Y-105313606D01*
X144665487Y-105341382D01*
X144605055Y-105331811D01*
X144579999Y-105313607D01*
X144538342Y-105271950D01*
X144529243Y-105267314D01*
X144425307Y-105214355D01*
X144425304Y-105214354D01*
X144300000Y-105194508D01*
X144174696Y-105214354D01*
X144174692Y-105214355D01*
X144061659Y-105271949D01*
X143971949Y-105361659D01*
X143914355Y-105474692D01*
X143914354Y-105474696D01*
X143894508Y-105599999D01*
X140489654Y-105599999D01*
X140485646Y-105574696D01*
X140428050Y-105461658D01*
X140338342Y-105371950D01*
X140309048Y-105357024D01*
X140225307Y-105314355D01*
X140225304Y-105314354D01*
X140100000Y-105294508D01*
X139974696Y-105314354D01*
X139974692Y-105314355D01*
X139861659Y-105371949D01*
X139771949Y-105461659D01*
X139714355Y-105574692D01*
X139714354Y-105574696D01*
X139694508Y-105699999D01*
X124100000Y-105699999D01*
X124100000Y-105028973D01*
X136794508Y-105028973D01*
X136794508Y-105028974D01*
X136814354Y-105154277D01*
X136814355Y-105154281D01*
X136834852Y-105194508D01*
X136871950Y-105267316D01*
X136961658Y-105357024D01*
X137074696Y-105414620D01*
X137200000Y-105434466D01*
X137325304Y-105414620D01*
X137438342Y-105357024D01*
X137528050Y-105267316D01*
X137585646Y-105154278D01*
X137605492Y-105028974D01*
X137596339Y-104971185D01*
X137605910Y-104910756D01*
X137649174Y-104867491D01*
X137709606Y-104857919D01*
X137739061Y-104867489D01*
X137774696Y-104885646D01*
X137900000Y-104905492D01*
X137934675Y-104900000D01*
X142794508Y-104900000D01*
X142805903Y-104971949D01*
X142814354Y-105025303D01*
X142814355Y-105025307D01*
X142832877Y-105061658D01*
X142871950Y-105138342D01*
X142961658Y-105228050D01*
X143074696Y-105285646D01*
X143200000Y-105305492D01*
X143325304Y-105285646D01*
X143438342Y-105228050D01*
X143528050Y-105138342D01*
X143585646Y-105025304D01*
X143605492Y-104900000D01*
X143585646Y-104774696D01*
X143528050Y-104661658D01*
X143516392Y-104650000D01*
X146444508Y-104650000D01*
X146452573Y-104700924D01*
X146464354Y-104775303D01*
X146464355Y-104775307D01*
X146506449Y-104857919D01*
X146521950Y-104888342D01*
X146611658Y-104978050D01*
X146724696Y-105035646D01*
X146850000Y-105055492D01*
X146975304Y-105035646D01*
X147088342Y-104978050D01*
X147166392Y-104900000D01*
X147894508Y-104900000D01*
X147905903Y-104971949D01*
X147914354Y-105025303D01*
X147914355Y-105025307D01*
X147932877Y-105061658D01*
X147971950Y-105138342D01*
X148061658Y-105228050D01*
X148174696Y-105285646D01*
X148300000Y-105305492D01*
X148334675Y-105300000D01*
X152644508Y-105300000D01*
X152659476Y-105394508D01*
X152664354Y-105425303D01*
X152664355Y-105425307D01*
X152719944Y-105534406D01*
X152721950Y-105538342D01*
X152811658Y-105628050D01*
X152924696Y-105685646D01*
X153050000Y-105705492D01*
X153175304Y-105685646D01*
X153288342Y-105628050D01*
X153378050Y-105538342D01*
X153435646Y-105425304D01*
X153455492Y-105300000D01*
X153435646Y-105174696D01*
X153378050Y-105061658D01*
X153288342Y-104971950D01*
X153284406Y-104969944D01*
X153175307Y-104914355D01*
X153175304Y-104914354D01*
X153050000Y-104894508D01*
X152924696Y-104914354D01*
X152924692Y-104914355D01*
X152811659Y-104971949D01*
X152721949Y-105061659D01*
X152664355Y-105174692D01*
X152664354Y-105174696D01*
X152646782Y-105285645D01*
X152644508Y-105300000D01*
X148334675Y-105300000D01*
X148425304Y-105285646D01*
X148538342Y-105228050D01*
X148628050Y-105138342D01*
X148685646Y-105025304D01*
X148705492Y-104900000D01*
X148685646Y-104774696D01*
X148628050Y-104661658D01*
X148538342Y-104571950D01*
X148510544Y-104557786D01*
X148425307Y-104514355D01*
X148425304Y-104514354D01*
X148300000Y-104494508D01*
X148174696Y-104514354D01*
X148174692Y-104514355D01*
X148061659Y-104571949D01*
X147971949Y-104661659D01*
X147914355Y-104774692D01*
X147914354Y-104774696D01*
X147896782Y-104885645D01*
X147894508Y-104900000D01*
X147166392Y-104900000D01*
X147178050Y-104888342D01*
X147235646Y-104775304D01*
X147255492Y-104650000D01*
X147254435Y-104643329D01*
X147243130Y-104571950D01*
X147235646Y-104524696D01*
X147178050Y-104411658D01*
X147088342Y-104321950D01*
X147041583Y-104298125D01*
X146975307Y-104264355D01*
X146975304Y-104264354D01*
X146850000Y-104244508D01*
X146724696Y-104264354D01*
X146724692Y-104264355D01*
X146611659Y-104321949D01*
X146521949Y-104411659D01*
X146464355Y-104524692D01*
X146464354Y-104524696D01*
X146445565Y-104643329D01*
X146444508Y-104650000D01*
X143516392Y-104650000D01*
X143438342Y-104571950D01*
X143410544Y-104557786D01*
X143325307Y-104514355D01*
X143325304Y-104514354D01*
X143200000Y-104494508D01*
X143074696Y-104514354D01*
X143074692Y-104514355D01*
X142961659Y-104571949D01*
X142871949Y-104661659D01*
X142814355Y-104774692D01*
X142814354Y-104774696D01*
X142796782Y-104885645D01*
X142794508Y-104900000D01*
X137934675Y-104900000D01*
X138025304Y-104885646D01*
X138138342Y-104828050D01*
X138228050Y-104738342D01*
X138285646Y-104625304D01*
X138305492Y-104500000D01*
X138285646Y-104374696D01*
X138228050Y-104261658D01*
X138138342Y-104171950D01*
X138072383Y-104138342D01*
X138025307Y-104114355D01*
X138025304Y-104114354D01*
X137900000Y-104094508D01*
X137774696Y-104114354D01*
X137774692Y-104114355D01*
X137661659Y-104171949D01*
X137571949Y-104261659D01*
X137514355Y-104374692D01*
X137514354Y-104374696D01*
X137494508Y-104499999D01*
X137494508Y-104500000D01*
X137503660Y-104557786D01*
X137494088Y-104618218D01*
X137450824Y-104661483D01*
X137390392Y-104671054D01*
X137360933Y-104661482D01*
X137325307Y-104643329D01*
X137325304Y-104643328D01*
X137200000Y-104623482D01*
X137074696Y-104643328D01*
X137074692Y-104643329D01*
X136961659Y-104700923D01*
X136871949Y-104790633D01*
X136814355Y-104903666D01*
X136814354Y-104903670D01*
X136794508Y-105028973D01*
X124100000Y-105028973D01*
X124100000Y-103900000D01*
X138894508Y-103900000D01*
X138911451Y-104006978D01*
X138914354Y-104025303D01*
X138914355Y-104025307D01*
X138934301Y-104064452D01*
X138971950Y-104138342D01*
X139061658Y-104228050D01*
X139174696Y-104285646D01*
X139300000Y-104305492D01*
X139425304Y-104285646D01*
X139538342Y-104228050D01*
X139628050Y-104138342D01*
X139685646Y-104025304D01*
X139697573Y-103950000D01*
X149694508Y-103950000D01*
X149701079Y-103991491D01*
X149714354Y-104075303D01*
X149714355Y-104075307D01*
X149753627Y-104152381D01*
X149771950Y-104188342D01*
X149861658Y-104278050D01*
X149974696Y-104335646D01*
X150100000Y-104355492D01*
X150225304Y-104335646D01*
X150338342Y-104278050D01*
X150428050Y-104188342D01*
X150485646Y-104075304D01*
X150505492Y-103950000D01*
X150504231Y-103942041D01*
X150501236Y-103923131D01*
X150485646Y-103824696D01*
X150428050Y-103711658D01*
X150338342Y-103621950D01*
X150334406Y-103619944D01*
X150225307Y-103564355D01*
X150225304Y-103564354D01*
X150100000Y-103544508D01*
X149974696Y-103564354D01*
X149974692Y-103564355D01*
X149861659Y-103621949D01*
X149771949Y-103711659D01*
X149714355Y-103824692D01*
X149714354Y-103824696D01*
X149695769Y-103942041D01*
X149694508Y-103950000D01*
X139697573Y-103950000D01*
X139705492Y-103900000D01*
X139685646Y-103774696D01*
X139628050Y-103661658D01*
X139538342Y-103571950D01*
X139523434Y-103564354D01*
X139425307Y-103514355D01*
X139425304Y-103514354D01*
X139300000Y-103494508D01*
X139174696Y-103514354D01*
X139174692Y-103514355D01*
X139061659Y-103571949D01*
X138971949Y-103661659D01*
X138914355Y-103774692D01*
X138914354Y-103774696D01*
X138900483Y-103862278D01*
X138894508Y-103900000D01*
X124100000Y-103900000D01*
X124100000Y-102999999D01*
X125294508Y-102999999D01*
X125294508Y-103000000D01*
X125314354Y-103125303D01*
X125314355Y-103125307D01*
X125369944Y-103234406D01*
X125371950Y-103238342D01*
X125461658Y-103328050D01*
X125574696Y-103385646D01*
X125700000Y-103405492D01*
X125825304Y-103385646D01*
X125938342Y-103328050D01*
X125979998Y-103286393D01*
X126034513Y-103258618D01*
X126094945Y-103268189D01*
X126120000Y-103286392D01*
X126161658Y-103328050D01*
X126274696Y-103385646D01*
X126400000Y-103405492D01*
X126525304Y-103385646D01*
X126638342Y-103328050D01*
X126728050Y-103238342D01*
X126785646Y-103125304D01*
X126805492Y-103000000D01*
X126797573Y-102949999D01*
X136544508Y-102949999D01*
X136544508Y-102950000D01*
X136564354Y-103075303D01*
X136564355Y-103075307D01*
X136589830Y-103125303D01*
X136621950Y-103188342D01*
X136711658Y-103278050D01*
X136824696Y-103335646D01*
X136950000Y-103355492D01*
X137075304Y-103335646D01*
X137188342Y-103278050D01*
X137278050Y-103188342D01*
X137335646Y-103075304D01*
X137355492Y-102950000D01*
X137335646Y-102824696D01*
X137278050Y-102711658D01*
X137266391Y-102699999D01*
X140894508Y-102699999D01*
X140894508Y-102700000D01*
X140914354Y-102825303D01*
X140914355Y-102825307D01*
X140969944Y-102934406D01*
X140971950Y-102938342D01*
X141061658Y-103028050D01*
X141174696Y-103085646D01*
X141300000Y-103105492D01*
X141425304Y-103085646D01*
X141538342Y-103028050D01*
X141628050Y-102938342D01*
X141685646Y-102825304D01*
X141705492Y-102700000D01*
X141685646Y-102574696D01*
X141628050Y-102461658D01*
X141538342Y-102371950D01*
X141534406Y-102369944D01*
X141425307Y-102314355D01*
X141425304Y-102314354D01*
X141334675Y-102300000D01*
X142094508Y-102300000D01*
X142105903Y-102371949D01*
X142114354Y-102425303D01*
X142114355Y-102425307D01*
X142132877Y-102461658D01*
X142171950Y-102538342D01*
X142261658Y-102628050D01*
X142374696Y-102685646D01*
X142500000Y-102705492D01*
X142625304Y-102685646D01*
X142738342Y-102628050D01*
X142816392Y-102550000D01*
X145394508Y-102550000D01*
X145405903Y-102621949D01*
X145414354Y-102675303D01*
X145414355Y-102675307D01*
X145458354Y-102761658D01*
X145471950Y-102788342D01*
X145561658Y-102878050D01*
X145674696Y-102935646D01*
X145800000Y-102955492D01*
X145925304Y-102935646D01*
X146038342Y-102878050D01*
X146128050Y-102788342D01*
X146185646Y-102675304D01*
X146205492Y-102550000D01*
X146185646Y-102424696D01*
X146128050Y-102311658D01*
X146038342Y-102221950D01*
X146034406Y-102219944D01*
X145925307Y-102164355D01*
X145925304Y-102164354D01*
X145800000Y-102144508D01*
X145674696Y-102164354D01*
X145674692Y-102164355D01*
X145561659Y-102221949D01*
X145471949Y-102311659D01*
X145414355Y-102424692D01*
X145414354Y-102424696D01*
X145394508Y-102550000D01*
X142816392Y-102550000D01*
X142828050Y-102538342D01*
X142885646Y-102425304D01*
X142905492Y-102300000D01*
X142885646Y-102174696D01*
X142828050Y-102061658D01*
X142738342Y-101971950D01*
X142707280Y-101956123D01*
X142625307Y-101914355D01*
X142625304Y-101914354D01*
X142500000Y-101894508D01*
X142374696Y-101914354D01*
X142374692Y-101914355D01*
X142261659Y-101971949D01*
X142171949Y-102061659D01*
X142114355Y-102174692D01*
X142114354Y-102174696D01*
X142096782Y-102285645D01*
X142094508Y-102300000D01*
X141334675Y-102300000D01*
X141300000Y-102294508D01*
X141174696Y-102314354D01*
X141174692Y-102314355D01*
X141061659Y-102371949D01*
X140971949Y-102461659D01*
X140914355Y-102574692D01*
X140914354Y-102574696D01*
X140894508Y-102699999D01*
X137266391Y-102699999D01*
X137188342Y-102621950D01*
X137173434Y-102614354D01*
X137075307Y-102564355D01*
X137075304Y-102564354D01*
X136950000Y-102544508D01*
X136824696Y-102564354D01*
X136824692Y-102564355D01*
X136711659Y-102621949D01*
X136621949Y-102711659D01*
X136564355Y-102824692D01*
X136564354Y-102824696D01*
X136544508Y-102949999D01*
X126797573Y-102949999D01*
X126785646Y-102874696D01*
X126728050Y-102761658D01*
X126638342Y-102671950D01*
X126634406Y-102669944D01*
X126525307Y-102614355D01*
X126525304Y-102614354D01*
X126400000Y-102594508D01*
X126274696Y-102614354D01*
X126274692Y-102614355D01*
X126161659Y-102671949D01*
X126161658Y-102671949D01*
X126161658Y-102671950D01*
X126120001Y-102713606D01*
X126065487Y-102741382D01*
X126005055Y-102731811D01*
X125979999Y-102713607D01*
X125938342Y-102671950D01*
X125934406Y-102669944D01*
X125825307Y-102614355D01*
X125825304Y-102614354D01*
X125700000Y-102594508D01*
X125574696Y-102614354D01*
X125574692Y-102614355D01*
X125461659Y-102671949D01*
X125371949Y-102761659D01*
X125314355Y-102874692D01*
X125314354Y-102874696D01*
X125294508Y-102999999D01*
X124100000Y-102999999D01*
X124100000Y-101900000D01*
X134194508Y-101900000D01*
X134212031Y-102010640D01*
X134214354Y-102025303D01*
X134214355Y-102025307D01*
X134214773Y-102026127D01*
X134271950Y-102138342D01*
X134361658Y-102228050D01*
X134474696Y-102285646D01*
X134600000Y-102305492D01*
X134725304Y-102285646D01*
X134838342Y-102228050D01*
X134928050Y-102138342D01*
X134985646Y-102025304D01*
X135005492Y-101900000D01*
X134985646Y-101774696D01*
X134928050Y-101661658D01*
X134866391Y-101599999D01*
X138994508Y-101599999D01*
X138994508Y-101600000D01*
X139014354Y-101725303D01*
X139014355Y-101725307D01*
X139066706Y-101828050D01*
X139071950Y-101838342D01*
X139161658Y-101928050D01*
X139274696Y-101985646D01*
X139400000Y-102005492D01*
X139525304Y-101985646D01*
X139638342Y-101928050D01*
X139728050Y-101838342D01*
X139785646Y-101725304D01*
X139805492Y-101600000D01*
X139789654Y-101500000D01*
X150594508Y-101500000D01*
X150605903Y-101571949D01*
X150614354Y-101625303D01*
X150614355Y-101625307D01*
X150632877Y-101661658D01*
X150671950Y-101738342D01*
X150761658Y-101828050D01*
X150874696Y-101885646D01*
X151000000Y-101905492D01*
X151125304Y-101885646D01*
X151238342Y-101828050D01*
X151328050Y-101738342D01*
X151385646Y-101625304D01*
X151405492Y-101500000D01*
X151385646Y-101374696D01*
X151328050Y-101261658D01*
X151238342Y-101171950D01*
X151234406Y-101169944D01*
X151125307Y-101114355D01*
X151125304Y-101114354D01*
X151000000Y-101094508D01*
X150874696Y-101114354D01*
X150874692Y-101114355D01*
X150761659Y-101171949D01*
X150671949Y-101261659D01*
X150614355Y-101374692D01*
X150614354Y-101374696D01*
X150594508Y-101500000D01*
X139789654Y-101500000D01*
X139785646Y-101474696D01*
X139728050Y-101361658D01*
X139638342Y-101271950D01*
X139618143Y-101261658D01*
X139525307Y-101214355D01*
X139525304Y-101214354D01*
X139400000Y-101194508D01*
X139274696Y-101214354D01*
X139274692Y-101214355D01*
X139161659Y-101271949D01*
X139071949Y-101361659D01*
X139014355Y-101474692D01*
X139014354Y-101474696D01*
X138994508Y-101599999D01*
X134866391Y-101599999D01*
X134838342Y-101571950D01*
X134834406Y-101569944D01*
X134725307Y-101514355D01*
X134725304Y-101514354D01*
X134600000Y-101494508D01*
X134474696Y-101514354D01*
X134474692Y-101514355D01*
X134361659Y-101571949D01*
X134271949Y-101661659D01*
X134214355Y-101774692D01*
X134214354Y-101774696D01*
X134196782Y-101885645D01*
X134194508Y-101900000D01*
X124100000Y-101900000D01*
X124100000Y-78642523D01*
X125194500Y-78642523D01*
X125194500Y-78642527D01*
X125194500Y-84237998D01*
X125194500Y-84899999D01*
X125194500Y-86858992D01*
X125195134Y-86875117D01*
X125196353Y-86890604D01*
X125201761Y-86909779D01*
X125218115Y-86967769D01*
X125218117Y-86967775D01*
X125245894Y-87022291D01*
X125283684Y-87074304D01*
X125639376Y-87429997D01*
X125667153Y-87484513D01*
X125657582Y-87544945D01*
X125639376Y-87570003D01*
X125283679Y-87925700D01*
X125272739Y-87937534D01*
X125262645Y-87949353D01*
X125262639Y-87949362D01*
X125223464Y-88019314D01*
X125204556Y-88077507D01*
X125194500Y-88141004D01*
X125194500Y-88141008D01*
X125194500Y-88594999D01*
X125194500Y-89199999D01*
X125194500Y-89865001D01*
X125194500Y-90299999D01*
X125194500Y-91199999D01*
X125194500Y-92041812D01*
X125194957Y-92053458D01*
X125195134Y-92057943D01*
X125196353Y-92073426D01*
X125199322Y-92083953D01*
X125218116Y-92150591D01*
X125245893Y-92205108D01*
X125245897Y-92205114D01*
X125265492Y-92236301D01*
X125265496Y-92236306D01*
X125335697Y-92294915D01*
X125335699Y-92294916D01*
X125390215Y-92322694D01*
X125407312Y-92329552D01*
X125424408Y-92336410D01*
X125462626Y-92338987D01*
X125515658Y-92342563D01*
X125515658Y-92342562D01*
X125515659Y-92342563D01*
X125532051Y-92339966D01*
X125576090Y-92332992D01*
X125580645Y-92331511D01*
X125633519Y-92314332D01*
X125648619Y-92310706D01*
X125684518Y-92305021D01*
X125715482Y-92305021D01*
X125745525Y-92309779D01*
X125774976Y-92319348D01*
X125777086Y-92320423D01*
X125777089Y-92320426D01*
X125801967Y-92333101D01*
X125801967Y-92333102D01*
X125802076Y-92333157D01*
X125827134Y-92351362D01*
X125848638Y-92372866D01*
X125866841Y-92397921D01*
X125880649Y-92425020D01*
X125890219Y-92454473D01*
X125894977Y-92484510D01*
X125894977Y-92515488D01*
X125890219Y-92545525D01*
X125880648Y-92574980D01*
X125869210Y-92597430D01*
X125866844Y-92602073D01*
X125848638Y-92627132D01*
X125827132Y-92648638D01*
X125802074Y-92666842D01*
X125774981Y-92680648D01*
X125745525Y-92690219D01*
X125726068Y-92693301D01*
X125715487Y-92694977D01*
X125684513Y-92694977D01*
X125652793Y-92689953D01*
X125626836Y-92682079D01*
X125626715Y-92682023D01*
X125622589Y-92680121D01*
X125608237Y-92674176D01*
X125608235Y-92674175D01*
X125608234Y-92674175D01*
X125571378Y-92666844D01*
X125529593Y-92658532D01*
X125468407Y-92658532D01*
X125468389Y-92658532D01*
X125431717Y-92661834D01*
X125431715Y-92661834D01*
X125431713Y-92661835D01*
X125373124Y-92686877D01*
X125347614Y-92697780D01*
X125298118Y-92733742D01*
X125270372Y-92757984D01*
X125223464Y-92836494D01*
X125223462Y-92836497D01*
X125204556Y-92894686D01*
X125194500Y-92958183D01*
X125194500Y-94561723D01*
X125194807Y-94572964D01*
X125195400Y-94583791D01*
X125195401Y-94583796D01*
X125213258Y-94657018D01*
X125213260Y-94657024D01*
X125238408Y-94712789D01*
X125238413Y-94712799D01*
X125273688Y-94766554D01*
X125273691Y-94766557D01*
X125304093Y-94799999D01*
X125429760Y-94938233D01*
X125718489Y-95255836D01*
X125732076Y-95269325D01*
X125733399Y-95270638D01*
X125748462Y-95284136D01*
X125822102Y-95326536D01*
X125822104Y-95326536D01*
X125822104Y-95326537D01*
X125842481Y-95333157D01*
X125880293Y-95345443D01*
X125892993Y-95347454D01*
X125943791Y-95355500D01*
X125943795Y-95355500D01*
X137323872Y-95355500D01*
X137382063Y-95374407D01*
X137393876Y-95384496D01*
X137809379Y-95799999D01*
X138927335Y-96917955D01*
X138951860Y-96938902D01*
X138976920Y-96957108D01*
X138980677Y-96959773D01*
X139065559Y-96993821D01*
X139065564Y-96993821D01*
X139065565Y-96993822D01*
X139065566Y-96993823D01*
X139117700Y-97002079D01*
X139172217Y-97029855D01*
X139199996Y-97084371D01*
X139199996Y-97115346D01*
X139194508Y-97149998D01*
X139194508Y-97150000D01*
X139204880Y-97215490D01*
X139214354Y-97275303D01*
X139214355Y-97275307D01*
X139254294Y-97353691D01*
X139271950Y-97388342D01*
X139361658Y-97478050D01*
X139474696Y-97535646D01*
X139590098Y-97553923D01*
X139644613Y-97581700D01*
X139664305Y-97612270D01*
X139664795Y-97612021D01*
X139667255Y-97616850D01*
X139667294Y-97616910D01*
X139667316Y-97616969D01*
X139695097Y-97671494D01*
X139732884Y-97723503D01*
X139732886Y-97723505D01*
X139732889Y-97723509D01*
X139751490Y-97742110D01*
X139776010Y-97763053D01*
X139776015Y-97763057D01*
X139776014Y-97763057D01*
X139801069Y-97781260D01*
X139804824Y-97783923D01*
X139804827Y-97783925D01*
X139889708Y-97817975D01*
X139950140Y-97827547D01*
X139986895Y-97830025D01*
X140075579Y-97807681D01*
X140130096Y-97779905D01*
X140179974Y-97743666D01*
X140193198Y-97735563D01*
X140225022Y-97719347D01*
X140254468Y-97709780D01*
X140284518Y-97705021D01*
X140315481Y-97705021D01*
X140345524Y-97709779D01*
X140374978Y-97719350D01*
X140383128Y-97723503D01*
X140402078Y-97733159D01*
X140427135Y-97751363D01*
X140448638Y-97772866D01*
X140466841Y-97797921D01*
X140480649Y-97825020D01*
X140490219Y-97854473D01*
X140494888Y-97883953D01*
X140494977Y-97884510D01*
X140494977Y-97915487D01*
X140493990Y-97921716D01*
X140490219Y-97945524D01*
X140480649Y-97974977D01*
X140464203Y-98007255D01*
X140457452Y-98021897D01*
X140451505Y-98036254D01*
X140451502Y-98036263D01*
X140435858Y-98114903D01*
X140435858Y-98176093D01*
X140437869Y-98198442D01*
X140424253Y-98258094D01*
X140386718Y-98294202D01*
X140365196Y-98305955D01*
X140318369Y-98341010D01*
X139941003Y-98718376D01*
X139926320Y-98734722D01*
X139926301Y-98734745D01*
X139909672Y-98755380D01*
X139872510Y-98826423D01*
X139872508Y-98826428D01*
X139852826Y-98893457D01*
X139852824Y-98893466D01*
X139844500Y-98951362D01*
X139844500Y-99948656D01*
X139845526Y-99967772D01*
X139845678Y-99970607D01*
X139846896Y-99981939D01*
X139848511Y-99996961D01*
X139848512Y-99996966D01*
X139872469Y-100073479D01*
X139872921Y-100074306D01*
X139905956Y-100134805D01*
X139928757Y-100165262D01*
X139941010Y-100181630D01*
X139968376Y-100208996D01*
X139969650Y-100210140D01*
X139984738Y-100223693D01*
X140005380Y-100240327D01*
X140076425Y-100277490D01*
X140076426Y-100277490D01*
X140076428Y-100277491D01*
X140076561Y-100277530D01*
X140143464Y-100297175D01*
X140201362Y-100305500D01*
X140201363Y-100305500D01*
X140448620Y-100305500D01*
X140448638Y-100305500D01*
X140470607Y-100304322D01*
X140496965Y-100301488D01*
X140573482Y-100277529D01*
X140634805Y-100244044D01*
X140681629Y-100208991D01*
X140708991Y-100181629D01*
X140723693Y-100165262D01*
X140740327Y-100144620D01*
X140777490Y-100073575D01*
X140797175Y-100006536D01*
X140798115Y-100000000D01*
X141044510Y-100000000D01*
X141050290Y-100036497D01*
X141064356Y-100125303D01*
X141064357Y-100125307D01*
X141106994Y-100208986D01*
X141121952Y-100238342D01*
X141211660Y-100328050D01*
X141324698Y-100385646D01*
X141450002Y-100405492D01*
X141575306Y-100385646D01*
X141688344Y-100328050D01*
X141778052Y-100238342D01*
X141835648Y-100125304D01*
X141855494Y-100000000D01*
X142544509Y-100000000D01*
X142550289Y-100036497D01*
X142564355Y-100125303D01*
X142564356Y-100125307D01*
X142606993Y-100208986D01*
X142621951Y-100238342D01*
X142711659Y-100328050D01*
X142824697Y-100385646D01*
X142950001Y-100405492D01*
X143075305Y-100385646D01*
X143188343Y-100328050D01*
X143278051Y-100238342D01*
X143278052Y-100238339D01*
X143278474Y-100237918D01*
X143332990Y-100210140D01*
X143393421Y-100219710D01*
X143424696Y-100235646D01*
X143550000Y-100255492D01*
X143675304Y-100235646D01*
X143788342Y-100178050D01*
X143878050Y-100088342D01*
X143935646Y-99975304D01*
X143955492Y-99850000D01*
X143935646Y-99724696D01*
X143878050Y-99611658D01*
X143788342Y-99521950D01*
X143717088Y-99485644D01*
X143675307Y-99464355D01*
X143675304Y-99464354D01*
X143550000Y-99444508D01*
X143424696Y-99464354D01*
X143424692Y-99464355D01*
X143311658Y-99521950D01*
X143311656Y-99521951D01*
X143221525Y-99612082D01*
X143167009Y-99639859D01*
X143106577Y-99630288D01*
X143075305Y-99614354D01*
X142950001Y-99594508D01*
X142824697Y-99614354D01*
X142824693Y-99614355D01*
X142711660Y-99671949D01*
X142621950Y-99761659D01*
X142564356Y-99874692D01*
X142564355Y-99874696D01*
X142544590Y-99999491D01*
X142544509Y-100000000D01*
X141855494Y-100000000D01*
X141855413Y-99999491D01*
X141850838Y-99970603D01*
X141835648Y-99874696D01*
X141778052Y-99761658D01*
X141688344Y-99671950D01*
X141645960Y-99650354D01*
X141575309Y-99614355D01*
X141575306Y-99614354D01*
X141450002Y-99594508D01*
X141324698Y-99614354D01*
X141324694Y-99614355D01*
X141211661Y-99671949D01*
X141121951Y-99761659D01*
X141064357Y-99874692D01*
X141064356Y-99874696D01*
X141044591Y-99999491D01*
X141044510Y-100000000D01*
X140798115Y-100000000D01*
X140805500Y-99948638D01*
X140805500Y-99826127D01*
X140824407Y-99767936D01*
X140834496Y-99756123D01*
X141085127Y-99505492D01*
X141356725Y-99233893D01*
X141411240Y-99206118D01*
X141422827Y-99204976D01*
X141425627Y-99204866D01*
X141442244Y-99203558D01*
X141457756Y-99203558D01*
X141474373Y-99204866D01*
X141490499Y-99205500D01*
X141490511Y-99205500D01*
X142909489Y-99205500D01*
X142909501Y-99205500D01*
X142925627Y-99204866D01*
X142942244Y-99203558D01*
X142957756Y-99203558D01*
X142974373Y-99204866D01*
X142990499Y-99205500D01*
X142990511Y-99205500D01*
X143909489Y-99205500D01*
X143909501Y-99205500D01*
X143925627Y-99204866D01*
X143942244Y-99203558D01*
X143957756Y-99203558D01*
X143966780Y-99204268D01*
X144003953Y-99214752D01*
X144022318Y-99224110D01*
X144047376Y-99242314D01*
X144057682Y-99252620D01*
X144075887Y-99277678D01*
X144089866Y-99305114D01*
X144092533Y-99310347D01*
X144109383Y-99337844D01*
X144132186Y-99369229D01*
X144153128Y-99393748D01*
X144585507Y-99826127D01*
X144968376Y-100208996D01*
X144969650Y-100210140D01*
X144984738Y-100223693D01*
X145005380Y-100240327D01*
X145076425Y-100277490D01*
X145076426Y-100277490D01*
X145076428Y-100277491D01*
X145076561Y-100277530D01*
X145143464Y-100297175D01*
X145201362Y-100305500D01*
X145201363Y-100305500D01*
X145548620Y-100305500D01*
X145548638Y-100305500D01*
X145570607Y-100304322D01*
X145596965Y-100301488D01*
X145673482Y-100277529D01*
X145734805Y-100244044D01*
X145781630Y-100208991D01*
X145954123Y-100036497D01*
X145968824Y-100020130D01*
X145979774Y-100006542D01*
X145985455Y-99999493D01*
X145985456Y-99999491D01*
X145986778Y-99996965D01*
X146022622Y-99928441D01*
X146040518Y-99867493D01*
X146040517Y-99867492D01*
X146040704Y-99866858D01*
X146040709Y-99866843D01*
X146042153Y-99861928D01*
X146043754Y-99859586D01*
X146043829Y-99859115D01*
X146046622Y-99846702D01*
X146047603Y-99843359D01*
X146046932Y-99839783D01*
X146047334Y-99836987D01*
X146057923Y-99770124D01*
X146067492Y-99740669D01*
X146074112Y-99727675D01*
X146092315Y-99702619D01*
X146102619Y-99692315D01*
X146127672Y-99674114D01*
X146140667Y-99667492D01*
X146170118Y-99657923D01*
X146217931Y-99650351D01*
X146224155Y-99649611D01*
X146224154Y-99649595D01*
X146225475Y-99649453D01*
X146251833Y-99646619D01*
X146328350Y-99622660D01*
X146389673Y-99589175D01*
X146436497Y-99554122D01*
X146801306Y-99189311D01*
X146855823Y-99161534D01*
X146916255Y-99171105D01*
X146959520Y-99214370D01*
X146962723Y-99222104D01*
X147008024Y-99311011D01*
X147021950Y-99338342D01*
X147111658Y-99428050D01*
X147224696Y-99485646D01*
X147350000Y-99505492D01*
X147475304Y-99485646D01*
X147588342Y-99428050D01*
X147678050Y-99338342D01*
X147735646Y-99225304D01*
X147755492Y-99100000D01*
X147735646Y-98974696D01*
X147678050Y-98861658D01*
X147640893Y-98824501D01*
X147613118Y-98769987D01*
X147622689Y-98709555D01*
X147665954Y-98666290D01*
X147710899Y-98655500D01*
X151677975Y-98655500D01*
X151733858Y-98672781D01*
X151782839Y-98706276D01*
X151782842Y-98706277D01*
X151782846Y-98706280D01*
X151845981Y-98736209D01*
X151901863Y-98753487D01*
X151929880Y-98757924D01*
X151959333Y-98767494D01*
X151972320Y-98774111D01*
X151997380Y-98792317D01*
X152007678Y-98802615D01*
X152025884Y-98827675D01*
X152032504Y-98840668D01*
X152042075Y-98870122D01*
X152043981Y-98882158D01*
X152046601Y-98895726D01*
X152046603Y-98895730D01*
X152059497Y-98922504D01*
X152067711Y-98983136D01*
X152040306Y-99035464D01*
X152027132Y-99048638D01*
X152002405Y-99066673D01*
X152002300Y-99066727D01*
X152001967Y-99066898D01*
X151974470Y-99080908D01*
X151948838Y-99089796D01*
X151935532Y-99092442D01*
X151920435Y-99096067D01*
X151847619Y-99129635D01*
X151814617Y-99153613D01*
X151798117Y-99165601D01*
X151791818Y-99171105D01*
X151770370Y-99189844D01*
X151770368Y-99189846D01*
X151734429Y-99249999D01*
X151723464Y-99268350D01*
X151704556Y-99326544D01*
X151694500Y-99390041D01*
X151694500Y-99390045D01*
X151694500Y-99858992D01*
X151694716Y-99864479D01*
X151695134Y-99875123D01*
X151696353Y-99890602D01*
X151696354Y-99890607D01*
X151718115Y-99967769D01*
X151718117Y-99967775D01*
X151745894Y-100022291D01*
X151783681Y-100074300D01*
X151783683Y-100074302D01*
X151783686Y-100074306D01*
X153665505Y-101956125D01*
X153693281Y-102010640D01*
X153694500Y-102026127D01*
X153694500Y-103647603D01*
X153695606Y-103661658D01*
X153697029Y-103679748D01*
X153697032Y-103679771D01*
X153701874Y-103710344D01*
X153702644Y-103714875D01*
X153702645Y-103714877D01*
X153738586Y-103798975D01*
X153738587Y-103798976D01*
X153774544Y-103848472D01*
X153774553Y-103848484D01*
X153798784Y-103876220D01*
X153798785Y-103876220D01*
X153798788Y-103876224D01*
X153877297Y-103923134D01*
X153935487Y-103942043D01*
X153971402Y-103950242D01*
X154062491Y-103942048D01*
X154120683Y-103923143D01*
X154120708Y-103923129D01*
X154123083Y-103922147D01*
X154123958Y-103922077D01*
X154124383Y-103921940D01*
X154124416Y-103922041D01*
X154126899Y-103921846D01*
X154154955Y-103907550D01*
X154225018Y-103871849D01*
X154254470Y-103862279D01*
X154284518Y-103857521D01*
X154315481Y-103857521D01*
X154345527Y-103862279D01*
X154374975Y-103871847D01*
X154402078Y-103885657D01*
X154427131Y-103903859D01*
X154448636Y-103925364D01*
X154466842Y-103950423D01*
X154480649Y-103977521D01*
X154490220Y-104006978D01*
X154493755Y-104029295D01*
X154493756Y-104029305D01*
X154496819Y-104048641D01*
X154499964Y-104064456D01*
X154503589Y-104079557D01*
X154537159Y-104152381D01*
X154537160Y-104152382D01*
X154537161Y-104152383D01*
X154573125Y-104201883D01*
X154597366Y-104229628D01*
X154675876Y-104276536D01*
X154734067Y-104295443D01*
X154746121Y-104297352D01*
X154797565Y-104305500D01*
X154797569Y-104305500D01*
X164100993Y-104305500D01*
X164101000Y-104305500D01*
X164133144Y-104302970D01*
X164163737Y-104298125D01*
X164163748Y-104298123D01*
X164163793Y-104298116D01*
X164168281Y-104297353D01*
X164168280Y-104297353D01*
X164168287Y-104297352D01*
X164252383Y-104261408D01*
X164301883Y-104225444D01*
X164329628Y-104201203D01*
X164376536Y-104122693D01*
X164395443Y-104064502D01*
X164399465Y-104039101D01*
X164405500Y-104001003D01*
X164405500Y-84741262D01*
X164405500Y-84741250D01*
X164404832Y-84724692D01*
X164403547Y-84708796D01*
X164401948Y-84703195D01*
X164397262Y-84686779D01*
X164381426Y-84631295D01*
X164353421Y-84576895D01*
X164352254Y-84575303D01*
X164315419Y-84525046D01*
X164315409Y-84525035D01*
X158373641Y-78632782D01*
X158362084Y-78622165D01*
X158350565Y-78612369D01*
X158350558Y-78612364D01*
X158280931Y-78573464D01*
X158222734Y-78554556D01*
X158222735Y-78554556D01*
X158159238Y-78544500D01*
X158159235Y-78544500D01*
X153976128Y-78544500D01*
X153917937Y-78525593D01*
X153906124Y-78515504D01*
X152684496Y-77293876D01*
X152656719Y-77239359D01*
X152655500Y-77223872D01*
X152655500Y-76399006D01*
X152655500Y-76399000D01*
X152652970Y-76366856D01*
X152648125Y-76336263D01*
X152648116Y-76336206D01*
X152647353Y-76331714D01*
X152647352Y-76331713D01*
X152611408Y-76247617D01*
X152603648Y-76236936D01*
X152575444Y-76198117D01*
X152551203Y-76170372D01*
X152472693Y-76123464D01*
X152472691Y-76123463D01*
X152472689Y-76123462D01*
X152414499Y-76104556D01*
X152414500Y-76104556D01*
X152351003Y-76094500D01*
X152351000Y-76094500D01*
X150549000Y-76094500D01*
X150516856Y-76097030D01*
X150486206Y-76101883D01*
X150481718Y-76102646D01*
X150481713Y-76102647D01*
X150397617Y-76138591D01*
X150348118Y-76174555D01*
X150320372Y-76198797D01*
X150273464Y-76277307D01*
X150273462Y-76277310D01*
X150254556Y-76335499D01*
X150244500Y-76398996D01*
X150244500Y-76865297D01*
X150225593Y-76923488D01*
X150212095Y-76938551D01*
X150143401Y-77001000D01*
X149856954Y-77261408D01*
X149848873Y-77268754D01*
X149793097Y-77293907D01*
X149782278Y-77294500D01*
X148598360Y-77294500D01*
X148540169Y-77275593D01*
X148504205Y-77226093D01*
X148504205Y-77164907D01*
X148513374Y-77144723D01*
X148518894Y-77135482D01*
X148526536Y-77122693D01*
X148545443Y-77064502D01*
X148555500Y-77001000D01*
X148555500Y-74697644D01*
X153399500Y-74697644D01*
X153399500Y-74902355D01*
X153431521Y-75104529D01*
X153494780Y-75299219D01*
X153587712Y-75481609D01*
X153587714Y-75481613D01*
X153708029Y-75647213D01*
X153708031Y-75647215D01*
X153708034Y-75647219D01*
X153852781Y-75791966D01*
X153852784Y-75791968D01*
X153852786Y-75791970D01*
X154018386Y-75912285D01*
X154018390Y-75912287D01*
X154200781Y-76005220D01*
X154395466Y-76068477D01*
X154395467Y-76068477D01*
X154395470Y-76068478D01*
X154597645Y-76100500D01*
X154597648Y-76100500D01*
X154802355Y-76100500D01*
X155004529Y-76068478D01*
X155004530Y-76068477D01*
X155004534Y-76068477D01*
X155199219Y-76005220D01*
X155381610Y-75912287D01*
X155387953Y-75907679D01*
X155465471Y-75851359D01*
X155547219Y-75791966D01*
X155691966Y-75647219D01*
X155812287Y-75481610D01*
X155905220Y-75299219D01*
X155968477Y-75104534D01*
X155970939Y-75088990D01*
X156000500Y-74902355D01*
X156000500Y-74697644D01*
X155968478Y-74495470D01*
X155968477Y-74495466D01*
X155905220Y-74300781D01*
X155812287Y-74118390D01*
X155812285Y-74118386D01*
X155691970Y-73952786D01*
X155691968Y-73952784D01*
X155691966Y-73952781D01*
X155547219Y-73808034D01*
X155547215Y-73808031D01*
X155547213Y-73808029D01*
X155381613Y-73687714D01*
X155381609Y-73687712D01*
X155199219Y-73594780D01*
X155004529Y-73531521D01*
X154802355Y-73499500D01*
X154802352Y-73499500D01*
X154597648Y-73499500D01*
X154597645Y-73499500D01*
X154395470Y-73531521D01*
X154200780Y-73594780D01*
X154018390Y-73687712D01*
X154018386Y-73687714D01*
X153852786Y-73808029D01*
X153708029Y-73952786D01*
X153587714Y-74118386D01*
X153587712Y-74118390D01*
X153494780Y-74300780D01*
X153431521Y-74495470D01*
X153399500Y-74697644D01*
X148555500Y-74697644D01*
X148555500Y-73099000D01*
X148552970Y-73066856D01*
X148548125Y-73036263D01*
X148548116Y-73036206D01*
X148547353Y-73031718D01*
X148547352Y-73031713D01*
X148511408Y-72947617D01*
X148475444Y-72898117D01*
X148451203Y-72870372D01*
X148372693Y-72823464D01*
X148372691Y-72823463D01*
X148372689Y-72823462D01*
X148314499Y-72804556D01*
X148314500Y-72804556D01*
X148251003Y-72794500D01*
X148251000Y-72794500D01*
X131339502Y-72794500D01*
X131339501Y-72794500D01*
X131326063Y-72794939D01*
X131314692Y-72795685D01*
X131313123Y-72795788D01*
X131238082Y-72815375D01*
X131238080Y-72815375D01*
X131238079Y-72815376D01*
X131182864Y-72841718D01*
X131129871Y-72878147D01*
X128736315Y-75149999D01*
X125301739Y-78409936D01*
X125301737Y-78409938D01*
X125289402Y-78421644D01*
X125289365Y-78421681D01*
X125276347Y-78435221D01*
X125264405Y-78448838D01*
X125264401Y-78448844D01*
X125223464Y-78520832D01*
X125204556Y-78579026D01*
X125194500Y-78642523D01*
X124100000Y-78642523D01*
X124100000Y-75230943D01*
X126159500Y-75230943D01*
X126159500Y-75389057D01*
X126200423Y-75541784D01*
X126279480Y-75678716D01*
X126391284Y-75790520D01*
X126528216Y-75869577D01*
X126680943Y-75910500D01*
X126680945Y-75910500D01*
X127439055Y-75910500D01*
X127439057Y-75910500D01*
X127591784Y-75869577D01*
X127728716Y-75790520D01*
X127840520Y-75678716D01*
X127919577Y-75541784D01*
X127960500Y-75389057D01*
X127960500Y-75230943D01*
X127919577Y-75078216D01*
X127840520Y-74941284D01*
X127728716Y-74829480D01*
X127591784Y-74750423D01*
X127439057Y-74709500D01*
X126680943Y-74709500D01*
X126528216Y-74750423D01*
X126391284Y-74829480D01*
X126279480Y-74941284D01*
X126200423Y-75078216D01*
X126159500Y-75230943D01*
X124100000Y-75230943D01*
X124100000Y-74400867D01*
X124100016Y-74399102D01*
X124100016Y-74399101D01*
X124102437Y-74263322D01*
X124103428Y-74251017D01*
X124142203Y-73981329D01*
X124145200Y-73967545D01*
X124221713Y-73706967D01*
X124226645Y-73693744D01*
X124339463Y-73446707D01*
X124346222Y-73434330D01*
X124493048Y-73205864D01*
X124501512Y-73194560D01*
X124679343Y-72989331D01*
X124689331Y-72979343D01*
X124869229Y-72823462D01*
X124894562Y-72801510D01*
X124905867Y-72793047D01*
X125134330Y-72646222D01*
X125146707Y-72639463D01*
X125393744Y-72526645D01*
X125406967Y-72521713D01*
X125667545Y-72445200D01*
X125681329Y-72442203D01*
X125951017Y-72403428D01*
X125963322Y-72402437D01*
X126099103Y-72400016D01*
X126100868Y-72400000D01*
X164399132Y-72400000D01*
X164400897Y-72400016D01*
G37*
G04 #@! TD.AperFunction*
G04 #@! TD*
G04 #@! TA.AperFunction,Conductor*
G04 #@! TO.N,GND*
G36*
X150017169Y-123382830D02*
G01*
X150017147Y-123382853D01*
X149964152Y-123441278D01*
X149903835Y-123586883D01*
X149903834Y-123586886D01*
X149900000Y-123665695D01*
X149900000Y-124500005D01*
X149901921Y-124539396D01*
X149901922Y-124539401D01*
X149932075Y-124612199D01*
X149932076Y-124612200D01*
X149932077Y-124612202D01*
X149987798Y-124667923D01*
X150060600Y-124698078D01*
X150073733Y-124698718D01*
X150099994Y-124700000D01*
X150100000Y-124700000D01*
X150495031Y-124700000D01*
X150553222Y-124718907D01*
X150565035Y-124728996D01*
X150571004Y-124734965D01*
X150598781Y-124789482D01*
X150600000Y-124804969D01*
X150600000Y-126201906D01*
X150599882Y-126206733D01*
X150596992Y-126265937D01*
X150589573Y-126298999D01*
X150542416Y-126412834D01*
X150524291Y-126441447D01*
X150484477Y-126485354D01*
X150481143Y-126488856D01*
X149417149Y-127552851D01*
X149417147Y-127552853D01*
X149364152Y-127611278D01*
X149303835Y-127756883D01*
X149303834Y-127756886D01*
X149300000Y-127835695D01*
X149300000Y-131798623D01*
X149299961Y-131801394D01*
X149297757Y-131880104D01*
X149295314Y-131899362D01*
X149259978Y-132054182D01*
X149252656Y-132075108D01*
X149184360Y-132216925D01*
X149172565Y-132235696D01*
X149074429Y-132358754D01*
X149058754Y-132374429D01*
X148935696Y-132472565D01*
X148916925Y-132484360D01*
X148775108Y-132552656D01*
X148754182Y-132559978D01*
X148599362Y-132595314D01*
X148580104Y-132597757D01*
X148502847Y-132599920D01*
X148501392Y-132599961D01*
X148498623Y-132600000D01*
X140401377Y-132600000D01*
X140398607Y-132599961D01*
X140397108Y-132599919D01*
X140319895Y-132597757D01*
X140300637Y-132595314D01*
X140145817Y-132559978D01*
X140124891Y-132552656D01*
X139983074Y-132484360D01*
X139964308Y-132472568D01*
X139841244Y-132374428D01*
X139825570Y-132358754D01*
X139727429Y-132235689D01*
X139715641Y-132216928D01*
X139647341Y-132075105D01*
X139640021Y-132054182D01*
X139604685Y-131899362D01*
X139602242Y-131880103D01*
X139600039Y-131801393D01*
X139600000Y-131798623D01*
X139600000Y-126799999D01*
X144599508Y-126799999D01*
X144599508Y-126800000D01*
X144619354Y-126925303D01*
X144619355Y-126925307D01*
X144674944Y-127034406D01*
X144676950Y-127038342D01*
X144766658Y-127128050D01*
X144879696Y-127185646D01*
X145005000Y-127205492D01*
X145130304Y-127185646D01*
X145243342Y-127128050D01*
X145333050Y-127038342D01*
X145390646Y-126925304D01*
X145410492Y-126800000D01*
X145390646Y-126674696D01*
X145333050Y-126561658D01*
X145243342Y-126471950D01*
X145183477Y-126441447D01*
X145130307Y-126414355D01*
X145130304Y-126414354D01*
X145005000Y-126394508D01*
X144879696Y-126414354D01*
X144879692Y-126414355D01*
X144766659Y-126471949D01*
X144676949Y-126561659D01*
X144619355Y-126674692D01*
X144619354Y-126674696D01*
X144599508Y-126799999D01*
X139600000Y-126799999D01*
X139600000Y-123000000D01*
X150399999Y-123000000D01*
X150017169Y-123382830D01*
G37*
G04 #@! TD.AperFunction*
G04 #@! TD*
G04 #@! TA.AperFunction,Conductor*
G04 #@! TO.N,+3V3_SYS*
G36*
X152350000Y-98850000D02*
G01*
X152246950Y-98850000D01*
X152237501Y-98790341D01*
X152223315Y-98762500D01*
X152187095Y-98691413D01*
X152187092Y-98691410D01*
X152187090Y-98691407D01*
X152108592Y-98612909D01*
X152108588Y-98612906D01*
X152108587Y-98612905D01*
X152104743Y-98610946D01*
X152009658Y-98562498D01*
X151934008Y-98550517D01*
X151870873Y-98520588D01*
X151865725Y-98515725D01*
X151800000Y-98450000D01*
X147250000Y-98450000D01*
X147249999Y-98450000D01*
X146291187Y-99408812D01*
X146229864Y-99442297D01*
X146203506Y-99445131D01*
X146199998Y-99445131D01*
X146090341Y-99462498D01*
X145991414Y-99512904D01*
X145991407Y-99512909D01*
X145912909Y-99591407D01*
X145912904Y-99591414D01*
X145862498Y-99690341D01*
X145845131Y-99799997D01*
X145845131Y-99803506D01*
X145843924Y-99807614D01*
X145843604Y-99809639D01*
X145843342Y-99809597D01*
X145825446Y-99870545D01*
X145808812Y-99891187D01*
X145636319Y-100063681D01*
X145574996Y-100097166D01*
X145548638Y-100100000D01*
X145201362Y-100100000D01*
X145134323Y-100080315D01*
X145113681Y-100063681D01*
X144298438Y-99248438D01*
X144275635Y-99217053D01*
X144237095Y-99141413D01*
X144158587Y-99062905D01*
X144156626Y-99061906D01*
X144082945Y-99024363D01*
X144051560Y-99001560D01*
X144050000Y-99000000D01*
X143990499Y-99000000D01*
X143971100Y-98998473D01*
X143950001Y-98995131D01*
X143949999Y-98995131D01*
X143928900Y-98998473D01*
X143909501Y-99000000D01*
X142990499Y-99000000D01*
X142971100Y-98998473D01*
X142950001Y-98995131D01*
X142949999Y-98995131D01*
X142928900Y-98998473D01*
X142909501Y-99000000D01*
X141490499Y-99000000D01*
X141471100Y-98998473D01*
X141450001Y-98995131D01*
X141449999Y-98995131D01*
X141428900Y-98998473D01*
X141409501Y-99000000D01*
X141299999Y-99000000D01*
X140600000Y-99699999D01*
X140600000Y-99948638D01*
X140580315Y-100015677D01*
X140563681Y-100036319D01*
X140536319Y-100063681D01*
X140474996Y-100097166D01*
X140448638Y-100100000D01*
X140201362Y-100100000D01*
X140134323Y-100080315D01*
X140113681Y-100063681D01*
X140086319Y-100036319D01*
X140052834Y-99974996D01*
X140050000Y-99948638D01*
X140050000Y-98951362D01*
X140069685Y-98884323D01*
X140086319Y-98863681D01*
X140463681Y-98486319D01*
X140525004Y-98452834D01*
X140551362Y-98450000D01*
X145909501Y-98450000D01*
X145928900Y-98451527D01*
X145949999Y-98454869D01*
X145950000Y-98454869D01*
X145950001Y-98454869D01*
X145971100Y-98451527D01*
X145990499Y-98450000D01*
X146150000Y-98450000D01*
X146963681Y-97636319D01*
X147025004Y-97602834D01*
X147051362Y-97600000D01*
X151550000Y-97600000D01*
X151900000Y-97250000D01*
X152350000Y-97250000D01*
X152350000Y-98850000D01*
G37*
G04 #@! TD.AperFunction*
G04 #@! TD*
G04 #@! TA.AperFunction,Conductor*
G04 #@! TO.N,+3V3*
G36*
X133853699Y-87618907D02*
G01*
X133889663Y-87668407D01*
X133894508Y-87699000D01*
X133894508Y-87700000D01*
X133914354Y-87825303D01*
X133914355Y-87825307D01*
X133915753Y-87828050D01*
X133971950Y-87938342D01*
X134061658Y-88028050D01*
X134174696Y-88085646D01*
X134300000Y-88105492D01*
X134425304Y-88085646D01*
X134538342Y-88028050D01*
X134628050Y-87938342D01*
X134685646Y-87825304D01*
X134705492Y-87700000D01*
X134705492Y-87699000D01*
X134705801Y-87698048D01*
X134706711Y-87692304D01*
X134707620Y-87692448D01*
X134724399Y-87640809D01*
X134773899Y-87604845D01*
X134804492Y-87600000D01*
X142958992Y-87600000D01*
X143017183Y-87618907D01*
X143028996Y-87628996D01*
X145271004Y-89871004D01*
X145298781Y-89925521D01*
X145300000Y-89941008D01*
X145300000Y-91058991D01*
X145281093Y-91117182D01*
X145271004Y-91128995D01*
X144035888Y-92364110D01*
X143981371Y-92391887D01*
X143920939Y-92382316D01*
X143877675Y-92339052D01*
X143838241Y-92261659D01*
X143828050Y-92241658D01*
X143738342Y-92151950D01*
X143695306Y-92130022D01*
X143625307Y-92094355D01*
X143625304Y-92094354D01*
X143500000Y-92074508D01*
X143374696Y-92094354D01*
X143374692Y-92094355D01*
X143261659Y-92151949D01*
X143171949Y-92241659D01*
X143114355Y-92354692D01*
X143114354Y-92354696D01*
X143093289Y-92487696D01*
X143090682Y-92487283D01*
X143075601Y-92533699D01*
X143026101Y-92569663D01*
X143007586Y-92572595D01*
X143007696Y-92573289D01*
X142874696Y-92594354D01*
X142874692Y-92594355D01*
X142761659Y-92651949D01*
X142671949Y-92741659D01*
X142614355Y-92854692D01*
X142614354Y-92854696D01*
X142594508Y-92979999D01*
X142594508Y-92980000D01*
X142614354Y-93105303D01*
X142614355Y-93105307D01*
X142669944Y-93214406D01*
X142671950Y-93218342D01*
X142761658Y-93308050D01*
X142874696Y-93365646D01*
X143000000Y-93385492D01*
X143001000Y-93385492D01*
X143001951Y-93385801D01*
X143007696Y-93386711D01*
X143007551Y-93387620D01*
X143059191Y-93404399D01*
X143095155Y-93453899D01*
X143100000Y-93484492D01*
X143100000Y-95000000D01*
X143300000Y-95200000D01*
X144158992Y-95200000D01*
X144217183Y-95218907D01*
X144228996Y-95228996D01*
X144371004Y-95371004D01*
X144398781Y-95425521D01*
X144400000Y-95441008D01*
X144400000Y-95610656D01*
X144399500Y-95618287D01*
X144399500Y-95781713D01*
X144400000Y-95789343D01*
X144400000Y-96100000D01*
X144650000Y-96350000D01*
X146449999Y-96350000D01*
X146450000Y-96350000D01*
X148500000Y-94300000D01*
X148500000Y-93699999D01*
X150194508Y-93699999D01*
X150194508Y-93700000D01*
X150214354Y-93825303D01*
X150214355Y-93825307D01*
X150269944Y-93934406D01*
X150271950Y-93938342D01*
X150361658Y-94028050D01*
X150474696Y-94085646D01*
X150600000Y-94105492D01*
X150725304Y-94085646D01*
X150838342Y-94028050D01*
X150928050Y-93938342D01*
X150985646Y-93825304D01*
X151005492Y-93700000D01*
X150985646Y-93574696D01*
X150928050Y-93461658D01*
X150838342Y-93371950D01*
X150825966Y-93365644D01*
X150725307Y-93314355D01*
X150725304Y-93314354D01*
X150600000Y-93294508D01*
X150474696Y-93314354D01*
X150474692Y-93314355D01*
X150361659Y-93371949D01*
X150271949Y-93461659D01*
X150214355Y-93574692D01*
X150214354Y-93574696D01*
X150194508Y-93699999D01*
X148500000Y-93699999D01*
X148500000Y-92249000D01*
X148518907Y-92190809D01*
X148568407Y-92154845D01*
X148599000Y-92150000D01*
X151501000Y-92150000D01*
X151559191Y-92168907D01*
X151595155Y-92218407D01*
X151600000Y-92249000D01*
X151600000Y-96894601D01*
X151581093Y-96952792D01*
X151531593Y-96988756D01*
X151470407Y-96988756D01*
X151430996Y-96964605D01*
X151428051Y-96961660D01*
X151428050Y-96961658D01*
X151338342Y-96871950D01*
X151276593Y-96840487D01*
X151225307Y-96814355D01*
X151225304Y-96814354D01*
X151100000Y-96794508D01*
X150974696Y-96814354D01*
X150974692Y-96814355D01*
X150861659Y-96871949D01*
X150771949Y-96961659D01*
X150714355Y-97074692D01*
X150714354Y-97074696D01*
X150706339Y-97125304D01*
X150694508Y-97200000D01*
X150706435Y-97275307D01*
X150707181Y-97280013D01*
X150697610Y-97340445D01*
X150654345Y-97383710D01*
X150609400Y-97394500D01*
X149410990Y-97394500D01*
X149352799Y-97375593D01*
X149316835Y-97326093D01*
X149316835Y-97264907D01*
X149322780Y-97250555D01*
X149335645Y-97225305D01*
X149335646Y-97225304D01*
X149355492Y-97100000D01*
X149335646Y-96974696D01*
X149278050Y-96861658D01*
X149188342Y-96771950D01*
X149122383Y-96738342D01*
X149075307Y-96714355D01*
X149075304Y-96714354D01*
X148950000Y-96694508D01*
X148824696Y-96714354D01*
X148824692Y-96714355D01*
X148711659Y-96771949D01*
X148621949Y-96861659D01*
X148564355Y-96974692D01*
X148564354Y-96974696D01*
X148544508Y-97099999D01*
X148544508Y-97100000D01*
X148564354Y-97225303D01*
X148564354Y-97225305D01*
X148577220Y-97250555D01*
X148586791Y-97310987D01*
X148559013Y-97365504D01*
X148504497Y-97393281D01*
X148489010Y-97394500D01*
X147051343Y-97394500D01*
X147029405Y-97395677D01*
X147029398Y-97395677D01*
X147029393Y-97395678D01*
X147020894Y-97396591D01*
X147003038Y-97398511D01*
X147003033Y-97398512D01*
X146926520Y-97422469D01*
X146865186Y-97455961D01*
X146840206Y-97474661D01*
X146782291Y-97494397D01*
X146723837Y-97476322D01*
X146692671Y-97440353D01*
X146678050Y-97411658D01*
X146588342Y-97321950D01*
X146566826Y-97310987D01*
X146475307Y-97264355D01*
X146475304Y-97264354D01*
X146350000Y-97244508D01*
X146224696Y-97264354D01*
X146224692Y-97264355D01*
X146111659Y-97321949D01*
X146021949Y-97411659D01*
X145964355Y-97524692D01*
X145964354Y-97524696D01*
X145948387Y-97625504D01*
X145920609Y-97680020D01*
X145866094Y-97707797D01*
X145824696Y-97714354D01*
X145824692Y-97714355D01*
X145711659Y-97771949D01*
X145621949Y-97861659D01*
X145564355Y-97974692D01*
X145564354Y-97974696D01*
X145556339Y-98025304D01*
X145544508Y-98100000D01*
X145549261Y-98130013D01*
X145539691Y-98190444D01*
X145496427Y-98233709D01*
X145451481Y-98244500D01*
X142432681Y-98244500D01*
X142374490Y-98225593D01*
X142338526Y-98176093D01*
X142334900Y-98130013D01*
X142355492Y-98000000D01*
X142355492Y-97999999D01*
X142351484Y-97974692D01*
X142335646Y-97874696D01*
X142278050Y-97761658D01*
X142188342Y-97671950D01*
X142145263Y-97650000D01*
X142075307Y-97614355D01*
X142075304Y-97614354D01*
X141950000Y-97594508D01*
X141824696Y-97614354D01*
X141824692Y-97614355D01*
X141711656Y-97671950D01*
X141708185Y-97674473D01*
X141649993Y-97693376D01*
X141591815Y-97674473D01*
X141588343Y-97671950D01*
X141475307Y-97614355D01*
X141475304Y-97614354D01*
X141350000Y-97594508D01*
X141224696Y-97614354D01*
X141224692Y-97614355D01*
X141111659Y-97671949D01*
X141021949Y-97761659D01*
X140964355Y-97874692D01*
X140964354Y-97874696D01*
X140944508Y-97999999D01*
X140944508Y-98000000D01*
X140965100Y-98130013D01*
X140955529Y-98190445D01*
X140912264Y-98233710D01*
X140867319Y-98244500D01*
X140735513Y-98244500D01*
X140677322Y-98225593D01*
X140641358Y-98176093D01*
X140641358Y-98114907D01*
X140647304Y-98100554D01*
X140685644Y-98025307D01*
X140685646Y-98025304D01*
X140705492Y-97900000D01*
X140685646Y-97774696D01*
X140628050Y-97661658D01*
X140538342Y-97571950D01*
X140467092Y-97535646D01*
X140425307Y-97514355D01*
X140425304Y-97514354D01*
X140300000Y-97494508D01*
X140174696Y-97514354D01*
X140174692Y-97514355D01*
X140061658Y-97571950D01*
X140061655Y-97571951D01*
X140036806Y-97596801D01*
X139982289Y-97624577D01*
X139921857Y-97615005D01*
X139896800Y-97596800D01*
X139878199Y-97578199D01*
X139850422Y-97523682D01*
X139859993Y-97463250D01*
X139878197Y-97438194D01*
X139928050Y-97388342D01*
X139985646Y-97275304D01*
X140005492Y-97150000D01*
X139985646Y-97024696D01*
X139973062Y-96999999D01*
X141994508Y-96999999D01*
X141994508Y-97000000D01*
X142014354Y-97125303D01*
X142014355Y-97125307D01*
X142026937Y-97150000D01*
X142071950Y-97238342D01*
X142161658Y-97328050D01*
X142274696Y-97385646D01*
X142400000Y-97405492D01*
X142525304Y-97385646D01*
X142638342Y-97328050D01*
X142728050Y-97238342D01*
X142785646Y-97125304D01*
X142805492Y-97000000D01*
X142785646Y-96874696D01*
X142728050Y-96761658D01*
X142638342Y-96671950D01*
X142610365Y-96657695D01*
X142525307Y-96614355D01*
X142525304Y-96614354D01*
X142400000Y-96594508D01*
X142274696Y-96614354D01*
X142274692Y-96614355D01*
X142161659Y-96671949D01*
X142071949Y-96761659D01*
X142014355Y-96874692D01*
X142014354Y-96874696D01*
X141994508Y-96999999D01*
X139973062Y-96999999D01*
X139928050Y-96911658D01*
X139911393Y-96895001D01*
X139883618Y-96840487D01*
X139893189Y-96780055D01*
X139911392Y-96754999D01*
X139928050Y-96738342D01*
X139985646Y-96625304D01*
X140005492Y-96500000D01*
X139985646Y-96374696D01*
X139928050Y-96261658D01*
X139838342Y-96171950D01*
X139834406Y-96169944D01*
X139725307Y-96114355D01*
X139725304Y-96114354D01*
X139600000Y-96094508D01*
X139474696Y-96114354D01*
X139474692Y-96114355D01*
X139361659Y-96171949D01*
X139271949Y-96261659D01*
X139214355Y-96374692D01*
X139214354Y-96374696D01*
X139194508Y-96500000D01*
X139209476Y-96594508D01*
X139214354Y-96625303D01*
X139214355Y-96625307D01*
X139230858Y-96657695D01*
X139240430Y-96718127D01*
X139212653Y-96772644D01*
X139158137Y-96800422D01*
X139097705Y-96790851D01*
X139072645Y-96772645D01*
X138338340Y-96038340D01*
X138099999Y-95799999D01*
X140894508Y-95799999D01*
X140894508Y-95800000D01*
X140914354Y-95925303D01*
X140914355Y-95925307D01*
X140969944Y-96034406D01*
X140971950Y-96038342D01*
X141061658Y-96128050D01*
X141174696Y-96185646D01*
X141300000Y-96205492D01*
X141425304Y-96185646D01*
X141538342Y-96128050D01*
X141628050Y-96038342D01*
X141685646Y-95925304D01*
X141705492Y-95800000D01*
X141685646Y-95674696D01*
X141628050Y-95561658D01*
X141538342Y-95471950D01*
X141531014Y-95468216D01*
X141425307Y-95414355D01*
X141425304Y-95414354D01*
X141320664Y-95397780D01*
X141304571Y-95389581D01*
X141279334Y-95397781D01*
X141174696Y-95414354D01*
X141174692Y-95414355D01*
X141061659Y-95471949D01*
X140971949Y-95561659D01*
X140914355Y-95674692D01*
X140914354Y-95674696D01*
X140894508Y-95799999D01*
X138099999Y-95799999D01*
X137450000Y-95150000D01*
X137449999Y-95150000D01*
X125943795Y-95150000D01*
X125885604Y-95131093D01*
X125870541Y-95117595D01*
X125581818Y-94799999D01*
X140894508Y-94799999D01*
X140894508Y-94800000D01*
X140914354Y-94925303D01*
X140914355Y-94925307D01*
X140952414Y-95000000D01*
X140971950Y-95038342D01*
X141061658Y-95128050D01*
X141174696Y-95185646D01*
X141265325Y-95200000D01*
X141279334Y-95202219D01*
X141295427Y-95210418D01*
X141320665Y-95202219D01*
X141425304Y-95185646D01*
X141538342Y-95128050D01*
X141628050Y-95038342D01*
X141685646Y-94925304D01*
X141705492Y-94800000D01*
X141685646Y-94674696D01*
X141628050Y-94561658D01*
X141538342Y-94471950D01*
X141534406Y-94469944D01*
X141425307Y-94414355D01*
X141425304Y-94414354D01*
X141300000Y-94394508D01*
X141174696Y-94414354D01*
X141174692Y-94414355D01*
X141061659Y-94471949D01*
X140971949Y-94561659D01*
X140914355Y-94674692D01*
X140914354Y-94674696D01*
X140894508Y-94799999D01*
X125581818Y-94799999D01*
X125425746Y-94628320D01*
X125400593Y-94572543D01*
X125400000Y-94561725D01*
X125400000Y-92958187D01*
X125418907Y-92899996D01*
X125468407Y-92864032D01*
X125529593Y-92864032D01*
X125543945Y-92869977D01*
X125574696Y-92885646D01*
X125700000Y-92905492D01*
X125825304Y-92885646D01*
X125938342Y-92828050D01*
X126028050Y-92738342D01*
X126085646Y-92625304D01*
X126105492Y-92500000D01*
X126085646Y-92374696D01*
X126028050Y-92261658D01*
X125938342Y-92171950D01*
X125895263Y-92150000D01*
X125825307Y-92114355D01*
X125825304Y-92114354D01*
X125700000Y-92094508D01*
X125574696Y-92114354D01*
X125574691Y-92114355D01*
X125543944Y-92130022D01*
X125483512Y-92139593D01*
X125428996Y-92111815D01*
X125401219Y-92057298D01*
X125400000Y-92041812D01*
X125400000Y-91199999D01*
X140894508Y-91199999D01*
X140894508Y-91200000D01*
X140914354Y-91325303D01*
X140914355Y-91325307D01*
X140969944Y-91434406D01*
X140971950Y-91438342D01*
X141061658Y-91528050D01*
X141174696Y-91585646D01*
X141300000Y-91605492D01*
X141425304Y-91585646D01*
X141538342Y-91528050D01*
X141628050Y-91438342D01*
X141685646Y-91325304D01*
X141705492Y-91200000D01*
X141685646Y-91074696D01*
X141628050Y-90961658D01*
X141538342Y-90871950D01*
X141534406Y-90869944D01*
X141425307Y-90814355D01*
X141425304Y-90814354D01*
X141300000Y-90794508D01*
X141174696Y-90814354D01*
X141174692Y-90814355D01*
X141061659Y-90871949D01*
X140971949Y-90961659D01*
X140914355Y-91074692D01*
X140914354Y-91074696D01*
X140894508Y-91199999D01*
X125400000Y-91199999D01*
X125400000Y-90299999D01*
X138694508Y-90299999D01*
X138694508Y-90300000D01*
X138714354Y-90425303D01*
X138714355Y-90425307D01*
X138769944Y-90534406D01*
X138771950Y-90538342D01*
X138861658Y-90628050D01*
X138974696Y-90685646D01*
X139100000Y-90705492D01*
X139225304Y-90685646D01*
X139338342Y-90628050D01*
X139428050Y-90538342D01*
X139485646Y-90425304D01*
X139505492Y-90300000D01*
X139485646Y-90174696D01*
X139428050Y-90061658D01*
X139338342Y-89971950D01*
X139334406Y-89969944D01*
X139225307Y-89914355D01*
X139225304Y-89914354D01*
X139100000Y-89894508D01*
X138974696Y-89914354D01*
X138974692Y-89914355D01*
X138861659Y-89971949D01*
X138771949Y-90061659D01*
X138714355Y-90174692D01*
X138714354Y-90174696D01*
X138694508Y-90299999D01*
X125400000Y-90299999D01*
X125400000Y-89865000D01*
X130159508Y-89865000D01*
X130169093Y-89925521D01*
X130179354Y-89990303D01*
X130179355Y-89990307D01*
X130215711Y-90061658D01*
X130236950Y-90103342D01*
X130326658Y-90193050D01*
X130439696Y-90250646D01*
X130565000Y-90270492D01*
X130690304Y-90250646D01*
X130803342Y-90193050D01*
X130893050Y-90103342D01*
X130950646Y-89990304D01*
X130970492Y-89865000D01*
X130950646Y-89739696D01*
X130893050Y-89626658D01*
X130803342Y-89536950D01*
X130785875Y-89528050D01*
X130690307Y-89479355D01*
X130690304Y-89479354D01*
X130565000Y-89459508D01*
X130439696Y-89479354D01*
X130439692Y-89479355D01*
X130326659Y-89536949D01*
X130236949Y-89626659D01*
X130179355Y-89739692D01*
X130179354Y-89739696D01*
X130159508Y-89865000D01*
X125400000Y-89865000D01*
X125400000Y-89199999D01*
X142394508Y-89199999D01*
X142394508Y-89200000D01*
X142414354Y-89325303D01*
X142414355Y-89325307D01*
X142452159Y-89399500D01*
X142471950Y-89438342D01*
X142561658Y-89528050D01*
X142674696Y-89585646D01*
X142800000Y-89605492D01*
X142925304Y-89585646D01*
X143038342Y-89528050D01*
X143128050Y-89438342D01*
X143185646Y-89325304D01*
X143205492Y-89200000D01*
X143185646Y-89074696D01*
X143128050Y-88961658D01*
X143038342Y-88871950D01*
X142972383Y-88838342D01*
X142925307Y-88814355D01*
X142925304Y-88814354D01*
X142800000Y-88794508D01*
X142674696Y-88814354D01*
X142674692Y-88814355D01*
X142561659Y-88871949D01*
X142471949Y-88961659D01*
X142414355Y-89074692D01*
X142414354Y-89074696D01*
X142394508Y-89199999D01*
X125400000Y-89199999D01*
X125400000Y-88594999D01*
X130099508Y-88594999D01*
X130099508Y-88595000D01*
X130119354Y-88720303D01*
X130119355Y-88720307D01*
X130121903Y-88725307D01*
X130176950Y-88833342D01*
X130266658Y-88923050D01*
X130379696Y-88980646D01*
X130505000Y-89000492D01*
X130630304Y-88980646D01*
X130743342Y-88923050D01*
X130833050Y-88833342D01*
X130890646Y-88720304D01*
X130909700Y-88599999D01*
X132494508Y-88599999D01*
X132494508Y-88600000D01*
X132514354Y-88725303D01*
X132514355Y-88725307D01*
X132549615Y-88794508D01*
X132571950Y-88838342D01*
X132661658Y-88928050D01*
X132774696Y-88985646D01*
X132900000Y-89005492D01*
X133025304Y-88985646D01*
X133138342Y-88928050D01*
X133228050Y-88838342D01*
X133285646Y-88725304D01*
X133305492Y-88600000D01*
X133305492Y-88599999D01*
X135394508Y-88599999D01*
X135394508Y-88600000D01*
X135414354Y-88725303D01*
X135414355Y-88725307D01*
X135449615Y-88794508D01*
X135471950Y-88838342D01*
X135561658Y-88928050D01*
X135674696Y-88985646D01*
X135800000Y-89005492D01*
X135925304Y-88985646D01*
X136038342Y-88928050D01*
X136128050Y-88838342D01*
X136185646Y-88725304D01*
X136189654Y-88700000D01*
X137594508Y-88700000D01*
X137609476Y-88794508D01*
X137614354Y-88825303D01*
X137614355Y-88825307D01*
X137620996Y-88838340D01*
X137671950Y-88938342D01*
X137761658Y-89028050D01*
X137874696Y-89085646D01*
X138000000Y-89105492D01*
X138125304Y-89085646D01*
X138238342Y-89028050D01*
X138328050Y-88938342D01*
X138385646Y-88825304D01*
X138405492Y-88700000D01*
X138385646Y-88574696D01*
X138328050Y-88461658D01*
X138238342Y-88371950D01*
X138208330Y-88356658D01*
X138125307Y-88314355D01*
X138125304Y-88314354D01*
X138000000Y-88294508D01*
X137874696Y-88314354D01*
X137874692Y-88314355D01*
X137761659Y-88371949D01*
X137671949Y-88461659D01*
X137614355Y-88574692D01*
X137614354Y-88574696D01*
X137594508Y-88700000D01*
X136189654Y-88700000D01*
X136205492Y-88600000D01*
X136185646Y-88474696D01*
X136128050Y-88361658D01*
X136038342Y-88271950D01*
X136028527Y-88266949D01*
X135925307Y-88214355D01*
X135925304Y-88214354D01*
X135800000Y-88194508D01*
X135674696Y-88214354D01*
X135674692Y-88214355D01*
X135561659Y-88271949D01*
X135471949Y-88361659D01*
X135414355Y-88474692D01*
X135414354Y-88474696D01*
X135394508Y-88599999D01*
X133305492Y-88599999D01*
X133285646Y-88474696D01*
X133228050Y-88361658D01*
X133138342Y-88271950D01*
X133128527Y-88266949D01*
X133025307Y-88214355D01*
X133025304Y-88214354D01*
X132900000Y-88194508D01*
X132774696Y-88214354D01*
X132774692Y-88214355D01*
X132661659Y-88271949D01*
X132571949Y-88361659D01*
X132514355Y-88474692D01*
X132514354Y-88474696D01*
X132494508Y-88599999D01*
X130909700Y-88599999D01*
X130910492Y-88595000D01*
X130890646Y-88469696D01*
X130833050Y-88356658D01*
X130743342Y-88266950D01*
X130739406Y-88264944D01*
X130630307Y-88209355D01*
X130630304Y-88209354D01*
X130505000Y-88189508D01*
X130379696Y-88209354D01*
X130379692Y-88209355D01*
X130266659Y-88266949D01*
X130176949Y-88356659D01*
X130119355Y-88469692D01*
X130119354Y-88469696D01*
X130099508Y-88594999D01*
X125400000Y-88594999D01*
X125400000Y-88141008D01*
X125418907Y-88082817D01*
X125428996Y-88071004D01*
X125871004Y-87628996D01*
X125925521Y-87601219D01*
X125941008Y-87600000D01*
X133795508Y-87600000D01*
X133853699Y-87618907D01*
G37*
G04 #@! TD.AperFunction*
G04 #@! TD*
G04 #@! TA.AperFunction,Conductor*
G04 #@! TO.N,+5V*
G36*
X148309191Y-73018907D02*
G01*
X148345155Y-73068407D01*
X148350000Y-73099000D01*
X148350000Y-77001000D01*
X148331093Y-77059191D01*
X148281593Y-77095155D01*
X148251000Y-77100000D01*
X145898993Y-77100000D01*
X145840802Y-77081093D01*
X145804838Y-77031593D01*
X145799993Y-77001007D01*
X145799951Y-76392264D01*
X145799887Y-75450000D01*
X145799887Y-75449999D01*
X145499962Y-75149999D01*
X146594508Y-75149999D01*
X146594508Y-75150000D01*
X146614354Y-75275303D01*
X146614355Y-75275307D01*
X146658354Y-75361658D01*
X146671950Y-75388342D01*
X146761658Y-75478050D01*
X146874696Y-75535646D01*
X147000000Y-75555492D01*
X147125304Y-75535646D01*
X147238342Y-75478050D01*
X147328050Y-75388342D01*
X147385646Y-75275304D01*
X147405492Y-75150000D01*
X147385646Y-75024696D01*
X147328050Y-74911658D01*
X147238342Y-74821950D01*
X147234406Y-74819944D01*
X147125307Y-74764355D01*
X147125304Y-74764354D01*
X147000000Y-74744508D01*
X146874696Y-74764354D01*
X146874692Y-74764355D01*
X146761659Y-74821949D01*
X146671949Y-74911659D01*
X146614355Y-75024692D01*
X146614354Y-75024696D01*
X146594508Y-75149999D01*
X145499962Y-75149999D01*
X145350000Y-75000000D01*
X131900000Y-75000000D01*
X131899999Y-75000000D01*
X131203198Y-75696800D01*
X131148682Y-75724577D01*
X131088250Y-75715006D01*
X131063194Y-75696802D01*
X131038342Y-75671950D01*
X131034406Y-75669944D01*
X130925307Y-75614355D01*
X130925304Y-75614354D01*
X130800000Y-75594508D01*
X130674696Y-75614354D01*
X130674692Y-75614355D01*
X130561659Y-75671949D01*
X130471949Y-75761659D01*
X130414355Y-75874692D01*
X130414354Y-75874696D01*
X130402586Y-75949000D01*
X130394508Y-76000000D01*
X130409476Y-76094508D01*
X130414354Y-76125303D01*
X130414355Y-76125307D01*
X130427202Y-76150520D01*
X130471950Y-76238342D01*
X130561658Y-76328050D01*
X130674696Y-76385646D01*
X130716486Y-76392264D01*
X130771002Y-76420040D01*
X130798781Y-76474556D01*
X130800000Y-76490045D01*
X130800000Y-77309954D01*
X130781093Y-77368145D01*
X130731593Y-77404109D01*
X130716487Y-77407735D01*
X130674696Y-77414354D01*
X130674692Y-77414355D01*
X130561659Y-77471949D01*
X130471949Y-77561659D01*
X130414355Y-77674692D01*
X130414354Y-77674696D01*
X130394508Y-77799999D01*
X130394508Y-77800000D01*
X130414354Y-77925303D01*
X130414355Y-77925307D01*
X130416235Y-77928996D01*
X130471950Y-78038342D01*
X130561658Y-78128050D01*
X130674696Y-78185646D01*
X130800000Y-78205492D01*
X130925304Y-78185646D01*
X131038342Y-78128050D01*
X131128050Y-78038342D01*
X131170997Y-77954055D01*
X131214261Y-77910790D01*
X131259206Y-77900000D01*
X134258992Y-77900000D01*
X134317183Y-77918907D01*
X134328996Y-77928996D01*
X134471004Y-78071004D01*
X134498781Y-78125521D01*
X134500000Y-78141008D01*
X134500000Y-78558992D01*
X134481093Y-78617183D01*
X134471004Y-78628996D01*
X134328996Y-78771004D01*
X134274479Y-78798781D01*
X134258992Y-78800000D01*
X132707399Y-78800000D01*
X132649208Y-78781093D01*
X132639420Y-78772734D01*
X132638344Y-78771952D01*
X132638342Y-78771950D01*
X132582861Y-78743681D01*
X132525307Y-78714355D01*
X132525304Y-78714354D01*
X132400000Y-78694508D01*
X132274696Y-78714354D01*
X132274692Y-78714355D01*
X132161658Y-78771950D01*
X132155353Y-78776531D01*
X132154381Y-78775193D01*
X132108088Y-78798781D01*
X132092601Y-78800000D01*
X131899999Y-78800000D01*
X131729269Y-78970729D01*
X131674754Y-78998506D01*
X131574696Y-79014354D01*
X131574692Y-79014355D01*
X131461659Y-79071949D01*
X131371949Y-79161659D01*
X131314355Y-79274692D01*
X131314354Y-79274696D01*
X131304274Y-79338342D01*
X131294508Y-79400000D01*
X131304364Y-79462232D01*
X131314354Y-79525303D01*
X131314355Y-79525307D01*
X131332877Y-79561658D01*
X131371950Y-79638342D01*
X131371952Y-79638344D01*
X131376531Y-79644647D01*
X131375193Y-79645618D01*
X131398781Y-79691912D01*
X131399280Y-79698263D01*
X131399999Y-79699998D01*
X131400000Y-79699999D01*
X131400000Y-79700000D01*
X131800000Y-80100000D01*
X132357534Y-80100000D01*
X132373021Y-80101219D01*
X132400000Y-80105492D01*
X132426979Y-80101219D01*
X132442466Y-80100000D01*
X133595508Y-80100000D01*
X133653699Y-80118907D01*
X133689663Y-80168407D01*
X133694508Y-80199000D01*
X133694508Y-80200000D01*
X133714354Y-80325303D01*
X133714355Y-80325307D01*
X133756295Y-80407618D01*
X133771950Y-80438342D01*
X133861658Y-80528050D01*
X133974696Y-80585646D01*
X134100000Y-80605492D01*
X134225304Y-80585646D01*
X134338342Y-80528050D01*
X134428050Y-80438342D01*
X134428051Y-80438339D01*
X134430996Y-80435395D01*
X134485513Y-80407618D01*
X134545945Y-80417189D01*
X134589210Y-80460454D01*
X134600000Y-80505399D01*
X134600000Y-81058992D01*
X134581093Y-81117183D01*
X134571004Y-81128996D01*
X134328996Y-81371004D01*
X134274479Y-81398781D01*
X134258992Y-81400000D01*
X131741008Y-81400000D01*
X131682817Y-81381093D01*
X131671005Y-81371004D01*
X131200000Y-80900000D01*
X131181806Y-80892464D01*
X131182090Y-80891776D01*
X131149208Y-80881093D01*
X131139420Y-80872734D01*
X131138344Y-80871952D01*
X131138342Y-80871950D01*
X131082861Y-80843681D01*
X131025307Y-80814355D01*
X131025304Y-80814354D01*
X130900000Y-80794508D01*
X130774696Y-80814354D01*
X130774692Y-80814355D01*
X130661659Y-80871949D01*
X130571949Y-80961659D01*
X130514355Y-81074692D01*
X130514354Y-81074696D01*
X130494508Y-81199999D01*
X130494508Y-81200000D01*
X130514354Y-81325303D01*
X130514355Y-81325307D01*
X130552414Y-81400000D01*
X130571950Y-81438342D01*
X130661658Y-81528050D01*
X130661660Y-81528051D01*
X130667168Y-81533559D01*
X130665620Y-81535106D01*
X130695155Y-81575757D01*
X130700000Y-81606350D01*
X130700000Y-82593649D01*
X130681093Y-82651840D01*
X130666830Y-82666103D01*
X130667168Y-82666441D01*
X130661659Y-82671949D01*
X130661658Y-82671950D01*
X130609108Y-82724500D01*
X130571949Y-82761659D01*
X130514355Y-82874692D01*
X130514354Y-82874696D01*
X130500684Y-82961009D01*
X130494508Y-83000000D01*
X130505342Y-83068407D01*
X130514354Y-83125303D01*
X130514355Y-83125307D01*
X130542639Y-83180817D01*
X130571950Y-83238342D01*
X130661658Y-83328050D01*
X130774696Y-83385646D01*
X130900000Y-83405492D01*
X131025304Y-83385646D01*
X131138342Y-83328050D01*
X131228050Y-83238342D01*
X131285646Y-83125304D01*
X131292265Y-83083513D01*
X131320043Y-83028996D01*
X131374559Y-83001219D01*
X131390046Y-83000000D01*
X133653931Y-83000000D01*
X133712122Y-83018907D01*
X133748086Y-83068407D01*
X133749557Y-83124619D01*
X133734500Y-83180817D01*
X133734500Y-83180820D01*
X133734500Y-83310214D01*
X133715593Y-83368405D01*
X133666093Y-83404369D01*
X133604907Y-83404369D01*
X133586001Y-83395951D01*
X133541785Y-83370423D01*
X133490875Y-83356782D01*
X133389057Y-83329500D01*
X132630943Y-83329500D01*
X132478216Y-83370423D01*
X132341284Y-83449480D01*
X132229480Y-83561284D01*
X132150423Y-83698216D01*
X132109500Y-83850943D01*
X132109500Y-84009057D01*
X132150423Y-84161784D01*
X132229480Y-84298716D01*
X132341284Y-84410520D01*
X132478216Y-84489577D01*
X132630943Y-84530500D01*
X132630945Y-84530500D01*
X133389055Y-84530500D01*
X133389057Y-84530500D01*
X133541784Y-84489577D01*
X133678716Y-84410520D01*
X133790520Y-84298716D01*
X133869577Y-84161784D01*
X133889649Y-84086872D01*
X133922972Y-84035561D01*
X133980093Y-84013634D01*
X134034772Y-84026760D01*
X134057164Y-84039688D01*
X134190817Y-84075500D01*
X134190819Y-84075500D01*
X134329181Y-84075500D01*
X134329183Y-84075500D01*
X134462836Y-84039688D01*
X134582665Y-83970505D01*
X134680505Y-83872665D01*
X134749688Y-83752836D01*
X134785500Y-83619183D01*
X134785500Y-83180817D01*
X134770442Y-83124620D01*
X134773644Y-83063522D01*
X134812149Y-83015972D01*
X134866069Y-83000000D01*
X137195508Y-83000000D01*
X137253699Y-83018907D01*
X137289663Y-83068407D01*
X137294508Y-83099000D01*
X137294508Y-83100000D01*
X137307308Y-83180820D01*
X137314354Y-83225303D01*
X137314355Y-83225307D01*
X137320996Y-83238340D01*
X137371950Y-83338342D01*
X137461658Y-83428050D01*
X137574696Y-83485646D01*
X137700000Y-83505492D01*
X137825304Y-83485646D01*
X137938342Y-83428050D01*
X138028050Y-83338342D01*
X138085646Y-83225304D01*
X138105492Y-83100000D01*
X138105492Y-83099000D01*
X138105801Y-83098048D01*
X138106711Y-83092304D01*
X138107620Y-83092448D01*
X138124399Y-83040809D01*
X138173899Y-83004845D01*
X138204492Y-83000000D01*
X142110271Y-83000000D01*
X142168462Y-83018907D01*
X142204426Y-83068407D01*
X142208052Y-83114487D01*
X142194508Y-83199999D01*
X142194508Y-83200000D01*
X142214354Y-83325303D01*
X142214355Y-83325307D01*
X142254640Y-83404369D01*
X142271950Y-83438342D01*
X142361658Y-83528050D01*
X142474696Y-83585646D01*
X142600000Y-83605492D01*
X142725304Y-83585646D01*
X142838342Y-83528050D01*
X142928050Y-83438342D01*
X142985646Y-83325304D01*
X143005492Y-83200000D01*
X142991948Y-83114486D01*
X143001519Y-83054055D01*
X143044784Y-83010790D01*
X143089729Y-83000000D01*
X143458992Y-83000000D01*
X143517183Y-83018907D01*
X143528996Y-83028996D01*
X144586936Y-84086936D01*
X144614713Y-84141453D01*
X144614713Y-84172427D01*
X144594508Y-84299999D01*
X144594508Y-84300000D01*
X144609796Y-84396528D01*
X144600224Y-84456960D01*
X144556960Y-84500225D01*
X144496528Y-84509796D01*
X144400001Y-84494508D01*
X144400000Y-84494508D01*
X144274696Y-84514354D01*
X144274692Y-84514355D01*
X144161659Y-84571949D01*
X144071949Y-84661659D01*
X144014355Y-84774692D01*
X144014354Y-84774696D01*
X143994508Y-84899999D01*
X143994508Y-84900000D01*
X144014354Y-85025303D01*
X144014355Y-85025307D01*
X144069944Y-85134406D01*
X144071950Y-85138342D01*
X144161658Y-85228050D01*
X144274696Y-85285646D01*
X144400000Y-85305492D01*
X144525304Y-85285646D01*
X144638342Y-85228050D01*
X144728050Y-85138342D01*
X144785646Y-85025304D01*
X144805492Y-84900000D01*
X144790203Y-84803469D01*
X144799774Y-84743039D01*
X144843039Y-84699775D01*
X144903469Y-84690203D01*
X144963904Y-84699775D01*
X144999999Y-84705492D01*
X144999999Y-84705491D01*
X145000000Y-84705492D01*
X145125304Y-84685646D01*
X145125306Y-84685644D01*
X145127572Y-84685286D01*
X145188004Y-84694857D01*
X145213063Y-84713063D01*
X147171004Y-86671004D01*
X147198781Y-86725521D01*
X147200000Y-86741008D01*
X147200000Y-93034894D01*
X147181093Y-93093085D01*
X147131593Y-93129049D01*
X147070407Y-93129049D01*
X147020907Y-93093085D01*
X147012791Y-93079840D01*
X146989889Y-93034894D01*
X146978050Y-93011658D01*
X146888342Y-92921950D01*
X146834832Y-92894685D01*
X146775307Y-92864355D01*
X146775304Y-92864354D01*
X146650000Y-92844508D01*
X146524696Y-92864354D01*
X146524692Y-92864355D01*
X146411659Y-92921949D01*
X146321949Y-93011659D01*
X146264355Y-93124692D01*
X146264354Y-93124696D01*
X146244508Y-93250000D01*
X146262765Y-93365274D01*
X146264354Y-93375303D01*
X146264355Y-93375307D01*
X146288022Y-93421755D01*
X146321950Y-93488342D01*
X146411658Y-93578050D01*
X146524696Y-93635646D01*
X146650000Y-93655492D01*
X146775304Y-93635646D01*
X146807695Y-93619141D01*
X146868125Y-93609570D01*
X146922642Y-93637346D01*
X146950421Y-93691862D01*
X146940850Y-93752295D01*
X146922644Y-93777355D01*
X145728996Y-94971004D01*
X145674479Y-94998781D01*
X145658992Y-95000000D01*
X144201510Y-95000000D01*
X144186023Y-94998781D01*
X144158994Y-94994500D01*
X144158992Y-94994500D01*
X143535508Y-94994500D01*
X143477317Y-94975593D01*
X143465504Y-94965504D01*
X143428996Y-94928996D01*
X143401219Y-94874479D01*
X143400000Y-94858992D01*
X143400000Y-93341007D01*
X143418907Y-93282816D01*
X143428990Y-93271009D01*
X145500000Y-91200000D01*
X145500000Y-91101508D01*
X145501219Y-91086020D01*
X145505500Y-91058991D01*
X145505500Y-89941021D01*
X145505500Y-89941008D01*
X145504866Y-89924883D01*
X145503647Y-89909396D01*
X145503645Y-89909389D01*
X145502792Y-89904610D01*
X145503014Y-89904570D01*
X145500000Y-89882772D01*
X145500000Y-89800001D01*
X145500000Y-89800000D01*
X143100000Y-87400000D01*
X143099999Y-87400000D01*
X143001510Y-87400000D01*
X142986023Y-87398781D01*
X142958994Y-87394500D01*
X142958992Y-87394500D01*
X142360990Y-87394500D01*
X142302799Y-87375593D01*
X142266835Y-87326093D01*
X142266835Y-87264907D01*
X142272780Y-87250555D01*
X142285645Y-87225305D01*
X142285646Y-87225304D01*
X142305492Y-87100000D01*
X142285646Y-86974696D01*
X142228050Y-86861658D01*
X142138342Y-86771950D01*
X142134406Y-86769944D01*
X142025307Y-86714355D01*
X142025304Y-86714354D01*
X141900000Y-86694508D01*
X141774696Y-86714354D01*
X141774692Y-86714355D01*
X141661659Y-86771949D01*
X141571949Y-86861659D01*
X141514355Y-86974692D01*
X141514354Y-86974696D01*
X141494508Y-87099999D01*
X141494508Y-87100000D01*
X141514354Y-87225303D01*
X141514354Y-87225305D01*
X141527220Y-87250555D01*
X141536791Y-87310987D01*
X141509013Y-87365504D01*
X141454497Y-87393281D01*
X141439010Y-87394500D01*
X134804492Y-87394500D01*
X134785741Y-87395975D01*
X134772343Y-87397030D01*
X134761292Y-87398781D01*
X134745806Y-87400000D01*
X134607399Y-87400000D01*
X134549208Y-87381093D01*
X134539420Y-87372734D01*
X134538344Y-87371952D01*
X134538342Y-87371950D01*
X134472383Y-87338342D01*
X134425307Y-87314355D01*
X134425304Y-87314354D01*
X134300000Y-87294508D01*
X134174696Y-87314354D01*
X134174692Y-87314355D01*
X134061658Y-87371950D01*
X134055353Y-87376531D01*
X134054381Y-87375193D01*
X134008088Y-87398781D01*
X133992601Y-87400000D01*
X133838026Y-87400000D01*
X133822539Y-87398781D01*
X133795510Y-87394500D01*
X133795508Y-87394500D01*
X125941008Y-87394500D01*
X125940998Y-87394500D01*
X125939517Y-87394558D01*
X125939311Y-87394500D01*
X125939063Y-87394500D01*
X125939063Y-87394429D01*
X125880631Y-87377943D01*
X125865638Y-87365638D01*
X125428996Y-86928996D01*
X125401219Y-86874479D01*
X125400000Y-86858992D01*
X125400000Y-84210943D01*
X126159500Y-84210943D01*
X126159500Y-84369057D01*
X126200423Y-84521784D01*
X126279480Y-84658716D01*
X126391284Y-84770520D01*
X126528216Y-84849577D01*
X126680943Y-84890500D01*
X126680945Y-84890500D01*
X127439055Y-84890500D01*
X127439057Y-84890500D01*
X127591784Y-84849577D01*
X127728716Y-84770520D01*
X127840520Y-84658716D01*
X127919577Y-84521784D01*
X127960500Y-84369057D01*
X127960500Y-84210943D01*
X127919577Y-84058216D01*
X127840520Y-83921284D01*
X127728716Y-83809480D01*
X127591784Y-83730423D01*
X127439057Y-83689500D01*
X126680943Y-83689500D01*
X126528216Y-83730423D01*
X126391284Y-83809480D01*
X126279480Y-83921284D01*
X126200423Y-84058216D01*
X126159500Y-84210943D01*
X125400000Y-84210943D01*
X125400000Y-78642527D01*
X125418907Y-78584336D01*
X125430846Y-78570722D01*
X125443205Y-78558992D01*
X131271348Y-73027194D01*
X131326570Y-73000848D01*
X131339502Y-73000000D01*
X148251000Y-73000000D01*
X148309191Y-73018907D01*
G37*
G04 #@! TD.AperFunction*
G04 #@! TD*
G04 #@! TA.AperFunction,Conductor*
G04 #@! TO.N,+3V3_SYS*
G36*
X145159191Y-75868907D02*
G01*
X145195155Y-75918407D01*
X145200000Y-75949000D01*
X145200000Y-77000000D01*
X145549999Y-77500000D01*
X145550000Y-77500000D01*
X149900000Y-77500000D01*
X150450000Y-77000000D01*
X150450000Y-76399000D01*
X150468907Y-76340809D01*
X150518407Y-76304845D01*
X150549000Y-76300000D01*
X152351000Y-76300000D01*
X152409191Y-76318907D01*
X152445155Y-76368407D01*
X152450000Y-76399000D01*
X152450000Y-77350000D01*
X153850000Y-78750000D01*
X158159235Y-78750000D01*
X158217426Y-78768907D01*
X158228945Y-78778704D01*
X164170710Y-84670954D01*
X164198715Y-84725354D01*
X164200000Y-84741250D01*
X164200000Y-104001000D01*
X164181093Y-104059191D01*
X164131593Y-104095155D01*
X164101000Y-104100000D01*
X154797569Y-104100000D01*
X154739378Y-104081093D01*
X154703414Y-104031593D01*
X154699788Y-104016487D01*
X154697335Y-104001000D01*
X154685646Y-103927196D01*
X154628050Y-103814158D01*
X154538342Y-103724450D01*
X154534406Y-103722444D01*
X154425307Y-103666855D01*
X154425304Y-103666854D01*
X154300000Y-103647008D01*
X154174696Y-103666854D01*
X154174692Y-103666855D01*
X154061659Y-103724449D01*
X154057188Y-103727698D01*
X153998996Y-103746603D01*
X153940806Y-103727694D01*
X153904844Y-103678192D01*
X153900000Y-103647603D01*
X153900000Y-101900000D01*
X151928996Y-99928996D01*
X151901219Y-99874479D01*
X151900000Y-99858992D01*
X151900000Y-99390045D01*
X151918907Y-99331854D01*
X151968407Y-99295890D01*
X151983506Y-99292265D01*
X152025304Y-99285646D01*
X152095265Y-99249999D01*
X156594508Y-99249999D01*
X156594508Y-99250000D01*
X156614354Y-99375303D01*
X156614355Y-99375307D01*
X156663598Y-99471950D01*
X156671950Y-99488342D01*
X156761658Y-99578050D01*
X156874696Y-99635646D01*
X157000000Y-99655492D01*
X157125304Y-99635646D01*
X157238342Y-99578050D01*
X157328050Y-99488342D01*
X157373063Y-99399999D01*
X157894508Y-99399999D01*
X157894508Y-99400000D01*
X157914354Y-99525303D01*
X157914355Y-99525307D01*
X157965307Y-99625304D01*
X157971950Y-99638342D01*
X158061658Y-99728050D01*
X158174696Y-99785646D01*
X158300000Y-99805492D01*
X158425304Y-99785646D01*
X158538342Y-99728050D01*
X158628050Y-99638342D01*
X158685646Y-99525304D01*
X158705492Y-99400000D01*
X158685646Y-99274696D01*
X158628050Y-99161658D01*
X158538342Y-99071950D01*
X158534406Y-99069944D01*
X158425307Y-99014355D01*
X158425304Y-99014354D01*
X158300000Y-98994508D01*
X158174696Y-99014354D01*
X158174692Y-99014355D01*
X158061659Y-99071949D01*
X157971949Y-99161659D01*
X157914355Y-99274692D01*
X157914354Y-99274696D01*
X157894508Y-99399999D01*
X157373063Y-99399999D01*
X157385646Y-99375304D01*
X157405492Y-99250000D01*
X157385646Y-99124696D01*
X157328050Y-99011658D01*
X157238342Y-98921950D01*
X157195261Y-98899999D01*
X157125307Y-98864355D01*
X157125304Y-98864354D01*
X157000000Y-98844508D01*
X156874696Y-98864354D01*
X156874692Y-98864355D01*
X156761659Y-98921949D01*
X156671949Y-99011659D01*
X156614355Y-99124692D01*
X156614354Y-99124696D01*
X156594508Y-99249999D01*
X152095265Y-99249999D01*
X152138342Y-99228050D01*
X152228050Y-99138342D01*
X152285646Y-99025304D01*
X152305492Y-98900000D01*
X152297573Y-98850000D01*
X152350000Y-98850000D01*
X152350000Y-98349999D01*
X155644508Y-98349999D01*
X155644508Y-98350000D01*
X155664354Y-98475303D01*
X155664355Y-98475307D01*
X155713597Y-98571949D01*
X155721950Y-98588342D01*
X155811658Y-98678050D01*
X155924696Y-98735646D01*
X156050000Y-98755492D01*
X156175304Y-98735646D01*
X156288342Y-98678050D01*
X156378050Y-98588342D01*
X156435646Y-98475304D01*
X156455492Y-98350000D01*
X156435646Y-98224696D01*
X156378050Y-98111658D01*
X156288342Y-98021950D01*
X156284406Y-98019944D01*
X156175307Y-97964355D01*
X156175304Y-97964354D01*
X156050000Y-97944508D01*
X155924696Y-97964354D01*
X155924692Y-97964355D01*
X155811659Y-98021949D01*
X155721949Y-98111659D01*
X155664355Y-98224692D01*
X155664354Y-98224696D01*
X155644508Y-98349999D01*
X152350000Y-98349999D01*
X152350000Y-97250000D01*
X151900000Y-97250000D01*
X151900000Y-96999999D01*
X153594508Y-96999999D01*
X153594508Y-97000000D01*
X153614354Y-97125303D01*
X153614355Y-97125307D01*
X153652414Y-97200000D01*
X153671950Y-97238342D01*
X153761658Y-97328050D01*
X153874696Y-97385646D01*
X154000000Y-97405492D01*
X154125304Y-97385646D01*
X154238342Y-97328050D01*
X154328050Y-97238342D01*
X154385646Y-97125304D01*
X154405492Y-97000000D01*
X154385646Y-96874696D01*
X154328050Y-96761658D01*
X154238342Y-96671950D01*
X154234406Y-96669944D01*
X154125307Y-96614355D01*
X154125304Y-96614354D01*
X154000000Y-96594508D01*
X153874696Y-96614354D01*
X153874692Y-96614355D01*
X153761659Y-96671949D01*
X153671949Y-96761659D01*
X153614355Y-96874692D01*
X153614354Y-96874696D01*
X153594508Y-96999999D01*
X151900000Y-96999999D01*
X151900000Y-95400000D01*
X159594508Y-95400000D01*
X159602956Y-95453342D01*
X159614354Y-95525303D01*
X159614355Y-95525307D01*
X159623396Y-95543050D01*
X159671950Y-95638342D01*
X159761658Y-95728050D01*
X159874696Y-95785646D01*
X160000000Y-95805492D01*
X160125304Y-95785646D01*
X160238342Y-95728050D01*
X160328050Y-95638342D01*
X160385646Y-95525304D01*
X160405492Y-95400000D01*
X161794508Y-95400000D01*
X161802956Y-95453342D01*
X161814354Y-95525303D01*
X161814355Y-95525307D01*
X161823396Y-95543050D01*
X161871950Y-95638342D01*
X161961658Y-95728050D01*
X162074696Y-95785646D01*
X162200000Y-95805492D01*
X162325304Y-95785646D01*
X162438342Y-95728050D01*
X162528050Y-95638342D01*
X162585646Y-95525304D01*
X162605492Y-95400000D01*
X162585646Y-95274696D01*
X162528050Y-95161658D01*
X162438342Y-95071950D01*
X162434406Y-95069944D01*
X162325307Y-95014355D01*
X162325304Y-95014354D01*
X162200000Y-94994508D01*
X162074696Y-95014354D01*
X162074692Y-95014355D01*
X161961659Y-95071949D01*
X161871949Y-95161659D01*
X161814355Y-95274692D01*
X161814354Y-95274696D01*
X161794508Y-95400000D01*
X160405492Y-95400000D01*
X160385646Y-95274696D01*
X160328050Y-95161658D01*
X160238342Y-95071950D01*
X160234406Y-95069944D01*
X160125307Y-95014355D01*
X160125304Y-95014354D01*
X160000000Y-94994508D01*
X159874696Y-95014354D01*
X159874692Y-95014355D01*
X159761659Y-95071949D01*
X159671949Y-95161659D01*
X159614355Y-95274692D01*
X159614354Y-95274696D01*
X159594508Y-95400000D01*
X151900000Y-95400000D01*
X151900000Y-93525000D01*
X158294508Y-93525000D01*
X158312032Y-93635646D01*
X158314354Y-93650303D01*
X158314355Y-93650307D01*
X158316997Y-93655492D01*
X158371950Y-93763342D01*
X158461658Y-93853050D01*
X158574696Y-93910646D01*
X158700000Y-93930492D01*
X158825304Y-93910646D01*
X158938342Y-93853050D01*
X159028050Y-93763342D01*
X159085646Y-93650304D01*
X159105492Y-93525000D01*
X159085646Y-93399696D01*
X159028050Y-93286658D01*
X158938342Y-93196950D01*
X158934406Y-93194944D01*
X158825307Y-93139355D01*
X158825304Y-93139354D01*
X158700000Y-93119508D01*
X158574696Y-93139354D01*
X158574692Y-93139355D01*
X158461659Y-93196949D01*
X158371949Y-93286659D01*
X158314355Y-93399692D01*
X158314354Y-93399696D01*
X158294508Y-93525000D01*
X151900000Y-93525000D01*
X151900000Y-92199999D01*
X152594508Y-92199999D01*
X152594508Y-92200000D01*
X152614354Y-92325303D01*
X152614355Y-92325307D01*
X152652413Y-92399999D01*
X152671950Y-92438342D01*
X152761658Y-92528050D01*
X152874696Y-92585646D01*
X153000000Y-92605492D01*
X153125304Y-92585646D01*
X153238342Y-92528050D01*
X153328050Y-92438342D01*
X153347587Y-92399999D01*
X159694508Y-92399999D01*
X159694508Y-92400000D01*
X159714354Y-92525303D01*
X159714355Y-92525307D01*
X159715753Y-92528050D01*
X159771950Y-92638342D01*
X159861658Y-92728050D01*
X159974696Y-92785646D01*
X160100000Y-92805492D01*
X160225304Y-92785646D01*
X160338342Y-92728050D01*
X160428050Y-92638342D01*
X160485646Y-92525304D01*
X160505492Y-92400000D01*
X160505492Y-92399999D01*
X161744508Y-92399999D01*
X161744508Y-92400000D01*
X161764354Y-92525303D01*
X161764355Y-92525307D01*
X161765753Y-92528050D01*
X161821950Y-92638342D01*
X161911658Y-92728050D01*
X162024696Y-92785646D01*
X162150000Y-92805492D01*
X162275304Y-92785646D01*
X162388342Y-92728050D01*
X162478050Y-92638342D01*
X162535646Y-92525304D01*
X162555492Y-92400000D01*
X162535646Y-92274696D01*
X162478050Y-92161658D01*
X162388342Y-92071950D01*
X162384406Y-92069944D01*
X162275307Y-92014355D01*
X162275304Y-92014354D01*
X162150000Y-91994508D01*
X162024696Y-92014354D01*
X162024692Y-92014355D01*
X161911659Y-92071949D01*
X161821949Y-92161659D01*
X161764355Y-92274692D01*
X161764354Y-92274696D01*
X161744508Y-92399999D01*
X160505492Y-92399999D01*
X160485646Y-92274696D01*
X160428050Y-92161658D01*
X160338342Y-92071950D01*
X160334406Y-92069944D01*
X160225307Y-92014355D01*
X160225304Y-92014354D01*
X160100000Y-91994508D01*
X159974696Y-92014354D01*
X159974692Y-92014355D01*
X159861659Y-92071949D01*
X159771949Y-92161659D01*
X159714355Y-92274692D01*
X159714354Y-92274696D01*
X159694508Y-92399999D01*
X153347587Y-92399999D01*
X153385646Y-92325304D01*
X153405492Y-92200000D01*
X153385646Y-92074696D01*
X153328050Y-91961658D01*
X153238342Y-91871950D01*
X153211331Y-91858187D01*
X153125307Y-91814355D01*
X153125304Y-91814354D01*
X153000000Y-91794508D01*
X152874696Y-91814354D01*
X152874692Y-91814355D01*
X152761659Y-91871949D01*
X152671949Y-91961659D01*
X152614355Y-92074692D01*
X152614354Y-92074696D01*
X152594508Y-92199999D01*
X151900000Y-92199999D01*
X151900000Y-91858187D01*
X151918907Y-91799996D01*
X151968407Y-91764032D01*
X152029593Y-91764032D01*
X152043945Y-91769977D01*
X152074696Y-91785646D01*
X152200000Y-91805492D01*
X152325304Y-91785646D01*
X152438342Y-91728050D01*
X152528050Y-91638342D01*
X152585646Y-91525304D01*
X152605492Y-91400000D01*
X152585646Y-91274696D01*
X152528050Y-91161658D01*
X152438342Y-91071950D01*
X152434406Y-91069944D01*
X152325307Y-91014355D01*
X152325304Y-91014354D01*
X152200000Y-90994508D01*
X152074696Y-91014354D01*
X152074691Y-91014355D01*
X152043944Y-91030022D01*
X151983512Y-91039593D01*
X151928996Y-91011815D01*
X151901219Y-90957298D01*
X151900000Y-90941812D01*
X151900000Y-87999999D01*
X155794508Y-87999999D01*
X155794508Y-88000000D01*
X155814354Y-88125303D01*
X155814355Y-88125307D01*
X155826937Y-88150000D01*
X155871950Y-88238342D01*
X155961658Y-88328050D01*
X156074696Y-88385646D01*
X156200000Y-88405492D01*
X156325304Y-88385646D01*
X156438342Y-88328050D01*
X156528050Y-88238342D01*
X156573063Y-88149999D01*
X158244508Y-88149999D01*
X158244508Y-88150000D01*
X158264354Y-88275303D01*
X158264355Y-88275307D01*
X158319944Y-88384406D01*
X158321950Y-88388342D01*
X158411658Y-88478050D01*
X158524696Y-88535646D01*
X158650000Y-88555492D01*
X158775304Y-88535646D01*
X158888342Y-88478050D01*
X158978050Y-88388342D01*
X159035646Y-88275304D01*
X159055492Y-88150000D01*
X159035646Y-88024696D01*
X158978050Y-87911658D01*
X158888342Y-87821950D01*
X158884406Y-87819944D01*
X158775307Y-87764355D01*
X158775304Y-87764354D01*
X158650000Y-87744508D01*
X158524696Y-87764354D01*
X158524692Y-87764355D01*
X158411659Y-87821949D01*
X158321949Y-87911659D01*
X158264355Y-88024692D01*
X158264354Y-88024696D01*
X158244508Y-88149999D01*
X156573063Y-88149999D01*
X156585646Y-88125304D01*
X156605492Y-88000000D01*
X156585646Y-87874696D01*
X156528050Y-87761658D01*
X156438342Y-87671950D01*
X156434406Y-87669944D01*
X156325307Y-87614355D01*
X156325304Y-87614354D01*
X156200000Y-87594508D01*
X156074696Y-87614354D01*
X156074692Y-87614355D01*
X155961659Y-87671949D01*
X155871949Y-87761659D01*
X155814355Y-87874692D01*
X155814354Y-87874696D01*
X155794508Y-87999999D01*
X151900000Y-87999999D01*
X151900000Y-86949999D01*
X159494508Y-86949999D01*
X159494508Y-86950000D01*
X159514354Y-87075303D01*
X159514355Y-87075307D01*
X159563598Y-87171950D01*
X159571950Y-87188342D01*
X159661658Y-87278050D01*
X159774696Y-87335646D01*
X159900000Y-87355492D01*
X160025304Y-87335646D01*
X160138342Y-87278050D01*
X160228050Y-87188342D01*
X160285646Y-87075304D01*
X160305492Y-86950000D01*
X160305492Y-86949999D01*
X161894508Y-86949999D01*
X161894508Y-86950000D01*
X161914354Y-87075303D01*
X161914355Y-87075307D01*
X161963598Y-87171950D01*
X161971950Y-87188342D01*
X162061658Y-87278050D01*
X162174696Y-87335646D01*
X162300000Y-87355492D01*
X162425304Y-87335646D01*
X162538342Y-87278050D01*
X162628050Y-87188342D01*
X162685646Y-87075304D01*
X162705492Y-86950000D01*
X162685646Y-86824696D01*
X162628050Y-86711658D01*
X162538342Y-86621950D01*
X162534406Y-86619944D01*
X162425307Y-86564355D01*
X162425304Y-86564354D01*
X162300000Y-86544508D01*
X162174696Y-86564354D01*
X162174692Y-86564355D01*
X162061659Y-86621949D01*
X161971949Y-86711659D01*
X161914355Y-86824692D01*
X161914354Y-86824696D01*
X161894508Y-86949999D01*
X160305492Y-86949999D01*
X160285646Y-86824696D01*
X160228050Y-86711658D01*
X160138342Y-86621950D01*
X160134406Y-86619944D01*
X160025307Y-86564355D01*
X160025304Y-86564354D01*
X159900000Y-86544508D01*
X159774696Y-86564354D01*
X159774692Y-86564355D01*
X159661659Y-86621949D01*
X159571949Y-86711659D01*
X159514355Y-86824692D01*
X159514354Y-86824696D01*
X159494508Y-86949999D01*
X151900000Y-86949999D01*
X151900000Y-82899999D01*
X157144508Y-82899999D01*
X157144508Y-82900000D01*
X157164354Y-83025303D01*
X157164355Y-83025307D01*
X157165753Y-83028050D01*
X157221950Y-83138342D01*
X157311658Y-83228050D01*
X157424696Y-83285646D01*
X157550000Y-83305492D01*
X157675304Y-83285646D01*
X157788342Y-83228050D01*
X157878050Y-83138342D01*
X157935646Y-83025304D01*
X157955492Y-82900000D01*
X157935646Y-82774696D01*
X157878050Y-82661658D01*
X157788342Y-82571950D01*
X157784406Y-82569944D01*
X157675307Y-82514355D01*
X157675304Y-82514354D01*
X157550000Y-82494508D01*
X157424696Y-82514354D01*
X157424692Y-82514355D01*
X157311659Y-82571949D01*
X157221949Y-82661659D01*
X157164355Y-82774692D01*
X157164354Y-82774696D01*
X157144508Y-82899999D01*
X151900000Y-82899999D01*
X151900000Y-82200000D01*
X155434508Y-82200000D01*
X155449476Y-82294508D01*
X155454354Y-82325303D01*
X155454355Y-82325307D01*
X155478121Y-82371950D01*
X155511950Y-82438342D01*
X155601658Y-82528050D01*
X155714696Y-82585646D01*
X155840000Y-82605492D01*
X155965304Y-82585646D01*
X156078342Y-82528050D01*
X156168050Y-82438342D01*
X156225646Y-82325304D01*
X156245492Y-82200000D01*
X156225646Y-82074696D01*
X156168050Y-81961658D01*
X156078342Y-81871950D01*
X156063432Y-81864353D01*
X155965307Y-81814355D01*
X155965304Y-81814354D01*
X155840000Y-81794508D01*
X155714696Y-81814354D01*
X155714692Y-81814355D01*
X155601659Y-81871949D01*
X155511949Y-81961659D01*
X155454355Y-82074692D01*
X155454354Y-82074696D01*
X155434508Y-82200000D01*
X151900000Y-82200000D01*
X151900000Y-82000001D01*
X151900000Y-82000000D01*
X151499999Y-81599999D01*
X157294508Y-81599999D01*
X157294508Y-81600000D01*
X157314354Y-81725303D01*
X157314355Y-81725307D01*
X157349615Y-81794508D01*
X157371950Y-81838342D01*
X157461658Y-81928050D01*
X157574696Y-81985646D01*
X157700000Y-82005492D01*
X157825304Y-81985646D01*
X157938342Y-81928050D01*
X158028050Y-81838342D01*
X158085646Y-81725304D01*
X158105492Y-81600000D01*
X158085646Y-81474696D01*
X158028050Y-81361658D01*
X157938342Y-81271950D01*
X157934406Y-81269944D01*
X157825307Y-81214355D01*
X157825304Y-81214354D01*
X157700000Y-81194508D01*
X157574696Y-81214354D01*
X157574692Y-81214355D01*
X157461659Y-81271949D01*
X157371949Y-81361659D01*
X157314355Y-81474692D01*
X157314354Y-81474696D01*
X157294508Y-81599999D01*
X151499999Y-81599999D01*
X150400000Y-80500000D01*
X150399999Y-80500000D01*
X144941008Y-80500000D01*
X144882817Y-80481093D01*
X144871004Y-80471004D01*
X144128996Y-79728996D01*
X144101219Y-79674479D01*
X144100000Y-79658992D01*
X144100000Y-79649999D01*
X150294508Y-79649999D01*
X150294508Y-79650000D01*
X150314354Y-79775303D01*
X150314355Y-79775307D01*
X150369944Y-79884406D01*
X150371950Y-79888342D01*
X150461658Y-79978050D01*
X150574696Y-80035646D01*
X150700000Y-80055492D01*
X150825304Y-80035646D01*
X150938342Y-79978050D01*
X151028050Y-79888342D01*
X151085646Y-79775304D01*
X151105492Y-79650000D01*
X151085646Y-79524696D01*
X151028050Y-79411658D01*
X150938342Y-79321950D01*
X150934406Y-79319944D01*
X150825307Y-79264355D01*
X150825304Y-79264354D01*
X150700000Y-79244508D01*
X150574696Y-79264354D01*
X150574692Y-79264355D01*
X150461659Y-79321949D01*
X150371949Y-79411659D01*
X150314355Y-79524692D01*
X150314354Y-79524696D01*
X150294508Y-79649999D01*
X144100000Y-79649999D01*
X144100000Y-79199999D01*
X146694508Y-79199999D01*
X146694508Y-79200000D01*
X146714354Y-79325303D01*
X146714355Y-79325307D01*
X146758354Y-79411658D01*
X146771950Y-79438342D01*
X146861658Y-79528050D01*
X146974696Y-79585646D01*
X147100000Y-79605492D01*
X147225304Y-79585646D01*
X147338342Y-79528050D01*
X147428050Y-79438342D01*
X147485646Y-79325304D01*
X147505492Y-79200000D01*
X147485646Y-79074696D01*
X147428050Y-78961658D01*
X147338342Y-78871950D01*
X147334406Y-78869944D01*
X147225307Y-78814355D01*
X147225304Y-78814354D01*
X147100000Y-78794508D01*
X146974696Y-78814354D01*
X146974692Y-78814355D01*
X146861659Y-78871949D01*
X146771949Y-78961659D01*
X146714355Y-79074692D01*
X146714354Y-79074696D01*
X146694508Y-79199999D01*
X144100000Y-79199999D01*
X144100000Y-75949000D01*
X144118907Y-75890809D01*
X144168407Y-75854845D01*
X144199000Y-75850000D01*
X145101000Y-75850000D01*
X145159191Y-75868907D01*
G37*
G04 #@! TD.AperFunction*
G04 #@! TD*
M02*
