G04 #@! TF.GenerationSoftware,KiCad,Pcbnew,8.0.4*
G04 #@! TF.CreationDate,2026-05-21T19:01:33-07:00*
G04 #@! TF.ProjectId,microSD_Switch_Reader,6d696372-6f53-4445-9f53-77697463685f,rev?*
G04 #@! TF.SameCoordinates,Original*
G04 #@! TF.FileFunction,Paste,Top*
G04 #@! TF.FilePolarity,Positive*
%FSLAX46Y46*%
G04 Gerber Fmt 4.6, Leading zero omitted, Abs format (unit mm)*
G04 Created by KiCad (PCBNEW 8.0.4) date 2026-05-21 19:01:33*
%MOMM*%
%LPD*%
G01*
G04 APERTURE LIST*
%ADD10R,1.750000X0.700000*%
%ADD11R,1.000000X1.450000*%
%ADD12R,1.550000X1.000000*%
%ADD13R,1.500000X0.800000*%
%ADD14R,1.500000X1.300000*%
%ADD15R,1.500000X1.500000*%
%ADD16R,1.400000X0.800000*%
%ADD17R,0.800000X2.900000*%
%ADD18R,0.800000X3.200000*%
%ADD19R,0.304800X0.977900*%
%ADD20R,1.000000X1.150000*%
%ADD21R,0.700000X0.300000*%
%ADD22R,0.400000X0.200000*%
%ADD23R,0.500000X0.200000*%
%ADD24R,0.200000X0.400000*%
%ADD25R,0.200000X0.500000*%
%ADD26R,1.200000X3.200000*%
G04 APERTURE END LIST*
D10*
G04 #@! TO.C,J3*
X126150000Y-106275000D03*
X126150000Y-105175000D03*
X126150000Y-104075000D03*
X126150000Y-102975000D03*
X126150000Y-101875000D03*
X126150000Y-100775000D03*
X126150000Y-99675000D03*
X126150000Y-98575000D03*
D11*
X135375000Y-97450000D03*
D12*
X136950000Y-108675000D03*
D13*
X133875000Y-97125000D03*
D14*
X126275000Y-97375000D03*
D15*
X126275000Y-108725000D03*
D16*
X134525000Y-109075000D03*
G04 #@! TD*
G04 #@! TO.C,C1*
G36*
G01*
X127660000Y-92330000D02*
X127660000Y-92670000D01*
G75*
G02*
X127520000Y-92810000I-140000J0D01*
G01*
X127240000Y-92810000D01*
G75*
G02*
X127100000Y-92670000I0J140000D01*
G01*
X127100000Y-92330000D01*
G75*
G02*
X127240000Y-92190000I140000J0D01*
G01*
X127520000Y-92190000D01*
G75*
G02*
X127660000Y-92330000I0J-140000D01*
G01*
G37*
G36*
G01*
X126700000Y-92330000D02*
X126700000Y-92670000D01*
G75*
G02*
X126560000Y-92810000I-140000J0D01*
G01*
X126280000Y-92810000D01*
G75*
G02*
X126140000Y-92670000I0J140000D01*
G01*
X126140000Y-92330000D01*
G75*
G02*
X126280000Y-92190000I140000J0D01*
G01*
X126560000Y-92190000D01*
G75*
G02*
X126700000Y-92330000I0J-140000D01*
G01*
G37*
G04 #@! TD*
G04 #@! TO.C,U9*
G36*
G01*
X151350000Y-101875000D02*
X151150000Y-101875000D01*
G75*
G02*
X151050000Y-101775000I0J100000D01*
G01*
X151050000Y-101325000D01*
G75*
G02*
X151150000Y-101225000I100000J0D01*
G01*
X151350000Y-101225000D01*
G75*
G02*
X151450000Y-101325000I0J-100000D01*
G01*
X151450000Y-101775000D01*
G75*
G02*
X151350000Y-101875000I-100000J0D01*
G01*
G37*
G36*
G01*
X152000000Y-101875000D02*
X151800000Y-101875000D01*
G75*
G02*
X151700000Y-101775000I0J100000D01*
G01*
X151700000Y-101325000D01*
G75*
G02*
X151800000Y-101225000I100000J0D01*
G01*
X152000000Y-101225000D01*
G75*
G02*
X152100000Y-101325000I0J-100000D01*
G01*
X152100000Y-101775000D01*
G75*
G02*
X152000000Y-101875000I-100000J0D01*
G01*
G37*
G36*
G01*
X152650000Y-101875000D02*
X152450000Y-101875000D01*
G75*
G02*
X152350000Y-101775000I0J100000D01*
G01*
X152350000Y-101325000D01*
G75*
G02*
X152450000Y-101225000I100000J0D01*
G01*
X152650000Y-101225000D01*
G75*
G02*
X152750000Y-101325000I0J-100000D01*
G01*
X152750000Y-101775000D01*
G75*
G02*
X152650000Y-101875000I-100000J0D01*
G01*
G37*
G36*
G01*
X152650000Y-99975000D02*
X152450000Y-99975000D01*
G75*
G02*
X152350000Y-99875000I0J100000D01*
G01*
X152350000Y-99425000D01*
G75*
G02*
X152450000Y-99325000I100000J0D01*
G01*
X152650000Y-99325000D01*
G75*
G02*
X152750000Y-99425000I0J-100000D01*
G01*
X152750000Y-99875000D01*
G75*
G02*
X152650000Y-99975000I-100000J0D01*
G01*
G37*
G36*
G01*
X152000000Y-99975000D02*
X151800000Y-99975000D01*
G75*
G02*
X151700000Y-99875000I0J100000D01*
G01*
X151700000Y-99425000D01*
G75*
G02*
X151800000Y-99325000I100000J0D01*
G01*
X152000000Y-99325000D01*
G75*
G02*
X152100000Y-99425000I0J-100000D01*
G01*
X152100000Y-99875000D01*
G75*
G02*
X152000000Y-99975000I-100000J0D01*
G01*
G37*
G36*
G01*
X151350000Y-99975000D02*
X151150000Y-99975000D01*
G75*
G02*
X151050000Y-99875000I0J100000D01*
G01*
X151050000Y-99425000D01*
G75*
G02*
X151150000Y-99325000I100000J0D01*
G01*
X151350000Y-99325000D01*
G75*
G02*
X151450000Y-99425000I0J-100000D01*
G01*
X151450000Y-99875000D01*
G75*
G02*
X151350000Y-99975000I-100000J0D01*
G01*
G37*
G04 #@! TD*
G04 #@! TO.C,D2*
G36*
G01*
X165037500Y-109243750D02*
X165037500Y-109756250D01*
G75*
G02*
X164818750Y-109975000I-218750J0D01*
G01*
X164381250Y-109975000D01*
G75*
G02*
X164162500Y-109756250I0J218750D01*
G01*
X164162500Y-109243750D01*
G75*
G02*
X164381250Y-109025000I218750J0D01*
G01*
X164818750Y-109025000D01*
G75*
G02*
X165037500Y-109243750I0J-218750D01*
G01*
G37*
G36*
G01*
X163462500Y-109243750D02*
X163462500Y-109756250D01*
G75*
G02*
X163243750Y-109975000I-218750J0D01*
G01*
X162806250Y-109975000D01*
G75*
G02*
X162587500Y-109756250I0J218750D01*
G01*
X162587500Y-109243750D01*
G75*
G02*
X162806250Y-109025000I218750J0D01*
G01*
X163243750Y-109025000D01*
G75*
G02*
X163462500Y-109243750I0J-218750D01*
G01*
G37*
G04 #@! TD*
G04 #@! TO.C,U3*
G36*
G01*
X147922500Y-91785000D02*
X148337500Y-91785000D01*
G75*
G02*
X148545000Y-91992500I0J-207500D01*
G01*
X148545000Y-92407500D01*
G75*
G02*
X148337500Y-92615000I-207500J0D01*
G01*
X147922500Y-92615000D01*
G75*
G02*
X147715000Y-92407500I0J207500D01*
G01*
X147715000Y-91992500D01*
G75*
G02*
X147922500Y-91785000I207500J0D01*
G01*
G37*
G36*
G01*
X146892500Y-91785000D02*
X147307500Y-91785000D01*
G75*
G02*
X147515000Y-91992500I0J-207500D01*
G01*
X147515000Y-92407500D01*
G75*
G02*
X147307500Y-92615000I-207500J0D01*
G01*
X146892500Y-92615000D01*
G75*
G02*
X146685000Y-92407500I0J207500D01*
G01*
X146685000Y-91992500D01*
G75*
G02*
X146892500Y-91785000I207500J0D01*
G01*
G37*
G36*
G01*
X145862500Y-91785000D02*
X146277500Y-91785000D01*
G75*
G02*
X146485000Y-91992500I0J-207500D01*
G01*
X146485000Y-92407500D01*
G75*
G02*
X146277500Y-92615000I-207500J0D01*
G01*
X145862500Y-92615000D01*
G75*
G02*
X145655000Y-92407500I0J207500D01*
G01*
X145655000Y-91992500D01*
G75*
G02*
X145862500Y-91785000I207500J0D01*
G01*
G37*
G36*
G01*
X147922500Y-92815000D02*
X148337500Y-92815000D01*
G75*
G02*
X148545000Y-93022500I0J-207500D01*
G01*
X148545000Y-93437500D01*
G75*
G02*
X148337500Y-93645000I-207500J0D01*
G01*
X147922500Y-93645000D01*
G75*
G02*
X147715000Y-93437500I0J207500D01*
G01*
X147715000Y-93022500D01*
G75*
G02*
X147922500Y-92815000I207500J0D01*
G01*
G37*
G36*
G01*
X146892500Y-92815000D02*
X147307500Y-92815000D01*
G75*
G02*
X147515000Y-93022500I0J-207500D01*
G01*
X147515000Y-93437500D01*
G75*
G02*
X147307500Y-93645000I-207500J0D01*
G01*
X146892500Y-93645000D01*
G75*
G02*
X146685000Y-93437500I0J207500D01*
G01*
X146685000Y-93022500D01*
G75*
G02*
X146892500Y-92815000I207500J0D01*
G01*
G37*
G36*
G01*
X145862500Y-92815000D02*
X146277500Y-92815000D01*
G75*
G02*
X146485000Y-93022500I0J-207500D01*
G01*
X146485000Y-93437500D01*
G75*
G02*
X146277500Y-93645000I-207500J0D01*
G01*
X145862500Y-93645000D01*
G75*
G02*
X145655000Y-93437500I0J207500D01*
G01*
X145655000Y-93022500D01*
G75*
G02*
X145862500Y-92815000I207500J0D01*
G01*
G37*
G36*
G01*
X147922500Y-93845000D02*
X148337500Y-93845000D01*
G75*
G02*
X148545000Y-94052500I0J-207500D01*
G01*
X148545000Y-94467500D01*
G75*
G02*
X148337500Y-94675000I-207500J0D01*
G01*
X147922500Y-94675000D01*
G75*
G02*
X147715000Y-94467500I0J207500D01*
G01*
X147715000Y-94052500D01*
G75*
G02*
X147922500Y-93845000I207500J0D01*
G01*
G37*
G36*
G01*
X146892500Y-93845000D02*
X147307500Y-93845000D01*
G75*
G02*
X147515000Y-94052500I0J-207500D01*
G01*
X147515000Y-94467500D01*
G75*
G02*
X147307500Y-94675000I-207500J0D01*
G01*
X146892500Y-94675000D01*
G75*
G02*
X146685000Y-94467500I0J207500D01*
G01*
X146685000Y-94052500D01*
G75*
G02*
X146892500Y-93845000I207500J0D01*
G01*
G37*
G36*
G01*
X145862500Y-93845000D02*
X146277500Y-93845000D01*
G75*
G02*
X146485000Y-94052500I0J-207500D01*
G01*
X146485000Y-94467500D01*
G75*
G02*
X146277500Y-94675000I-207500J0D01*
G01*
X145862500Y-94675000D01*
G75*
G02*
X145655000Y-94467500I0J207500D01*
G01*
X145655000Y-94052500D01*
G75*
G02*
X145862500Y-93845000I207500J0D01*
G01*
G37*
G36*
G01*
X148787500Y-90355000D02*
X148912500Y-90355000D01*
G75*
G02*
X148975000Y-90417500I0J-62500D01*
G01*
X148975000Y-91167500D01*
G75*
G02*
X148912500Y-91230000I-62500J0D01*
G01*
X148787500Y-91230000D01*
G75*
G02*
X148725000Y-91167500I0J62500D01*
G01*
X148725000Y-90417500D01*
G75*
G02*
X148787500Y-90355000I62500J0D01*
G01*
G37*
G36*
G01*
X148287500Y-90355000D02*
X148412500Y-90355000D01*
G75*
G02*
X148475000Y-90417500I0J-62500D01*
G01*
X148475000Y-91167500D01*
G75*
G02*
X148412500Y-91230000I-62500J0D01*
G01*
X148287500Y-91230000D01*
G75*
G02*
X148225000Y-91167500I0J62500D01*
G01*
X148225000Y-90417500D01*
G75*
G02*
X148287500Y-90355000I62500J0D01*
G01*
G37*
G36*
G01*
X147787500Y-90355000D02*
X147912500Y-90355000D01*
G75*
G02*
X147975000Y-90417500I0J-62500D01*
G01*
X147975000Y-91167500D01*
G75*
G02*
X147912500Y-91230000I-62500J0D01*
G01*
X147787500Y-91230000D01*
G75*
G02*
X147725000Y-91167500I0J62500D01*
G01*
X147725000Y-90417500D01*
G75*
G02*
X147787500Y-90355000I62500J0D01*
G01*
G37*
G36*
G01*
X147287500Y-90355000D02*
X147412500Y-90355000D01*
G75*
G02*
X147475000Y-90417500I0J-62500D01*
G01*
X147475000Y-91167500D01*
G75*
G02*
X147412500Y-91230000I-62500J0D01*
G01*
X147287500Y-91230000D01*
G75*
G02*
X147225000Y-91167500I0J62500D01*
G01*
X147225000Y-90417500D01*
G75*
G02*
X147287500Y-90355000I62500J0D01*
G01*
G37*
G36*
G01*
X146787500Y-90355000D02*
X146912500Y-90355000D01*
G75*
G02*
X146975000Y-90417500I0J-62500D01*
G01*
X146975000Y-91167500D01*
G75*
G02*
X146912500Y-91230000I-62500J0D01*
G01*
X146787500Y-91230000D01*
G75*
G02*
X146725000Y-91167500I0J62500D01*
G01*
X146725000Y-90417500D01*
G75*
G02*
X146787500Y-90355000I62500J0D01*
G01*
G37*
G36*
G01*
X146287500Y-90355000D02*
X146412500Y-90355000D01*
G75*
G02*
X146475000Y-90417500I0J-62500D01*
G01*
X146475000Y-91167500D01*
G75*
G02*
X146412500Y-91230000I-62500J0D01*
G01*
X146287500Y-91230000D01*
G75*
G02*
X146225000Y-91167500I0J62500D01*
G01*
X146225000Y-90417500D01*
G75*
G02*
X146287500Y-90355000I62500J0D01*
G01*
G37*
G36*
G01*
X145787500Y-90355000D02*
X145912500Y-90355000D01*
G75*
G02*
X145975000Y-90417500I0J-62500D01*
G01*
X145975000Y-91167500D01*
G75*
G02*
X145912500Y-91230000I-62500J0D01*
G01*
X145787500Y-91230000D01*
G75*
G02*
X145725000Y-91167500I0J62500D01*
G01*
X145725000Y-90417500D01*
G75*
G02*
X145787500Y-90355000I62500J0D01*
G01*
G37*
G36*
G01*
X145287500Y-90355000D02*
X145412500Y-90355000D01*
G75*
G02*
X145475000Y-90417500I0J-62500D01*
G01*
X145475000Y-91167500D01*
G75*
G02*
X145412500Y-91230000I-62500J0D01*
G01*
X145287500Y-91230000D01*
G75*
G02*
X145225000Y-91167500I0J62500D01*
G01*
X145225000Y-90417500D01*
G75*
G02*
X145287500Y-90355000I62500J0D01*
G01*
G37*
G36*
G01*
X144287500Y-91355000D02*
X145037500Y-91355000D01*
G75*
G02*
X145100000Y-91417500I0J-62500D01*
G01*
X145100000Y-91542500D01*
G75*
G02*
X145037500Y-91605000I-62500J0D01*
G01*
X144287500Y-91605000D01*
G75*
G02*
X144225000Y-91542500I0J62500D01*
G01*
X144225000Y-91417500D01*
G75*
G02*
X144287500Y-91355000I62500J0D01*
G01*
G37*
G36*
G01*
X144287500Y-91855000D02*
X145037500Y-91855000D01*
G75*
G02*
X145100000Y-91917500I0J-62500D01*
G01*
X145100000Y-92042500D01*
G75*
G02*
X145037500Y-92105000I-62500J0D01*
G01*
X144287500Y-92105000D01*
G75*
G02*
X144225000Y-92042500I0J62500D01*
G01*
X144225000Y-91917500D01*
G75*
G02*
X144287500Y-91855000I62500J0D01*
G01*
G37*
G36*
G01*
X144287500Y-92355000D02*
X145037500Y-92355000D01*
G75*
G02*
X145100000Y-92417500I0J-62500D01*
G01*
X145100000Y-92542500D01*
G75*
G02*
X145037500Y-92605000I-62500J0D01*
G01*
X144287500Y-92605000D01*
G75*
G02*
X144225000Y-92542500I0J62500D01*
G01*
X144225000Y-92417500D01*
G75*
G02*
X144287500Y-92355000I62500J0D01*
G01*
G37*
G36*
G01*
X144287500Y-92855000D02*
X145037500Y-92855000D01*
G75*
G02*
X145100000Y-92917500I0J-62500D01*
G01*
X145100000Y-93042500D01*
G75*
G02*
X145037500Y-93105000I-62500J0D01*
G01*
X144287500Y-93105000D01*
G75*
G02*
X144225000Y-93042500I0J62500D01*
G01*
X144225000Y-92917500D01*
G75*
G02*
X144287500Y-92855000I62500J0D01*
G01*
G37*
G36*
G01*
X144287500Y-93355000D02*
X145037500Y-93355000D01*
G75*
G02*
X145100000Y-93417500I0J-62500D01*
G01*
X145100000Y-93542500D01*
G75*
G02*
X145037500Y-93605000I-62500J0D01*
G01*
X144287500Y-93605000D01*
G75*
G02*
X144225000Y-93542500I0J62500D01*
G01*
X144225000Y-93417500D01*
G75*
G02*
X144287500Y-93355000I62500J0D01*
G01*
G37*
G36*
G01*
X144287500Y-93855000D02*
X145037500Y-93855000D01*
G75*
G02*
X145100000Y-93917500I0J-62500D01*
G01*
X145100000Y-94042500D01*
G75*
G02*
X145037500Y-94105000I-62500J0D01*
G01*
X144287500Y-94105000D01*
G75*
G02*
X144225000Y-94042500I0J62500D01*
G01*
X144225000Y-93917500D01*
G75*
G02*
X144287500Y-93855000I62500J0D01*
G01*
G37*
G36*
G01*
X144287500Y-94355000D02*
X145037500Y-94355000D01*
G75*
G02*
X145100000Y-94417500I0J-62500D01*
G01*
X145100000Y-94542500D01*
G75*
G02*
X145037500Y-94605000I-62500J0D01*
G01*
X144287500Y-94605000D01*
G75*
G02*
X144225000Y-94542500I0J62500D01*
G01*
X144225000Y-94417500D01*
G75*
G02*
X144287500Y-94355000I62500J0D01*
G01*
G37*
G36*
G01*
X144287500Y-94855000D02*
X145037500Y-94855000D01*
G75*
G02*
X145100000Y-94917500I0J-62500D01*
G01*
X145100000Y-95042500D01*
G75*
G02*
X145037500Y-95105000I-62500J0D01*
G01*
X144287500Y-95105000D01*
G75*
G02*
X144225000Y-95042500I0J62500D01*
G01*
X144225000Y-94917500D01*
G75*
G02*
X144287500Y-94855000I62500J0D01*
G01*
G37*
G36*
G01*
X145287500Y-95230000D02*
X145412500Y-95230000D01*
G75*
G02*
X145475000Y-95292500I0J-62500D01*
G01*
X145475000Y-96042500D01*
G75*
G02*
X145412500Y-96105000I-62500J0D01*
G01*
X145287500Y-96105000D01*
G75*
G02*
X145225000Y-96042500I0J62500D01*
G01*
X145225000Y-95292500D01*
G75*
G02*
X145287500Y-95230000I62500J0D01*
G01*
G37*
G36*
G01*
X145787500Y-95230000D02*
X145912500Y-95230000D01*
G75*
G02*
X145975000Y-95292500I0J-62500D01*
G01*
X145975000Y-96042500D01*
G75*
G02*
X145912500Y-96105000I-62500J0D01*
G01*
X145787500Y-96105000D01*
G75*
G02*
X145725000Y-96042500I0J62500D01*
G01*
X145725000Y-95292500D01*
G75*
G02*
X145787500Y-95230000I62500J0D01*
G01*
G37*
G36*
G01*
X146287500Y-95230000D02*
X146412500Y-95230000D01*
G75*
G02*
X146475000Y-95292500I0J-62500D01*
G01*
X146475000Y-96042500D01*
G75*
G02*
X146412500Y-96105000I-62500J0D01*
G01*
X146287500Y-96105000D01*
G75*
G02*
X146225000Y-96042500I0J62500D01*
G01*
X146225000Y-95292500D01*
G75*
G02*
X146287500Y-95230000I62500J0D01*
G01*
G37*
G36*
G01*
X146787500Y-95230000D02*
X146912500Y-95230000D01*
G75*
G02*
X146975000Y-95292500I0J-62500D01*
G01*
X146975000Y-96042500D01*
G75*
G02*
X146912500Y-96105000I-62500J0D01*
G01*
X146787500Y-96105000D01*
G75*
G02*
X146725000Y-96042500I0J62500D01*
G01*
X146725000Y-95292500D01*
G75*
G02*
X146787500Y-95230000I62500J0D01*
G01*
G37*
G36*
G01*
X147287500Y-95230000D02*
X147412500Y-95230000D01*
G75*
G02*
X147475000Y-95292500I0J-62500D01*
G01*
X147475000Y-96042500D01*
G75*
G02*
X147412500Y-96105000I-62500J0D01*
G01*
X147287500Y-96105000D01*
G75*
G02*
X147225000Y-96042500I0J62500D01*
G01*
X147225000Y-95292500D01*
G75*
G02*
X147287500Y-95230000I62500J0D01*
G01*
G37*
G36*
G01*
X147787500Y-95230000D02*
X147912500Y-95230000D01*
G75*
G02*
X147975000Y-95292500I0J-62500D01*
G01*
X147975000Y-96042500D01*
G75*
G02*
X147912500Y-96105000I-62500J0D01*
G01*
X147787500Y-96105000D01*
G75*
G02*
X147725000Y-96042500I0J62500D01*
G01*
X147725000Y-95292500D01*
G75*
G02*
X147787500Y-95230000I62500J0D01*
G01*
G37*
G36*
G01*
X148287500Y-95230000D02*
X148412500Y-95230000D01*
G75*
G02*
X148475000Y-95292500I0J-62500D01*
G01*
X148475000Y-96042500D01*
G75*
G02*
X148412500Y-96105000I-62500J0D01*
G01*
X148287500Y-96105000D01*
G75*
G02*
X148225000Y-96042500I0J62500D01*
G01*
X148225000Y-95292500D01*
G75*
G02*
X148287500Y-95230000I62500J0D01*
G01*
G37*
G36*
G01*
X148787500Y-95230000D02*
X148912500Y-95230000D01*
G75*
G02*
X148975000Y-95292500I0J-62500D01*
G01*
X148975000Y-96042500D01*
G75*
G02*
X148912500Y-96105000I-62500J0D01*
G01*
X148787500Y-96105000D01*
G75*
G02*
X148725000Y-96042500I0J62500D01*
G01*
X148725000Y-95292500D01*
G75*
G02*
X148787500Y-95230000I62500J0D01*
G01*
G37*
G36*
G01*
X149162500Y-94855000D02*
X149912500Y-94855000D01*
G75*
G02*
X149975000Y-94917500I0J-62500D01*
G01*
X149975000Y-95042500D01*
G75*
G02*
X149912500Y-95105000I-62500J0D01*
G01*
X149162500Y-95105000D01*
G75*
G02*
X149100000Y-95042500I0J62500D01*
G01*
X149100000Y-94917500D01*
G75*
G02*
X149162500Y-94855000I62500J0D01*
G01*
G37*
G36*
G01*
X149162500Y-94355000D02*
X149912500Y-94355000D01*
G75*
G02*
X149975000Y-94417500I0J-62500D01*
G01*
X149975000Y-94542500D01*
G75*
G02*
X149912500Y-94605000I-62500J0D01*
G01*
X149162500Y-94605000D01*
G75*
G02*
X149100000Y-94542500I0J62500D01*
G01*
X149100000Y-94417500D01*
G75*
G02*
X149162500Y-94355000I62500J0D01*
G01*
G37*
G36*
G01*
X149162500Y-93855000D02*
X149912500Y-93855000D01*
G75*
G02*
X149975000Y-93917500I0J-62500D01*
G01*
X149975000Y-94042500D01*
G75*
G02*
X149912500Y-94105000I-62500J0D01*
G01*
X149162500Y-94105000D01*
G75*
G02*
X149100000Y-94042500I0J62500D01*
G01*
X149100000Y-93917500D01*
G75*
G02*
X149162500Y-93855000I62500J0D01*
G01*
G37*
G36*
G01*
X149162500Y-93355000D02*
X149912500Y-93355000D01*
G75*
G02*
X149975000Y-93417500I0J-62500D01*
G01*
X149975000Y-93542500D01*
G75*
G02*
X149912500Y-93605000I-62500J0D01*
G01*
X149162500Y-93605000D01*
G75*
G02*
X149100000Y-93542500I0J62500D01*
G01*
X149100000Y-93417500D01*
G75*
G02*
X149162500Y-93355000I62500J0D01*
G01*
G37*
G36*
G01*
X149162500Y-92855000D02*
X149912500Y-92855000D01*
G75*
G02*
X149975000Y-92917500I0J-62500D01*
G01*
X149975000Y-93042500D01*
G75*
G02*
X149912500Y-93105000I-62500J0D01*
G01*
X149162500Y-93105000D01*
G75*
G02*
X149100000Y-93042500I0J62500D01*
G01*
X149100000Y-92917500D01*
G75*
G02*
X149162500Y-92855000I62500J0D01*
G01*
G37*
G36*
G01*
X149162500Y-92355000D02*
X149912500Y-92355000D01*
G75*
G02*
X149975000Y-92417500I0J-62500D01*
G01*
X149975000Y-92542500D01*
G75*
G02*
X149912500Y-92605000I-62500J0D01*
G01*
X149162500Y-92605000D01*
G75*
G02*
X149100000Y-92542500I0J62500D01*
G01*
X149100000Y-92417500D01*
G75*
G02*
X149162500Y-92355000I62500J0D01*
G01*
G37*
G36*
G01*
X149162500Y-91855000D02*
X149912500Y-91855000D01*
G75*
G02*
X149975000Y-91917500I0J-62500D01*
G01*
X149975000Y-92042500D01*
G75*
G02*
X149912500Y-92105000I-62500J0D01*
G01*
X149162500Y-92105000D01*
G75*
G02*
X149100000Y-92042500I0J62500D01*
G01*
X149100000Y-91917500D01*
G75*
G02*
X149162500Y-91855000I62500J0D01*
G01*
G37*
G36*
G01*
X149162500Y-91355000D02*
X149912500Y-91355000D01*
G75*
G02*
X149975000Y-91417500I0J-62500D01*
G01*
X149975000Y-91542500D01*
G75*
G02*
X149912500Y-91605000I-62500J0D01*
G01*
X149162500Y-91605000D01*
G75*
G02*
X149100000Y-91542500I0J62500D01*
G01*
X149100000Y-91417500D01*
G75*
G02*
X149162500Y-91355000I62500J0D01*
G01*
G37*
G04 #@! TD*
G04 #@! TO.C,R16*
G36*
G01*
X158715000Y-82670000D02*
X159085000Y-82670000D01*
G75*
G02*
X159220000Y-82805000I0J-135000D01*
G01*
X159220000Y-83075000D01*
G75*
G02*
X159085000Y-83210000I-135000J0D01*
G01*
X158715000Y-83210000D01*
G75*
G02*
X158580000Y-83075000I0J135000D01*
G01*
X158580000Y-82805000D01*
G75*
G02*
X158715000Y-82670000I135000J0D01*
G01*
G37*
G36*
G01*
X158715000Y-83690000D02*
X159085000Y-83690000D01*
G75*
G02*
X159220000Y-83825000I0J-135000D01*
G01*
X159220000Y-84095000D01*
G75*
G02*
X159085000Y-84230000I-135000J0D01*
G01*
X158715000Y-84230000D01*
G75*
G02*
X158580000Y-84095000I0J135000D01*
G01*
X158580000Y-83825000D01*
G75*
G02*
X158715000Y-83690000I135000J0D01*
G01*
G37*
G04 #@! TD*
G04 #@! TO.C,R4*
G36*
G01*
X137580000Y-89645000D02*
X137580000Y-90015000D01*
G75*
G02*
X137445000Y-90150000I-135000J0D01*
G01*
X137175000Y-90150000D01*
G75*
G02*
X137040000Y-90015000I0J135000D01*
G01*
X137040000Y-89645000D01*
G75*
G02*
X137175000Y-89510000I135000J0D01*
G01*
X137445000Y-89510000D01*
G75*
G02*
X137580000Y-89645000I0J-135000D01*
G01*
G37*
G36*
G01*
X136560000Y-89645000D02*
X136560000Y-90015000D01*
G75*
G02*
X136425000Y-90150000I-135000J0D01*
G01*
X136155000Y-90150000D01*
G75*
G02*
X136020000Y-90015000I0J135000D01*
G01*
X136020000Y-89645000D01*
G75*
G02*
X136155000Y-89510000I135000J0D01*
G01*
X136425000Y-89510000D01*
G75*
G02*
X136560000Y-89645000I0J-135000D01*
G01*
G37*
G04 #@! TD*
G04 #@! TO.C,U5*
G36*
G01*
X151350000Y-107525000D02*
X151150000Y-107525000D01*
G75*
G02*
X151050000Y-107425000I0J100000D01*
G01*
X151050000Y-106975000D01*
G75*
G02*
X151150000Y-106875000I100000J0D01*
G01*
X151350000Y-106875000D01*
G75*
G02*
X151450000Y-106975000I0J-100000D01*
G01*
X151450000Y-107425000D01*
G75*
G02*
X151350000Y-107525000I-100000J0D01*
G01*
G37*
G36*
G01*
X152000000Y-107525000D02*
X151800000Y-107525000D01*
G75*
G02*
X151700000Y-107425000I0J100000D01*
G01*
X151700000Y-106975000D01*
G75*
G02*
X151800000Y-106875000I100000J0D01*
G01*
X152000000Y-106875000D01*
G75*
G02*
X152100000Y-106975000I0J-100000D01*
G01*
X152100000Y-107425000D01*
G75*
G02*
X152000000Y-107525000I-100000J0D01*
G01*
G37*
G36*
G01*
X152650000Y-107525000D02*
X152450000Y-107525000D01*
G75*
G02*
X152350000Y-107425000I0J100000D01*
G01*
X152350000Y-106975000D01*
G75*
G02*
X152450000Y-106875000I100000J0D01*
G01*
X152650000Y-106875000D01*
G75*
G02*
X152750000Y-106975000I0J-100000D01*
G01*
X152750000Y-107425000D01*
G75*
G02*
X152650000Y-107525000I-100000J0D01*
G01*
G37*
G36*
G01*
X152650000Y-105625000D02*
X152450000Y-105625000D01*
G75*
G02*
X152350000Y-105525000I0J100000D01*
G01*
X152350000Y-105075000D01*
G75*
G02*
X152450000Y-104975000I100000J0D01*
G01*
X152650000Y-104975000D01*
G75*
G02*
X152750000Y-105075000I0J-100000D01*
G01*
X152750000Y-105525000D01*
G75*
G02*
X152650000Y-105625000I-100000J0D01*
G01*
G37*
G36*
G01*
X152000000Y-105625000D02*
X151800000Y-105625000D01*
G75*
G02*
X151700000Y-105525000I0J100000D01*
G01*
X151700000Y-105075000D01*
G75*
G02*
X151800000Y-104975000I100000J0D01*
G01*
X152000000Y-104975000D01*
G75*
G02*
X152100000Y-105075000I0J-100000D01*
G01*
X152100000Y-105525000D01*
G75*
G02*
X152000000Y-105625000I-100000J0D01*
G01*
G37*
G36*
G01*
X151350000Y-105625000D02*
X151150000Y-105625000D01*
G75*
G02*
X151050000Y-105525000I0J100000D01*
G01*
X151050000Y-105075000D01*
G75*
G02*
X151150000Y-104975000I100000J0D01*
G01*
X151350000Y-104975000D01*
G75*
G02*
X151450000Y-105075000I0J-100000D01*
G01*
X151450000Y-105525000D01*
G75*
G02*
X151350000Y-105625000I-100000J0D01*
G01*
G37*
G04 #@! TD*
G04 #@! TO.C,C8*
G36*
G01*
X150940000Y-92270000D02*
X150940000Y-91930000D01*
G75*
G02*
X151080000Y-91790000I140000J0D01*
G01*
X151360000Y-91790000D01*
G75*
G02*
X151500000Y-91930000I0J-140000D01*
G01*
X151500000Y-92270000D01*
G75*
G02*
X151360000Y-92410000I-140000J0D01*
G01*
X151080000Y-92410000D01*
G75*
G02*
X150940000Y-92270000I0J140000D01*
G01*
G37*
G36*
G01*
X151900000Y-92270000D02*
X151900000Y-91930000D01*
G75*
G02*
X152040000Y-91790000I140000J0D01*
G01*
X152320000Y-91790000D01*
G75*
G02*
X152460000Y-91930000I0J-140000D01*
G01*
X152460000Y-92270000D01*
G75*
G02*
X152320000Y-92410000I-140000J0D01*
G01*
X152040000Y-92410000D01*
G75*
G02*
X151900000Y-92270000I0J140000D01*
G01*
G37*
G04 #@! TD*
G04 #@! TO.C,R14*
G36*
G01*
X145715000Y-80620000D02*
X146085000Y-80620000D01*
G75*
G02*
X146220000Y-80755000I0J-135000D01*
G01*
X146220000Y-81025000D01*
G75*
G02*
X146085000Y-81160000I-135000J0D01*
G01*
X145715000Y-81160000D01*
G75*
G02*
X145580000Y-81025000I0J135000D01*
G01*
X145580000Y-80755000D01*
G75*
G02*
X145715000Y-80620000I135000J0D01*
G01*
G37*
G36*
G01*
X145715000Y-81640000D02*
X146085000Y-81640000D01*
G75*
G02*
X146220000Y-81775000I0J-135000D01*
G01*
X146220000Y-82045000D01*
G75*
G02*
X146085000Y-82180000I-135000J0D01*
G01*
X145715000Y-82180000D01*
G75*
G02*
X145580000Y-82045000I0J135000D01*
G01*
X145580000Y-81775000D01*
G75*
G02*
X145715000Y-81640000I135000J0D01*
G01*
G37*
G04 #@! TD*
D17*
G04 #@! TO.C,J2*
X148300000Y-130050000D03*
X147200000Y-130050000D03*
X146100000Y-130050000D03*
D18*
X145000000Y-130200000D03*
D17*
X143900000Y-130050000D03*
D18*
X142800000Y-130200000D03*
D17*
X141700000Y-130050000D03*
X140600000Y-130050000D03*
G04 #@! TD*
D19*
G04 #@! TO.C,U1*
X145349998Y-103843050D03*
X145850000Y-103843050D03*
X146349999Y-103843050D03*
X146850000Y-103843050D03*
X147350000Y-103843050D03*
X147849998Y-103843050D03*
X148350000Y-103843050D03*
X148849999Y-103843050D03*
X148850002Y-100756950D03*
X148350000Y-100756950D03*
X147850001Y-100756950D03*
X147350000Y-100756950D03*
X146850000Y-100756950D03*
X146350002Y-100756950D03*
X145850000Y-100756950D03*
X145350001Y-100756950D03*
G04 #@! TD*
D20*
G04 #@! TO.C,Y1*
X140800000Y-88875000D03*
X140800000Y-87125000D03*
X139400000Y-87125000D03*
X139400000Y-88875000D03*
G04 #@! TD*
G04 #@! TO.C,R8*
G36*
G01*
X158115000Y-99920000D02*
X158485000Y-99920000D01*
G75*
G02*
X158620000Y-100055000I0J-135000D01*
G01*
X158620000Y-100325000D01*
G75*
G02*
X158485000Y-100460000I-135000J0D01*
G01*
X158115000Y-100460000D01*
G75*
G02*
X157980000Y-100325000I0J135000D01*
G01*
X157980000Y-100055000D01*
G75*
G02*
X158115000Y-99920000I135000J0D01*
G01*
G37*
G36*
G01*
X158115000Y-100940000D02*
X158485000Y-100940000D01*
G75*
G02*
X158620000Y-101075000I0J-135000D01*
G01*
X158620000Y-101345000D01*
G75*
G02*
X158485000Y-101480000I-135000J0D01*
G01*
X158115000Y-101480000D01*
G75*
G02*
X157980000Y-101345000I0J135000D01*
G01*
X157980000Y-101075000D01*
G75*
G02*
X158115000Y-100940000I135000J0D01*
G01*
G37*
G04 #@! TD*
G04 #@! TO.C,R19*
G36*
G01*
X162030000Y-102815000D02*
X162030000Y-103185000D01*
G75*
G02*
X161895000Y-103320000I-135000J0D01*
G01*
X161625000Y-103320000D01*
G75*
G02*
X161490000Y-103185000I0J135000D01*
G01*
X161490000Y-102815000D01*
G75*
G02*
X161625000Y-102680000I135000J0D01*
G01*
X161895000Y-102680000D01*
G75*
G02*
X162030000Y-102815000I0J-135000D01*
G01*
G37*
G36*
G01*
X161010000Y-102815000D02*
X161010000Y-103185000D01*
G75*
G02*
X160875000Y-103320000I-135000J0D01*
G01*
X160605000Y-103320000D01*
G75*
G02*
X160470000Y-103185000I0J135000D01*
G01*
X160470000Y-102815000D01*
G75*
G02*
X160605000Y-102680000I135000J0D01*
G01*
X160875000Y-102680000D01*
G75*
G02*
X161010000Y-102815000I0J-135000D01*
G01*
G37*
G04 #@! TD*
G04 #@! TO.C,J6*
G36*
G01*
X161500000Y-78125000D02*
X160300000Y-78125000D01*
G75*
G02*
X160100000Y-77925000I0J200000D01*
G01*
X160100000Y-77525000D01*
G75*
G02*
X160300000Y-77325000I200000J0D01*
G01*
X161500000Y-77325000D01*
G75*
G02*
X161700000Y-77525000I0J-200000D01*
G01*
X161700000Y-77925000D01*
G75*
G02*
X161500000Y-78125000I-200000J0D01*
G01*
G37*
G36*
G01*
X161500000Y-76875000D02*
X160300000Y-76875000D01*
G75*
G02*
X160100000Y-76675000I0J200000D01*
G01*
X160100000Y-76275000D01*
G75*
G02*
X160300000Y-76075000I200000J0D01*
G01*
X161500000Y-76075000D01*
G75*
G02*
X161700000Y-76275000I0J-200000D01*
G01*
X161700000Y-76675000D01*
G75*
G02*
X161500000Y-76875000I-200000J0D01*
G01*
G37*
G36*
G01*
X165049999Y-81325000D02*
X162550001Y-81325000D01*
G75*
G02*
X162300000Y-81074999I0J250001D01*
G01*
X162300000Y-79475001D01*
G75*
G02*
X162550001Y-79225000I250001J0D01*
G01*
X165049999Y-79225000D01*
G75*
G02*
X165300000Y-79475001I0J-250001D01*
G01*
X165300000Y-81074999D01*
G75*
G02*
X165049999Y-81325000I-250001J0D01*
G01*
G37*
G36*
G01*
X165049999Y-74975000D02*
X162550001Y-74975000D01*
G75*
G02*
X162300000Y-74724999I0J250001D01*
G01*
X162300000Y-73125001D01*
G75*
G02*
X162550001Y-72875000I250001J0D01*
G01*
X165049999Y-72875000D01*
G75*
G02*
X165300000Y-73125001I0J-250001D01*
G01*
X165300000Y-74724999D01*
G75*
G02*
X165049999Y-74975000I-250001J0D01*
G01*
G37*
G04 #@! TD*
G04 #@! TO.C,C14*
G36*
G01*
X137640000Y-78170000D02*
X137640000Y-77830000D01*
G75*
G02*
X137780000Y-77690000I140000J0D01*
G01*
X138060000Y-77690000D01*
G75*
G02*
X138200000Y-77830000I0J-140000D01*
G01*
X138200000Y-78170000D01*
G75*
G02*
X138060000Y-78310000I-140000J0D01*
G01*
X137780000Y-78310000D01*
G75*
G02*
X137640000Y-78170000I0J140000D01*
G01*
G37*
G36*
G01*
X138600000Y-78170000D02*
X138600000Y-77830000D01*
G75*
G02*
X138740000Y-77690000I140000J0D01*
G01*
X139020000Y-77690000D01*
G75*
G02*
X139160000Y-77830000I0J-140000D01*
G01*
X139160000Y-78170000D01*
G75*
G02*
X139020000Y-78310000I-140000J0D01*
G01*
X138740000Y-78310000D01*
G75*
G02*
X138600000Y-78170000I0J140000D01*
G01*
G37*
G04 #@! TD*
G04 #@! TO.C,Q4*
G36*
G01*
X154762500Y-102527500D02*
X155237500Y-102527500D01*
G75*
G02*
X155350000Y-102640000I0J-112500D01*
G01*
X155350000Y-102865000D01*
G75*
G02*
X155237500Y-102977500I-112500J0D01*
G01*
X154762500Y-102977500D01*
G75*
G02*
X154650000Y-102865000I0J112500D01*
G01*
X154650000Y-102640000D01*
G75*
G02*
X154762500Y-102527500I112500J0D01*
G01*
G37*
G36*
G01*
X154762500Y-103827500D02*
X155237500Y-103827500D01*
G75*
G02*
X155350000Y-103940000I0J-112500D01*
G01*
X155350000Y-104165000D01*
G75*
G02*
X155237500Y-104277500I-112500J0D01*
G01*
X154762500Y-104277500D01*
G75*
G02*
X154650000Y-104165000I0J112500D01*
G01*
X154650000Y-103940000D01*
G75*
G02*
X154762500Y-103827500I112500J0D01*
G01*
G37*
G36*
G01*
X156762500Y-103177500D02*
X157237500Y-103177500D01*
G75*
G02*
X157350000Y-103290000I0J-112500D01*
G01*
X157350000Y-103515000D01*
G75*
G02*
X157237500Y-103627500I-112500J0D01*
G01*
X156762500Y-103627500D01*
G75*
G02*
X156650000Y-103515000I0J112500D01*
G01*
X156650000Y-103290000D01*
G75*
G02*
X156762500Y-103177500I112500J0D01*
G01*
G37*
G04 #@! TD*
G04 #@! TO.C,C10*
G36*
G01*
X139660000Y-82430000D02*
X139660000Y-82770000D01*
G75*
G02*
X139520000Y-82910000I-140000J0D01*
G01*
X139240000Y-82910000D01*
G75*
G02*
X139100000Y-82770000I0J140000D01*
G01*
X139100000Y-82430000D01*
G75*
G02*
X139240000Y-82290000I140000J0D01*
G01*
X139520000Y-82290000D01*
G75*
G02*
X139660000Y-82430000I0J-140000D01*
G01*
G37*
G36*
G01*
X138700000Y-82430000D02*
X138700000Y-82770000D01*
G75*
G02*
X138560000Y-82910000I-140000J0D01*
G01*
X138280000Y-82910000D01*
G75*
G02*
X138140000Y-82770000I0J140000D01*
G01*
X138140000Y-82430000D01*
G75*
G02*
X138280000Y-82290000I140000J0D01*
G01*
X138560000Y-82290000D01*
G75*
G02*
X138700000Y-82430000I0J-140000D01*
G01*
G37*
G04 #@! TD*
G04 #@! TO.C,J1*
G36*
G01*
X161725000Y-87250000D02*
X160475000Y-87250000D01*
G75*
G02*
X160325000Y-87100000I0J150000D01*
G01*
X160325000Y-86800000D01*
G75*
G02*
X160475000Y-86650000I150000J0D01*
G01*
X161725000Y-86650000D01*
G75*
G02*
X161875000Y-86800000I0J-150000D01*
G01*
X161875000Y-87100000D01*
G75*
G02*
X161725000Y-87250000I-150000J0D01*
G01*
G37*
G36*
G01*
X161725000Y-86250000D02*
X160475000Y-86250000D01*
G75*
G02*
X160325000Y-86100000I0J150000D01*
G01*
X160325000Y-85800000D01*
G75*
G02*
X160475000Y-85650000I150000J0D01*
G01*
X161725000Y-85650000D01*
G75*
G02*
X161875000Y-85800000I0J-150000D01*
G01*
X161875000Y-86100000D01*
G75*
G02*
X161725000Y-86250000I-150000J0D01*
G01*
G37*
G36*
G01*
X161725000Y-85250000D02*
X160475000Y-85250000D01*
G75*
G02*
X160325000Y-85100000I0J150000D01*
G01*
X160325000Y-84800000D01*
G75*
G02*
X160475000Y-84650000I150000J0D01*
G01*
X161725000Y-84650000D01*
G75*
G02*
X161875000Y-84800000I0J-150000D01*
G01*
X161875000Y-85100000D01*
G75*
G02*
X161725000Y-85250000I-150000J0D01*
G01*
G37*
G36*
G01*
X161725000Y-84250000D02*
X160475000Y-84250000D01*
G75*
G02*
X160325000Y-84100000I0J150000D01*
G01*
X160325000Y-83800000D01*
G75*
G02*
X160475000Y-83650000I150000J0D01*
G01*
X161725000Y-83650000D01*
G75*
G02*
X161875000Y-83800000I0J-150000D01*
G01*
X161875000Y-84100000D01*
G75*
G02*
X161725000Y-84250000I-150000J0D01*
G01*
G37*
G36*
G01*
X165625000Y-88850000D02*
X164325000Y-88850000D01*
G75*
G02*
X164075000Y-88600000I0J250000D01*
G01*
X164075000Y-87900000D01*
G75*
G02*
X164325000Y-87650000I250000J0D01*
G01*
X165625000Y-87650000D01*
G75*
G02*
X165875000Y-87900000I0J-250000D01*
G01*
X165875000Y-88600000D01*
G75*
G02*
X165625000Y-88850000I-250000J0D01*
G01*
G37*
G36*
G01*
X165625000Y-83250000D02*
X164325000Y-83250000D01*
G75*
G02*
X164075000Y-83000000I0J250000D01*
G01*
X164075000Y-82300000D01*
G75*
G02*
X164325000Y-82050000I250000J0D01*
G01*
X165625000Y-82050000D01*
G75*
G02*
X165875000Y-82300000I0J-250000D01*
G01*
X165875000Y-83000000D01*
G75*
G02*
X165625000Y-83250000I-250000J0D01*
G01*
G37*
G04 #@! TD*
G04 #@! TO.C,R10*
G36*
G01*
X161980000Y-99390000D02*
X161980000Y-99760000D01*
G75*
G02*
X161845000Y-99895000I-135000J0D01*
G01*
X161575000Y-99895000D01*
G75*
G02*
X161440000Y-99760000I0J135000D01*
G01*
X161440000Y-99390000D01*
G75*
G02*
X161575000Y-99255000I135000J0D01*
G01*
X161845000Y-99255000D01*
G75*
G02*
X161980000Y-99390000I0J-135000D01*
G01*
G37*
G36*
G01*
X160960000Y-99390000D02*
X160960000Y-99760000D01*
G75*
G02*
X160825000Y-99895000I-135000J0D01*
G01*
X160555000Y-99895000D01*
G75*
G02*
X160420000Y-99760000I0J135000D01*
G01*
X160420000Y-99390000D01*
G75*
G02*
X160555000Y-99255000I135000J0D01*
G01*
X160825000Y-99255000D01*
G75*
G02*
X160960000Y-99390000I0J-135000D01*
G01*
G37*
G04 #@! TD*
G04 #@! TO.C,C22*
G36*
G01*
X143260000Y-95630000D02*
X143260000Y-95970000D01*
G75*
G02*
X143120000Y-96110000I-140000J0D01*
G01*
X142840000Y-96110000D01*
G75*
G02*
X142700000Y-95970000I0J140000D01*
G01*
X142700000Y-95630000D01*
G75*
G02*
X142840000Y-95490000I140000J0D01*
G01*
X143120000Y-95490000D01*
G75*
G02*
X143260000Y-95630000I0J-140000D01*
G01*
G37*
G36*
G01*
X142300000Y-95630000D02*
X142300000Y-95970000D01*
G75*
G02*
X142160000Y-96110000I-140000J0D01*
G01*
X141880000Y-96110000D01*
G75*
G02*
X141740000Y-95970000I0J140000D01*
G01*
X141740000Y-95630000D01*
G75*
G02*
X141880000Y-95490000I140000J0D01*
G01*
X142160000Y-95490000D01*
G75*
G02*
X142300000Y-95630000I0J-140000D01*
G01*
G37*
G04 #@! TD*
G04 #@! TO.C,D4*
G36*
G01*
X165025000Y-90943750D02*
X165025000Y-91456250D01*
G75*
G02*
X164806250Y-91675000I-218750J0D01*
G01*
X164368750Y-91675000D01*
G75*
G02*
X164150000Y-91456250I0J218750D01*
G01*
X164150000Y-90943750D01*
G75*
G02*
X164368750Y-90725000I218750J0D01*
G01*
X164806250Y-90725000D01*
G75*
G02*
X165025000Y-90943750I0J-218750D01*
G01*
G37*
G36*
G01*
X163450000Y-90943750D02*
X163450000Y-91456250D01*
G75*
G02*
X163231250Y-91675000I-218750J0D01*
G01*
X162793750Y-91675000D01*
G75*
G02*
X162575000Y-91456250I0J218750D01*
G01*
X162575000Y-90943750D01*
G75*
G02*
X162793750Y-90725000I218750J0D01*
G01*
X163231250Y-90725000D01*
G75*
G02*
X163450000Y-90943750I0J-218750D01*
G01*
G37*
G04 #@! TD*
G04 #@! TO.C,U2*
G36*
G01*
X155530000Y-94330000D02*
X155020000Y-94330000D01*
G75*
G02*
X154770000Y-94080000I0J250000D01*
G01*
X154770000Y-93570000D01*
G75*
G02*
X155020000Y-93320000I250000J0D01*
G01*
X155530000Y-93320000D01*
G75*
G02*
X155780000Y-93570000I0J-250000D01*
G01*
X155780000Y-94080000D01*
G75*
G02*
X155530000Y-94330000I-250000J0D01*
G01*
G37*
G36*
G01*
X156780000Y-94330000D02*
X156270000Y-94330000D01*
G75*
G02*
X156020000Y-94080000I0J250000D01*
G01*
X156020000Y-93570000D01*
G75*
G02*
X156270000Y-93320000I250000J0D01*
G01*
X156780000Y-93320000D01*
G75*
G02*
X157030000Y-93570000I0J-250000D01*
G01*
X157030000Y-94080000D01*
G75*
G02*
X156780000Y-94330000I-250000J0D01*
G01*
G37*
G36*
G01*
X155530000Y-93080000D02*
X155020000Y-93080000D01*
G75*
G02*
X154770000Y-92830000I0J250000D01*
G01*
X154770000Y-92320000D01*
G75*
G02*
X155020000Y-92070000I250000J0D01*
G01*
X155530000Y-92070000D01*
G75*
G02*
X155780000Y-92320000I0J-250000D01*
G01*
X155780000Y-92830000D01*
G75*
G02*
X155530000Y-93080000I-250000J0D01*
G01*
G37*
G36*
G01*
X156780000Y-93080000D02*
X156270000Y-93080000D01*
G75*
G02*
X156020000Y-92830000I0J250000D01*
G01*
X156020000Y-92320000D01*
G75*
G02*
X156270000Y-92070000I250000J0D01*
G01*
X156780000Y-92070000D01*
G75*
G02*
X157030000Y-92320000I0J-250000D01*
G01*
X157030000Y-92830000D01*
G75*
G02*
X156780000Y-93080000I-250000J0D01*
G01*
G37*
G36*
G01*
X155000000Y-95550000D02*
X154850000Y-95550000D01*
G75*
G02*
X154775000Y-95475000I0J75000D01*
G01*
X154775000Y-94800000D01*
G75*
G02*
X154850000Y-94725000I75000J0D01*
G01*
X155000000Y-94725000D01*
G75*
G02*
X155075000Y-94800000I0J-75000D01*
G01*
X155075000Y-95475000D01*
G75*
G02*
X155000000Y-95550000I-75000J0D01*
G01*
G37*
G36*
G01*
X155650000Y-95550000D02*
X155500000Y-95550000D01*
G75*
G02*
X155425000Y-95475000I0J75000D01*
G01*
X155425000Y-94800000D01*
G75*
G02*
X155500000Y-94725000I75000J0D01*
G01*
X155650000Y-94725000D01*
G75*
G02*
X155725000Y-94800000I0J-75000D01*
G01*
X155725000Y-95475000D01*
G75*
G02*
X155650000Y-95550000I-75000J0D01*
G01*
G37*
G36*
G01*
X156300000Y-95550000D02*
X156150000Y-95550000D01*
G75*
G02*
X156075000Y-95475000I0J75000D01*
G01*
X156075000Y-94800000D01*
G75*
G02*
X156150000Y-94725000I75000J0D01*
G01*
X156300000Y-94725000D01*
G75*
G02*
X156375000Y-94800000I0J-75000D01*
G01*
X156375000Y-95475000D01*
G75*
G02*
X156300000Y-95550000I-75000J0D01*
G01*
G37*
G36*
G01*
X156950000Y-95550000D02*
X156800000Y-95550000D01*
G75*
G02*
X156725000Y-95475000I0J75000D01*
G01*
X156725000Y-94800000D01*
G75*
G02*
X156800000Y-94725000I75000J0D01*
G01*
X156950000Y-94725000D01*
G75*
G02*
X157025000Y-94800000I0J-75000D01*
G01*
X157025000Y-95475000D01*
G75*
G02*
X156950000Y-95550000I-75000J0D01*
G01*
G37*
G36*
G01*
X158175000Y-94325000D02*
X157500000Y-94325000D01*
G75*
G02*
X157425000Y-94250000I0J75000D01*
G01*
X157425000Y-94100000D01*
G75*
G02*
X157500000Y-94025000I75000J0D01*
G01*
X158175000Y-94025000D01*
G75*
G02*
X158250000Y-94100000I0J-75000D01*
G01*
X158250000Y-94250000D01*
G75*
G02*
X158175000Y-94325000I-75000J0D01*
G01*
G37*
G36*
G01*
X158175000Y-93675000D02*
X157500000Y-93675000D01*
G75*
G02*
X157425000Y-93600000I0J75000D01*
G01*
X157425000Y-93450000D01*
G75*
G02*
X157500000Y-93375000I75000J0D01*
G01*
X158175000Y-93375000D01*
G75*
G02*
X158250000Y-93450000I0J-75000D01*
G01*
X158250000Y-93600000D01*
G75*
G02*
X158175000Y-93675000I-75000J0D01*
G01*
G37*
G36*
G01*
X158175000Y-93025000D02*
X157500000Y-93025000D01*
G75*
G02*
X157425000Y-92950000I0J75000D01*
G01*
X157425000Y-92800000D01*
G75*
G02*
X157500000Y-92725000I75000J0D01*
G01*
X158175000Y-92725000D01*
G75*
G02*
X158250000Y-92800000I0J-75000D01*
G01*
X158250000Y-92950000D01*
G75*
G02*
X158175000Y-93025000I-75000J0D01*
G01*
G37*
G36*
G01*
X158175000Y-92375000D02*
X157500000Y-92375000D01*
G75*
G02*
X157425000Y-92300000I0J75000D01*
G01*
X157425000Y-92150000D01*
G75*
G02*
X157500000Y-92075000I75000J0D01*
G01*
X158175000Y-92075000D01*
G75*
G02*
X158250000Y-92150000I0J-75000D01*
G01*
X158250000Y-92300000D01*
G75*
G02*
X158175000Y-92375000I-75000J0D01*
G01*
G37*
G36*
G01*
X156950000Y-91675000D02*
X156800000Y-91675000D01*
G75*
G02*
X156725000Y-91600000I0J75000D01*
G01*
X156725000Y-90925000D01*
G75*
G02*
X156800000Y-90850000I75000J0D01*
G01*
X156950000Y-90850000D01*
G75*
G02*
X157025000Y-90925000I0J-75000D01*
G01*
X157025000Y-91600000D01*
G75*
G02*
X156950000Y-91675000I-75000J0D01*
G01*
G37*
G36*
G01*
X156300000Y-91675000D02*
X156150000Y-91675000D01*
G75*
G02*
X156075000Y-91600000I0J75000D01*
G01*
X156075000Y-90925000D01*
G75*
G02*
X156150000Y-90850000I75000J0D01*
G01*
X156300000Y-90850000D01*
G75*
G02*
X156375000Y-90925000I0J-75000D01*
G01*
X156375000Y-91600000D01*
G75*
G02*
X156300000Y-91675000I-75000J0D01*
G01*
G37*
G36*
G01*
X155650000Y-91675000D02*
X155500000Y-91675000D01*
G75*
G02*
X155425000Y-91600000I0J75000D01*
G01*
X155425000Y-90925000D01*
G75*
G02*
X155500000Y-90850000I75000J0D01*
G01*
X155650000Y-90850000D01*
G75*
G02*
X155725000Y-90925000I0J-75000D01*
G01*
X155725000Y-91600000D01*
G75*
G02*
X155650000Y-91675000I-75000J0D01*
G01*
G37*
G36*
G01*
X155000000Y-91675000D02*
X154850000Y-91675000D01*
G75*
G02*
X154775000Y-91600000I0J75000D01*
G01*
X154775000Y-90925000D01*
G75*
G02*
X154850000Y-90850000I75000J0D01*
G01*
X155000000Y-90850000D01*
G75*
G02*
X155075000Y-90925000I0J-75000D01*
G01*
X155075000Y-91600000D01*
G75*
G02*
X155000000Y-91675000I-75000J0D01*
G01*
G37*
G36*
G01*
X154300000Y-92375000D02*
X153625000Y-92375000D01*
G75*
G02*
X153550000Y-92300000I0J75000D01*
G01*
X153550000Y-92150000D01*
G75*
G02*
X153625000Y-92075000I75000J0D01*
G01*
X154300000Y-92075000D01*
G75*
G02*
X154375000Y-92150000I0J-75000D01*
G01*
X154375000Y-92300000D01*
G75*
G02*
X154300000Y-92375000I-75000J0D01*
G01*
G37*
G36*
G01*
X154300000Y-93025000D02*
X153625000Y-93025000D01*
G75*
G02*
X153550000Y-92950000I0J75000D01*
G01*
X153550000Y-92800000D01*
G75*
G02*
X153625000Y-92725000I75000J0D01*
G01*
X154300000Y-92725000D01*
G75*
G02*
X154375000Y-92800000I0J-75000D01*
G01*
X154375000Y-92950000D01*
G75*
G02*
X154300000Y-93025000I-75000J0D01*
G01*
G37*
G36*
G01*
X154300000Y-93675000D02*
X153625000Y-93675000D01*
G75*
G02*
X153550000Y-93600000I0J75000D01*
G01*
X153550000Y-93450000D01*
G75*
G02*
X153625000Y-93375000I75000J0D01*
G01*
X154300000Y-93375000D01*
G75*
G02*
X154375000Y-93450000I0J-75000D01*
G01*
X154375000Y-93600000D01*
G75*
G02*
X154300000Y-93675000I-75000J0D01*
G01*
G37*
G36*
G01*
X154300000Y-94325000D02*
X153625000Y-94325000D01*
G75*
G02*
X153550000Y-94250000I0J75000D01*
G01*
X153550000Y-94100000D01*
G75*
G02*
X153625000Y-94025000I75000J0D01*
G01*
X154300000Y-94025000D01*
G75*
G02*
X154375000Y-94100000I0J-75000D01*
G01*
X154375000Y-94250000D01*
G75*
G02*
X154300000Y-94325000I-75000J0D01*
G01*
G37*
G04 #@! TD*
G04 #@! TO.C,C12*
G36*
G01*
X143260000Y-94630000D02*
X143260000Y-94970000D01*
G75*
G02*
X143120000Y-95110000I-140000J0D01*
G01*
X142840000Y-95110000D01*
G75*
G02*
X142700000Y-94970000I0J140000D01*
G01*
X142700000Y-94630000D01*
G75*
G02*
X142840000Y-94490000I140000J0D01*
G01*
X143120000Y-94490000D01*
G75*
G02*
X143260000Y-94630000I0J-140000D01*
G01*
G37*
G36*
G01*
X142300000Y-94630000D02*
X142300000Y-94970000D01*
G75*
G02*
X142160000Y-95110000I-140000J0D01*
G01*
X141880000Y-95110000D01*
G75*
G02*
X141740000Y-94970000I0J140000D01*
G01*
X141740000Y-94630000D01*
G75*
G02*
X141880000Y-94490000I140000J0D01*
G01*
X142160000Y-94490000D01*
G75*
G02*
X142300000Y-94630000I0J-140000D01*
G01*
G37*
G04 #@! TD*
G04 #@! TO.C,C26*
G36*
G01*
X145140000Y-99570000D02*
X145140000Y-99230000D01*
G75*
G02*
X145280000Y-99090000I140000J0D01*
G01*
X145560000Y-99090000D01*
G75*
G02*
X145700000Y-99230000I0J-140000D01*
G01*
X145700000Y-99570000D01*
G75*
G02*
X145560000Y-99710000I-140000J0D01*
G01*
X145280000Y-99710000D01*
G75*
G02*
X145140000Y-99570000I0J140000D01*
G01*
G37*
G36*
G01*
X146100000Y-99570000D02*
X146100000Y-99230000D01*
G75*
G02*
X146240000Y-99090000I140000J0D01*
G01*
X146520000Y-99090000D01*
G75*
G02*
X146660000Y-99230000I0J-140000D01*
G01*
X146660000Y-99570000D01*
G75*
G02*
X146520000Y-99710000I-140000J0D01*
G01*
X146240000Y-99710000D01*
G75*
G02*
X146100000Y-99570000I0J140000D01*
G01*
G37*
G04 #@! TD*
G04 #@! TO.C,C17*
G36*
G01*
X140470000Y-99760000D02*
X140130000Y-99760000D01*
G75*
G02*
X139990000Y-99620000I0J140000D01*
G01*
X139990000Y-99340000D01*
G75*
G02*
X140130000Y-99200000I140000J0D01*
G01*
X140470000Y-99200000D01*
G75*
G02*
X140610000Y-99340000I0J-140000D01*
G01*
X140610000Y-99620000D01*
G75*
G02*
X140470000Y-99760000I-140000J0D01*
G01*
G37*
G36*
G01*
X140470000Y-98800000D02*
X140130000Y-98800000D01*
G75*
G02*
X139990000Y-98660000I0J140000D01*
G01*
X139990000Y-98380000D01*
G75*
G02*
X140130000Y-98240000I140000J0D01*
G01*
X140470000Y-98240000D01*
G75*
G02*
X140610000Y-98380000I0J-140000D01*
G01*
X140610000Y-98660000D01*
G75*
G02*
X140470000Y-98800000I-140000J0D01*
G01*
G37*
G04 #@! TD*
G04 #@! TO.C,C21*
G36*
G01*
X145240000Y-79370000D02*
X145240000Y-79030000D01*
G75*
G02*
X145380000Y-78890000I140000J0D01*
G01*
X145660000Y-78890000D01*
G75*
G02*
X145800000Y-79030000I0J-140000D01*
G01*
X145800000Y-79370000D01*
G75*
G02*
X145660000Y-79510000I-140000J0D01*
G01*
X145380000Y-79510000D01*
G75*
G02*
X145240000Y-79370000I0J140000D01*
G01*
G37*
G36*
G01*
X146200000Y-79370000D02*
X146200000Y-79030000D01*
G75*
G02*
X146340000Y-78890000I140000J0D01*
G01*
X146620000Y-78890000D01*
G75*
G02*
X146760000Y-79030000I0J-140000D01*
G01*
X146760000Y-79370000D01*
G75*
G02*
X146620000Y-79510000I-140000J0D01*
G01*
X146340000Y-79510000D01*
G75*
G02*
X146200000Y-79370000I0J140000D01*
G01*
G37*
G04 #@! TD*
G04 #@! TO.C,R18*
G36*
G01*
X158115000Y-101870000D02*
X158485000Y-101870000D01*
G75*
G02*
X158620000Y-102005000I0J-135000D01*
G01*
X158620000Y-102275000D01*
G75*
G02*
X158485000Y-102410000I-135000J0D01*
G01*
X158115000Y-102410000D01*
G75*
G02*
X157980000Y-102275000I0J135000D01*
G01*
X157980000Y-102005000D01*
G75*
G02*
X158115000Y-101870000I135000J0D01*
G01*
G37*
G36*
G01*
X158115000Y-102890000D02*
X158485000Y-102890000D01*
G75*
G02*
X158620000Y-103025000I0J-135000D01*
G01*
X158620000Y-103295000D01*
G75*
G02*
X158485000Y-103430000I-135000J0D01*
G01*
X158115000Y-103430000D01*
G75*
G02*
X157980000Y-103295000I0J135000D01*
G01*
X157980000Y-103025000D01*
G75*
G02*
X158115000Y-102890000I135000J0D01*
G01*
G37*
G04 #@! TD*
G04 #@! TO.C,R7*
G36*
G01*
X161980000Y-106065000D02*
X161980000Y-106435000D01*
G75*
G02*
X161845000Y-106570000I-135000J0D01*
G01*
X161575000Y-106570000D01*
G75*
G02*
X161440000Y-106435000I0J135000D01*
G01*
X161440000Y-106065000D01*
G75*
G02*
X161575000Y-105930000I135000J0D01*
G01*
X161845000Y-105930000D01*
G75*
G02*
X161980000Y-106065000I0J-135000D01*
G01*
G37*
G36*
G01*
X160960000Y-106065000D02*
X160960000Y-106435000D01*
G75*
G02*
X160825000Y-106570000I-135000J0D01*
G01*
X160555000Y-106570000D01*
G75*
G02*
X160420000Y-106435000I0J135000D01*
G01*
X160420000Y-106065000D01*
G75*
G02*
X160555000Y-105930000I135000J0D01*
G01*
X160825000Y-105930000D01*
G75*
G02*
X160960000Y-106065000I0J-135000D01*
G01*
G37*
G04 #@! TD*
G04 #@! TO.C,R2*
G36*
G01*
X161990000Y-109315000D02*
X161990000Y-109685000D01*
G75*
G02*
X161855000Y-109820000I-135000J0D01*
G01*
X161585000Y-109820000D01*
G75*
G02*
X161450000Y-109685000I0J135000D01*
G01*
X161450000Y-109315000D01*
G75*
G02*
X161585000Y-109180000I135000J0D01*
G01*
X161855000Y-109180000D01*
G75*
G02*
X161990000Y-109315000I0J-135000D01*
G01*
G37*
G36*
G01*
X160970000Y-109315000D02*
X160970000Y-109685000D01*
G75*
G02*
X160835000Y-109820000I-135000J0D01*
G01*
X160565000Y-109820000D01*
G75*
G02*
X160430000Y-109685000I0J135000D01*
G01*
X160430000Y-109315000D01*
G75*
G02*
X160565000Y-109180000I135000J0D01*
G01*
X160835000Y-109180000D01*
G75*
G02*
X160970000Y-109315000I0J-135000D01*
G01*
G37*
G04 #@! TD*
G04 #@! TO.C,R1*
G36*
G01*
X155570000Y-83085000D02*
X155570000Y-82715000D01*
G75*
G02*
X155705000Y-82580000I135000J0D01*
G01*
X155975000Y-82580000D01*
G75*
G02*
X156110000Y-82715000I0J-135000D01*
G01*
X156110000Y-83085000D01*
G75*
G02*
X155975000Y-83220000I-135000J0D01*
G01*
X155705000Y-83220000D01*
G75*
G02*
X155570000Y-83085000I0J135000D01*
G01*
G37*
G36*
G01*
X156590000Y-83085000D02*
X156590000Y-82715000D01*
G75*
G02*
X156725000Y-82580000I135000J0D01*
G01*
X156995000Y-82580000D01*
G75*
G02*
X157130000Y-82715000I0J-135000D01*
G01*
X157130000Y-83085000D01*
G75*
G02*
X156995000Y-83220000I-135000J0D01*
G01*
X156725000Y-83220000D01*
G75*
G02*
X156590000Y-83085000I0J135000D01*
G01*
G37*
G04 #@! TD*
G04 #@! TO.C,Q3*
G36*
G01*
X157237500Y-107125000D02*
X156762500Y-107125000D01*
G75*
G02*
X156650000Y-107012500I0J112500D01*
G01*
X156650000Y-106787500D01*
G75*
G02*
X156762500Y-106675000I112500J0D01*
G01*
X157237500Y-106675000D01*
G75*
G02*
X157350000Y-106787500I0J-112500D01*
G01*
X157350000Y-107012500D01*
G75*
G02*
X157237500Y-107125000I-112500J0D01*
G01*
G37*
G36*
G01*
X157237500Y-105825000D02*
X156762500Y-105825000D01*
G75*
G02*
X156650000Y-105712500I0J112500D01*
G01*
X156650000Y-105487500D01*
G75*
G02*
X156762500Y-105375000I112500J0D01*
G01*
X157237500Y-105375000D01*
G75*
G02*
X157350000Y-105487500I0J-112500D01*
G01*
X157350000Y-105712500D01*
G75*
G02*
X157237500Y-105825000I-112500J0D01*
G01*
G37*
G36*
G01*
X155237500Y-106475000D02*
X154762500Y-106475000D01*
G75*
G02*
X154650000Y-106362500I0J112500D01*
G01*
X154650000Y-106137500D01*
G75*
G02*
X154762500Y-106025000I112500J0D01*
G01*
X155237500Y-106025000D01*
G75*
G02*
X155350000Y-106137500I0J-112500D01*
G01*
X155350000Y-106362500D01*
G75*
G02*
X155237500Y-106475000I-112500J0D01*
G01*
G37*
G04 #@! TD*
G04 #@! TO.C,Q5*
G36*
G01*
X154887500Y-98525000D02*
X154412500Y-98525000D01*
G75*
G02*
X154300000Y-98412500I0J112500D01*
G01*
X154300000Y-98187500D01*
G75*
G02*
X154412500Y-98075000I112500J0D01*
G01*
X154887500Y-98075000D01*
G75*
G02*
X155000000Y-98187500I0J-112500D01*
G01*
X155000000Y-98412500D01*
G75*
G02*
X154887500Y-98525000I-112500J0D01*
G01*
G37*
G36*
G01*
X154887500Y-97225000D02*
X154412500Y-97225000D01*
G75*
G02*
X154300000Y-97112500I0J112500D01*
G01*
X154300000Y-96887500D01*
G75*
G02*
X154412500Y-96775000I112500J0D01*
G01*
X154887500Y-96775000D01*
G75*
G02*
X155000000Y-96887500I0J-112500D01*
G01*
X155000000Y-97112500D01*
G75*
G02*
X154887500Y-97225000I-112500J0D01*
G01*
G37*
G36*
G01*
X152887500Y-97875000D02*
X152412500Y-97875000D01*
G75*
G02*
X152300000Y-97762500I0J112500D01*
G01*
X152300000Y-97537500D01*
G75*
G02*
X152412500Y-97425000I112500J0D01*
G01*
X152887500Y-97425000D01*
G75*
G02*
X153000000Y-97537500I0J-112500D01*
G01*
X153000000Y-97762500D01*
G75*
G02*
X152887500Y-97875000I-112500J0D01*
G01*
G37*
G04 #@! TD*
G04 #@! TO.C,J4*
G36*
G01*
X161725000Y-96700000D02*
X160475000Y-96700000D01*
G75*
G02*
X160325000Y-96550000I0J150000D01*
G01*
X160325000Y-96250000D01*
G75*
G02*
X160475000Y-96100000I150000J0D01*
G01*
X161725000Y-96100000D01*
G75*
G02*
X161875000Y-96250000I0J-150000D01*
G01*
X161875000Y-96550000D01*
G75*
G02*
X161725000Y-96700000I-150000J0D01*
G01*
G37*
G36*
G01*
X161725000Y-95700000D02*
X160475000Y-95700000D01*
G75*
G02*
X160325000Y-95550000I0J150000D01*
G01*
X160325000Y-95250000D01*
G75*
G02*
X160475000Y-95100000I150000J0D01*
G01*
X161725000Y-95100000D01*
G75*
G02*
X161875000Y-95250000I0J-150000D01*
G01*
X161875000Y-95550000D01*
G75*
G02*
X161725000Y-95700000I-150000J0D01*
G01*
G37*
G36*
G01*
X161725000Y-94700000D02*
X160475000Y-94700000D01*
G75*
G02*
X160325000Y-94550000I0J150000D01*
G01*
X160325000Y-94250000D01*
G75*
G02*
X160475000Y-94100000I150000J0D01*
G01*
X161725000Y-94100000D01*
G75*
G02*
X161875000Y-94250000I0J-150000D01*
G01*
X161875000Y-94550000D01*
G75*
G02*
X161725000Y-94700000I-150000J0D01*
G01*
G37*
G36*
G01*
X165625000Y-98300000D02*
X164325000Y-98300000D01*
G75*
G02*
X164075000Y-98050000I0J250000D01*
G01*
X164075000Y-97350000D01*
G75*
G02*
X164325000Y-97100000I250000J0D01*
G01*
X165625000Y-97100000D01*
G75*
G02*
X165875000Y-97350000I0J-250000D01*
G01*
X165875000Y-98050000D01*
G75*
G02*
X165625000Y-98300000I-250000J0D01*
G01*
G37*
G36*
G01*
X165625000Y-93700000D02*
X164325000Y-93700000D01*
G75*
G02*
X164075000Y-93450000I0J250000D01*
G01*
X164075000Y-92750000D01*
G75*
G02*
X164325000Y-92500000I250000J0D01*
G01*
X165625000Y-92500000D01*
G75*
G02*
X165875000Y-92750000I0J-250000D01*
G01*
X165875000Y-93450000D01*
G75*
G02*
X165625000Y-93700000I-250000J0D01*
G01*
G37*
G04 #@! TD*
G04 #@! TO.C,C4*
G36*
G01*
X149580000Y-96890000D02*
X149920000Y-96890000D01*
G75*
G02*
X150060000Y-97030000I0J-140000D01*
G01*
X150060000Y-97310000D01*
G75*
G02*
X149920000Y-97450000I-140000J0D01*
G01*
X149580000Y-97450000D01*
G75*
G02*
X149440000Y-97310000I0J140000D01*
G01*
X149440000Y-97030000D01*
G75*
G02*
X149580000Y-96890000I140000J0D01*
G01*
G37*
G36*
G01*
X149580000Y-97850000D02*
X149920000Y-97850000D01*
G75*
G02*
X150060000Y-97990000I0J-140000D01*
G01*
X150060000Y-98270000D01*
G75*
G02*
X149920000Y-98410000I-140000J0D01*
G01*
X149580000Y-98410000D01*
G75*
G02*
X149440000Y-98270000I0J140000D01*
G01*
X149440000Y-97990000D01*
G75*
G02*
X149580000Y-97850000I140000J0D01*
G01*
G37*
G04 #@! TD*
G04 #@! TO.C,C2*
G36*
G01*
X138170000Y-88360000D02*
X137830000Y-88360000D01*
G75*
G02*
X137690000Y-88220000I0J140000D01*
G01*
X137690000Y-87940000D01*
G75*
G02*
X137830000Y-87800000I140000J0D01*
G01*
X138170000Y-87800000D01*
G75*
G02*
X138310000Y-87940000I0J-140000D01*
G01*
X138310000Y-88220000D01*
G75*
G02*
X138170000Y-88360000I-140000J0D01*
G01*
G37*
G36*
G01*
X138170000Y-87400000D02*
X137830000Y-87400000D01*
G75*
G02*
X137690000Y-87260000I0J140000D01*
G01*
X137690000Y-86980000D01*
G75*
G02*
X137830000Y-86840000I140000J0D01*
G01*
X138170000Y-86840000D01*
G75*
G02*
X138310000Y-86980000I0J-140000D01*
G01*
X138310000Y-87260000D01*
G75*
G02*
X138170000Y-87400000I-140000J0D01*
G01*
G37*
G04 #@! TD*
G04 #@! TO.C,C11*
G36*
G01*
X156370000Y-89960000D02*
X156030000Y-89960000D01*
G75*
G02*
X155890000Y-89820000I0J140000D01*
G01*
X155890000Y-89540000D01*
G75*
G02*
X156030000Y-89400000I140000J0D01*
G01*
X156370000Y-89400000D01*
G75*
G02*
X156510000Y-89540000I0J-140000D01*
G01*
X156510000Y-89820000D01*
G75*
G02*
X156370000Y-89960000I-140000J0D01*
G01*
G37*
G36*
G01*
X156370000Y-89000000D02*
X156030000Y-89000000D01*
G75*
G02*
X155890000Y-88860000I0J140000D01*
G01*
X155890000Y-88580000D01*
G75*
G02*
X156030000Y-88440000I140000J0D01*
G01*
X156370000Y-88440000D01*
G75*
G02*
X156510000Y-88580000I0J-140000D01*
G01*
X156510000Y-88860000D01*
G75*
G02*
X156370000Y-89000000I-140000J0D01*
G01*
G37*
G04 #@! TD*
G04 #@! TO.C,R12*
G36*
G01*
X158115000Y-105570000D02*
X158485000Y-105570000D01*
G75*
G02*
X158620000Y-105705000I0J-135000D01*
G01*
X158620000Y-105975000D01*
G75*
G02*
X158485000Y-106110000I-135000J0D01*
G01*
X158115000Y-106110000D01*
G75*
G02*
X157980000Y-105975000I0J135000D01*
G01*
X157980000Y-105705000D01*
G75*
G02*
X158115000Y-105570000I135000J0D01*
G01*
G37*
G36*
G01*
X158115000Y-106590000D02*
X158485000Y-106590000D01*
G75*
G02*
X158620000Y-106725000I0J-135000D01*
G01*
X158620000Y-106995000D01*
G75*
G02*
X158485000Y-107130000I-135000J0D01*
G01*
X158115000Y-107130000D01*
G75*
G02*
X157980000Y-106995000I0J135000D01*
G01*
X157980000Y-106725000D01*
G75*
G02*
X158115000Y-106590000I135000J0D01*
G01*
G37*
G04 #@! TD*
G04 #@! TO.C,C3*
G36*
G01*
X139540000Y-90470000D02*
X139540000Y-90130000D01*
G75*
G02*
X139680000Y-89990000I140000J0D01*
G01*
X139960000Y-89990000D01*
G75*
G02*
X140100000Y-90130000I0J-140000D01*
G01*
X140100000Y-90470000D01*
G75*
G02*
X139960000Y-90610000I-140000J0D01*
G01*
X139680000Y-90610000D01*
G75*
G02*
X139540000Y-90470000I0J140000D01*
G01*
G37*
G36*
G01*
X140500000Y-90470000D02*
X140500000Y-90130000D01*
G75*
G02*
X140640000Y-89990000I140000J0D01*
G01*
X140920000Y-89990000D01*
G75*
G02*
X141060000Y-90130000I0J-140000D01*
G01*
X141060000Y-90470000D01*
G75*
G02*
X140920000Y-90610000I-140000J0D01*
G01*
X140640000Y-90610000D01*
G75*
G02*
X140500000Y-90470000I0J140000D01*
G01*
G37*
G04 #@! TD*
D19*
G04 #@! TO.C,U7*
X140449998Y-103843050D03*
X140950000Y-103843050D03*
X141449999Y-103843050D03*
X141950000Y-103843050D03*
X142450000Y-103843050D03*
X142949998Y-103843050D03*
X143450000Y-103843050D03*
X143949999Y-103843050D03*
X143950002Y-100756950D03*
X143450000Y-100756950D03*
X142950001Y-100756950D03*
X142450000Y-100756950D03*
X141950000Y-100756950D03*
X141450002Y-100756950D03*
X140950000Y-100756950D03*
X140450001Y-100756950D03*
G04 #@! TD*
G04 #@! TO.C,U4*
G36*
G01*
X135250000Y-92255000D02*
X135250000Y-92555000D01*
G75*
G02*
X135100000Y-92705000I-150000J0D01*
G01*
X133450000Y-92705000D01*
G75*
G02*
X133300000Y-92555000I0J150000D01*
G01*
X133300000Y-92255000D01*
G75*
G02*
X133450000Y-92105000I150000J0D01*
G01*
X135100000Y-92105000D01*
G75*
G02*
X135250000Y-92255000I0J-150000D01*
G01*
G37*
G36*
G01*
X135250000Y-90985000D02*
X135250000Y-91285000D01*
G75*
G02*
X135100000Y-91435000I-150000J0D01*
G01*
X133450000Y-91435000D01*
G75*
G02*
X133300000Y-91285000I0J150000D01*
G01*
X133300000Y-90985000D01*
G75*
G02*
X133450000Y-90835000I150000J0D01*
G01*
X135100000Y-90835000D01*
G75*
G02*
X135250000Y-90985000I0J-150000D01*
G01*
G37*
G36*
G01*
X135250000Y-89715000D02*
X135250000Y-90015000D01*
G75*
G02*
X135100000Y-90165000I-150000J0D01*
G01*
X133450000Y-90165000D01*
G75*
G02*
X133300000Y-90015000I0J150000D01*
G01*
X133300000Y-89715000D01*
G75*
G02*
X133450000Y-89565000I150000J0D01*
G01*
X135100000Y-89565000D01*
G75*
G02*
X135250000Y-89715000I0J-150000D01*
G01*
G37*
G36*
G01*
X135250000Y-88445000D02*
X135250000Y-88745000D01*
G75*
G02*
X135100000Y-88895000I-150000J0D01*
G01*
X133450000Y-88895000D01*
G75*
G02*
X133300000Y-88745000I0J150000D01*
G01*
X133300000Y-88445000D01*
G75*
G02*
X133450000Y-88295000I150000J0D01*
G01*
X135100000Y-88295000D01*
G75*
G02*
X135250000Y-88445000I0J-150000D01*
G01*
G37*
G36*
G01*
X130300000Y-88445000D02*
X130300000Y-88745000D01*
G75*
G02*
X130150000Y-88895000I-150000J0D01*
G01*
X128500000Y-88895000D01*
G75*
G02*
X128350000Y-88745000I0J150000D01*
G01*
X128350000Y-88445000D01*
G75*
G02*
X128500000Y-88295000I150000J0D01*
G01*
X130150000Y-88295000D01*
G75*
G02*
X130300000Y-88445000I0J-150000D01*
G01*
G37*
G36*
G01*
X130300000Y-89715000D02*
X130300000Y-90015000D01*
G75*
G02*
X130150000Y-90165000I-150000J0D01*
G01*
X128500000Y-90165000D01*
G75*
G02*
X128350000Y-90015000I0J150000D01*
G01*
X128350000Y-89715000D01*
G75*
G02*
X128500000Y-89565000I150000J0D01*
G01*
X130150000Y-89565000D01*
G75*
G02*
X130300000Y-89715000I0J-150000D01*
G01*
G37*
G36*
G01*
X130300000Y-90985000D02*
X130300000Y-91285000D01*
G75*
G02*
X130150000Y-91435000I-150000J0D01*
G01*
X128500000Y-91435000D01*
G75*
G02*
X128350000Y-91285000I0J150000D01*
G01*
X128350000Y-90985000D01*
G75*
G02*
X128500000Y-90835000I150000J0D01*
G01*
X130150000Y-90835000D01*
G75*
G02*
X130300000Y-90985000I0J-150000D01*
G01*
G37*
G36*
G01*
X130300000Y-92255000D02*
X130300000Y-92555000D01*
G75*
G02*
X130150000Y-92705000I-150000J0D01*
G01*
X128500000Y-92705000D01*
G75*
G02*
X128350000Y-92555000I0J150000D01*
G01*
X128350000Y-92255000D01*
G75*
G02*
X128500000Y-92105000I150000J0D01*
G01*
X130150000Y-92105000D01*
G75*
G02*
X130300000Y-92255000I0J-150000D01*
G01*
G37*
G04 #@! TD*
D21*
G04 #@! TO.C,J5*
X134920000Y-77050000D03*
X134920000Y-77550000D03*
X134920000Y-78050000D03*
X134920000Y-78550000D03*
X134920000Y-79050000D03*
X134920000Y-79550000D03*
X134920000Y-80050000D03*
X134920000Y-80550000D03*
X134920000Y-81050000D03*
X134920000Y-81550000D03*
X134920000Y-82050000D03*
X134920000Y-82550000D03*
X133220000Y-82300000D03*
X133220000Y-81800000D03*
X133220000Y-81300000D03*
X133220000Y-80800000D03*
X133220000Y-80300000D03*
X133220000Y-79800000D03*
X133220000Y-79300000D03*
X133220000Y-78800000D03*
X133220000Y-78300000D03*
X133220000Y-77800000D03*
X133220000Y-77300000D03*
X133220000Y-76800000D03*
G04 #@! TD*
G04 #@! TO.C,R5*
G36*
G01*
X143280000Y-91015000D02*
X143280000Y-91385000D01*
G75*
G02*
X143145000Y-91520000I-135000J0D01*
G01*
X142875000Y-91520000D01*
G75*
G02*
X142740000Y-91385000I0J135000D01*
G01*
X142740000Y-91015000D01*
G75*
G02*
X142875000Y-90880000I135000J0D01*
G01*
X143145000Y-90880000D01*
G75*
G02*
X143280000Y-91015000I0J-135000D01*
G01*
G37*
G36*
G01*
X142260000Y-91015000D02*
X142260000Y-91385000D01*
G75*
G02*
X142125000Y-91520000I-135000J0D01*
G01*
X141855000Y-91520000D01*
G75*
G02*
X141720000Y-91385000I0J135000D01*
G01*
X141720000Y-91015000D01*
G75*
G02*
X141855000Y-90880000I135000J0D01*
G01*
X142125000Y-90880000D01*
G75*
G02*
X142260000Y-91015000I0J-135000D01*
G01*
G37*
G04 #@! TD*
G04 #@! TO.C,C13*
G36*
G01*
X152280000Y-92965000D02*
X152620000Y-92965000D01*
G75*
G02*
X152760000Y-93105000I0J-140000D01*
G01*
X152760000Y-93385000D01*
G75*
G02*
X152620000Y-93525000I-140000J0D01*
G01*
X152280000Y-93525000D01*
G75*
G02*
X152140000Y-93385000I0J140000D01*
G01*
X152140000Y-93105000D01*
G75*
G02*
X152280000Y-92965000I140000J0D01*
G01*
G37*
G36*
G01*
X152280000Y-93925000D02*
X152620000Y-93925000D01*
G75*
G02*
X152760000Y-94065000I0J-140000D01*
G01*
X152760000Y-94345000D01*
G75*
G02*
X152620000Y-94485000I-140000J0D01*
G01*
X152280000Y-94485000D01*
G75*
G02*
X152140000Y-94345000I0J140000D01*
G01*
X152140000Y-94065000D01*
G75*
G02*
X152280000Y-93925000I140000J0D01*
G01*
G37*
G04 #@! TD*
G04 #@! TO.C,R11*
G36*
G01*
X153985000Y-100880000D02*
X153615000Y-100880000D01*
G75*
G02*
X153480000Y-100745000I0J135000D01*
G01*
X153480000Y-100475000D01*
G75*
G02*
X153615000Y-100340000I135000J0D01*
G01*
X153985000Y-100340000D01*
G75*
G02*
X154120000Y-100475000I0J-135000D01*
G01*
X154120000Y-100745000D01*
G75*
G02*
X153985000Y-100880000I-135000J0D01*
G01*
G37*
G36*
G01*
X153985000Y-99860000D02*
X153615000Y-99860000D01*
G75*
G02*
X153480000Y-99725000I0J135000D01*
G01*
X153480000Y-99455000D01*
G75*
G02*
X153615000Y-99320000I135000J0D01*
G01*
X153985000Y-99320000D01*
G75*
G02*
X154120000Y-99455000I0J-135000D01*
G01*
X154120000Y-99725000D01*
G75*
G02*
X153985000Y-99860000I-135000J0D01*
G01*
G37*
G04 #@! TD*
G04 #@! TO.C,D3*
G36*
G01*
X165037500Y-106018750D02*
X165037500Y-106531250D01*
G75*
G02*
X164818750Y-106750000I-218750J0D01*
G01*
X164381250Y-106750000D01*
G75*
G02*
X164162500Y-106531250I0J218750D01*
G01*
X164162500Y-106018750D01*
G75*
G02*
X164381250Y-105800000I218750J0D01*
G01*
X164818750Y-105800000D01*
G75*
G02*
X165037500Y-106018750I0J-218750D01*
G01*
G37*
G36*
G01*
X163462500Y-106018750D02*
X163462500Y-106531250D01*
G75*
G02*
X163243750Y-106750000I-218750J0D01*
G01*
X162806250Y-106750000D01*
G75*
G02*
X162587500Y-106531250I0J218750D01*
G01*
X162587500Y-106018750D01*
G75*
G02*
X162806250Y-105800000I218750J0D01*
G01*
X163243750Y-105800000D01*
G75*
G02*
X163462500Y-106018750I0J-218750D01*
G01*
G37*
G04 #@! TD*
G04 #@! TO.C,C9*
G36*
G01*
X138140000Y-81770000D02*
X138140000Y-81430000D01*
G75*
G02*
X138280000Y-81290000I140000J0D01*
G01*
X138560000Y-81290000D01*
G75*
G02*
X138700000Y-81430000I0J-140000D01*
G01*
X138700000Y-81770000D01*
G75*
G02*
X138560000Y-81910000I-140000J0D01*
G01*
X138280000Y-81910000D01*
G75*
G02*
X138140000Y-81770000I0J140000D01*
G01*
G37*
G36*
G01*
X139100000Y-81770000D02*
X139100000Y-81430000D01*
G75*
G02*
X139240000Y-81290000I140000J0D01*
G01*
X139520000Y-81290000D01*
G75*
G02*
X139660000Y-81430000I0J-140000D01*
G01*
X139660000Y-81770000D01*
G75*
G02*
X139520000Y-81910000I-140000J0D01*
G01*
X139240000Y-81910000D01*
G75*
G02*
X139100000Y-81770000I0J140000D01*
G01*
G37*
G04 #@! TD*
G04 #@! TO.C,C6*
G36*
G01*
X150930000Y-95340000D02*
X151270000Y-95340000D01*
G75*
G02*
X151410000Y-95480000I0J-140000D01*
G01*
X151410000Y-95760000D01*
G75*
G02*
X151270000Y-95900000I-140000J0D01*
G01*
X150930000Y-95900000D01*
G75*
G02*
X150790000Y-95760000I0J140000D01*
G01*
X150790000Y-95480000D01*
G75*
G02*
X150930000Y-95340000I140000J0D01*
G01*
G37*
G36*
G01*
X150930000Y-96300000D02*
X151270000Y-96300000D01*
G75*
G02*
X151410000Y-96440000I0J-140000D01*
G01*
X151410000Y-96720000D01*
G75*
G02*
X151270000Y-96860000I-140000J0D01*
G01*
X150930000Y-96860000D01*
G75*
G02*
X150790000Y-96720000I0J140000D01*
G01*
X150790000Y-96440000D01*
G75*
G02*
X150930000Y-96300000I140000J0D01*
G01*
G37*
G04 #@! TD*
G04 #@! TO.C,C25*
G36*
G01*
X149870000Y-88760000D02*
X149530000Y-88760000D01*
G75*
G02*
X149390000Y-88620000I0J140000D01*
G01*
X149390000Y-88340000D01*
G75*
G02*
X149530000Y-88200000I140000J0D01*
G01*
X149870000Y-88200000D01*
G75*
G02*
X150010000Y-88340000I0J-140000D01*
G01*
X150010000Y-88620000D01*
G75*
G02*
X149870000Y-88760000I-140000J0D01*
G01*
G37*
G36*
G01*
X149870000Y-87800000D02*
X149530000Y-87800000D01*
G75*
G02*
X149390000Y-87660000I0J140000D01*
G01*
X149390000Y-87380000D01*
G75*
G02*
X149530000Y-87240000I140000J0D01*
G01*
X149870000Y-87240000D01*
G75*
G02*
X150010000Y-87380000I0J-140000D01*
G01*
X150010000Y-87660000D01*
G75*
G02*
X149870000Y-87800000I-140000J0D01*
G01*
G37*
G04 #@! TD*
G04 #@! TO.C,C15*
G36*
G01*
X139160000Y-76830000D02*
X139160000Y-77170000D01*
G75*
G02*
X139020000Y-77310000I-140000J0D01*
G01*
X138740000Y-77310000D01*
G75*
G02*
X138600000Y-77170000I0J140000D01*
G01*
X138600000Y-76830000D01*
G75*
G02*
X138740000Y-76690000I140000J0D01*
G01*
X139020000Y-76690000D01*
G75*
G02*
X139160000Y-76830000I0J-140000D01*
G01*
G37*
G36*
G01*
X138200000Y-76830000D02*
X138200000Y-77170000D01*
G75*
G02*
X138060000Y-77310000I-140000J0D01*
G01*
X137780000Y-77310000D01*
G75*
G02*
X137640000Y-77170000I0J140000D01*
G01*
X137640000Y-76830000D01*
G75*
G02*
X137780000Y-76690000I140000J0D01*
G01*
X138060000Y-76690000D01*
G75*
G02*
X138200000Y-76830000I0J-140000D01*
G01*
G37*
G04 #@! TD*
G04 #@! TO.C,D5*
G36*
G01*
X165037500Y-99343750D02*
X165037500Y-99856250D01*
G75*
G02*
X164818750Y-100075000I-218750J0D01*
G01*
X164381250Y-100075000D01*
G75*
G02*
X164162500Y-99856250I0J218750D01*
G01*
X164162500Y-99343750D01*
G75*
G02*
X164381250Y-99125000I218750J0D01*
G01*
X164818750Y-99125000D01*
G75*
G02*
X165037500Y-99343750I0J-218750D01*
G01*
G37*
G36*
G01*
X163462500Y-99343750D02*
X163462500Y-99856250D01*
G75*
G02*
X163243750Y-100075000I-218750J0D01*
G01*
X162806250Y-100075000D01*
G75*
G02*
X162587500Y-99856250I0J218750D01*
G01*
X162587500Y-99343750D01*
G75*
G02*
X162806250Y-99125000I218750J0D01*
G01*
X163243750Y-99125000D01*
G75*
G02*
X163462500Y-99343750I0J-218750D01*
G01*
G37*
G04 #@! TD*
G04 #@! TO.C,R3*
G36*
G01*
X127680000Y-91015000D02*
X127680000Y-91385000D01*
G75*
G02*
X127545000Y-91520000I-135000J0D01*
G01*
X127275000Y-91520000D01*
G75*
G02*
X127140000Y-91385000I0J135000D01*
G01*
X127140000Y-91015000D01*
G75*
G02*
X127275000Y-90880000I135000J0D01*
G01*
X127545000Y-90880000D01*
G75*
G02*
X127680000Y-91015000I0J-135000D01*
G01*
G37*
G36*
G01*
X126660000Y-91015000D02*
X126660000Y-91385000D01*
G75*
G02*
X126525000Y-91520000I-135000J0D01*
G01*
X126255000Y-91520000D01*
G75*
G02*
X126120000Y-91385000I0J135000D01*
G01*
X126120000Y-91015000D01*
G75*
G02*
X126255000Y-90880000I135000J0D01*
G01*
X126525000Y-90880000D01*
G75*
G02*
X126660000Y-91015000I0J-135000D01*
G01*
G37*
G04 #@! TD*
D22*
G04 #@! TO.C,IC1*
X143850000Y-82000000D03*
D23*
X143800000Y-81600000D03*
X143800000Y-81200000D03*
X143800000Y-80800000D03*
X143800000Y-80400000D03*
X143800000Y-80000000D03*
X143800000Y-79600000D03*
X143800000Y-79200000D03*
X143800000Y-78800000D03*
D22*
X143850000Y-78400000D03*
D24*
X143400000Y-77950000D03*
D25*
X143000000Y-78000000D03*
X142600000Y-78000000D03*
X142200000Y-78000000D03*
D24*
X141800000Y-77950000D03*
D22*
X141350000Y-78400000D03*
D23*
X141400000Y-78800000D03*
X141400000Y-79200000D03*
X141400000Y-79600000D03*
X141400000Y-80000000D03*
X141400000Y-80400000D03*
X141400000Y-80800000D03*
X141400000Y-81200000D03*
X141400000Y-81600000D03*
D22*
X141350000Y-82000000D03*
D24*
X141800000Y-82450000D03*
D25*
X142200000Y-82400000D03*
X142600000Y-82400000D03*
X143000000Y-82400000D03*
D24*
X143400000Y-82450000D03*
D26*
X142600000Y-80200000D03*
G04 #@! TD*
G04 #@! TO.C,R9*
G36*
G01*
X160407500Y-91385000D02*
X160407500Y-91015000D01*
G75*
G02*
X160542500Y-90880000I135000J0D01*
G01*
X160812500Y-90880000D01*
G75*
G02*
X160947500Y-91015000I0J-135000D01*
G01*
X160947500Y-91385000D01*
G75*
G02*
X160812500Y-91520000I-135000J0D01*
G01*
X160542500Y-91520000D01*
G75*
G02*
X160407500Y-91385000I0J135000D01*
G01*
G37*
G36*
G01*
X161427500Y-91385000D02*
X161427500Y-91015000D01*
G75*
G02*
X161562500Y-90880000I135000J0D01*
G01*
X161832500Y-90880000D01*
G75*
G02*
X161967500Y-91015000I0J-135000D01*
G01*
X161967500Y-91385000D01*
G75*
G02*
X161832500Y-91520000I-135000J0D01*
G01*
X161562500Y-91520000D01*
G75*
G02*
X161427500Y-91385000I0J135000D01*
G01*
G37*
G04 #@! TD*
G04 #@! TO.C,C7*
G36*
G01*
X144660000Y-89030000D02*
X144660000Y-89370000D01*
G75*
G02*
X144520000Y-89510000I-140000J0D01*
G01*
X144240000Y-89510000D01*
G75*
G02*
X144100000Y-89370000I0J140000D01*
G01*
X144100000Y-89030000D01*
G75*
G02*
X144240000Y-88890000I140000J0D01*
G01*
X144520000Y-88890000D01*
G75*
G02*
X144660000Y-89030000I0J-140000D01*
G01*
G37*
G36*
G01*
X143700000Y-89030000D02*
X143700000Y-89370000D01*
G75*
G02*
X143560000Y-89510000I-140000J0D01*
G01*
X143280000Y-89510000D01*
G75*
G02*
X143140000Y-89370000I0J140000D01*
G01*
X143140000Y-89030000D01*
G75*
G02*
X143280000Y-88890000I140000J0D01*
G01*
X143560000Y-88890000D01*
G75*
G02*
X143700000Y-89030000I0J-140000D01*
G01*
G37*
G04 #@! TD*
G04 #@! TO.C,R13*
G36*
G01*
X153985000Y-106530000D02*
X153615000Y-106530000D01*
G75*
G02*
X153480000Y-106395000I0J135000D01*
G01*
X153480000Y-106125000D01*
G75*
G02*
X153615000Y-105990000I135000J0D01*
G01*
X153985000Y-105990000D01*
G75*
G02*
X154120000Y-106125000I0J-135000D01*
G01*
X154120000Y-106395000D01*
G75*
G02*
X153985000Y-106530000I-135000J0D01*
G01*
G37*
G36*
G01*
X153985000Y-105510000D02*
X153615000Y-105510000D01*
G75*
G02*
X153480000Y-105375000I0J135000D01*
G01*
X153480000Y-105105000D01*
G75*
G02*
X153615000Y-104970000I135000J0D01*
G01*
X153985000Y-104970000D01*
G75*
G02*
X154120000Y-105105000I0J-135000D01*
G01*
X154120000Y-105375000D01*
G75*
G02*
X153985000Y-105510000I-135000J0D01*
G01*
G37*
G04 #@! TD*
G04 #@! TO.C,Q1*
G36*
G01*
X155625000Y-81837500D02*
X155625000Y-81362500D01*
G75*
G02*
X155737500Y-81250000I112500J0D01*
G01*
X155962500Y-81250000D01*
G75*
G02*
X156075000Y-81362500I0J-112500D01*
G01*
X156075000Y-81837500D01*
G75*
G02*
X155962500Y-81950000I-112500J0D01*
G01*
X155737500Y-81950000D01*
G75*
G02*
X155625000Y-81837500I0J112500D01*
G01*
G37*
G36*
G01*
X156925000Y-81837500D02*
X156925000Y-81362500D01*
G75*
G02*
X157037500Y-81250000I112500J0D01*
G01*
X157262500Y-81250000D01*
G75*
G02*
X157375000Y-81362500I0J-112500D01*
G01*
X157375000Y-81837500D01*
G75*
G02*
X157262500Y-81950000I-112500J0D01*
G01*
X157037500Y-81950000D01*
G75*
G02*
X156925000Y-81837500I0J112500D01*
G01*
G37*
G36*
G01*
X156275000Y-79837500D02*
X156275000Y-79362500D01*
G75*
G02*
X156387500Y-79250000I112500J0D01*
G01*
X156612500Y-79250000D01*
G75*
G02*
X156725000Y-79362500I0J-112500D01*
G01*
X156725000Y-79837500D01*
G75*
G02*
X156612500Y-79950000I-112500J0D01*
G01*
X156387500Y-79950000D01*
G75*
G02*
X156275000Y-79837500I0J112500D01*
G01*
G37*
G04 #@! TD*
G04 #@! TO.C,U6*
G36*
G01*
X149622500Y-76140000D02*
X149622500Y-76485000D01*
G75*
G02*
X149450000Y-76657500I-172500J0D01*
G01*
X148925000Y-76657500D01*
G75*
G02*
X148752500Y-76485000I0J172500D01*
G01*
X148752500Y-76140000D01*
G75*
G02*
X148925000Y-75967500I172500J0D01*
G01*
X149450000Y-75967500D01*
G75*
G02*
X149622500Y-76140000I0J-172500D01*
G01*
G37*
G36*
G01*
X149622500Y-75340000D02*
X149622500Y-75685000D01*
G75*
G02*
X149450000Y-75857500I-172500J0D01*
G01*
X148925000Y-75857500D01*
G75*
G02*
X148752500Y-75685000I0J172500D01*
G01*
X148752500Y-75340000D01*
G75*
G02*
X148925000Y-75167500I172500J0D01*
G01*
X149450000Y-75167500D01*
G75*
G02*
X149622500Y-75340000I0J-172500D01*
G01*
G37*
G36*
G01*
X150262500Y-76456250D02*
X150262500Y-76668750D01*
G75*
G02*
X150168750Y-76762500I-93750J0D01*
G01*
X149981250Y-76762500D01*
G75*
G02*
X149887500Y-76668750I0J93750D01*
G01*
X149887500Y-76456250D01*
G75*
G02*
X149981250Y-76362500I93750J0D01*
G01*
X150168750Y-76362500D01*
G75*
G02*
X150262500Y-76456250I0J-93750D01*
G01*
G37*
G36*
G01*
X150262500Y-75806250D02*
X150262500Y-76018750D01*
G75*
G02*
X150168750Y-76112500I-93750J0D01*
G01*
X149981250Y-76112500D01*
G75*
G02*
X149887500Y-76018750I0J93750D01*
G01*
X149887500Y-75806250D01*
G75*
G02*
X149981250Y-75712500I93750J0D01*
G01*
X150168750Y-75712500D01*
G75*
G02*
X150262500Y-75806250I0J-93750D01*
G01*
G37*
G36*
G01*
X150262500Y-75156250D02*
X150262500Y-75368750D01*
G75*
G02*
X150168750Y-75462500I-93750J0D01*
G01*
X149981250Y-75462500D01*
G75*
G02*
X149887500Y-75368750I0J93750D01*
G01*
X149887500Y-75156250D01*
G75*
G02*
X149981250Y-75062500I93750J0D01*
G01*
X150168750Y-75062500D01*
G75*
G02*
X150262500Y-75156250I0J-93750D01*
G01*
G37*
G36*
G01*
X148487500Y-75156250D02*
X148487500Y-75368750D01*
G75*
G02*
X148393750Y-75462500I-93750J0D01*
G01*
X148206250Y-75462500D01*
G75*
G02*
X148112500Y-75368750I0J93750D01*
G01*
X148112500Y-75156250D01*
G75*
G02*
X148206250Y-75062500I93750J0D01*
G01*
X148393750Y-75062500D01*
G75*
G02*
X148487500Y-75156250I0J-93750D01*
G01*
G37*
G36*
G01*
X148487500Y-75806250D02*
X148487500Y-76018750D01*
G75*
G02*
X148393750Y-76112500I-93750J0D01*
G01*
X148206250Y-76112500D01*
G75*
G02*
X148112500Y-76018750I0J93750D01*
G01*
X148112500Y-75806250D01*
G75*
G02*
X148206250Y-75712500I93750J0D01*
G01*
X148393750Y-75712500D01*
G75*
G02*
X148487500Y-75806250I0J-93750D01*
G01*
G37*
G36*
G01*
X148487500Y-76456250D02*
X148487500Y-76668750D01*
G75*
G02*
X148393750Y-76762500I-93750J0D01*
G01*
X148206250Y-76762500D01*
G75*
G02*
X148112500Y-76668750I0J93750D01*
G01*
X148112500Y-76456250D01*
G75*
G02*
X148206250Y-76362500I93750J0D01*
G01*
X148393750Y-76362500D01*
G75*
G02*
X148487500Y-76456250I0J-93750D01*
G01*
G37*
G04 #@! TD*
G04 #@! TO.C,C16*
G36*
G01*
X147970000Y-89460000D02*
X147630000Y-89460000D01*
G75*
G02*
X147490000Y-89320000I0J140000D01*
G01*
X147490000Y-89040000D01*
G75*
G02*
X147630000Y-88900000I140000J0D01*
G01*
X147970000Y-88900000D01*
G75*
G02*
X148110000Y-89040000I0J-140000D01*
G01*
X148110000Y-89320000D01*
G75*
G02*
X147970000Y-89460000I-140000J0D01*
G01*
G37*
G36*
G01*
X147970000Y-88500000D02*
X147630000Y-88500000D01*
G75*
G02*
X147490000Y-88360000I0J140000D01*
G01*
X147490000Y-88080000D01*
G75*
G02*
X147630000Y-87940000I140000J0D01*
G01*
X147970000Y-87940000D01*
G75*
G02*
X148110000Y-88080000I0J-140000D01*
G01*
X148110000Y-88360000D01*
G75*
G02*
X147970000Y-88500000I-140000J0D01*
G01*
G37*
G04 #@! TD*
G04 #@! TO.C,C24*
G36*
G01*
X148630000Y-87240000D02*
X148970000Y-87240000D01*
G75*
G02*
X149110000Y-87380000I0J-140000D01*
G01*
X149110000Y-87660000D01*
G75*
G02*
X148970000Y-87800000I-140000J0D01*
G01*
X148630000Y-87800000D01*
G75*
G02*
X148490000Y-87660000I0J140000D01*
G01*
X148490000Y-87380000D01*
G75*
G02*
X148630000Y-87240000I140000J0D01*
G01*
G37*
G36*
G01*
X148630000Y-88200000D02*
X148970000Y-88200000D01*
G75*
G02*
X149110000Y-88340000I0J-140000D01*
G01*
X149110000Y-88620000D01*
G75*
G02*
X148970000Y-88760000I-140000J0D01*
G01*
X148630000Y-88760000D01*
G75*
G02*
X148490000Y-88620000I0J140000D01*
G01*
X148490000Y-88340000D01*
G75*
G02*
X148630000Y-88200000I140000J0D01*
G01*
G37*
G04 #@! TD*
G04 #@! TO.C,R17*
G36*
G01*
X158715000Y-84670000D02*
X159085000Y-84670000D01*
G75*
G02*
X159220000Y-84805000I0J-135000D01*
G01*
X159220000Y-85075000D01*
G75*
G02*
X159085000Y-85210000I-135000J0D01*
G01*
X158715000Y-85210000D01*
G75*
G02*
X158580000Y-85075000I0J135000D01*
G01*
X158580000Y-84805000D01*
G75*
G02*
X158715000Y-84670000I135000J0D01*
G01*
G37*
G36*
G01*
X158715000Y-85690000D02*
X159085000Y-85690000D01*
G75*
G02*
X159220000Y-85825000I0J-135000D01*
G01*
X159220000Y-86095000D01*
G75*
G02*
X159085000Y-86230000I-135000J0D01*
G01*
X158715000Y-86230000D01*
G75*
G02*
X158580000Y-86095000I0J135000D01*
G01*
X158580000Y-85825000D01*
G75*
G02*
X158715000Y-85690000I135000J0D01*
G01*
G37*
G04 #@! TD*
G04 #@! TO.C,C19*
G36*
G01*
X147170000Y-76960000D02*
X146830000Y-76960000D01*
G75*
G02*
X146690000Y-76820000I0J140000D01*
G01*
X146690000Y-76540000D01*
G75*
G02*
X146830000Y-76400000I140000J0D01*
G01*
X147170000Y-76400000D01*
G75*
G02*
X147310000Y-76540000I0J-140000D01*
G01*
X147310000Y-76820000D01*
G75*
G02*
X147170000Y-76960000I-140000J0D01*
G01*
G37*
G36*
G01*
X147170000Y-76000000D02*
X146830000Y-76000000D01*
G75*
G02*
X146690000Y-75860000I0J140000D01*
G01*
X146690000Y-75580000D01*
G75*
G02*
X146830000Y-75440000I140000J0D01*
G01*
X147170000Y-75440000D01*
G75*
G02*
X147310000Y-75580000I0J-140000D01*
G01*
X147310000Y-75860000D01*
G75*
G02*
X147170000Y-76000000I-140000J0D01*
G01*
G37*
G04 #@! TD*
G04 #@! TO.C,D6*
G36*
G01*
X165037500Y-102793750D02*
X165037500Y-103306250D01*
G75*
G02*
X164818750Y-103525000I-218750J0D01*
G01*
X164381250Y-103525000D01*
G75*
G02*
X164162500Y-103306250I0J218750D01*
G01*
X164162500Y-102793750D01*
G75*
G02*
X164381250Y-102575000I218750J0D01*
G01*
X164818750Y-102575000D01*
G75*
G02*
X165037500Y-102793750I0J-218750D01*
G01*
G37*
G36*
G01*
X163462500Y-102793750D02*
X163462500Y-103306250D01*
G75*
G02*
X163243750Y-103525000I-218750J0D01*
G01*
X162806250Y-103525000D01*
G75*
G02*
X162587500Y-103306250I0J218750D01*
G01*
X162587500Y-102793750D01*
G75*
G02*
X162806250Y-102575000I218750J0D01*
G01*
X163243750Y-102575000D01*
G75*
G02*
X163462500Y-102793750I0J-218750D01*
G01*
G37*
G04 #@! TD*
G04 #@! TO.C,R6*
G36*
G01*
X136380000Y-94315000D02*
X136380000Y-94685000D01*
G75*
G02*
X136245000Y-94820000I-135000J0D01*
G01*
X135975000Y-94820000D01*
G75*
G02*
X135840000Y-94685000I0J135000D01*
G01*
X135840000Y-94315000D01*
G75*
G02*
X135975000Y-94180000I135000J0D01*
G01*
X136245000Y-94180000D01*
G75*
G02*
X136380000Y-94315000I0J-135000D01*
G01*
G37*
G36*
G01*
X135360000Y-94315000D02*
X135360000Y-94685000D01*
G75*
G02*
X135225000Y-94820000I-135000J0D01*
G01*
X134955000Y-94820000D01*
G75*
G02*
X134820000Y-94685000I0J135000D01*
G01*
X134820000Y-94315000D01*
G75*
G02*
X134955000Y-94180000I135000J0D01*
G01*
X135225000Y-94180000D01*
G75*
G02*
X135360000Y-94315000I0J-135000D01*
G01*
G37*
G04 #@! TD*
G04 #@! TO.C,C5*
G36*
G01*
X144160000Y-96830000D02*
X144160000Y-97170000D01*
G75*
G02*
X144020000Y-97310000I-140000J0D01*
G01*
X143740000Y-97310000D01*
G75*
G02*
X143600000Y-97170000I0J140000D01*
G01*
X143600000Y-96830000D01*
G75*
G02*
X143740000Y-96690000I140000J0D01*
G01*
X144020000Y-96690000D01*
G75*
G02*
X144160000Y-96830000I0J-140000D01*
G01*
G37*
G36*
G01*
X143200000Y-96830000D02*
X143200000Y-97170000D01*
G75*
G02*
X143060000Y-97310000I-140000J0D01*
G01*
X142780000Y-97310000D01*
G75*
G02*
X142640000Y-97170000I0J140000D01*
G01*
X142640000Y-96830000D01*
G75*
G02*
X142780000Y-96690000I140000J0D01*
G01*
X143060000Y-96690000D01*
G75*
G02*
X143200000Y-96830000I0J-140000D01*
G01*
G37*
G04 #@! TD*
G04 #@! TO.C,C20*
G36*
G01*
X143140000Y-84470000D02*
X143140000Y-84130000D01*
G75*
G02*
X143280000Y-83990000I140000J0D01*
G01*
X143560000Y-83990000D01*
G75*
G02*
X143700000Y-84130000I0J-140000D01*
G01*
X143700000Y-84470000D01*
G75*
G02*
X143560000Y-84610000I-140000J0D01*
G01*
X143280000Y-84610000D01*
G75*
G02*
X143140000Y-84470000I0J140000D01*
G01*
G37*
G36*
G01*
X144100000Y-84470000D02*
X144100000Y-84130000D01*
G75*
G02*
X144240000Y-83990000I140000J0D01*
G01*
X144520000Y-83990000D01*
G75*
G02*
X144660000Y-84130000I0J-140000D01*
G01*
X144660000Y-84470000D01*
G75*
G02*
X144520000Y-84610000I-140000J0D01*
G01*
X144240000Y-84610000D01*
G75*
G02*
X144100000Y-84470000I0J140000D01*
G01*
G37*
G04 #@! TD*
G04 #@! TO.C,R15*
G36*
G01*
X144680000Y-75915000D02*
X144680000Y-76285000D01*
G75*
G02*
X144545000Y-76420000I-135000J0D01*
G01*
X144275000Y-76420000D01*
G75*
G02*
X144140000Y-76285000I0J135000D01*
G01*
X144140000Y-75915000D01*
G75*
G02*
X144275000Y-75780000I135000J0D01*
G01*
X144545000Y-75780000D01*
G75*
G02*
X144680000Y-75915000I0J-135000D01*
G01*
G37*
G36*
G01*
X143660000Y-75915000D02*
X143660000Y-76285000D01*
G75*
G02*
X143525000Y-76420000I-135000J0D01*
G01*
X143255000Y-76420000D01*
G75*
G02*
X143120000Y-76285000I0J135000D01*
G01*
X143120000Y-75915000D01*
G75*
G02*
X143255000Y-75780000I135000J0D01*
G01*
X143525000Y-75780000D01*
G75*
G02*
X143660000Y-75915000I0J-135000D01*
G01*
G37*
G04 #@! TD*
G04 #@! TO.C,C18*
G36*
G01*
X151470000Y-77060000D02*
X151130000Y-77060000D01*
G75*
G02*
X150990000Y-76920000I0J140000D01*
G01*
X150990000Y-76640000D01*
G75*
G02*
X151130000Y-76500000I140000J0D01*
G01*
X151470000Y-76500000D01*
G75*
G02*
X151610000Y-76640000I0J-140000D01*
G01*
X151610000Y-76920000D01*
G75*
G02*
X151470000Y-77060000I-140000J0D01*
G01*
G37*
G36*
G01*
X151470000Y-76100000D02*
X151130000Y-76100000D01*
G75*
G02*
X150990000Y-75960000I0J140000D01*
G01*
X150990000Y-75680000D01*
G75*
G02*
X151130000Y-75540000I140000J0D01*
G01*
X151470000Y-75540000D01*
G75*
G02*
X151610000Y-75680000I0J-140000D01*
G01*
X151610000Y-75960000D01*
G75*
G02*
X151470000Y-76100000I-140000J0D01*
G01*
G37*
G04 #@! TD*
G04 #@! TO.C,D1*
G36*
G01*
X139325000Y-94243750D02*
X139325000Y-94756250D01*
G75*
G02*
X139106250Y-94975000I-218750J0D01*
G01*
X138668750Y-94975000D01*
G75*
G02*
X138450000Y-94756250I0J218750D01*
G01*
X138450000Y-94243750D01*
G75*
G02*
X138668750Y-94025000I218750J0D01*
G01*
X139106250Y-94025000D01*
G75*
G02*
X139325000Y-94243750I0J-218750D01*
G01*
G37*
G36*
G01*
X137750000Y-94243750D02*
X137750000Y-94756250D01*
G75*
G02*
X137531250Y-94975000I-218750J0D01*
G01*
X137093750Y-94975000D01*
G75*
G02*
X136875000Y-94756250I0J218750D01*
G01*
X136875000Y-94243750D01*
G75*
G02*
X137093750Y-94025000I218750J0D01*
G01*
X137531250Y-94025000D01*
G75*
G02*
X137750000Y-94243750I0J-218750D01*
G01*
G37*
G04 #@! TD*
G04 #@! TO.C,Q2*
G36*
G01*
X157237500Y-101475000D02*
X156762500Y-101475000D01*
G75*
G02*
X156650000Y-101362500I0J112500D01*
G01*
X156650000Y-101137500D01*
G75*
G02*
X156762500Y-101025000I112500J0D01*
G01*
X157237500Y-101025000D01*
G75*
G02*
X157350000Y-101137500I0J-112500D01*
G01*
X157350000Y-101362500D01*
G75*
G02*
X157237500Y-101475000I-112500J0D01*
G01*
G37*
G36*
G01*
X157237500Y-100175000D02*
X156762500Y-100175000D01*
G75*
G02*
X156650000Y-100062500I0J112500D01*
G01*
X156650000Y-99837500D01*
G75*
G02*
X156762500Y-99725000I112500J0D01*
G01*
X157237500Y-99725000D01*
G75*
G02*
X157350000Y-99837500I0J-112500D01*
G01*
X157350000Y-100062500D01*
G75*
G02*
X157237500Y-100175000I-112500J0D01*
G01*
G37*
G36*
G01*
X155237500Y-100825000D02*
X154762500Y-100825000D01*
G75*
G02*
X154650000Y-100712500I0J112500D01*
G01*
X154650000Y-100487500D01*
G75*
G02*
X154762500Y-100375000I112500J0D01*
G01*
X155237500Y-100375000D01*
G75*
G02*
X155350000Y-100487500I0J-112500D01*
G01*
X155350000Y-100712500D01*
G75*
G02*
X155237500Y-100825000I-112500J0D01*
G01*
G37*
G04 #@! TD*
M02*
