M48
; DRILL file {KiCad 8.0.4} date 2026-05-21T19:01:35-0700
; FORMAT={-:-/ absolute / inch / decimal}
; #@! TF.CreationDate,2026-05-21T19:01:35-07:00
; #@! TF.GenerationSoftware,Kicad,Pcbnew,8.0.4
; #@! TF.FileFunction,Plated,1,4,PTH
FMAT,2
INCH
; #@! TA.AperFunction,Plated,PTH,ViaDrill
T1C0.0118
; #@! TA.AperFunction,Plated,PTH,ComponentDrill
T2C0.0197
%
G90
G05
T1
X4.9488Y-3.5906
X4.9488Y-3.6417
X4.9488Y-3.9685
X4.9488Y-4.0551
X4.9764Y-3.9685
X4.9764Y-4.0551
X5.0157Y-3.6693
X5.138Y-3.488
X5.1404Y-3.538
X5.1496Y-2.9921
X5.1496Y-3.063
X5.1535Y-3.1969
X5.1535Y-3.2677
X5.1693Y-3.0157
X5.1693Y-3.0394
X5.1772Y-3.2205
X5.1772Y-3.2441
X5.185Y-3.126
X5.2126Y-3.1142
X5.2126Y-3.1378
X5.2323Y-3.4882
X5.2776Y-3.187
X5.2795Y-3.0866
X5.2795Y-3.1575
X5.2835Y-3.9882
X5.2874Y-3.4528
X5.2913Y-3.7205
X5.2992Y-4.0118
X5.3228Y-3.0118
X5.3425Y-3.1417
X5.3435Y-3.0994
X5.3465Y-3.4882
X5.3661Y-4.0433
X5.3917Y-4.0531
X5.4016Y-4.135
X5.4094Y-4.0906
X5.4094Y-4.1654
X5.4213Y-3.1929
X5.4213Y-3.2205
X5.4213Y-3.2441
X5.4213Y-3.2717
X5.4252Y-3.3583
X5.4291Y-3.5354
X5.4291Y-4.1142
X5.4331Y-3.4921
X5.4528Y-4.0906
X5.4764Y-3.5551
X5.4843Y-4.0906
X5.4882Y-2.9764
X5.4882Y-3.9764
X5.4882Y-4.0
X5.4921Y-4.063
X5.4961Y-3.7992
X5.4961Y-3.8248
X5.5074Y-3.0035
X5.5157Y-4.1614
X5.5236Y-3.8543
X5.5236Y-3.9331
X5.5241Y-3.0202
X5.5354Y-4.0433
X5.5472Y-3.0433
X5.563Y-3.5906
X5.563Y-3.7323
X5.563Y-3.7717
X5.563Y-4.0433
X5.565Y-3.8583
X5.5689Y-3.9114
X5.5689Y-3.937
X5.5866Y-3.4291
X5.5886Y-3.8583
X5.6024Y-3.2087
X5.6063Y-3.8189
X5.6063Y-4.9764
X5.6063Y-5.0079
X5.6102Y-4.0276
X5.6102Y-4.0513
X5.6142Y-3.2756
X5.622Y-3.0433
X5.622Y-3.5118
X5.624Y-4.1575
X5.628Y-3.1043
X5.628Y-3.9114
X5.628Y-3.937
X5.6299Y-3.6606
X5.6378Y-4.1299
X5.6417Y-4.9764
X5.6417Y-5.0079
X5.6457Y-3.2756
X5.6496Y-3.6409
X5.6516Y-3.9311
X5.6535Y-4.1575
X5.6549Y-3.7258
X5.6555Y-3.7618
X5.6654Y-4.1299
X5.6673Y-3.9114
X5.6772Y-3.2559
X5.6811Y-4.1575
X5.685Y-3.3425
X5.7008Y-3.1181
X5.7008Y-3.1969
X5.7087Y-2.9961
X5.7087Y-3.3189
X5.7087Y-3.7677
X5.7087Y-4.1575
X5.7089Y-4.9921
X5.71Y-3.5419
X5.7252Y-3.9299
X5.7283Y-4.1417
X5.7402Y-4.0039
X5.7402Y-4.0374
X5.7461Y-3.8622
X5.752Y-3.0
X5.752Y-3.0236
X5.752Y-3.3228
X5.7559Y-3.9291
X5.7598Y-4.1752
X5.7618Y-3.8445
X5.7736Y-3.6713
X5.7795Y-3.3248
X5.7815Y-4.1201
X5.7874Y-2.9587
X5.7878Y-4.143
X5.7913Y-3.1181
X5.8012Y-3.9016
X5.8031Y-3.3248
X5.8189Y-3.4449
X5.8194Y-2.9631
X5.8209Y-3.5433
X5.8228Y-3.9173
X5.8307Y-3.3228
X5.8386Y-3.4134
X5.8386Y-4.1299
X5.8642Y-3.4142
X5.8642Y-3.8228
X5.8642Y-4.128
X5.876Y-2.9547
X5.876Y-2.9882
X5.876Y-3.0256
X5.8819Y-4.1043
X5.8878Y-3.4142
X5.9016Y-4.1654
X5.9055Y-3.8937
X5.9075Y-3.2382
X5.9075Y-3.3051
X5.9094Y-4.0925
X5.9134Y-3.4134
X5.9167Y-3.7486
X5.9252Y-3.6378
X5.9272Y-3.2618
X5.9272Y-3.2854
X5.9291Y-3.689
X5.9331Y-3.1358
X5.9449Y-3.9961
X5.9469Y-3.2382
X5.9469Y-3.3051
X5.9488Y-3.8268
X5.9567Y-2.9587
X5.9803Y-3.8937
X5.9803Y-4.0276
X5.9921Y-3.0138
X5.9921Y-3.0374
X5.9921Y-3.5984
X6.0157Y-3.1358
X6.0236Y-3.6299
X6.0256Y-4.1457
X6.0333Y-3.7077
X6.063Y-3.8189
X6.0748Y-4.0966
X6.1354Y-3.2362
X6.1437Y-3.872
X6.1496Y-3.4646
X6.1506Y-3.5589
X6.1811Y-3.9075
X6.2028Y-3.2638
X6.2087Y-3.2126
X6.2087Y-4.1576
X6.2323Y-3.9134
X6.2323Y-4.0864
X6.2461Y-3.4705
X6.248Y-3.6821
X6.2559Y-3.2425
X6.2559Y-3.4091
X6.2835Y-3.0098
X6.2953Y-3.3839
X6.2953Y-3.4232
X6.2992Y-3.7559
X6.3031Y-3.6378
X6.3066Y-3.5906
X6.3071Y-3.9203
X6.311Y-4.0551
X6.3346Y-2.9764
X6.3819Y-3.0098
X6.3839Y-3.6378
X6.3858Y-3.7559
X6.3898Y-3.3839
X6.3898Y-3.4232
X6.5079Y-4.185
X6.5079Y-4.311
T2
G00X5.0142Y-2.965
M15
G01X4.9906Y-2.965
M16
G05
G00X5.0142Y-3.3185
M15
G01X4.9906Y-3.3185
M16
G05
G00X5.2484Y-2.9791
M15
G01X5.2248Y-2.9791
M16
G05
G00X5.2484Y-3.3043
M15
G01X5.2248Y-3.3043
M16
G05
M30
