G04 #@! TF.GenerationSoftware,KiCad,Pcbnew,8.0.4*
G04 #@! TF.CreationDate,2026-05-21T19:01:33-07:00*
G04 #@! TF.ProjectId,microSD_Switch_Reader,6d696372-6f53-4445-9f53-77697463685f,rev?*
G04 #@! TF.SameCoordinates,Original*
G04 #@! TF.FileFunction,Copper,L4,Bot*
G04 #@! TF.FilePolarity,Positive*
%FSLAX46Y46*%
G04 Gerber Fmt 4.6, Leading zero omitted, Abs format (unit mm)*
G04 Created by KiCad (PCBNEW 8.0.4) date 2026-05-21 19:01:33*
%MOMM*%
%LPD*%
G01*
G04 APERTURE LIST*
G04 #@! TA.AperFunction,ComponentPad*
%ADD10O,1.400000X0.800000*%
G04 #@! TD*
G04 #@! TA.AperFunction,HeatsinkPad*
%ADD11R,0.500000X1.600000*%
G04 #@! TD*
G04 #@! TA.AperFunction,ViaPad*
%ADD12C,0.400000*%
G04 #@! TD*
G04 #@! TA.AperFunction,Conductor*
%ADD13C,0.800000*%
G04 #@! TD*
G04 #@! TA.AperFunction,Conductor*
%ADD14C,0.127000*%
G04 #@! TD*
G04 #@! TA.AperFunction,Conductor*
%ADD15C,0.150000*%
G04 #@! TD*
G04 #@! TA.AperFunction,Conductor*
%ADD16C,0.250000*%
G04 #@! TD*
G04 APERTURE END LIST*
D10*
G04 #@! TO.P,J5,S1,SHIELD*
G04 #@! TO.N,unconnected-(J5-SHIELD-PadS1)*
X133010000Y-75670000D03*
G04 #@! TO.P,J5,S2*
G04 #@! TO.N,N/C*
X133010000Y-83930000D03*
G04 #@! TO.P,J5,S3*
X127060000Y-84290000D03*
G04 #@! TO.P,J5,S4*
X127060000Y-75310000D03*
G04 #@! TD*
D11*
G04 #@! TO.P,U6,7,EP*
G04 #@! TO.N,GND*
X149187500Y-75912500D03*
G04 #@! TD*
G04 #@! TO.P,C23,1*
G04 #@! TO.N,Net-(J3-VDD)*
G04 #@! TA.AperFunction,SMDPad,CuDef*
G36*
G01*
X127550000Y-103425000D02*
X127050000Y-103425000D01*
G75*
G02*
X126825000Y-103200000I0J225000D01*
G01*
X126825000Y-102750000D01*
G75*
G02*
X127050000Y-102525000I225000J0D01*
G01*
X127550000Y-102525000D01*
G75*
G02*
X127775000Y-102750000I0J-225000D01*
G01*
X127775000Y-103200000D01*
G75*
G02*
X127550000Y-103425000I-225000J0D01*
G01*
G37*
G04 #@! TD.AperFunction*
G04 #@! TO.P,C23,2*
G04 #@! TO.N,GND*
G04 #@! TA.AperFunction,SMDPad,CuDef*
G36*
G01*
X127550000Y-101875000D02*
X127050000Y-101875000D01*
G75*
G02*
X126825000Y-101650000I0J225000D01*
G01*
X126825000Y-101200000D01*
G75*
G02*
X127050000Y-100975000I225000J0D01*
G01*
X127550000Y-100975000D01*
G75*
G02*
X127775000Y-101200000I0J-225000D01*
G01*
X127775000Y-101650000D01*
G75*
G02*
X127550000Y-101875000I-225000J0D01*
G01*
G37*
G04 #@! TD.AperFunction*
G04 #@! TD*
D12*
G04 #@! TO.N,+3V3*
X127400000Y-93200000D03*
X134400000Y-94500000D03*
X125700000Y-91200000D03*
X143650000Y-95550000D03*
X150285000Y-95215000D03*
X150500000Y-92400000D03*
X137900000Y-89800000D03*
X145035000Y-89965000D03*
G04 #@! TO.N,GND*
X154300000Y-104052500D03*
X147000000Y-75150000D03*
X159900000Y-86950000D03*
X156200000Y-88000000D03*
X147008924Y-105232720D03*
X134200000Y-101300000D03*
X160900000Y-75600000D03*
X142800000Y-77300000D03*
X131700000Y-79400000D03*
X138000000Y-88700000D03*
X165300000Y-106300000D03*
X142950000Y-99350000D03*
X137400000Y-105800000D03*
X151300000Y-75150000D03*
X142800000Y-89200000D03*
X150000000Y-98900000D03*
X147800000Y-87500000D03*
X142400000Y-126400000D03*
X143900000Y-104900000D03*
X147900000Y-99500000D03*
X162100000Y-76450000D03*
X151900000Y-102300000D03*
X160100000Y-92400000D03*
X126400000Y-100800000D03*
X149400000Y-104250000D03*
X146100000Y-84400000D03*
X143950000Y-99350000D03*
X148950000Y-104850000D03*
X157700000Y-105602500D03*
X148300000Y-86700000D03*
X135200000Y-76500000D03*
X148100000Y-84400000D03*
X162150000Y-92400000D03*
X137700000Y-83100000D03*
X132900000Y-88600000D03*
X165300000Y-109500000D03*
X146200000Y-99800000D03*
X151900000Y-98900000D03*
X150700000Y-79650000D03*
X141450000Y-99350000D03*
X153000000Y-92200000D03*
X149250000Y-75900000D03*
X139400000Y-101000000D03*
X142850000Y-105600000D03*
X157700000Y-81600000D03*
X142400000Y-127200000D03*
X141300000Y-94800000D03*
X140900000Y-77300000D03*
X150049999Y-82249999D03*
X157000000Y-99250000D03*
X134300000Y-87700000D03*
X141350000Y-98000000D03*
X157550000Y-82900000D03*
X149250000Y-75050000D03*
X158300000Y-99400000D03*
X142300000Y-81500000D03*
X140300000Y-97900000D03*
X152200000Y-91400000D03*
X125700000Y-92500000D03*
X147100000Y-79200000D03*
X135800000Y-88600000D03*
X151049999Y-82249999D03*
X162300000Y-86950000D03*
X130900000Y-83000000D03*
X141900000Y-87100000D03*
X145800000Y-101700000D03*
X138500000Y-103900000D03*
X151100000Y-97200000D03*
X136300000Y-102700000D03*
X154000000Y-97000000D03*
X141300000Y-95800000D03*
X143300000Y-126400000D03*
X130900000Y-81200000D03*
X130800000Y-77800000D03*
X142500000Y-102904003D03*
X151049999Y-83949999D03*
X150200000Y-86700000D03*
X142400000Y-97000000D03*
X139600000Y-96500000D03*
X141300000Y-91200000D03*
X130800000Y-76000000D03*
X145500000Y-105200000D03*
X137400000Y-103900000D03*
X149250000Y-76850000D03*
X144400000Y-84900000D03*
X139100000Y-90300000D03*
X145000000Y-84300000D03*
X137700000Y-81100000D03*
X146650000Y-93250000D03*
X140600000Y-102700000D03*
X142950000Y-78850000D03*
X162200000Y-95400000D03*
X142600000Y-83200000D03*
X139500000Y-103200000D03*
X150600000Y-93700000D03*
X143300000Y-127200000D03*
X159600000Y-76450000D03*
X146300000Y-106050000D03*
X145950000Y-98100000D03*
X125700000Y-100800000D03*
X150049999Y-83949999D03*
X143600000Y-105600000D03*
X160000000Y-95400000D03*
X139400000Y-75600000D03*
X148950000Y-97100000D03*
G04 #@! TO.N,Net-(U3-AVDD12)*
X145000000Y-95700000D03*
X147850000Y-90000000D03*
G04 #@! TO.N,+5V*
X134050000Y-80950000D03*
X134100000Y-78400000D03*
X137800000Y-85300000D03*
X146100000Y-76800000D03*
X143400000Y-83200000D03*
X147812500Y-75262500D03*
X143635000Y-94635000D03*
X146100000Y-76200000D03*
G04 #@! TO.N,Net-(J3-DAT3{slash}CD)*
X146850000Y-104650000D03*
X137900000Y-104500000D03*
G04 #@! TO.N,Net-(J3-CMD)*
X136950000Y-102950000D03*
X139400000Y-101600000D03*
G04 #@! TO.N,Net-(J3-CLK)*
X139600000Y-97150000D03*
X134600000Y-101900000D03*
G04 #@! TO.N,Net-(J3-DAT0)*
X139300000Y-103900000D03*
X143200000Y-104900000D03*
G04 #@! TO.N,Net-(J3-DAT2)*
X148300000Y-104900000D03*
X137200000Y-105028974D03*
G04 #@! TO.N,USB_DP*
X150549999Y-83449999D03*
X132400000Y-79700000D03*
X135700000Y-79800000D03*
G04 #@! TO.N,USB_DN*
X132400000Y-79100000D03*
X150549999Y-82849999D03*
G04 #@! TO.N,SD_SW*
X156050000Y-98350000D03*
X158700000Y-93525000D03*
X150100000Y-103950000D03*
X145800000Y-102550000D03*
X140100000Y-105700000D03*
G04 #@! TO.N,Net-(J2-CMD)*
X142950001Y-100000000D03*
X145000000Y-105600000D03*
G04 #@! TO.N,Net-(J2-CLK)*
X144300000Y-105600000D03*
X141450002Y-100000000D03*
G04 #@! TO.N,EXTLoad_SW*
X158650000Y-88150000D03*
X155840000Y-82200000D03*
G04 #@! TO.N,Net-(U3-SPI_MOSI)*
X130505000Y-88595000D03*
X143500000Y-92480000D03*
G04 #@! TO.N,Net-(U3-SPI_CK)*
X130565000Y-89865000D03*
X143000000Y-92980000D03*
G04 #@! TO.N,SD_VCC_DEV*
X145005000Y-126800000D03*
X153050000Y-105300000D03*
G04 #@! TO.N,Net-(IC1-CC2)*
X134100000Y-80200000D03*
X144200000Y-82700000D03*
G04 #@! TO.N,Net-(IC1-CC1)*
X135725000Y-78725000D03*
X144800000Y-81200000D03*
G04 #@! TO.N,/C_TX2P*
X131500000Y-81800000D03*
X137700000Y-81800000D03*
G04 #@! TO.N,/C_TX2N*
X137700000Y-82400000D03*
X131500000Y-82400000D03*
G04 #@! TO.N,/RX1P*
X131300000Y-77200000D03*
X140312133Y-76712133D03*
G04 #@! TO.N,/RX1N*
X131300000Y-76600000D03*
X139887867Y-76287867D03*
G04 #@! TO.N,+3V3_SYS*
X145000000Y-76100000D03*
X144800000Y-79200000D03*
X140300000Y-99900000D03*
X153245000Y-94175000D03*
X158900000Y-86590000D03*
X160200000Y-99575000D03*
X156225000Y-90395000D03*
X162300000Y-85950000D03*
X160300000Y-103000000D03*
X158300000Y-103795000D03*
X160187500Y-91200000D03*
X152200000Y-76550000D03*
X145420000Y-99820000D03*
X159900000Y-85950000D03*
X158900000Y-82360000D03*
X152800000Y-79650000D03*
X152200000Y-77150000D03*
G04 #@! TO.N,Net-(J3-VDD)*
X126400000Y-103000000D03*
X151000000Y-101500000D03*
X125700000Y-103000000D03*
X149900000Y-105800000D03*
G04 #@! TO.N,/C_TXP*
X146800000Y-84450000D03*
X148950000Y-86721636D03*
G04 #@! TO.N,/C_TXN*
X149550000Y-86721636D03*
X147400000Y-84450000D03*
G04 #@! TO.N,Net-(U3-SD_CM)*
X143550000Y-99850000D03*
X147350000Y-99100000D03*
G04 #@! TO.N,Net-(U3-SD_D1)*
X141300000Y-102700000D03*
X142500000Y-102300000D03*
G04 #@! TO.N,Net-(U3-SD_CK)*
X141950000Y-98000000D03*
X146350000Y-97650000D03*
G04 #@! TD*
D13*
G04 #@! TO.N,Net-(J3-VDD)*
X138400000Y-108900000D02*
X146800000Y-108900000D01*
X132500000Y-103000000D02*
X138400000Y-108900000D01*
X125700000Y-103000000D02*
X132500000Y-103000000D01*
X146800000Y-108900000D02*
X149900000Y-105800000D01*
D14*
G04 #@! TO.N,Net-(J3-DAT3{slash}CD)*
X146850000Y-104650000D02*
X145200000Y-106300000D01*
X145200000Y-106300000D02*
X142600000Y-106300000D01*
X142600000Y-106300000D02*
X140800000Y-104500000D01*
X140800000Y-104500000D02*
X137900000Y-104500000D01*
G04 #@! TO.N,Net-(J3-CMD)*
X136950000Y-102950000D02*
X138300000Y-101600000D01*
X138300000Y-101600000D02*
X139400000Y-101600000D01*
G04 #@! TO.N,Net-(J3-CLK)*
X139350000Y-97150000D02*
X139600000Y-97150000D01*
X134600000Y-101900000D02*
X139350000Y-97150000D01*
G04 #@! TO.N,Net-(J3-DAT0)*
X141150000Y-103900000D02*
X142150000Y-104900000D01*
X139300000Y-103900000D02*
X141150000Y-103900000D01*
X142150000Y-104900000D02*
X143200000Y-104900000D01*
G04 #@! TO.N,Net-(J3-DAT2)*
X142100000Y-106700000D02*
X146500000Y-106700000D01*
X140428974Y-105028974D02*
X142100000Y-106700000D01*
X146500000Y-106700000D02*
X148300000Y-104900000D01*
X137200000Y-105028974D02*
X140428974Y-105028974D01*
D15*
G04 #@! TO.N,USB_DP*
X135700000Y-79800000D02*
X135850000Y-79650000D01*
X135550000Y-79650000D02*
X132450000Y-79650000D01*
X135850000Y-79650000D02*
X136000000Y-79650000D01*
X145587866Y-83300000D02*
X150400000Y-83300000D01*
X135700000Y-79800000D02*
X135550000Y-79650000D01*
X141937866Y-79650000D02*
X145587866Y-83300000D01*
X136000000Y-79650000D02*
X141937866Y-79650000D01*
X132450000Y-79650000D02*
X132400000Y-79700000D01*
X135550000Y-79650000D02*
X136000000Y-79650000D01*
X150400000Y-83300000D02*
X150549999Y-83449999D01*
G04 #@! TO.N,USB_DN*
X132400000Y-79100000D02*
X132650000Y-79350000D01*
X132650000Y-79350000D02*
X142062134Y-79350000D01*
X150400000Y-82999998D02*
X150549999Y-82849999D01*
X142062134Y-79350000D02*
X145712132Y-82999998D01*
X145712132Y-82999998D02*
X150400000Y-82999998D01*
G04 #@! TO.N,SD_SW*
X141600000Y-107200000D02*
X147400000Y-107200000D01*
X148700000Y-102550000D02*
X150100000Y-103950000D01*
X150100000Y-104500000D02*
X150100000Y-103950000D01*
X140100000Y-105700000D02*
X141600000Y-107200000D01*
D16*
X156050000Y-98350000D02*
X158700000Y-95700000D01*
D15*
X147400000Y-107200000D02*
X150100000Y-104500000D01*
X145800000Y-102550000D02*
X148700000Y-102550000D01*
D16*
X158700000Y-95700000D02*
X158700000Y-93525000D01*
D14*
G04 #@! TO.N,Net-(J2-CMD)*
X142950001Y-100837237D02*
X145000000Y-102887236D01*
X142950001Y-100000000D02*
X142950001Y-100837237D01*
X145000000Y-102887236D02*
X145000000Y-105600000D01*
G04 #@! TO.N,Net-(J2-CLK)*
X144404000Y-102953998D02*
X141450002Y-100000000D01*
X144404000Y-105496000D02*
X144404000Y-102953998D01*
X144300000Y-105600000D02*
X144404000Y-105496000D01*
D16*
G04 #@! TO.N,EXTLoad_SW*
X155840000Y-82200000D02*
X155840000Y-85340000D01*
X155840000Y-85340000D02*
X158650000Y-88150000D01*
G04 #@! TO.N,Net-(U3-SPI_MOSI)*
X130505000Y-88605000D02*
X130505000Y-88595000D01*
X134380000Y-92480000D02*
X130505000Y-88605000D01*
X143500000Y-92480000D02*
X134380000Y-92480000D01*
G04 #@! TO.N,Net-(U3-SPI_CK)*
X143000000Y-92980000D02*
X133680000Y-92980000D01*
X133680000Y-92980000D02*
X130565000Y-89865000D01*
D13*
G04 #@! TO.N,SD_VCC_DEV*
X145005000Y-113345000D02*
X153050000Y-105300000D01*
X145005000Y-126800000D02*
X145005000Y-113345000D01*
D15*
G04 #@! TO.N,Net-(IC1-CC2)*
X134100000Y-80200000D02*
X134300000Y-80400000D01*
X134300000Y-80400000D02*
X142000000Y-80400000D01*
X142000000Y-80400000D02*
X144200000Y-82600000D01*
X144200000Y-82600000D02*
X144200000Y-82700000D01*
G04 #@! TO.N,Net-(IC1-CC1)*
X144550000Y-81200000D02*
X142150000Y-78800000D01*
X135800000Y-78800000D02*
X135725000Y-78725000D01*
X142150000Y-78800000D02*
X135800000Y-78800000D01*
X144800000Y-81200000D02*
X144550000Y-81200000D01*
G04 #@! TO.N,/C_TX2P*
X137550001Y-81949999D02*
X137700000Y-81800000D01*
X131500000Y-81800000D02*
X131649999Y-81949999D01*
X131649999Y-81949999D02*
X137550001Y-81949999D01*
G04 #@! TO.N,/C_TX2N*
X137550001Y-82250001D02*
X137700000Y-82400000D01*
X131649999Y-82250001D02*
X137550001Y-82250001D01*
X131500000Y-82400000D02*
X131649999Y-82250001D01*
G04 #@! TO.N,/RX1P*
X139112132Y-77700001D02*
X140100000Y-76712133D01*
X131300000Y-77200000D02*
X131449999Y-77050001D01*
X132037867Y-77050001D02*
X132687867Y-77700001D01*
X132687867Y-77700001D02*
X139112132Y-77700001D01*
X131449999Y-77050001D02*
X132037867Y-77050001D01*
X140100000Y-76712133D02*
X140312133Y-76712133D01*
G04 #@! TO.N,/RX1N*
X138987868Y-77399999D02*
X139887867Y-76500000D01*
X132162133Y-76749999D02*
X132812133Y-77399999D01*
X139887867Y-76500000D02*
X139887867Y-76287867D01*
X132812133Y-77399999D02*
X138987868Y-77399999D01*
X131449999Y-76749999D02*
X132162133Y-76749999D01*
X131300000Y-76600000D02*
X131449999Y-76749999D01*
D13*
G04 #@! TO.N,Net-(J3-VDD)*
X150900000Y-104800000D02*
X151000000Y-104800000D01*
X149900000Y-105800000D02*
X150900000Y-104800000D01*
X151000000Y-104800000D02*
X151000000Y-104700000D01*
X151000000Y-104700000D02*
X150900000Y-104800000D01*
X151000000Y-104700000D02*
X151000000Y-101500000D01*
D15*
G04 #@! TO.N,/C_TXP*
X147637866Y-85500000D02*
X146949999Y-84812133D01*
X148950000Y-86721636D02*
X149099999Y-86571637D01*
X146949999Y-84812133D02*
X146949999Y-84599999D01*
X146949999Y-84599999D02*
X146800000Y-84450000D01*
X149099999Y-86571637D02*
X149099999Y-86162133D01*
X148437866Y-85500000D02*
X147637866Y-85500000D01*
X149099999Y-86162133D02*
X148437866Y-85500000D01*
G04 #@! TO.N,/C_TXN*
X149550000Y-86721636D02*
X149400001Y-86571637D01*
X147250001Y-84687867D02*
X147250001Y-84599999D01*
X149400001Y-86037867D02*
X148562134Y-85200000D01*
X147762134Y-85200000D02*
X147250001Y-84687867D01*
X148562134Y-85200000D02*
X147762134Y-85200000D01*
X149400001Y-86571637D02*
X149400001Y-86037867D01*
X147250001Y-84599999D02*
X147400000Y-84450000D01*
D14*
G04 #@! TO.N,Net-(U3-SD_CM)*
X145990058Y-100533651D02*
X145990058Y-100652000D01*
X143550000Y-99850000D02*
X144500000Y-100800000D01*
X146700000Y-100800000D02*
X147000000Y-100500000D01*
X145990058Y-100652000D02*
X145990058Y-101066329D01*
X144500000Y-100800000D02*
X145472058Y-100800000D01*
X146360058Y-101066329D02*
X146360058Y-100948000D01*
X147350000Y-100150000D02*
X147000000Y-100500000D01*
X145768058Y-100385651D02*
X145842058Y-100385651D01*
X147350000Y-99100000D02*
X147350000Y-100150000D01*
X146508058Y-100800000D02*
X146582058Y-100800000D01*
X145620058Y-100652000D02*
X145620058Y-100533651D01*
X146138058Y-101214329D02*
X146212058Y-101214329D01*
X146582058Y-100800000D02*
X146700000Y-100800000D01*
X145472058Y-100800000D02*
G75*
G03*
X145620100Y-100652000I42J148000D01*
G01*
X145842058Y-100385651D02*
G75*
G02*
X145990149Y-100533651I42J-148049D01*
G01*
X145620058Y-100533651D02*
G75*
G02*
X145768058Y-100385658I148042J-49D01*
G01*
X146212058Y-101214329D02*
G75*
G03*
X146360129Y-101066329I42J148029D01*
G01*
X145990058Y-101066329D02*
G75*
G03*
X146138058Y-101214342I148042J29D01*
G01*
X146360058Y-100948000D02*
G75*
G02*
X146508058Y-100799958I148042J0D01*
G01*
G04 #@! TO.N,Net-(U3-SD_D1)*
X141700000Y-102300000D02*
X141300000Y-102700000D01*
X142500000Y-102300000D02*
X141700000Y-102300000D01*
G04 #@! TO.N,Net-(U3-SD_CK)*
X142300000Y-97650000D02*
X142150000Y-97800000D01*
X143048000Y-98007564D02*
X142980000Y-98007564D01*
X142708000Y-97650000D02*
X142640000Y-97650000D01*
X143184000Y-97786000D02*
X143184000Y-97871564D01*
X146350000Y-97650000D02*
X144000000Y-97650000D01*
X143184000Y-97650000D02*
X143184000Y-97786000D01*
X143524000Y-97786000D02*
X143524000Y-97650000D01*
X142640000Y-97650000D02*
X142300000Y-97650000D01*
X143864000Y-97786000D02*
X143864000Y-97871564D01*
X143388000Y-97292436D02*
X143320000Y-97292436D01*
X143728000Y-98007564D02*
X143660000Y-98007564D01*
X143524000Y-97650000D02*
X143524000Y-97428436D01*
X143524000Y-97871564D02*
X143524000Y-97786000D01*
X143184000Y-97428436D02*
X143184000Y-97650000D01*
X142844000Y-97871564D02*
X142844000Y-97786000D01*
X142150000Y-97800000D02*
X141950000Y-98000000D01*
X144000000Y-97650000D02*
G75*
G03*
X143864000Y-97786000I0J-136000D01*
G01*
X143524000Y-97428436D02*
G75*
G03*
X143388000Y-97292400I-136000J36D01*
G01*
X143320000Y-97292436D02*
G75*
G03*
X143184036Y-97428436I0J-135964D01*
G01*
X142980000Y-98007564D02*
G75*
G02*
X142844036Y-97871564I0J135964D01*
G01*
X143184000Y-97871564D02*
G75*
G02*
X143048000Y-98007600I-136000J-36D01*
G01*
X143864000Y-97871564D02*
G75*
G02*
X143728000Y-98007600I-136000J-36D01*
G01*
X143660000Y-98007564D02*
G75*
G02*
X143524036Y-97871564I0J135964D01*
G01*
X142844000Y-97786000D02*
G75*
G03*
X142708000Y-97650000I-136000J0D01*
G01*
G04 #@! TD*
G04 #@! TA.AperFunction,Conductor*
G04 #@! TO.N,GND*
G36*
X164400897Y-72400016D02*
G01*
X164536676Y-72402437D01*
X164548984Y-72403428D01*
X164818667Y-72442202D01*
X164832457Y-72445201D01*
X165093027Y-72521712D01*
X165106260Y-72526647D01*
X165353286Y-72639460D01*
X165365675Y-72646226D01*
X165469032Y-72712650D01*
X165594132Y-72793047D01*
X165605439Y-72801512D01*
X165810668Y-72979343D01*
X165820656Y-72989331D01*
X165998487Y-73194560D01*
X166006952Y-73205867D01*
X166153771Y-73434320D01*
X166160541Y-73446718D01*
X166273351Y-73693738D01*
X166278287Y-73706972D01*
X166354796Y-73967536D01*
X166357798Y-73981339D01*
X166396570Y-74251007D01*
X166397562Y-74263330D01*
X166399984Y-74399101D01*
X166400000Y-74400867D01*
X166400000Y-114399132D01*
X166399984Y-114400898D01*
X166397562Y-114536669D01*
X166396570Y-114548992D01*
X166357798Y-114818660D01*
X166354796Y-114832463D01*
X166278287Y-115093027D01*
X166273351Y-115106261D01*
X166160541Y-115353281D01*
X166153771Y-115365679D01*
X166006952Y-115594132D01*
X165998487Y-115605439D01*
X165820656Y-115810668D01*
X165810668Y-115820656D01*
X165605439Y-115998487D01*
X165594132Y-116006952D01*
X165365679Y-116153771D01*
X165353281Y-116160541D01*
X165106261Y-116273351D01*
X165093027Y-116278287D01*
X164832463Y-116354796D01*
X164818660Y-116357798D01*
X164548992Y-116396570D01*
X164536669Y-116397562D01*
X164405773Y-116399897D01*
X164400896Y-116399984D01*
X164399132Y-116400000D01*
X151599988Y-116400000D01*
X151501748Y-116402406D01*
X151309014Y-116440743D01*
X151127464Y-116515944D01*
X151127450Y-116515951D01*
X150964078Y-116625113D01*
X150825113Y-116764078D01*
X150715951Y-116927450D01*
X150715944Y-116927464D01*
X150640743Y-117109014D01*
X150602406Y-117301748D01*
X150600000Y-117399988D01*
X150600000Y-122758992D01*
X150581093Y-122817183D01*
X150571004Y-122828996D01*
X150017147Y-123382853D01*
X149964152Y-123441278D01*
X149903835Y-123586883D01*
X149903834Y-123586886D01*
X149900000Y-123665695D01*
X149900000Y-124500005D01*
X149901921Y-124539396D01*
X149901922Y-124539401D01*
X149932075Y-124612199D01*
X149932076Y-124612200D01*
X149932077Y-124612202D01*
X149987798Y-124667923D01*
X150060600Y-124698078D01*
X150073733Y-124698718D01*
X150099994Y-124700000D01*
X150100000Y-124700000D01*
X150495031Y-124700000D01*
X150553222Y-124718907D01*
X150565035Y-124728996D01*
X150571004Y-124734965D01*
X150598781Y-124789482D01*
X150600000Y-124804969D01*
X150600000Y-126201906D01*
X150599882Y-126206733D01*
X150596992Y-126265937D01*
X150589573Y-126298999D01*
X150542416Y-126412834D01*
X150524291Y-126441447D01*
X150484477Y-126485354D01*
X150481143Y-126488856D01*
X149470000Y-127500000D01*
X139600000Y-127500000D01*
X139600000Y-117600000D01*
X139600000Y-117400000D01*
X139597593Y-117301746D01*
X139559256Y-117109013D01*
X139484055Y-116927463D01*
X139484053Y-116927460D01*
X139484048Y-116927450D01*
X139374886Y-116764078D01*
X139374883Y-116764075D01*
X139374881Y-116764072D01*
X139235928Y-116625119D01*
X139235924Y-116625116D01*
X139235921Y-116625113D01*
X139072549Y-116515951D01*
X139072535Y-116515944D01*
X138890985Y-116440743D01*
X138698249Y-116402406D01*
X138698253Y-116402406D01*
X138600012Y-116400000D01*
X138600000Y-116400000D01*
X126100868Y-116400000D01*
X126099103Y-116399984D01*
X126094027Y-116399893D01*
X125963330Y-116397562D01*
X125951007Y-116396570D01*
X125681339Y-116357798D01*
X125667536Y-116354796D01*
X125406972Y-116278287D01*
X125393738Y-116273351D01*
X125146718Y-116160541D01*
X125134320Y-116153771D01*
X124905867Y-116006952D01*
X124894560Y-115998487D01*
X124689331Y-115820656D01*
X124679343Y-115810668D01*
X124501512Y-115605439D01*
X124493047Y-115594132D01*
X124346228Y-115365679D01*
X124339458Y-115353281D01*
X124226648Y-115106261D01*
X124221712Y-115093027D01*
X124145203Y-114832463D01*
X124142202Y-114818667D01*
X124103428Y-114548984D01*
X124102437Y-114536676D01*
X124100016Y-114400897D01*
X124100000Y-114399132D01*
X124100000Y-113897644D01*
X125199500Y-113897644D01*
X125199500Y-114102355D01*
X125231521Y-114304529D01*
X125294780Y-114499219D01*
X125387712Y-114681609D01*
X125387714Y-114681613D01*
X125508029Y-114847213D01*
X125508031Y-114847215D01*
X125508034Y-114847219D01*
X125652781Y-114991966D01*
X125652784Y-114991968D01*
X125652786Y-114991970D01*
X125818386Y-115112285D01*
X125818390Y-115112287D01*
X126000781Y-115205220D01*
X126195466Y-115268477D01*
X126195467Y-115268477D01*
X126195470Y-115268478D01*
X126397645Y-115300500D01*
X126397648Y-115300500D01*
X126602355Y-115300500D01*
X126804529Y-115268478D01*
X126804530Y-115268477D01*
X126804534Y-115268477D01*
X126999219Y-115205220D01*
X127181610Y-115112287D01*
X127347219Y-114991966D01*
X127491966Y-114847219D01*
X127612287Y-114681610D01*
X127705220Y-114499219D01*
X127768477Y-114304534D01*
X127800500Y-114102352D01*
X127800500Y-113897648D01*
X127800500Y-113897644D01*
X127768478Y-113695470D01*
X127768477Y-113695466D01*
X127705220Y-113500781D01*
X127612287Y-113318390D01*
X127612285Y-113318386D01*
X127574183Y-113265943D01*
X144404499Y-113265943D01*
X144404499Y-113265945D01*
X144404499Y-113432031D01*
X144404500Y-113432044D01*
X144404500Y-126879057D01*
X144445423Y-127031784D01*
X144524480Y-127168716D01*
X144636284Y-127280520D01*
X144773216Y-127359577D01*
X144925943Y-127400500D01*
X144925945Y-127400500D01*
X145084055Y-127400500D01*
X145084057Y-127400500D01*
X145236784Y-127359577D01*
X145373716Y-127280520D01*
X145485520Y-127168716D01*
X145564577Y-127031784D01*
X145605500Y-126879057D01*
X145605500Y-113897644D01*
X162699500Y-113897644D01*
X162699500Y-114102355D01*
X162731521Y-114304529D01*
X162794780Y-114499219D01*
X162887712Y-114681609D01*
X162887714Y-114681613D01*
X163008029Y-114847213D01*
X163008031Y-114847215D01*
X163008034Y-114847219D01*
X163152781Y-114991966D01*
X163152784Y-114991968D01*
X163152786Y-114991970D01*
X163318386Y-115112285D01*
X163318390Y-115112287D01*
X163500781Y-115205220D01*
X163695466Y-115268477D01*
X163695467Y-115268477D01*
X163695470Y-115268478D01*
X163897645Y-115300500D01*
X163897648Y-115300500D01*
X164102355Y-115300500D01*
X164304529Y-115268478D01*
X164304530Y-115268477D01*
X164304534Y-115268477D01*
X164499219Y-115205220D01*
X164681610Y-115112287D01*
X164847219Y-114991966D01*
X164991966Y-114847219D01*
X165112287Y-114681610D01*
X165205220Y-114499219D01*
X165268477Y-114304534D01*
X165300500Y-114102352D01*
X165300500Y-113897648D01*
X165300500Y-113897644D01*
X165268478Y-113695470D01*
X165268477Y-113695466D01*
X165205220Y-113500781D01*
X165112287Y-113318390D01*
X165112285Y-113318386D01*
X164991970Y-113152786D01*
X164991968Y-113152784D01*
X164991966Y-113152781D01*
X164847219Y-113008034D01*
X164847215Y-113008031D01*
X164847213Y-113008029D01*
X164681613Y-112887714D01*
X164681609Y-112887712D01*
X164499219Y-112794780D01*
X164304529Y-112731521D01*
X164102355Y-112699500D01*
X164102352Y-112699500D01*
X163897648Y-112699500D01*
X163897645Y-112699500D01*
X163695470Y-112731521D01*
X163500780Y-112794780D01*
X163318390Y-112887712D01*
X163318386Y-112887714D01*
X163152786Y-113008029D01*
X163008029Y-113152786D01*
X162887714Y-113318386D01*
X162887712Y-113318390D01*
X162794780Y-113500780D01*
X162731521Y-113695470D01*
X162699500Y-113897644D01*
X145605500Y-113897644D01*
X145605500Y-113634742D01*
X145624407Y-113576551D01*
X145634490Y-113564744D01*
X153530519Y-105668716D01*
X153609577Y-105531785D01*
X153650500Y-105379057D01*
X153650500Y-105220943D01*
X153609577Y-105068215D01*
X153609575Y-105068212D01*
X153609575Y-105068210D01*
X153530522Y-104931288D01*
X153530520Y-104931286D01*
X153530519Y-104931284D01*
X153418716Y-104819481D01*
X153418713Y-104819479D01*
X153418711Y-104819477D01*
X153281788Y-104740424D01*
X153281790Y-104740424D01*
X153222530Y-104724545D01*
X153129057Y-104699500D01*
X152970943Y-104699500D01*
X152877469Y-104724545D01*
X152818210Y-104740424D01*
X152681288Y-104819477D01*
X152681287Y-104819478D01*
X144636286Y-112864478D01*
X144636284Y-112864480D01*
X144636283Y-112864479D01*
X144524479Y-112976284D01*
X144474359Y-113063095D01*
X144445425Y-113113209D01*
X144445423Y-113113213D01*
X144445423Y-113113215D01*
X144404499Y-113265943D01*
X127574183Y-113265943D01*
X127491970Y-113152786D01*
X127491968Y-113152784D01*
X127491966Y-113152781D01*
X127347219Y-113008034D01*
X127347215Y-113008031D01*
X127347213Y-113008029D01*
X127181613Y-112887714D01*
X127181609Y-112887712D01*
X126999219Y-112794780D01*
X126804529Y-112731521D01*
X126602355Y-112699500D01*
X126602352Y-112699500D01*
X126397648Y-112699500D01*
X126397645Y-112699500D01*
X126195470Y-112731521D01*
X126000780Y-112794780D01*
X125818390Y-112887712D01*
X125818386Y-112887714D01*
X125652786Y-113008029D01*
X125508029Y-113152786D01*
X125387714Y-113318386D01*
X125387712Y-113318390D01*
X125294780Y-113500780D01*
X125231521Y-113695470D01*
X125199500Y-113897644D01*
X124100000Y-113897644D01*
X124100000Y-102920943D01*
X125099500Y-102920943D01*
X125099500Y-103079057D01*
X125140423Y-103231784D01*
X125219480Y-103368716D01*
X125331284Y-103480520D01*
X125468216Y-103559577D01*
X125620943Y-103600500D01*
X126875013Y-103600500D01*
X126909021Y-103608665D01*
X126909462Y-103607311D01*
X126916872Y-103609718D01*
X126916874Y-103609719D01*
X126975639Y-103619026D01*
X127016509Y-103625500D01*
X127016512Y-103625500D01*
X127583491Y-103625500D01*
X127621958Y-103619407D01*
X127683126Y-103609719D01*
X127683129Y-103609717D01*
X127690538Y-103607311D01*
X127690978Y-103608665D01*
X127724987Y-103600500D01*
X132210257Y-103600500D01*
X132268448Y-103619407D01*
X132280261Y-103629496D01*
X137919478Y-109268713D01*
X137919480Y-109268716D01*
X138031284Y-109380520D01*
X138031286Y-109380521D01*
X138031289Y-109380524D01*
X138031288Y-109380524D01*
X138118091Y-109430637D01*
X138118093Y-109430639D01*
X138118094Y-109430639D01*
X138147032Y-109447346D01*
X138168215Y-109459577D01*
X138320943Y-109500501D01*
X138320944Y-109500501D01*
X138485120Y-109500501D01*
X138485136Y-109500500D01*
X146714864Y-109500500D01*
X146714880Y-109500501D01*
X146720943Y-109500501D01*
X146879056Y-109500501D01*
X146879057Y-109500501D01*
X147031785Y-109459577D01*
X147081904Y-109430639D01*
X147168716Y-109380520D01*
X147280520Y-109268716D01*
X147280521Y-109268713D01*
X150380519Y-106168716D01*
X150380518Y-106168716D01*
X151155483Y-105393750D01*
X151199861Y-105368129D01*
X151231784Y-105359577D01*
X151368716Y-105280520D01*
X151480520Y-105168716D01*
X151559577Y-105031784D01*
X151600500Y-104879057D01*
X151600500Y-104620943D01*
X151600500Y-103794999D01*
X157894508Y-103794999D01*
X157894508Y-103795000D01*
X157914354Y-103920303D01*
X157914355Y-103920307D01*
X157969944Y-104029406D01*
X157971950Y-104033342D01*
X158061658Y-104123050D01*
X158174696Y-104180646D01*
X158300000Y-104200492D01*
X158425304Y-104180646D01*
X158538342Y-104123050D01*
X158628050Y-104033342D01*
X158685646Y-103920304D01*
X158705492Y-103795000D01*
X158685646Y-103669696D01*
X158628050Y-103556658D01*
X158538342Y-103466950D01*
X158534406Y-103464944D01*
X158425307Y-103409355D01*
X158425304Y-103409354D01*
X158300000Y-103389508D01*
X158174696Y-103409354D01*
X158174692Y-103409355D01*
X158061659Y-103466949D01*
X157971949Y-103556659D01*
X157914355Y-103669692D01*
X157914354Y-103669696D01*
X157894508Y-103794999D01*
X151600500Y-103794999D01*
X151600500Y-102999999D01*
X159894508Y-102999999D01*
X159894508Y-103000000D01*
X159914354Y-103125303D01*
X159914355Y-103125307D01*
X159968608Y-103231783D01*
X159971950Y-103238342D01*
X160061658Y-103328050D01*
X160174696Y-103385646D01*
X160300000Y-103405492D01*
X160425304Y-103385646D01*
X160538342Y-103328050D01*
X160628050Y-103238342D01*
X160685646Y-103125304D01*
X160705492Y-103000000D01*
X160685646Y-102874696D01*
X160628050Y-102761658D01*
X160538342Y-102671950D01*
X160458535Y-102631286D01*
X160425307Y-102614355D01*
X160425304Y-102614354D01*
X160300000Y-102594508D01*
X160174696Y-102614354D01*
X160174692Y-102614355D01*
X160061659Y-102671949D01*
X159971949Y-102761659D01*
X159914355Y-102874692D01*
X159914354Y-102874696D01*
X159894508Y-102999999D01*
X151600500Y-102999999D01*
X151600500Y-101420943D01*
X151559577Y-101268216D01*
X151480520Y-101131284D01*
X151368716Y-101019480D01*
X151231784Y-100940423D01*
X151079057Y-100899500D01*
X150920943Y-100899500D01*
X150768216Y-100940423D01*
X150648498Y-101009541D01*
X150588651Y-101022262D01*
X150532756Y-100997375D01*
X150502163Y-100944387D01*
X150500000Y-100923804D01*
X150500000Y-100300001D01*
X150500000Y-100300000D01*
X149774999Y-99574999D01*
X159794508Y-99574999D01*
X159794508Y-99575000D01*
X159814354Y-99700303D01*
X159814355Y-99700307D01*
X159869944Y-99809406D01*
X159871950Y-99813342D01*
X159961658Y-99903050D01*
X160074696Y-99960646D01*
X160200000Y-99980492D01*
X160325304Y-99960646D01*
X160438342Y-99903050D01*
X160528050Y-99813342D01*
X160585646Y-99700304D01*
X160605492Y-99575000D01*
X160585646Y-99449696D01*
X160528050Y-99336658D01*
X160438342Y-99246950D01*
X160434406Y-99244944D01*
X160325307Y-99189355D01*
X160325304Y-99189354D01*
X160200000Y-99169508D01*
X160074696Y-99189354D01*
X160074692Y-99189355D01*
X159961659Y-99246949D01*
X159871949Y-99336659D01*
X159814355Y-99449692D01*
X159814354Y-99449696D01*
X159794508Y-99574999D01*
X149774999Y-99574999D01*
X148549999Y-98349999D01*
X155644508Y-98349999D01*
X155644508Y-98350000D01*
X155664354Y-98475303D01*
X155664355Y-98475307D01*
X155719944Y-98584406D01*
X155721950Y-98588342D01*
X155811658Y-98678050D01*
X155924696Y-98735646D01*
X156050000Y-98755492D01*
X156175304Y-98735646D01*
X156288342Y-98678050D01*
X156378050Y-98588342D01*
X156435646Y-98475304D01*
X156440140Y-98446926D01*
X156467912Y-98392413D01*
X158960465Y-95899862D01*
X159003318Y-95825639D01*
X159025500Y-95742853D01*
X159025500Y-95657147D01*
X159025500Y-93792113D01*
X159036290Y-93747169D01*
X159085646Y-93650304D01*
X159105492Y-93525000D01*
X159085646Y-93399696D01*
X159028050Y-93286658D01*
X158938342Y-93196950D01*
X158934406Y-93194944D01*
X158825307Y-93139355D01*
X158825304Y-93139354D01*
X158700000Y-93119508D01*
X158574696Y-93139354D01*
X158574692Y-93139355D01*
X158461659Y-93196949D01*
X158371949Y-93286659D01*
X158314355Y-93399692D01*
X158314354Y-93399696D01*
X158294508Y-93524999D01*
X158294508Y-93525000D01*
X158314354Y-93650303D01*
X158314355Y-93650307D01*
X158337233Y-93695208D01*
X158363709Y-93747169D01*
X158374500Y-93792113D01*
X158374500Y-95524164D01*
X158355593Y-95582355D01*
X158345504Y-95594168D01*
X156007589Y-97932082D01*
X155953074Y-97959859D01*
X155924694Y-97964354D01*
X155811659Y-98021949D01*
X155721949Y-98111659D01*
X155664355Y-98224692D01*
X155664354Y-98224696D01*
X155644508Y-98349999D01*
X148549999Y-98349999D01*
X146800000Y-96600000D01*
X146799999Y-96600000D01*
X140841008Y-96600000D01*
X140782817Y-96581093D01*
X140771004Y-96571004D01*
X140100000Y-95900000D01*
X139200000Y-95900000D01*
X135930492Y-99169508D01*
X132733771Y-102366229D01*
X132731093Y-102374474D01*
X132681593Y-102410438D01*
X132625378Y-102411910D01*
X132579057Y-102399499D01*
X132420943Y-102399499D01*
X132414880Y-102399499D01*
X132414864Y-102399500D01*
X127823118Y-102399500D01*
X127778173Y-102388710D01*
X127750233Y-102374474D01*
X127683126Y-102340281D01*
X127583490Y-102324500D01*
X127583488Y-102324500D01*
X127016512Y-102324500D01*
X127016510Y-102324500D01*
X126916874Y-102340281D01*
X126916872Y-102340281D01*
X126821827Y-102388710D01*
X126776882Y-102399500D01*
X125620943Y-102399500D01*
X125468216Y-102440423D01*
X125331284Y-102519480D01*
X125219480Y-102631284D01*
X125140423Y-102768216D01*
X125099500Y-102920943D01*
X124100000Y-102920943D01*
X124100000Y-94499999D01*
X133994508Y-94499999D01*
X133994508Y-94500000D01*
X134014354Y-94625303D01*
X134014355Y-94625307D01*
X134019294Y-94635000D01*
X134071950Y-94738342D01*
X134161658Y-94828050D01*
X134274696Y-94885646D01*
X134400000Y-94905492D01*
X134525304Y-94885646D01*
X134638342Y-94828050D01*
X134728050Y-94738342D01*
X134780706Y-94634999D01*
X143229508Y-94634999D01*
X143229508Y-94635000D01*
X143249354Y-94760303D01*
X143249355Y-94760307D01*
X143274425Y-94809508D01*
X143306950Y-94873342D01*
X143396658Y-94963050D01*
X143396660Y-94963051D01*
X143485096Y-95008112D01*
X143528361Y-95051376D01*
X143537932Y-95111808D01*
X143510154Y-95166325D01*
X143485097Y-95184530D01*
X143411659Y-95221949D01*
X143321949Y-95311659D01*
X143264355Y-95424692D01*
X143264354Y-95424696D01*
X143244508Y-95550000D01*
X143252529Y-95600646D01*
X143264354Y-95675303D01*
X143264355Y-95675307D01*
X143276937Y-95700000D01*
X143321950Y-95788342D01*
X143411658Y-95878050D01*
X143524696Y-95935646D01*
X143650000Y-95955492D01*
X143775304Y-95935646D01*
X143888342Y-95878050D01*
X143978050Y-95788342D01*
X144023063Y-95699999D01*
X144594508Y-95699999D01*
X144594508Y-95700000D01*
X144614354Y-95825303D01*
X144614355Y-95825307D01*
X144652341Y-95899857D01*
X144671950Y-95938342D01*
X144761658Y-96028050D01*
X144874696Y-96085646D01*
X145000000Y-96105492D01*
X145125304Y-96085646D01*
X145238342Y-96028050D01*
X145328050Y-95938342D01*
X145385646Y-95825304D01*
X145405492Y-95700000D01*
X145385646Y-95574696D01*
X145328050Y-95461658D01*
X145238342Y-95371950D01*
X145234406Y-95369944D01*
X145125307Y-95314355D01*
X145125304Y-95314354D01*
X145000000Y-95294508D01*
X144874696Y-95314354D01*
X144874692Y-95314355D01*
X144761659Y-95371949D01*
X144671949Y-95461659D01*
X144614355Y-95574692D01*
X144614354Y-95574696D01*
X144594508Y-95699999D01*
X144023063Y-95699999D01*
X144035646Y-95675304D01*
X144055492Y-95550000D01*
X144035646Y-95424696D01*
X143978050Y-95311658D01*
X143888342Y-95221950D01*
X143874700Y-95214999D01*
X149879508Y-95214999D01*
X149879508Y-95215000D01*
X149899354Y-95340303D01*
X149899355Y-95340307D01*
X149942352Y-95424692D01*
X149956950Y-95453342D01*
X150046658Y-95543050D01*
X150159696Y-95600646D01*
X150285000Y-95620492D01*
X150410304Y-95600646D01*
X150523342Y-95543050D01*
X150613050Y-95453342D01*
X150670646Y-95340304D01*
X150690492Y-95215000D01*
X150670646Y-95089696D01*
X150613050Y-94976658D01*
X150523342Y-94886950D01*
X150496631Y-94873340D01*
X150410307Y-94829355D01*
X150410304Y-94829354D01*
X150285000Y-94809508D01*
X150159696Y-94829354D01*
X150159692Y-94829355D01*
X150046659Y-94886949D01*
X149956949Y-94976659D01*
X149899355Y-95089692D01*
X149899354Y-95089696D01*
X149879508Y-95214999D01*
X143874700Y-95214999D01*
X143799902Y-95176887D01*
X143756638Y-95133622D01*
X143747067Y-95073190D01*
X143774845Y-95018674D01*
X143799897Y-95000472D01*
X143873342Y-94963050D01*
X143963050Y-94873342D01*
X144020646Y-94760304D01*
X144040492Y-94635000D01*
X144020646Y-94509696D01*
X143963050Y-94396658D01*
X143873342Y-94306950D01*
X143869406Y-94304944D01*
X143760307Y-94249355D01*
X143760304Y-94249354D01*
X143635000Y-94229508D01*
X143509696Y-94249354D01*
X143509692Y-94249355D01*
X143396659Y-94306949D01*
X143306949Y-94396659D01*
X143249355Y-94509692D01*
X143249354Y-94509696D01*
X143229508Y-94634999D01*
X134780706Y-94634999D01*
X134785646Y-94625304D01*
X134805492Y-94500000D01*
X134785646Y-94374696D01*
X134728050Y-94261658D01*
X134641391Y-94174999D01*
X152839508Y-94174999D01*
X152839508Y-94175000D01*
X152859354Y-94300303D01*
X152859355Y-94300307D01*
X152914944Y-94409406D01*
X152916950Y-94413342D01*
X153006658Y-94503050D01*
X153119696Y-94560646D01*
X153245000Y-94580492D01*
X153370304Y-94560646D01*
X153483342Y-94503050D01*
X153573050Y-94413342D01*
X153630646Y-94300304D01*
X153650492Y-94175000D01*
X153630646Y-94049696D01*
X153573050Y-93936658D01*
X153483342Y-93846950D01*
X153479406Y-93844944D01*
X153370307Y-93789355D01*
X153370304Y-93789354D01*
X153245000Y-93769508D01*
X153119696Y-93789354D01*
X153119692Y-93789355D01*
X153006659Y-93846949D01*
X152916949Y-93936659D01*
X152859355Y-94049692D01*
X152859354Y-94049696D01*
X152839508Y-94174999D01*
X134641391Y-94174999D01*
X134638342Y-94171950D01*
X134634406Y-94169944D01*
X134525307Y-94114355D01*
X134525304Y-94114354D01*
X134400000Y-94094508D01*
X134274696Y-94114354D01*
X134274692Y-94114355D01*
X134161659Y-94171949D01*
X134071949Y-94261659D01*
X134014355Y-94374692D01*
X134014354Y-94374696D01*
X133994508Y-94499999D01*
X124100000Y-94499999D01*
X124100000Y-93200000D01*
X126994508Y-93200000D01*
X127012926Y-93316291D01*
X127014354Y-93325303D01*
X127014355Y-93325307D01*
X127034908Y-93365644D01*
X127071950Y-93438342D01*
X127161658Y-93528050D01*
X127274696Y-93585646D01*
X127400000Y-93605492D01*
X127525304Y-93585646D01*
X127638342Y-93528050D01*
X127728050Y-93438342D01*
X127785646Y-93325304D01*
X127805492Y-93200000D01*
X127785646Y-93074696D01*
X127728050Y-92961658D01*
X127638342Y-92871950D01*
X127625966Y-92865644D01*
X127525307Y-92814355D01*
X127525304Y-92814354D01*
X127400000Y-92794508D01*
X127274696Y-92814354D01*
X127274692Y-92814355D01*
X127161659Y-92871949D01*
X127071949Y-92961659D01*
X127014355Y-93074692D01*
X127014354Y-93074696D01*
X127007257Y-93119508D01*
X126994508Y-93200000D01*
X124100000Y-93200000D01*
X124100000Y-91199999D01*
X125294508Y-91199999D01*
X125294508Y-91200000D01*
X125314354Y-91325303D01*
X125314355Y-91325307D01*
X125369944Y-91434406D01*
X125371950Y-91438342D01*
X125461658Y-91528050D01*
X125574696Y-91585646D01*
X125700000Y-91605492D01*
X125825304Y-91585646D01*
X125938342Y-91528050D01*
X126028050Y-91438342D01*
X126085646Y-91325304D01*
X126105492Y-91200000D01*
X126085646Y-91074696D01*
X126028050Y-90961658D01*
X125938342Y-90871950D01*
X125934406Y-90869944D01*
X125825307Y-90814355D01*
X125825304Y-90814354D01*
X125700000Y-90794508D01*
X125574696Y-90814354D01*
X125574692Y-90814355D01*
X125461659Y-90871949D01*
X125371949Y-90961659D01*
X125314355Y-91074692D01*
X125314354Y-91074696D01*
X125294508Y-91199999D01*
X124100000Y-91199999D01*
X124100000Y-88594999D01*
X130099508Y-88594999D01*
X130099508Y-88595000D01*
X130119354Y-88720303D01*
X130119355Y-88720307D01*
X130174944Y-88829406D01*
X130176950Y-88833342D01*
X130266658Y-88923050D01*
X130379695Y-88980645D01*
X130379695Y-88980646D01*
X130383626Y-88981268D01*
X130396187Y-88983257D01*
X130450704Y-89011032D01*
X130450708Y-89011035D01*
X130746621Y-89306948D01*
X130774398Y-89361465D01*
X130764827Y-89421897D01*
X130721562Y-89465162D01*
X130661130Y-89474733D01*
X130565001Y-89459508D01*
X130565000Y-89459508D01*
X130439696Y-89479354D01*
X130439692Y-89479355D01*
X130326659Y-89536949D01*
X130236949Y-89626659D01*
X130179355Y-89739692D01*
X130179354Y-89739696D01*
X130159508Y-89864999D01*
X130159508Y-89865000D01*
X130179354Y-89990303D01*
X130179355Y-89990307D01*
X130218407Y-90066949D01*
X130236950Y-90103342D01*
X130326658Y-90193050D01*
X130439696Y-90250646D01*
X130468073Y-90255140D01*
X130522587Y-90282914D01*
X133480138Y-93240465D01*
X133480140Y-93240466D01*
X133480141Y-93240467D01*
X133480142Y-93240468D01*
X133554357Y-93283316D01*
X133554355Y-93283316D01*
X133554359Y-93283317D01*
X133554361Y-93283318D01*
X133637147Y-93305500D01*
X133722853Y-93305500D01*
X142732886Y-93305500D01*
X142777831Y-93316290D01*
X142874696Y-93365646D01*
X143000000Y-93385492D01*
X143125304Y-93365646D01*
X143238342Y-93308050D01*
X143328050Y-93218342D01*
X143385646Y-93105304D01*
X143405492Y-92980000D01*
X143406711Y-92972304D01*
X143409317Y-92972716D01*
X143424399Y-92926301D01*
X143473899Y-92890337D01*
X143492413Y-92887404D01*
X143492304Y-92886711D01*
X143500000Y-92885492D01*
X143625304Y-92865646D01*
X143738342Y-92808050D01*
X143828050Y-92718342D01*
X143885646Y-92605304D01*
X143905492Y-92480000D01*
X143892821Y-92400000D01*
X150094508Y-92400000D01*
X150107178Y-92479999D01*
X150114354Y-92525303D01*
X150114355Y-92525307D01*
X150155116Y-92605303D01*
X150171950Y-92638342D01*
X150261658Y-92728050D01*
X150374696Y-92785646D01*
X150500000Y-92805492D01*
X150625304Y-92785646D01*
X150738342Y-92728050D01*
X150828050Y-92638342D01*
X150885646Y-92525304D01*
X150905492Y-92400000D01*
X150885646Y-92274696D01*
X150828050Y-92161658D01*
X150738342Y-92071950D01*
X150734406Y-92069944D01*
X150625307Y-92014355D01*
X150625304Y-92014354D01*
X150500000Y-91994508D01*
X150374696Y-92014354D01*
X150374692Y-92014355D01*
X150261659Y-92071949D01*
X150171949Y-92161659D01*
X150114355Y-92274692D01*
X150114354Y-92274696D01*
X150094508Y-92400000D01*
X143892821Y-92400000D01*
X143885646Y-92354696D01*
X143828050Y-92241658D01*
X143738342Y-92151950D01*
X143686439Y-92125504D01*
X143625307Y-92094355D01*
X143625304Y-92094354D01*
X143500000Y-92074508D01*
X143374696Y-92094354D01*
X143374692Y-92094355D01*
X143277832Y-92143709D01*
X143232886Y-92154500D01*
X134555834Y-92154500D01*
X134497643Y-92135593D01*
X134485830Y-92125504D01*
X133560325Y-91199999D01*
X159782008Y-91199999D01*
X159782008Y-91200000D01*
X159801854Y-91325303D01*
X159801855Y-91325307D01*
X159857444Y-91434406D01*
X159859450Y-91438342D01*
X159949158Y-91528050D01*
X160062196Y-91585646D01*
X160187500Y-91605492D01*
X160312804Y-91585646D01*
X160425842Y-91528050D01*
X160515550Y-91438342D01*
X160573146Y-91325304D01*
X160592992Y-91200000D01*
X160573146Y-91074696D01*
X160515550Y-90961658D01*
X160425842Y-90871950D01*
X160421906Y-90869944D01*
X160312807Y-90814355D01*
X160312804Y-90814354D01*
X160187500Y-90794508D01*
X160062196Y-90814354D01*
X160062192Y-90814355D01*
X159949159Y-90871949D01*
X159859449Y-90961659D01*
X159801855Y-91074692D01*
X159801854Y-91074696D01*
X159782008Y-91199999D01*
X133560325Y-91199999D01*
X132160326Y-89799999D01*
X137494508Y-89799999D01*
X137494508Y-89800000D01*
X137514354Y-89925303D01*
X137514355Y-89925307D01*
X137534580Y-89965000D01*
X137571950Y-90038342D01*
X137661658Y-90128050D01*
X137774696Y-90185646D01*
X137900000Y-90205492D01*
X138025304Y-90185646D01*
X138138342Y-90128050D01*
X138228050Y-90038342D01*
X138265420Y-89964999D01*
X144629508Y-89964999D01*
X144629508Y-89965000D01*
X144649354Y-90090303D01*
X144649355Y-90090307D01*
X144683163Y-90156658D01*
X144706950Y-90203342D01*
X144796658Y-90293050D01*
X144909696Y-90350646D01*
X145035000Y-90370492D01*
X145160304Y-90350646D01*
X145273342Y-90293050D01*
X145363050Y-90203342D01*
X145420646Y-90090304D01*
X145434949Y-90000000D01*
X147444508Y-90000000D01*
X147458810Y-90090303D01*
X147464354Y-90125303D01*
X147464355Y-90125307D01*
X147505212Y-90205492D01*
X147521950Y-90238342D01*
X147611658Y-90328050D01*
X147724696Y-90385646D01*
X147850000Y-90405492D01*
X147916251Y-90394999D01*
X155819508Y-90394999D01*
X155819508Y-90395000D01*
X155839354Y-90520303D01*
X155839355Y-90520307D01*
X155894944Y-90629406D01*
X155896950Y-90633342D01*
X155986658Y-90723050D01*
X156099696Y-90780646D01*
X156225000Y-90800492D01*
X156350304Y-90780646D01*
X156463342Y-90723050D01*
X156553050Y-90633342D01*
X156610646Y-90520304D01*
X156630492Y-90395000D01*
X156629010Y-90385646D01*
X156619888Y-90328050D01*
X156610646Y-90269696D01*
X156553050Y-90156658D01*
X156463342Y-90066950D01*
X156407192Y-90038340D01*
X156350307Y-90009355D01*
X156350304Y-90009354D01*
X156225000Y-89989508D01*
X156099696Y-90009354D01*
X156099692Y-90009355D01*
X155986659Y-90066949D01*
X155896949Y-90156659D01*
X155839355Y-90269692D01*
X155839354Y-90269696D01*
X155819508Y-90394999D01*
X147916251Y-90394999D01*
X147975304Y-90385646D01*
X148088342Y-90328050D01*
X148178050Y-90238342D01*
X148235646Y-90125304D01*
X148255492Y-90000000D01*
X148235646Y-89874696D01*
X148178050Y-89761658D01*
X148088342Y-89671950D01*
X148084406Y-89669944D01*
X147975307Y-89614355D01*
X147975304Y-89614354D01*
X147850000Y-89594508D01*
X147724696Y-89614354D01*
X147724692Y-89614355D01*
X147611659Y-89671949D01*
X147521949Y-89761659D01*
X147464355Y-89874692D01*
X147464354Y-89874696D01*
X147450052Y-89964999D01*
X147444508Y-90000000D01*
X145434949Y-90000000D01*
X145440492Y-89965000D01*
X145420646Y-89839696D01*
X145363050Y-89726658D01*
X145273342Y-89636950D01*
X145228995Y-89614354D01*
X145160307Y-89579355D01*
X145160304Y-89579354D01*
X145035000Y-89559508D01*
X144909696Y-89579354D01*
X144909692Y-89579355D01*
X144796659Y-89636949D01*
X144706949Y-89726659D01*
X144649355Y-89839692D01*
X144649354Y-89839696D01*
X144629508Y-89964999D01*
X138265420Y-89964999D01*
X138285646Y-89925304D01*
X138305492Y-89800000D01*
X138305467Y-89799845D01*
X138299419Y-89761658D01*
X138285646Y-89674696D01*
X138228050Y-89561658D01*
X138138342Y-89471950D01*
X138125020Y-89465162D01*
X138025307Y-89414355D01*
X138025304Y-89414354D01*
X137900000Y-89394508D01*
X137774696Y-89414354D01*
X137774692Y-89414355D01*
X137661659Y-89471949D01*
X137571949Y-89561659D01*
X137514355Y-89674692D01*
X137514354Y-89674696D01*
X137494508Y-89799999D01*
X132160326Y-89799999D01*
X130924798Y-88564471D01*
X130897022Y-88509956D01*
X130890646Y-88469696D01*
X130833050Y-88356658D01*
X130743342Y-88266950D01*
X130704041Y-88246925D01*
X130630307Y-88209355D01*
X130630304Y-88209354D01*
X130505000Y-88189508D01*
X130379696Y-88209354D01*
X130379692Y-88209355D01*
X130266659Y-88266949D01*
X130176949Y-88356659D01*
X130119355Y-88469692D01*
X130119354Y-88469696D01*
X130099508Y-88594999D01*
X124100000Y-88594999D01*
X124100000Y-85300000D01*
X137394508Y-85300000D01*
X137407630Y-85382853D01*
X137414354Y-85425303D01*
X137414355Y-85425307D01*
X137434908Y-85465643D01*
X137471950Y-85538342D01*
X137561658Y-85628050D01*
X137674696Y-85685646D01*
X137800000Y-85705492D01*
X137925304Y-85685646D01*
X138038342Y-85628050D01*
X138128050Y-85538342D01*
X138185646Y-85425304D01*
X138205492Y-85300000D01*
X138185646Y-85174696D01*
X138128050Y-85061658D01*
X138038342Y-84971950D01*
X138027532Y-84966442D01*
X137925307Y-84914355D01*
X137925304Y-84914354D01*
X137800000Y-84894508D01*
X137674696Y-84914354D01*
X137674692Y-84914355D01*
X137561659Y-84971949D01*
X137471949Y-85061659D01*
X137414355Y-85174692D01*
X137414354Y-85174696D01*
X137394508Y-85300000D01*
X124100000Y-85300000D01*
X124100000Y-84210943D01*
X126159500Y-84210943D01*
X126159500Y-84369057D01*
X126200423Y-84521784D01*
X126279480Y-84658716D01*
X126391284Y-84770520D01*
X126528216Y-84849577D01*
X126680943Y-84890500D01*
X126680945Y-84890500D01*
X127439055Y-84890500D01*
X127439057Y-84890500D01*
X127591784Y-84849577D01*
X127728716Y-84770520D01*
X127840520Y-84658716D01*
X127919577Y-84521784D01*
X127960500Y-84369057D01*
X127960500Y-84210943D01*
X127919577Y-84058216D01*
X127840520Y-83921284D01*
X127770179Y-83850943D01*
X132109500Y-83850943D01*
X132109500Y-84009057D01*
X132150423Y-84161784D01*
X132229480Y-84298716D01*
X132341284Y-84410520D01*
X132478216Y-84489577D01*
X132630943Y-84530500D01*
X132630945Y-84530500D01*
X133389055Y-84530500D01*
X133389057Y-84530500D01*
X133541784Y-84489577D01*
X133610336Y-84449999D01*
X146394508Y-84449999D01*
X146394508Y-84450000D01*
X146414354Y-84575303D01*
X146414355Y-84575307D01*
X146456854Y-84658715D01*
X146471950Y-84688342D01*
X146561658Y-84778050D01*
X146599776Y-84797472D01*
X146625478Y-84810568D01*
X146668742Y-84853832D01*
X146671996Y-84860890D01*
X146674499Y-84866932D01*
X146674499Y-84866933D01*
X146694142Y-84914355D01*
X146698345Y-84924500D01*
X146698345Y-84924502D01*
X146716440Y-84968188D01*
X146716441Y-84968189D01*
X146716442Y-84968191D01*
X147404309Y-85656058D01*
X147404308Y-85656058D01*
X147453743Y-85705492D01*
X147481808Y-85733557D01*
X147583066Y-85775500D01*
X148282743Y-85775500D01*
X148340934Y-85794407D01*
X148352747Y-85804496D01*
X148767790Y-86219539D01*
X148795567Y-86274056D01*
X148785996Y-86334488D01*
X148742733Y-86377752D01*
X148711659Y-86393585D01*
X148621949Y-86483295D01*
X148564355Y-86596328D01*
X148564354Y-86596332D01*
X148544508Y-86721636D01*
X148561408Y-86828342D01*
X148564354Y-86846939D01*
X148564355Y-86846943D01*
X148619944Y-86956042D01*
X148621950Y-86959978D01*
X148711658Y-87049686D01*
X148824696Y-87107282D01*
X148950000Y-87127128D01*
X149075304Y-87107282D01*
X149188342Y-87049686D01*
X149188348Y-87049679D01*
X149191810Y-87047166D01*
X149250000Y-87028259D01*
X149308190Y-87047166D01*
X149311654Y-87049682D01*
X149311658Y-87049686D01*
X149424696Y-87107282D01*
X149550000Y-87127128D01*
X149675304Y-87107282D01*
X149788342Y-87049686D01*
X149878050Y-86959978D01*
X149935646Y-86846940D01*
X149955492Y-86721636D01*
X149935646Y-86596332D01*
X149878050Y-86483294D01*
X149788342Y-86393586D01*
X149788339Y-86393584D01*
X149788337Y-86393583D01*
X149729556Y-86363632D01*
X149686291Y-86320368D01*
X149675501Y-86275423D01*
X149675501Y-85983067D01*
X149661804Y-85950000D01*
X149633558Y-85881809D01*
X149633554Y-85881805D01*
X149556059Y-85804309D01*
X149556059Y-85804310D01*
X148718192Y-84966443D01*
X148708673Y-84962500D01*
X148616934Y-84924500D01*
X148616933Y-84924500D01*
X147917257Y-84924500D01*
X147859066Y-84905593D01*
X147847254Y-84895504D01*
X147801326Y-84849576D01*
X147749220Y-84797471D01*
X147721443Y-84742956D01*
X147731013Y-84682525D01*
X147785646Y-84575304D01*
X147805492Y-84450000D01*
X147785646Y-84324696D01*
X147728050Y-84211658D01*
X147638342Y-84121950D01*
X147569504Y-84086875D01*
X147525307Y-84064355D01*
X147525304Y-84064354D01*
X147400000Y-84044508D01*
X147274696Y-84064354D01*
X147274692Y-84064355D01*
X147161656Y-84121950D01*
X147158185Y-84124473D01*
X147099993Y-84143376D01*
X147041815Y-84124473D01*
X147038343Y-84121950D01*
X146925307Y-84064355D01*
X146925304Y-84064354D01*
X146800000Y-84044508D01*
X146674696Y-84064354D01*
X146674692Y-84064355D01*
X146561659Y-84121949D01*
X146471949Y-84211659D01*
X146414355Y-84324692D01*
X146414354Y-84324696D01*
X146394508Y-84449999D01*
X133610336Y-84449999D01*
X133678716Y-84410520D01*
X133790520Y-84298716D01*
X133869577Y-84161784D01*
X133889649Y-84086872D01*
X133922972Y-84035561D01*
X133980093Y-84013634D01*
X134034772Y-84026760D01*
X134057164Y-84039688D01*
X134190817Y-84075500D01*
X134190819Y-84075500D01*
X134329181Y-84075500D01*
X134329183Y-84075500D01*
X134462836Y-84039688D01*
X134582665Y-83970505D01*
X134680505Y-83872665D01*
X134749688Y-83752836D01*
X134785500Y-83619183D01*
X134785500Y-83180817D01*
X134749688Y-83047164D01*
X134680505Y-82927335D01*
X134582665Y-82829495D01*
X134462836Y-82760312D01*
X134329183Y-82724500D01*
X134190817Y-82724500D01*
X134057164Y-82760312D01*
X133937335Y-82829495D01*
X133839495Y-82927335D01*
X133770312Y-83047164D01*
X133758350Y-83091809D01*
X133734500Y-83180818D01*
X133734500Y-83310214D01*
X133715593Y-83368405D01*
X133666093Y-83404369D01*
X133604907Y-83404369D01*
X133586001Y-83395951D01*
X133541785Y-83370423D01*
X133490875Y-83356782D01*
X133389057Y-83329500D01*
X132630943Y-83329500D01*
X132478216Y-83370423D01*
X132341284Y-83449480D01*
X132229480Y-83561284D01*
X132150423Y-83698216D01*
X132109500Y-83850943D01*
X127770179Y-83850943D01*
X127728716Y-83809480D01*
X127591784Y-83730423D01*
X127439057Y-83689500D01*
X126680943Y-83689500D01*
X126528216Y-83730423D01*
X126391284Y-83809480D01*
X126279480Y-83921284D01*
X126200423Y-84058216D01*
X126159500Y-84210943D01*
X124100000Y-84210943D01*
X124100000Y-81800000D01*
X131094508Y-81800000D01*
X131105903Y-81871949D01*
X131114354Y-81925303D01*
X131114355Y-81925307D01*
X131171950Y-82038343D01*
X131174473Y-82041815D01*
X131193376Y-82100007D01*
X131174473Y-82158185D01*
X131171950Y-82161656D01*
X131114355Y-82274692D01*
X131114354Y-82274696D01*
X131106339Y-82325304D01*
X131094508Y-82400000D01*
X131113822Y-82521948D01*
X131114354Y-82525303D01*
X131114355Y-82525307D01*
X131141997Y-82579556D01*
X131171950Y-82638342D01*
X131261658Y-82728050D01*
X131374696Y-82785646D01*
X131500000Y-82805492D01*
X131625304Y-82785646D01*
X131738342Y-82728050D01*
X131828050Y-82638342D01*
X131847604Y-82599966D01*
X131858004Y-82579556D01*
X131901268Y-82536291D01*
X131946213Y-82525501D01*
X137253787Y-82525501D01*
X137311978Y-82544408D01*
X137341996Y-82579556D01*
X137358354Y-82611659D01*
X137371950Y-82638342D01*
X137461658Y-82728050D01*
X137574696Y-82785646D01*
X137700000Y-82805492D01*
X137825304Y-82785646D01*
X137938342Y-82728050D01*
X138028050Y-82638342D01*
X138085646Y-82525304D01*
X138105492Y-82400000D01*
X138085646Y-82274696D01*
X138028050Y-82161658D01*
X138028046Y-82161654D01*
X138025530Y-82158190D01*
X138006623Y-82100000D01*
X138025530Y-82041810D01*
X138028043Y-82038348D01*
X138028050Y-82038342D01*
X138085646Y-81925304D01*
X138105492Y-81800000D01*
X138085646Y-81674696D01*
X138028050Y-81561658D01*
X137938342Y-81471950D01*
X137872383Y-81438342D01*
X137825307Y-81414355D01*
X137825304Y-81414354D01*
X137700000Y-81394508D01*
X137574696Y-81414354D01*
X137574692Y-81414355D01*
X137461659Y-81471949D01*
X137371948Y-81561660D01*
X137371947Y-81561662D01*
X137341996Y-81620444D01*
X137298732Y-81663709D01*
X137253787Y-81674499D01*
X131946213Y-81674499D01*
X131888022Y-81655592D01*
X131858004Y-81620444D01*
X131828052Y-81561662D01*
X131828051Y-81561660D01*
X131828050Y-81561658D01*
X131738342Y-81471950D01*
X131672383Y-81438342D01*
X131625307Y-81414355D01*
X131625304Y-81414354D01*
X131500000Y-81394508D01*
X131374696Y-81414354D01*
X131374692Y-81414355D01*
X131261659Y-81471949D01*
X131171949Y-81561659D01*
X131114355Y-81674692D01*
X131114354Y-81674696D01*
X131094508Y-81800000D01*
X124100000Y-81800000D01*
X124100000Y-79099999D01*
X131994508Y-79099999D01*
X131994508Y-79100000D01*
X132014354Y-79225303D01*
X132014355Y-79225307D01*
X132071950Y-79338343D01*
X132074473Y-79341815D01*
X132093376Y-79400007D01*
X132074473Y-79458185D01*
X132071950Y-79461656D01*
X132014355Y-79574692D01*
X132014354Y-79574696D01*
X131994508Y-79699999D01*
X131994508Y-79700000D01*
X132014354Y-79825303D01*
X132014355Y-79825307D01*
X132065407Y-79925500D01*
X132071950Y-79938342D01*
X132161658Y-80028050D01*
X132274696Y-80085646D01*
X132400000Y-80105492D01*
X132525304Y-80085646D01*
X132638342Y-80028050D01*
X132711897Y-79954494D01*
X132766412Y-79926719D01*
X132781899Y-79925500D01*
X133628820Y-79925500D01*
X133687011Y-79944407D01*
X133722975Y-79993907D01*
X133722975Y-80055093D01*
X133717029Y-80069447D01*
X133714354Y-80074695D01*
X133714354Y-80074696D01*
X133694508Y-80199999D01*
X133694508Y-80200000D01*
X133714354Y-80325303D01*
X133714355Y-80325307D01*
X133769944Y-80434406D01*
X133771950Y-80438342D01*
X133813606Y-80479998D01*
X133841382Y-80534513D01*
X133831811Y-80594945D01*
X133813605Y-80620004D01*
X133811659Y-80621948D01*
X133811658Y-80621950D01*
X133758108Y-80675500D01*
X133721949Y-80711659D01*
X133664355Y-80824692D01*
X133664354Y-80824696D01*
X133644508Y-80949999D01*
X133644508Y-80950000D01*
X133664354Y-81075303D01*
X133664355Y-81075307D01*
X133719944Y-81184406D01*
X133721950Y-81188342D01*
X133811658Y-81278050D01*
X133924696Y-81335646D01*
X134050000Y-81355492D01*
X134175304Y-81335646D01*
X134288342Y-81278050D01*
X134378050Y-81188342D01*
X134435646Y-81075304D01*
X134455492Y-80950000D01*
X134435646Y-80824696D01*
X134432970Y-80819445D01*
X134423398Y-80759015D01*
X134451175Y-80704498D01*
X134505691Y-80676719D01*
X134521180Y-80675500D01*
X141844877Y-80675500D01*
X141903068Y-80694407D01*
X141914881Y-80704496D01*
X143774683Y-82564298D01*
X143802460Y-82618815D01*
X143802460Y-82649788D01*
X143794508Y-82699998D01*
X143794508Y-82700001D01*
X143808592Y-82788925D01*
X143799021Y-82849357D01*
X143755756Y-82892622D01*
X143695324Y-82902193D01*
X143644731Y-82876415D01*
X143644647Y-82876531D01*
X143643916Y-82876000D01*
X143640809Y-82874417D01*
X143638342Y-82871950D01*
X143556594Y-82830297D01*
X143525307Y-82814355D01*
X143525304Y-82814354D01*
X143400000Y-82794508D01*
X143274696Y-82814354D01*
X143274692Y-82814355D01*
X143161659Y-82871949D01*
X143071949Y-82961659D01*
X143014355Y-83074692D01*
X143014354Y-83074696D01*
X142994508Y-83199999D01*
X142994508Y-83200000D01*
X143014354Y-83325303D01*
X143014355Y-83325307D01*
X143054640Y-83404369D01*
X143071950Y-83438342D01*
X143161658Y-83528050D01*
X143274696Y-83585646D01*
X143400000Y-83605492D01*
X143525304Y-83585646D01*
X143638342Y-83528050D01*
X143728050Y-83438342D01*
X143785646Y-83325304D01*
X143805492Y-83200000D01*
X143791407Y-83111072D01*
X143800978Y-83050642D01*
X143844242Y-83007378D01*
X143904674Y-82997806D01*
X143955268Y-83023584D01*
X143955353Y-83023469D01*
X143956083Y-83023999D01*
X143959191Y-83025583D01*
X143961658Y-83028050D01*
X144074696Y-83085646D01*
X144200000Y-83105492D01*
X144325304Y-83085646D01*
X144438342Y-83028050D01*
X144528050Y-82938342D01*
X144554127Y-82887163D01*
X144570334Y-82855356D01*
X144613598Y-82812091D01*
X144674030Y-82802520D01*
X144728547Y-82830297D01*
X145431808Y-83533558D01*
X145431809Y-83533558D01*
X145431810Y-83533559D01*
X145533064Y-83575500D01*
X145533066Y-83575500D01*
X145642666Y-83575500D01*
X150103786Y-83575500D01*
X150161977Y-83594407D01*
X150191995Y-83629555D01*
X150221946Y-83688336D01*
X150221949Y-83688341D01*
X150311657Y-83778049D01*
X150424695Y-83835645D01*
X150549999Y-83855491D01*
X150675303Y-83835645D01*
X150788341Y-83778049D01*
X150878049Y-83688341D01*
X150935645Y-83575303D01*
X150955491Y-83449999D01*
X150935645Y-83324695D01*
X150878049Y-83211657D01*
X150878045Y-83211653D01*
X150875529Y-83208189D01*
X150856622Y-83149999D01*
X150875529Y-83091809D01*
X150878042Y-83088347D01*
X150878049Y-83088341D01*
X150935645Y-82975303D01*
X150955491Y-82849999D01*
X150935645Y-82724695D01*
X150878049Y-82611657D01*
X150788341Y-82521949D01*
X150784405Y-82519943D01*
X150675306Y-82464354D01*
X150675303Y-82464353D01*
X150549999Y-82444507D01*
X150424695Y-82464353D01*
X150424691Y-82464354D01*
X150311658Y-82521948D01*
X150221947Y-82611659D01*
X150221946Y-82611661D01*
X150191995Y-82670443D01*
X150148731Y-82713708D01*
X150103786Y-82724498D01*
X145867256Y-82724498D01*
X145809065Y-82705591D01*
X145797252Y-82695502D01*
X145301749Y-82199999D01*
X155434508Y-82199999D01*
X155434508Y-82200000D01*
X155454354Y-82325303D01*
X155454355Y-82325307D01*
X155477233Y-82370208D01*
X155503709Y-82422169D01*
X155514500Y-82467113D01*
X155514500Y-85297147D01*
X155514500Y-85382853D01*
X155534062Y-85455863D01*
X155536683Y-85465643D01*
X155579531Y-85539857D01*
X155579532Y-85539858D01*
X155579533Y-85539859D01*
X155579535Y-85539862D01*
X156957723Y-86918050D01*
X158232082Y-88192409D01*
X158259859Y-88246925D01*
X158264354Y-88275305D01*
X158305806Y-88356658D01*
X158321950Y-88388342D01*
X158411658Y-88478050D01*
X158524696Y-88535646D01*
X158650000Y-88555492D01*
X158775304Y-88535646D01*
X158888342Y-88478050D01*
X158978050Y-88388342D01*
X159035646Y-88275304D01*
X159055492Y-88150000D01*
X159035646Y-88024696D01*
X158978050Y-87911658D01*
X158888342Y-87821950D01*
X158775304Y-87764354D01*
X158775305Y-87764354D01*
X158746925Y-87759859D01*
X158692409Y-87732082D01*
X157550326Y-86589999D01*
X158494508Y-86589999D01*
X158494508Y-86590000D01*
X158514354Y-86715303D01*
X158514355Y-86715307D01*
X158517580Y-86721636D01*
X158571950Y-86828342D01*
X158661658Y-86918050D01*
X158774696Y-86975646D01*
X158900000Y-86995492D01*
X159025304Y-86975646D01*
X159138342Y-86918050D01*
X159228050Y-86828342D01*
X159285646Y-86715304D01*
X159305492Y-86590000D01*
X159285646Y-86464696D01*
X159228050Y-86351658D01*
X159138342Y-86261950D01*
X159134406Y-86259944D01*
X159025307Y-86204355D01*
X159025304Y-86204354D01*
X158900000Y-86184508D01*
X158774696Y-86204354D01*
X158774692Y-86204355D01*
X158661659Y-86261949D01*
X158571949Y-86351659D01*
X158514355Y-86464692D01*
X158514354Y-86464696D01*
X158494508Y-86589999D01*
X157550326Y-86589999D01*
X156910326Y-85949999D01*
X159494508Y-85949999D01*
X159494508Y-85950000D01*
X159514354Y-86075303D01*
X159514355Y-86075307D01*
X159569944Y-86184406D01*
X159571950Y-86188342D01*
X159661658Y-86278050D01*
X159774696Y-86335646D01*
X159900000Y-86355492D01*
X160025304Y-86335646D01*
X160138342Y-86278050D01*
X160228050Y-86188342D01*
X160285646Y-86075304D01*
X160305492Y-85950000D01*
X160305492Y-85949999D01*
X161894508Y-85949999D01*
X161894508Y-85950000D01*
X161914354Y-86075303D01*
X161914355Y-86075307D01*
X161969944Y-86184406D01*
X161971950Y-86188342D01*
X162061658Y-86278050D01*
X162174696Y-86335646D01*
X162300000Y-86355492D01*
X162425304Y-86335646D01*
X162538342Y-86278050D01*
X162628050Y-86188342D01*
X162685646Y-86075304D01*
X162705492Y-85950000D01*
X162685646Y-85824696D01*
X162628050Y-85711658D01*
X162538342Y-85621950D01*
X162534406Y-85619944D01*
X162425307Y-85564355D01*
X162425304Y-85564354D01*
X162300000Y-85544508D01*
X162174696Y-85564354D01*
X162174692Y-85564355D01*
X162061659Y-85621949D01*
X161971949Y-85711659D01*
X161914355Y-85824692D01*
X161914354Y-85824696D01*
X161894508Y-85949999D01*
X160305492Y-85949999D01*
X160285646Y-85824696D01*
X160228050Y-85711658D01*
X160138342Y-85621950D01*
X160134406Y-85619944D01*
X160025307Y-85564355D01*
X160025304Y-85564354D01*
X159900000Y-85544508D01*
X159774696Y-85564354D01*
X159774692Y-85564355D01*
X159661659Y-85621949D01*
X159571949Y-85711659D01*
X159514355Y-85824692D01*
X159514354Y-85824696D01*
X159494508Y-85949999D01*
X156910326Y-85949999D01*
X156194496Y-85234169D01*
X156166719Y-85179652D01*
X156165500Y-85164165D01*
X156165500Y-82467113D01*
X156176290Y-82422169D01*
X156207967Y-82360000D01*
X158494508Y-82360000D01*
X158507892Y-82444507D01*
X158514354Y-82485303D01*
X158514355Y-82485307D01*
X158562378Y-82579556D01*
X158571950Y-82598342D01*
X158661658Y-82688050D01*
X158774696Y-82745646D01*
X158900000Y-82765492D01*
X159025304Y-82745646D01*
X159138342Y-82688050D01*
X159228050Y-82598342D01*
X159285646Y-82485304D01*
X159305492Y-82360000D01*
X159285646Y-82234696D01*
X159228050Y-82121658D01*
X159138342Y-82031950D01*
X159134406Y-82029944D01*
X159025307Y-81974355D01*
X159025304Y-81974354D01*
X158900000Y-81954508D01*
X158774696Y-81974354D01*
X158774692Y-81974355D01*
X158661659Y-82031949D01*
X158571949Y-82121659D01*
X158514355Y-82234692D01*
X158514354Y-82234696D01*
X158494508Y-82360000D01*
X156207967Y-82360000D01*
X156225646Y-82325304D01*
X156245492Y-82200000D01*
X156225646Y-82074696D01*
X156168050Y-81961658D01*
X156078342Y-81871950D01*
X156074406Y-81869944D01*
X155965307Y-81814355D01*
X155965304Y-81814354D01*
X155840000Y-81794508D01*
X155714696Y-81814354D01*
X155714692Y-81814355D01*
X155601659Y-81871949D01*
X155511949Y-81961659D01*
X155454355Y-82074692D01*
X155454354Y-82074696D01*
X155434508Y-82199999D01*
X145301749Y-82199999D01*
X144857314Y-81755564D01*
X144829537Y-81701047D01*
X144839108Y-81640615D01*
X144882373Y-81597350D01*
X144911825Y-81587780D01*
X144925304Y-81585646D01*
X145038342Y-81528050D01*
X145128050Y-81438342D01*
X145185646Y-81325304D01*
X145205492Y-81200000D01*
X145185646Y-81074696D01*
X145128050Y-80961658D01*
X145038342Y-80871950D01*
X145005280Y-80855104D01*
X144925307Y-80814355D01*
X144925304Y-80814354D01*
X144800000Y-80794508D01*
X144674696Y-80814354D01*
X144674690Y-80814356D01*
X144658804Y-80822450D01*
X144598372Y-80832020D01*
X144543858Y-80804243D01*
X143439614Y-79699999D01*
X143389614Y-79649999D01*
X152394508Y-79649999D01*
X152394508Y-79650000D01*
X152414354Y-79775303D01*
X152414355Y-79775307D01*
X152439830Y-79825303D01*
X152471950Y-79888342D01*
X152561658Y-79978050D01*
X152674696Y-80035646D01*
X152800000Y-80055492D01*
X152925304Y-80035646D01*
X153038342Y-79978050D01*
X153128050Y-79888342D01*
X153185646Y-79775304D01*
X153205492Y-79650000D01*
X153185646Y-79524696D01*
X153128050Y-79411658D01*
X153038342Y-79321950D01*
X153034406Y-79319944D01*
X152925307Y-79264355D01*
X152925304Y-79264354D01*
X152800000Y-79244508D01*
X152674696Y-79264354D01*
X152674692Y-79264355D01*
X152561659Y-79321949D01*
X152471949Y-79411659D01*
X152414355Y-79524692D01*
X152414354Y-79524696D01*
X152394508Y-79649999D01*
X143389614Y-79649999D01*
X142939614Y-79199999D01*
X144394508Y-79199999D01*
X144394508Y-79200000D01*
X144414354Y-79325303D01*
X144414355Y-79325307D01*
X144452414Y-79400000D01*
X144471950Y-79438342D01*
X144561658Y-79528050D01*
X144674696Y-79585646D01*
X144800000Y-79605492D01*
X144925304Y-79585646D01*
X145038342Y-79528050D01*
X145128050Y-79438342D01*
X145185646Y-79325304D01*
X145205492Y-79200000D01*
X145185646Y-79074696D01*
X145128050Y-78961658D01*
X145038342Y-78871950D01*
X145018143Y-78861658D01*
X144925307Y-78814355D01*
X144925304Y-78814354D01*
X144800000Y-78794508D01*
X144674696Y-78814354D01*
X144674692Y-78814355D01*
X144561659Y-78871949D01*
X144471949Y-78961659D01*
X144414355Y-79074692D01*
X144414354Y-79074696D01*
X144394508Y-79199999D01*
X142939614Y-79199999D01*
X142306058Y-78566443D01*
X142204800Y-78524500D01*
X142204799Y-78524500D01*
X136130987Y-78524500D01*
X136072796Y-78505593D01*
X136058964Y-78491762D01*
X136058559Y-78492168D01*
X136053051Y-78486660D01*
X136053050Y-78486658D01*
X135963342Y-78396950D01*
X135959406Y-78394944D01*
X135850307Y-78339355D01*
X135850304Y-78339354D01*
X135725000Y-78319508D01*
X135599696Y-78339354D01*
X135599692Y-78339355D01*
X135486659Y-78396949D01*
X135396949Y-78486659D01*
X135339355Y-78599692D01*
X135339354Y-78599696D01*
X135319508Y-78724999D01*
X135319508Y-78725000D01*
X135339354Y-78850303D01*
X135339355Y-78850307D01*
X135380244Y-78930554D01*
X135389816Y-78990986D01*
X135362039Y-79045503D01*
X135307523Y-79073281D01*
X135292035Y-79074500D01*
X132886007Y-79074500D01*
X132827816Y-79055593D01*
X132791852Y-79006093D01*
X132788226Y-78990987D01*
X132788226Y-78990986D01*
X132785646Y-78974696D01*
X132728050Y-78861658D01*
X132638342Y-78771950D01*
X132634406Y-78769944D01*
X132525307Y-78714355D01*
X132525304Y-78714354D01*
X132400000Y-78694508D01*
X132274696Y-78714354D01*
X132274692Y-78714355D01*
X132161659Y-78771949D01*
X132071949Y-78861659D01*
X132014355Y-78974692D01*
X132014354Y-78974696D01*
X131994508Y-79099999D01*
X124100000Y-79099999D01*
X124100000Y-76600000D01*
X130894508Y-76600000D01*
X130897755Y-76620504D01*
X130914354Y-76725303D01*
X130914355Y-76725307D01*
X130971950Y-76838343D01*
X130974473Y-76841815D01*
X130993376Y-76900007D01*
X130974473Y-76958185D01*
X130971950Y-76961656D01*
X130914355Y-77074692D01*
X130914354Y-77074696D01*
X130894508Y-77199999D01*
X130894508Y-77200000D01*
X130914354Y-77325303D01*
X130914355Y-77325307D01*
X130969944Y-77434406D01*
X130971950Y-77438342D01*
X131061658Y-77528050D01*
X131174696Y-77585646D01*
X131300000Y-77605492D01*
X131425304Y-77585646D01*
X131538342Y-77528050D01*
X131628050Y-77438342D01*
X131653528Y-77388340D01*
X131658004Y-77379556D01*
X131701268Y-77336291D01*
X131746213Y-77325501D01*
X131882744Y-77325501D01*
X131940935Y-77344408D01*
X131952747Y-77354496D01*
X132531809Y-77933559D01*
X132531810Y-77933559D01*
X132531811Y-77933560D01*
X132633065Y-77975501D01*
X133719100Y-77975501D01*
X133777291Y-77994408D01*
X133813255Y-78043908D01*
X133813255Y-78105094D01*
X133789105Y-78144502D01*
X133771950Y-78161658D01*
X133771949Y-78161659D01*
X133714355Y-78274692D01*
X133714354Y-78274696D01*
X133694508Y-78399999D01*
X133694508Y-78400000D01*
X133714354Y-78525303D01*
X133714355Y-78525307D01*
X133735315Y-78566443D01*
X133771950Y-78638342D01*
X133861658Y-78728050D01*
X133974696Y-78785646D01*
X134100000Y-78805492D01*
X134225304Y-78785646D01*
X134338342Y-78728050D01*
X134428050Y-78638342D01*
X134485646Y-78525304D01*
X134505492Y-78400000D01*
X134485646Y-78274696D01*
X134428050Y-78161658D01*
X134410894Y-78144502D01*
X134383119Y-78089988D01*
X134392690Y-78029556D01*
X134435955Y-77986291D01*
X134480900Y-77975501D01*
X139166931Y-77975501D01*
X139166932Y-77975501D01*
X139268190Y-77933558D01*
X139345689Y-77856059D01*
X139345688Y-77856059D01*
X140081392Y-77120355D01*
X140135908Y-77092579D01*
X140181991Y-77096206D01*
X140186821Y-77097775D01*
X140186829Y-77097779D01*
X140287072Y-77113655D01*
X140312132Y-77117625D01*
X140312132Y-77117624D01*
X140312133Y-77117625D01*
X140437437Y-77097779D01*
X140550475Y-77040183D01*
X140640183Y-76950475D01*
X140697779Y-76837437D01*
X140717625Y-76712133D01*
X140697779Y-76586829D01*
X140640183Y-76473791D01*
X140550475Y-76384083D01*
X140460704Y-76338342D01*
X140437440Y-76326488D01*
X140437437Y-76326487D01*
X140422811Y-76324170D01*
X140366966Y-76315325D01*
X140312450Y-76287547D01*
X140284674Y-76233032D01*
X140273513Y-76162563D01*
X140241635Y-76100000D01*
X144594508Y-76100000D01*
X144609476Y-76194508D01*
X144614354Y-76225303D01*
X144614355Y-76225307D01*
X144655797Y-76306641D01*
X144671950Y-76338342D01*
X144761658Y-76428050D01*
X144874696Y-76485646D01*
X145000000Y-76505492D01*
X145125304Y-76485646D01*
X145238342Y-76428050D01*
X145328050Y-76338342D01*
X145385646Y-76225304D01*
X145389654Y-76200000D01*
X145694508Y-76200000D01*
X145712773Y-76315325D01*
X145714354Y-76325303D01*
X145714355Y-76325307D01*
X145771950Y-76438343D01*
X145774473Y-76441815D01*
X145793376Y-76500007D01*
X145774473Y-76558185D01*
X145771950Y-76561656D01*
X145714355Y-76674692D01*
X145714354Y-76674696D01*
X145696355Y-76788341D01*
X145694508Y-76800000D01*
X145712192Y-76911656D01*
X145714354Y-76925303D01*
X145714355Y-76925307D01*
X145732876Y-76961656D01*
X145771950Y-77038342D01*
X145861658Y-77128050D01*
X145974696Y-77185646D01*
X146100000Y-77205492D01*
X146225304Y-77185646D01*
X146338342Y-77128050D01*
X146428050Y-77038342D01*
X146485646Y-76925304D01*
X146505492Y-76800000D01*
X146485646Y-76674696D01*
X146428050Y-76561658D01*
X146428046Y-76561654D01*
X146425530Y-76558190D01*
X146422869Y-76549999D01*
X151794508Y-76549999D01*
X151794508Y-76550000D01*
X151814354Y-76675303D01*
X151814355Y-76675307D01*
X151871950Y-76788343D01*
X151874473Y-76791815D01*
X151893376Y-76850007D01*
X151874473Y-76908185D01*
X151871950Y-76911656D01*
X151814355Y-77024692D01*
X151814354Y-77024696D01*
X151794508Y-77149999D01*
X151794508Y-77150000D01*
X151814354Y-77275303D01*
X151814355Y-77275307D01*
X151849564Y-77344408D01*
X151871950Y-77388342D01*
X151961658Y-77478050D01*
X152074696Y-77535646D01*
X152200000Y-77555492D01*
X152325304Y-77535646D01*
X152438342Y-77478050D01*
X152528050Y-77388342D01*
X152585646Y-77275304D01*
X152605492Y-77150000D01*
X152585646Y-77024696D01*
X152528050Y-76911658D01*
X152528046Y-76911654D01*
X152525530Y-76908190D01*
X152506623Y-76850000D01*
X152525530Y-76791810D01*
X152528043Y-76788348D01*
X152528050Y-76788342D01*
X152585646Y-76675304D01*
X152605492Y-76550000D01*
X152585646Y-76424696D01*
X152583479Y-76420444D01*
X152574507Y-76402835D01*
X152528050Y-76311658D01*
X152438342Y-76221950D01*
X152434406Y-76219944D01*
X152325307Y-76164355D01*
X152325304Y-76164354D01*
X152200000Y-76144508D01*
X152074696Y-76164354D01*
X152074692Y-76164355D01*
X151961659Y-76221949D01*
X151871949Y-76311659D01*
X151814355Y-76424692D01*
X151814354Y-76424696D01*
X151794508Y-76549999D01*
X146422869Y-76549999D01*
X146406623Y-76500000D01*
X146425530Y-76441810D01*
X146428043Y-76438348D01*
X146428050Y-76438342D01*
X146485646Y-76325304D01*
X146505492Y-76200000D01*
X146485646Y-76074696D01*
X146428050Y-75961658D01*
X146338342Y-75871950D01*
X146318143Y-75861658D01*
X146225307Y-75814355D01*
X146225304Y-75814354D01*
X146100000Y-75794508D01*
X145974696Y-75814354D01*
X145974692Y-75814355D01*
X145861659Y-75871949D01*
X145771949Y-75961659D01*
X145714355Y-76074692D01*
X145714354Y-76074696D01*
X145700154Y-76164355D01*
X145694508Y-76200000D01*
X145389654Y-76200000D01*
X145405492Y-76100000D01*
X145385646Y-75974696D01*
X145328050Y-75861658D01*
X145238342Y-75771950D01*
X145234406Y-75769944D01*
X145125307Y-75714355D01*
X145125304Y-75714354D01*
X145000000Y-75694508D01*
X144874696Y-75714354D01*
X144874692Y-75714355D01*
X144761659Y-75771949D01*
X144671949Y-75861659D01*
X144614355Y-75974692D01*
X144614354Y-75974696D01*
X144599501Y-76068478D01*
X144594508Y-76100000D01*
X140241635Y-76100000D01*
X140215917Y-76049525D01*
X140126209Y-75959817D01*
X140032923Y-75912285D01*
X140013174Y-75902222D01*
X140013171Y-75902221D01*
X139887867Y-75882375D01*
X139762563Y-75902221D01*
X139762559Y-75902222D01*
X139649526Y-75959816D01*
X139559816Y-76049526D01*
X139502222Y-76162559D01*
X139502221Y-76162563D01*
X139485126Y-76270500D01*
X139482375Y-76287867D01*
X139485348Y-76306641D01*
X139502221Y-76413170D01*
X139503795Y-76418015D01*
X139503792Y-76479201D01*
X139479642Y-76518607D01*
X139040067Y-76958185D01*
X138902750Y-77095502D01*
X138848233Y-77123280D01*
X138832746Y-77124499D01*
X132967257Y-77124499D01*
X132909066Y-77105592D01*
X132897254Y-77095503D01*
X132318190Y-76516441D01*
X132309653Y-76512905D01*
X132309652Y-76512905D01*
X132216933Y-76474499D01*
X132216932Y-76474499D01*
X131746213Y-76474499D01*
X131688022Y-76455592D01*
X131658004Y-76420444D01*
X131628052Y-76361662D01*
X131628051Y-76361660D01*
X131628050Y-76361658D01*
X131538342Y-76271950D01*
X131455179Y-76229576D01*
X131425307Y-76214355D01*
X131425304Y-76214354D01*
X131300000Y-76194508D01*
X131174696Y-76214354D01*
X131174692Y-76214355D01*
X131061659Y-76271949D01*
X130971949Y-76361659D01*
X130914355Y-76474692D01*
X130914354Y-76474696D01*
X130906757Y-76522665D01*
X130894508Y-76600000D01*
X124100000Y-76600000D01*
X124100000Y-75230943D01*
X126159500Y-75230943D01*
X126159500Y-75389057D01*
X126200423Y-75541784D01*
X126279480Y-75678716D01*
X126391284Y-75790520D01*
X126528216Y-75869577D01*
X126680943Y-75910500D01*
X126680945Y-75910500D01*
X127439055Y-75910500D01*
X127439057Y-75910500D01*
X127591784Y-75869577D01*
X127728716Y-75790520D01*
X127840520Y-75678716D01*
X127891195Y-75590943D01*
X132109500Y-75590943D01*
X132109500Y-75749057D01*
X132150423Y-75901784D01*
X132229480Y-76038716D01*
X132341284Y-76150520D01*
X132478216Y-76229577D01*
X132630943Y-76270500D01*
X132630945Y-76270500D01*
X133389055Y-76270500D01*
X133389057Y-76270500D01*
X133541784Y-76229577D01*
X133587756Y-76203034D01*
X133647604Y-76190313D01*
X133703500Y-76215199D01*
X133732883Y-76263148D01*
X133734500Y-76269181D01*
X133734500Y-76269183D01*
X133770312Y-76402836D01*
X133839495Y-76522665D01*
X133937335Y-76620505D01*
X134057164Y-76689688D01*
X134190817Y-76725500D01*
X134190819Y-76725500D01*
X134329181Y-76725500D01*
X134329183Y-76725500D01*
X134462836Y-76689688D01*
X134582665Y-76620505D01*
X134680505Y-76522665D01*
X134749688Y-76402836D01*
X134785500Y-76269183D01*
X134785500Y-76130817D01*
X134749688Y-75997164D01*
X134680505Y-75877335D01*
X134582665Y-75779495D01*
X134462836Y-75710312D01*
X134329183Y-75674500D01*
X134190817Y-75674500D01*
X134057164Y-75710312D01*
X134057163Y-75710312D01*
X134057161Y-75710313D01*
X134051170Y-75712795D01*
X134050455Y-75711070D01*
X133999138Y-75721971D01*
X133943246Y-75697077D01*
X133912661Y-75644085D01*
X133910500Y-75623515D01*
X133910500Y-75590944D01*
X133910500Y-75590943D01*
X133869577Y-75438216D01*
X133790520Y-75301284D01*
X133751735Y-75262499D01*
X147407008Y-75262499D01*
X147407008Y-75262500D01*
X147426854Y-75387803D01*
X147426855Y-75387807D01*
X147427491Y-75389055D01*
X147484450Y-75500842D01*
X147574158Y-75590550D01*
X147687196Y-75648146D01*
X147812500Y-75667992D01*
X147937804Y-75648146D01*
X148050842Y-75590550D01*
X148140550Y-75500842D01*
X148198146Y-75387804D01*
X148217992Y-75262500D01*
X148198146Y-75137196D01*
X148140550Y-75024158D01*
X148050842Y-74934450D01*
X148046906Y-74932444D01*
X147937807Y-74876855D01*
X147937804Y-74876854D01*
X147812500Y-74857008D01*
X147687196Y-74876854D01*
X147687192Y-74876855D01*
X147574159Y-74934449D01*
X147484449Y-75024159D01*
X147426855Y-75137192D01*
X147426854Y-75137196D01*
X147407008Y-75262499D01*
X133751735Y-75262499D01*
X133678716Y-75189480D01*
X133541784Y-75110423D01*
X133389057Y-75069500D01*
X132630943Y-75069500D01*
X132478216Y-75110423D01*
X132341284Y-75189480D01*
X132229480Y-75301284D01*
X132150423Y-75438216D01*
X132109500Y-75590943D01*
X127891195Y-75590943D01*
X127919577Y-75541784D01*
X127960500Y-75389057D01*
X127960500Y-75230943D01*
X127919577Y-75078216D01*
X127840520Y-74941284D01*
X127728716Y-74829480D01*
X127591784Y-74750423D01*
X127439057Y-74709500D01*
X126680943Y-74709500D01*
X126528216Y-74750423D01*
X126391284Y-74829480D01*
X126279480Y-74941284D01*
X126200423Y-75078216D01*
X126159500Y-75230943D01*
X124100000Y-75230943D01*
X124100000Y-74697644D01*
X153399500Y-74697644D01*
X153399500Y-74902355D01*
X153431521Y-75104529D01*
X153494780Y-75299219D01*
X153587712Y-75481609D01*
X153587714Y-75481613D01*
X153708029Y-75647213D01*
X153708031Y-75647215D01*
X153708034Y-75647219D01*
X153852781Y-75791966D01*
X153852784Y-75791968D01*
X153852786Y-75791970D01*
X154018386Y-75912285D01*
X154018390Y-75912287D01*
X154200781Y-76005220D01*
X154395466Y-76068477D01*
X154395467Y-76068477D01*
X154395470Y-76068478D01*
X154597645Y-76100500D01*
X154597648Y-76100500D01*
X154802355Y-76100500D01*
X155004529Y-76068478D01*
X155004530Y-76068477D01*
X155004534Y-76068477D01*
X155199219Y-76005220D01*
X155381610Y-75912287D01*
X155395464Y-75902222D01*
X155547213Y-75791970D01*
X155547219Y-75791966D01*
X155691966Y-75647219D01*
X155812287Y-75481610D01*
X155905220Y-75299219D01*
X155968477Y-75104534D01*
X155968478Y-75104529D01*
X156000500Y-74902355D01*
X156000500Y-74697644D01*
X155968478Y-74495470D01*
X155968477Y-74495466D01*
X155905220Y-74300781D01*
X155812287Y-74118390D01*
X155812285Y-74118386D01*
X155691970Y-73952786D01*
X155691968Y-73952784D01*
X155691966Y-73952781D01*
X155547219Y-73808034D01*
X155547215Y-73808031D01*
X155547213Y-73808029D01*
X155381613Y-73687714D01*
X155381609Y-73687712D01*
X155199219Y-73594780D01*
X155004529Y-73531521D01*
X154802355Y-73499500D01*
X154802352Y-73499500D01*
X154597648Y-73499500D01*
X154597645Y-73499500D01*
X154395470Y-73531521D01*
X154200780Y-73594780D01*
X154018390Y-73687712D01*
X154018386Y-73687714D01*
X153852786Y-73808029D01*
X153708029Y-73952786D01*
X153587714Y-74118386D01*
X153587712Y-74118390D01*
X153494780Y-74300780D01*
X153431521Y-74495470D01*
X153399500Y-74697644D01*
X124100000Y-74697644D01*
X124100000Y-74400867D01*
X124100016Y-74399102D01*
X124100016Y-74399101D01*
X124102437Y-74263322D01*
X124103428Y-74251017D01*
X124142203Y-73981329D01*
X124145200Y-73967545D01*
X124221713Y-73706967D01*
X124226645Y-73693744D01*
X124339463Y-73446707D01*
X124346222Y-73434330D01*
X124493048Y-73205864D01*
X124501512Y-73194560D01*
X124679343Y-72989331D01*
X124689331Y-72979343D01*
X124894560Y-72801512D01*
X124905867Y-72793047D01*
X125134330Y-72646222D01*
X125146707Y-72639463D01*
X125393744Y-72526645D01*
X125406967Y-72521713D01*
X125667545Y-72445200D01*
X125681329Y-72442203D01*
X125951017Y-72403428D01*
X125963322Y-72402437D01*
X126099103Y-72400016D01*
X126100868Y-72400000D01*
X164399132Y-72400000D01*
X164400897Y-72400016D01*
G37*
G04 #@! TD.AperFunction*
G04 #@! TD*
G04 #@! TA.AperFunction,Conductor*
G04 #@! TO.N,GND*
G36*
X144404500Y-126879057D02*
G01*
X144445423Y-127031784D01*
X144524480Y-127168716D01*
X144636284Y-127280520D01*
X144773216Y-127359577D01*
X144925943Y-127400500D01*
X144925945Y-127400500D01*
X145084055Y-127400500D01*
X145084057Y-127400500D01*
X145236784Y-127359577D01*
X145373716Y-127280520D01*
X145485520Y-127168716D01*
X145564577Y-127031784D01*
X145605500Y-126879057D01*
X145605500Y-123000000D01*
X150399999Y-123000000D01*
X150017169Y-123382830D01*
X150017147Y-123382853D01*
X149964152Y-123441278D01*
X149903835Y-123586883D01*
X149903834Y-123586886D01*
X149900000Y-123665695D01*
X149900000Y-124500005D01*
X149901921Y-124539396D01*
X149901922Y-124539401D01*
X149932075Y-124612199D01*
X149932076Y-124612200D01*
X149932077Y-124612202D01*
X149987798Y-124667923D01*
X150060600Y-124698078D01*
X150073733Y-124698718D01*
X150099994Y-124700000D01*
X150100000Y-124700000D01*
X150495031Y-124700000D01*
X150553222Y-124718907D01*
X150565035Y-124728996D01*
X150571004Y-124734965D01*
X150598781Y-124789482D01*
X150600000Y-124804969D01*
X150600000Y-126201906D01*
X150599882Y-126206733D01*
X150596992Y-126265937D01*
X150589573Y-126298999D01*
X150542416Y-126412834D01*
X150524291Y-126441447D01*
X150484477Y-126485354D01*
X150481143Y-126488856D01*
X149417149Y-127552851D01*
X149417147Y-127552853D01*
X149364152Y-127611278D01*
X149303835Y-127756883D01*
X149303834Y-127756886D01*
X149300000Y-127835695D01*
X149300000Y-131798623D01*
X149299961Y-131801394D01*
X149297757Y-131880104D01*
X149295314Y-131899362D01*
X149259978Y-132054182D01*
X149252656Y-132075108D01*
X149184360Y-132216925D01*
X149172565Y-132235696D01*
X149074429Y-132358754D01*
X149058754Y-132374429D01*
X148935696Y-132472565D01*
X148916925Y-132484360D01*
X148775108Y-132552656D01*
X148754182Y-132559978D01*
X148599362Y-132595314D01*
X148580104Y-132597757D01*
X148502847Y-132599920D01*
X148501392Y-132599961D01*
X148498623Y-132600000D01*
X140401377Y-132600000D01*
X140398607Y-132599961D01*
X140397108Y-132599919D01*
X140319895Y-132597757D01*
X140300637Y-132595314D01*
X140145817Y-132559978D01*
X140124891Y-132552656D01*
X139983074Y-132484360D01*
X139964308Y-132472568D01*
X139841244Y-132374428D01*
X139825570Y-132358754D01*
X139727429Y-132235689D01*
X139715641Y-132216928D01*
X139647341Y-132075105D01*
X139640021Y-132054182D01*
X139604685Y-131899362D01*
X139602242Y-131880103D01*
X139600039Y-131801393D01*
X139600000Y-131798623D01*
X139600000Y-123000000D01*
X144404500Y-123000000D01*
X144404500Y-126879057D01*
G37*
G04 #@! TD.AperFunction*
G04 #@! TD*
M02*
