G04 #@! TF.GenerationSoftware,KiCad,Pcbnew,8.0.4*
G04 #@! TF.CreationDate,2026-05-21T19:01:33-07:00*
G04 #@! TF.ProjectId,microSD_Switch_Reader,6d696372-6f53-4445-9f53-77697463685f,rev?*
G04 #@! TF.SameCoordinates,Original*
G04 #@! TF.FileFunction,Legend,Bot*
G04 #@! TF.FilePolarity,Positive*
%FSLAX46Y46*%
G04 Gerber Fmt 4.6, Leading zero omitted, Abs format (unit mm)*
G04 Created by KiCad (PCBNEW 8.0.4) date 2026-05-21 19:01:33*
%MOMM*%
%LPD*%
G01*
G04 APERTURE LIST*
%ADD10C,0.175000*%
%ADD11C,0.150000*%
%ADD12C,0.120000*%
G04 APERTURE END LIST*
D10*
X154550000Y-112589706D02*
X154550000Y-113389706D01*
X154169048Y-113008754D02*
X154130953Y-113084945D01*
X154130953Y-113084945D02*
X154054762Y-113123040D01*
X154550000Y-113008754D02*
X154511905Y-113084945D01*
X154511905Y-113084945D02*
X154435715Y-113123040D01*
X154435715Y-113123040D02*
X154283334Y-113123040D01*
X154283334Y-113123040D02*
X154207143Y-113084945D01*
X154207143Y-113084945D02*
X154169048Y-113008754D01*
X154169048Y-113008754D02*
X154169048Y-112589706D01*
X153750001Y-113084945D02*
X153635715Y-113123040D01*
X153635715Y-113123040D02*
X153445239Y-113123040D01*
X153445239Y-113123040D02*
X153369048Y-113084945D01*
X153369048Y-113084945D02*
X153330953Y-113046849D01*
X153330953Y-113046849D02*
X153292858Y-112970659D01*
X153292858Y-112970659D02*
X153292858Y-112894468D01*
X153292858Y-112894468D02*
X153330953Y-112818278D01*
X153330953Y-112818278D02*
X153369048Y-112780183D01*
X153369048Y-112780183D02*
X153445239Y-112742087D01*
X153445239Y-112742087D02*
X153597620Y-112703992D01*
X153597620Y-112703992D02*
X153673810Y-112665897D01*
X153673810Y-112665897D02*
X153711905Y-112627802D01*
X153711905Y-112627802D02*
X153750001Y-112551611D01*
X153750001Y-112551611D02*
X153750001Y-112475421D01*
X153750001Y-112475421D02*
X153711905Y-112399230D01*
X153711905Y-112399230D02*
X153673810Y-112361135D01*
X153673810Y-112361135D02*
X153597620Y-112323040D01*
X153597620Y-112323040D02*
X153407143Y-112323040D01*
X153407143Y-112323040D02*
X153292858Y-112361135D01*
X152950000Y-113123040D02*
X152950000Y-112323040D01*
X152950000Y-112323040D02*
X152759524Y-112323040D01*
X152759524Y-112323040D02*
X152645238Y-112361135D01*
X152645238Y-112361135D02*
X152569048Y-112437325D01*
X152569048Y-112437325D02*
X152530953Y-112513516D01*
X152530953Y-112513516D02*
X152492857Y-112665897D01*
X152492857Y-112665897D02*
X152492857Y-112780183D01*
X152492857Y-112780183D02*
X152530953Y-112932564D01*
X152530953Y-112932564D02*
X152569048Y-113008754D01*
X152569048Y-113008754D02*
X152645238Y-113084945D01*
X152645238Y-113084945D02*
X152759524Y-113123040D01*
X152759524Y-113123040D02*
X152950000Y-113123040D01*
X151197619Y-113084945D02*
X151273810Y-113123040D01*
X151273810Y-113123040D02*
X151426191Y-113123040D01*
X151426191Y-113123040D02*
X151502381Y-113084945D01*
X151502381Y-113084945D02*
X151540476Y-113046849D01*
X151540476Y-113046849D02*
X151578572Y-112970659D01*
X151578572Y-112970659D02*
X151578572Y-112742087D01*
X151578572Y-112742087D02*
X151540476Y-112665897D01*
X151540476Y-112665897D02*
X151502381Y-112627802D01*
X151502381Y-112627802D02*
X151426191Y-112589706D01*
X151426191Y-112589706D02*
X151273810Y-112589706D01*
X151273810Y-112589706D02*
X151197619Y-112627802D01*
X150511905Y-113123040D02*
X150511905Y-112703992D01*
X150511905Y-112703992D02*
X150550000Y-112627802D01*
X150550000Y-112627802D02*
X150626191Y-112589706D01*
X150626191Y-112589706D02*
X150778572Y-112589706D01*
X150778572Y-112589706D02*
X150854762Y-112627802D01*
X150511905Y-113084945D02*
X150588096Y-113123040D01*
X150588096Y-113123040D02*
X150778572Y-113123040D01*
X150778572Y-113123040D02*
X150854762Y-113084945D01*
X150854762Y-113084945D02*
X150892858Y-113008754D01*
X150892858Y-113008754D02*
X150892858Y-112932564D01*
X150892858Y-112932564D02*
X150854762Y-112856373D01*
X150854762Y-112856373D02*
X150778572Y-112818278D01*
X150778572Y-112818278D02*
X150588096Y-112818278D01*
X150588096Y-112818278D02*
X150511905Y-112780183D01*
X150130952Y-113123040D02*
X150130952Y-112589706D01*
X150130952Y-112742087D02*
X150092857Y-112665897D01*
X150092857Y-112665897D02*
X150054762Y-112627802D01*
X150054762Y-112627802D02*
X149978571Y-112589706D01*
X149978571Y-112589706D02*
X149902381Y-112589706D01*
X149292857Y-113123040D02*
X149292857Y-112323040D01*
X149292857Y-113084945D02*
X149369048Y-113123040D01*
X149369048Y-113123040D02*
X149521429Y-113123040D01*
X149521429Y-113123040D02*
X149597619Y-113084945D01*
X149597619Y-113084945D02*
X149635714Y-113046849D01*
X149635714Y-113046849D02*
X149673810Y-112970659D01*
X149673810Y-112970659D02*
X149673810Y-112742087D01*
X149673810Y-112742087D02*
X149635714Y-112665897D01*
X149635714Y-112665897D02*
X149597619Y-112627802D01*
X149597619Y-112627802D02*
X149521429Y-112589706D01*
X149521429Y-112589706D02*
X149369048Y-112589706D01*
X149369048Y-112589706D02*
X149292857Y-112627802D01*
X148340476Y-113084945D02*
X148226190Y-113123040D01*
X148226190Y-113123040D02*
X148035714Y-113123040D01*
X148035714Y-113123040D02*
X147959523Y-113084945D01*
X147959523Y-113084945D02*
X147921428Y-113046849D01*
X147921428Y-113046849D02*
X147883333Y-112970659D01*
X147883333Y-112970659D02*
X147883333Y-112894468D01*
X147883333Y-112894468D02*
X147921428Y-112818278D01*
X147921428Y-112818278D02*
X147959523Y-112780183D01*
X147959523Y-112780183D02*
X148035714Y-112742087D01*
X148035714Y-112742087D02*
X148188095Y-112703992D01*
X148188095Y-112703992D02*
X148264285Y-112665897D01*
X148264285Y-112665897D02*
X148302380Y-112627802D01*
X148302380Y-112627802D02*
X148340476Y-112551611D01*
X148340476Y-112551611D02*
X148340476Y-112475421D01*
X148340476Y-112475421D02*
X148302380Y-112399230D01*
X148302380Y-112399230D02*
X148264285Y-112361135D01*
X148264285Y-112361135D02*
X148188095Y-112323040D01*
X148188095Y-112323040D02*
X147997618Y-112323040D01*
X147997618Y-112323040D02*
X147883333Y-112361135D01*
X147616666Y-112589706D02*
X147464285Y-113123040D01*
X147464285Y-113123040D02*
X147311904Y-112742087D01*
X147311904Y-112742087D02*
X147159523Y-113123040D01*
X147159523Y-113123040D02*
X147007142Y-112589706D01*
X146702380Y-113123040D02*
X146702380Y-112589706D01*
X146702380Y-112323040D02*
X146740476Y-112361135D01*
X146740476Y-112361135D02*
X146702380Y-112399230D01*
X146702380Y-112399230D02*
X146664285Y-112361135D01*
X146664285Y-112361135D02*
X146702380Y-112323040D01*
X146702380Y-112323040D02*
X146702380Y-112399230D01*
X146435714Y-112589706D02*
X146130952Y-112589706D01*
X146321428Y-112323040D02*
X146321428Y-113008754D01*
X146321428Y-113008754D02*
X146283333Y-113084945D01*
X146283333Y-113084945D02*
X146207143Y-113123040D01*
X146207143Y-113123040D02*
X146130952Y-113123040D01*
X145521428Y-113084945D02*
X145597619Y-113123040D01*
X145597619Y-113123040D02*
X145750000Y-113123040D01*
X145750000Y-113123040D02*
X145826190Y-113084945D01*
X145826190Y-113084945D02*
X145864285Y-113046849D01*
X145864285Y-113046849D02*
X145902381Y-112970659D01*
X145902381Y-112970659D02*
X145902381Y-112742087D01*
X145902381Y-112742087D02*
X145864285Y-112665897D01*
X145864285Y-112665897D02*
X145826190Y-112627802D01*
X145826190Y-112627802D02*
X145750000Y-112589706D01*
X145750000Y-112589706D02*
X145597619Y-112589706D01*
X145597619Y-112589706D02*
X145521428Y-112627802D01*
X145178571Y-113123040D02*
X145178571Y-112323040D01*
X144835714Y-113123040D02*
X144835714Y-112703992D01*
X144835714Y-112703992D02*
X144873809Y-112627802D01*
X144873809Y-112627802D02*
X144950000Y-112589706D01*
X144950000Y-112589706D02*
X145064286Y-112589706D01*
X145064286Y-112589706D02*
X145140476Y-112627802D01*
X145140476Y-112627802D02*
X145178571Y-112665897D01*
X144149999Y-113084945D02*
X144226190Y-113123040D01*
X144226190Y-113123040D02*
X144378571Y-113123040D01*
X144378571Y-113123040D02*
X144454761Y-113084945D01*
X144454761Y-113084945D02*
X144492857Y-113008754D01*
X144492857Y-113008754D02*
X144492857Y-112703992D01*
X144492857Y-112703992D02*
X144454761Y-112627802D01*
X144454761Y-112627802D02*
X144378571Y-112589706D01*
X144378571Y-112589706D02*
X144226190Y-112589706D01*
X144226190Y-112589706D02*
X144149999Y-112627802D01*
X144149999Y-112627802D02*
X144111904Y-112703992D01*
X144111904Y-112703992D02*
X144111904Y-112780183D01*
X144111904Y-112780183D02*
X144492857Y-112856373D01*
X143769047Y-113123040D02*
X143769047Y-112589706D01*
X143769047Y-112742087D02*
X143730952Y-112665897D01*
X143730952Y-112665897D02*
X143692857Y-112627802D01*
X143692857Y-112627802D02*
X143616666Y-112589706D01*
X143616666Y-112589706D02*
X143540476Y-112589706D01*
X142321428Y-113123040D02*
X142321428Y-112703992D01*
X142321428Y-112703992D02*
X142359523Y-112627802D01*
X142359523Y-112627802D02*
X142435714Y-112589706D01*
X142435714Y-112589706D02*
X142588095Y-112589706D01*
X142588095Y-112589706D02*
X142664285Y-112627802D01*
X142321428Y-113084945D02*
X142397619Y-113123040D01*
X142397619Y-113123040D02*
X142588095Y-113123040D01*
X142588095Y-113123040D02*
X142664285Y-113084945D01*
X142664285Y-113084945D02*
X142702381Y-113008754D01*
X142702381Y-113008754D02*
X142702381Y-112932564D01*
X142702381Y-112932564D02*
X142664285Y-112856373D01*
X142664285Y-112856373D02*
X142588095Y-112818278D01*
X142588095Y-112818278D02*
X142397619Y-112818278D01*
X142397619Y-112818278D02*
X142321428Y-112780183D01*
X141940475Y-112589706D02*
X141940475Y-113123040D01*
X141940475Y-112665897D02*
X141902380Y-112627802D01*
X141902380Y-112627802D02*
X141826190Y-112589706D01*
X141826190Y-112589706D02*
X141711904Y-112589706D01*
X141711904Y-112589706D02*
X141635713Y-112627802D01*
X141635713Y-112627802D02*
X141597618Y-112703992D01*
X141597618Y-112703992D02*
X141597618Y-113123040D01*
X140873808Y-113123040D02*
X140873808Y-112323040D01*
X140873808Y-113084945D02*
X140949999Y-113123040D01*
X140949999Y-113123040D02*
X141102380Y-113123040D01*
X141102380Y-113123040D02*
X141178570Y-113084945D01*
X141178570Y-113084945D02*
X141216665Y-113046849D01*
X141216665Y-113046849D02*
X141254761Y-112970659D01*
X141254761Y-112970659D02*
X141254761Y-112742087D01*
X141254761Y-112742087D02*
X141216665Y-112665897D01*
X141216665Y-112665897D02*
X141178570Y-112627802D01*
X141178570Y-112627802D02*
X141102380Y-112589706D01*
X141102380Y-112589706D02*
X140949999Y-112589706D01*
X140949999Y-112589706D02*
X140873808Y-112627802D01*
X139426188Y-113123040D02*
X139692855Y-112742087D01*
X139883331Y-113123040D02*
X139883331Y-112323040D01*
X139883331Y-112323040D02*
X139578569Y-112323040D01*
X139578569Y-112323040D02*
X139502379Y-112361135D01*
X139502379Y-112361135D02*
X139464284Y-112399230D01*
X139464284Y-112399230D02*
X139426188Y-112475421D01*
X139426188Y-112475421D02*
X139426188Y-112589706D01*
X139426188Y-112589706D02*
X139464284Y-112665897D01*
X139464284Y-112665897D02*
X139502379Y-112703992D01*
X139502379Y-112703992D02*
X139578569Y-112742087D01*
X139578569Y-112742087D02*
X139883331Y-112742087D01*
X138778569Y-113084945D02*
X138854760Y-113123040D01*
X138854760Y-113123040D02*
X139007141Y-113123040D01*
X139007141Y-113123040D02*
X139083331Y-113084945D01*
X139083331Y-113084945D02*
X139121427Y-113008754D01*
X139121427Y-113008754D02*
X139121427Y-112703992D01*
X139121427Y-112703992D02*
X139083331Y-112627802D01*
X139083331Y-112627802D02*
X139007141Y-112589706D01*
X139007141Y-112589706D02*
X138854760Y-112589706D01*
X138854760Y-112589706D02*
X138778569Y-112627802D01*
X138778569Y-112627802D02*
X138740474Y-112703992D01*
X138740474Y-112703992D02*
X138740474Y-112780183D01*
X138740474Y-112780183D02*
X139121427Y-112856373D01*
X138054760Y-113123040D02*
X138054760Y-112703992D01*
X138054760Y-112703992D02*
X138092855Y-112627802D01*
X138092855Y-112627802D02*
X138169046Y-112589706D01*
X138169046Y-112589706D02*
X138321427Y-112589706D01*
X138321427Y-112589706D02*
X138397617Y-112627802D01*
X138054760Y-113084945D02*
X138130951Y-113123040D01*
X138130951Y-113123040D02*
X138321427Y-113123040D01*
X138321427Y-113123040D02*
X138397617Y-113084945D01*
X138397617Y-113084945D02*
X138435713Y-113008754D01*
X138435713Y-113008754D02*
X138435713Y-112932564D01*
X138435713Y-112932564D02*
X138397617Y-112856373D01*
X138397617Y-112856373D02*
X138321427Y-112818278D01*
X138321427Y-112818278D02*
X138130951Y-112818278D01*
X138130951Y-112818278D02*
X138054760Y-112780183D01*
X137330950Y-113123040D02*
X137330950Y-112323040D01*
X137330950Y-113084945D02*
X137407141Y-113123040D01*
X137407141Y-113123040D02*
X137559522Y-113123040D01*
X137559522Y-113123040D02*
X137635712Y-113084945D01*
X137635712Y-113084945D02*
X137673807Y-113046849D01*
X137673807Y-113046849D02*
X137711903Y-112970659D01*
X137711903Y-112970659D02*
X137711903Y-112742087D01*
X137711903Y-112742087D02*
X137673807Y-112665897D01*
X137673807Y-112665897D02*
X137635712Y-112627802D01*
X137635712Y-112627802D02*
X137559522Y-112589706D01*
X137559522Y-112589706D02*
X137407141Y-112589706D01*
X137407141Y-112589706D02*
X137330950Y-112627802D01*
X136645235Y-113084945D02*
X136721426Y-113123040D01*
X136721426Y-113123040D02*
X136873807Y-113123040D01*
X136873807Y-113123040D02*
X136949997Y-113084945D01*
X136949997Y-113084945D02*
X136988093Y-113008754D01*
X136988093Y-113008754D02*
X136988093Y-112703992D01*
X136988093Y-112703992D02*
X136949997Y-112627802D01*
X136949997Y-112627802D02*
X136873807Y-112589706D01*
X136873807Y-112589706D02*
X136721426Y-112589706D01*
X136721426Y-112589706D02*
X136645235Y-112627802D01*
X136645235Y-112627802D02*
X136607140Y-112703992D01*
X136607140Y-112703992D02*
X136607140Y-112780183D01*
X136607140Y-112780183D02*
X136988093Y-112856373D01*
X136264283Y-113123040D02*
X136264283Y-112589706D01*
X136264283Y-112742087D02*
X136226188Y-112665897D01*
X136226188Y-112665897D02*
X136188093Y-112627802D01*
X136188093Y-112627802D02*
X136111902Y-112589706D01*
X136111902Y-112589706D02*
X136035712Y-112589706D01*
X152397620Y-114410995D02*
X152397620Y-113610995D01*
X152397620Y-113610995D02*
X152207144Y-113610995D01*
X152207144Y-113610995D02*
X152092858Y-113649090D01*
X152092858Y-113649090D02*
X152016668Y-113725280D01*
X152016668Y-113725280D02*
X151978573Y-113801471D01*
X151978573Y-113801471D02*
X151940477Y-113953852D01*
X151940477Y-113953852D02*
X151940477Y-114068138D01*
X151940477Y-114068138D02*
X151978573Y-114220519D01*
X151978573Y-114220519D02*
X152016668Y-114296709D01*
X152016668Y-114296709D02*
X152092858Y-114372900D01*
X152092858Y-114372900D02*
X152207144Y-114410995D01*
X152207144Y-114410995D02*
X152397620Y-114410995D01*
X151292858Y-114372900D02*
X151369049Y-114410995D01*
X151369049Y-114410995D02*
X151521430Y-114410995D01*
X151521430Y-114410995D02*
X151597620Y-114372900D01*
X151597620Y-114372900D02*
X151635716Y-114296709D01*
X151635716Y-114296709D02*
X151635716Y-113991947D01*
X151635716Y-113991947D02*
X151597620Y-113915757D01*
X151597620Y-113915757D02*
X151521430Y-113877661D01*
X151521430Y-113877661D02*
X151369049Y-113877661D01*
X151369049Y-113877661D02*
X151292858Y-113915757D01*
X151292858Y-113915757D02*
X151254763Y-113991947D01*
X151254763Y-113991947D02*
X151254763Y-114068138D01*
X151254763Y-114068138D02*
X151635716Y-114144328D01*
X150950002Y-114372900D02*
X150873811Y-114410995D01*
X150873811Y-114410995D02*
X150721430Y-114410995D01*
X150721430Y-114410995D02*
X150645240Y-114372900D01*
X150645240Y-114372900D02*
X150607144Y-114296709D01*
X150607144Y-114296709D02*
X150607144Y-114258614D01*
X150607144Y-114258614D02*
X150645240Y-114182423D01*
X150645240Y-114182423D02*
X150721430Y-114144328D01*
X150721430Y-114144328D02*
X150835716Y-114144328D01*
X150835716Y-114144328D02*
X150911906Y-114106233D01*
X150911906Y-114106233D02*
X150950002Y-114030042D01*
X150950002Y-114030042D02*
X150950002Y-113991947D01*
X150950002Y-113991947D02*
X150911906Y-113915757D01*
X150911906Y-113915757D02*
X150835716Y-113877661D01*
X150835716Y-113877661D02*
X150721430Y-113877661D01*
X150721430Y-113877661D02*
X150645240Y-113915757D01*
X150264287Y-114410995D02*
X150264287Y-113877661D01*
X150264287Y-113610995D02*
X150302383Y-113649090D01*
X150302383Y-113649090D02*
X150264287Y-113687185D01*
X150264287Y-113687185D02*
X150226192Y-113649090D01*
X150226192Y-113649090D02*
X150264287Y-113610995D01*
X150264287Y-113610995D02*
X150264287Y-113687185D01*
X149540478Y-113877661D02*
X149540478Y-114525280D01*
X149540478Y-114525280D02*
X149578573Y-114601471D01*
X149578573Y-114601471D02*
X149616669Y-114639566D01*
X149616669Y-114639566D02*
X149692859Y-114677661D01*
X149692859Y-114677661D02*
X149807145Y-114677661D01*
X149807145Y-114677661D02*
X149883335Y-114639566D01*
X149540478Y-114372900D02*
X149616669Y-114410995D01*
X149616669Y-114410995D02*
X149769050Y-114410995D01*
X149769050Y-114410995D02*
X149845240Y-114372900D01*
X149845240Y-114372900D02*
X149883335Y-114334804D01*
X149883335Y-114334804D02*
X149921431Y-114258614D01*
X149921431Y-114258614D02*
X149921431Y-114030042D01*
X149921431Y-114030042D02*
X149883335Y-113953852D01*
X149883335Y-113953852D02*
X149845240Y-113915757D01*
X149845240Y-113915757D02*
X149769050Y-113877661D01*
X149769050Y-113877661D02*
X149616669Y-113877661D01*
X149616669Y-113877661D02*
X149540478Y-113915757D01*
X149159525Y-113877661D02*
X149159525Y-114410995D01*
X149159525Y-113953852D02*
X149121430Y-113915757D01*
X149121430Y-113915757D02*
X149045240Y-113877661D01*
X149045240Y-113877661D02*
X148930954Y-113877661D01*
X148930954Y-113877661D02*
X148854763Y-113915757D01*
X148854763Y-113915757D02*
X148816668Y-113991947D01*
X148816668Y-113991947D02*
X148816668Y-114410995D01*
X148130953Y-114372900D02*
X148207144Y-114410995D01*
X148207144Y-114410995D02*
X148359525Y-114410995D01*
X148359525Y-114410995D02*
X148435715Y-114372900D01*
X148435715Y-114372900D02*
X148473811Y-114296709D01*
X148473811Y-114296709D02*
X148473811Y-113991947D01*
X148473811Y-113991947D02*
X148435715Y-113915757D01*
X148435715Y-113915757D02*
X148359525Y-113877661D01*
X148359525Y-113877661D02*
X148207144Y-113877661D01*
X148207144Y-113877661D02*
X148130953Y-113915757D01*
X148130953Y-113915757D02*
X148092858Y-113991947D01*
X148092858Y-113991947D02*
X148092858Y-114068138D01*
X148092858Y-114068138D02*
X148473811Y-114144328D01*
X147407144Y-114410995D02*
X147407144Y-113610995D01*
X147407144Y-114372900D02*
X147483335Y-114410995D01*
X147483335Y-114410995D02*
X147635716Y-114410995D01*
X147635716Y-114410995D02*
X147711906Y-114372900D01*
X147711906Y-114372900D02*
X147750001Y-114334804D01*
X147750001Y-114334804D02*
X147788097Y-114258614D01*
X147788097Y-114258614D02*
X147788097Y-114030042D01*
X147788097Y-114030042D02*
X147750001Y-113953852D01*
X147750001Y-113953852D02*
X147711906Y-113915757D01*
X147711906Y-113915757D02*
X147635716Y-113877661D01*
X147635716Y-113877661D02*
X147483335Y-113877661D01*
X147483335Y-113877661D02*
X147407144Y-113915757D01*
X146416667Y-114410995D02*
X146416667Y-113610995D01*
X146416667Y-113915757D02*
X146340477Y-113877661D01*
X146340477Y-113877661D02*
X146188096Y-113877661D01*
X146188096Y-113877661D02*
X146111905Y-113915757D01*
X146111905Y-113915757D02*
X146073810Y-113953852D01*
X146073810Y-113953852D02*
X146035715Y-114030042D01*
X146035715Y-114030042D02*
X146035715Y-114258614D01*
X146035715Y-114258614D02*
X146073810Y-114334804D01*
X146073810Y-114334804D02*
X146111905Y-114372900D01*
X146111905Y-114372900D02*
X146188096Y-114410995D01*
X146188096Y-114410995D02*
X146340477Y-114410995D01*
X146340477Y-114410995D02*
X146416667Y-114372900D01*
X145769048Y-113877661D02*
X145578572Y-114410995D01*
X145388095Y-113877661D02*
X145578572Y-114410995D01*
X145578572Y-114410995D02*
X145654762Y-114601471D01*
X145654762Y-114601471D02*
X145692857Y-114639566D01*
X145692857Y-114639566D02*
X145769048Y-114677661D01*
X144550000Y-113610995D02*
X144359524Y-114410995D01*
X144359524Y-114410995D02*
X144207143Y-113839566D01*
X144207143Y-113839566D02*
X144054762Y-114410995D01*
X144054762Y-114410995D02*
X143864286Y-113610995D01*
X143559523Y-114410995D02*
X143559523Y-113877661D01*
X143559523Y-113610995D02*
X143597619Y-113649090D01*
X143597619Y-113649090D02*
X143559523Y-113687185D01*
X143559523Y-113687185D02*
X143521428Y-113649090D01*
X143521428Y-113649090D02*
X143559523Y-113610995D01*
X143559523Y-113610995D02*
X143559523Y-113687185D01*
X143064286Y-114410995D02*
X143140476Y-114372900D01*
X143140476Y-114372900D02*
X143178571Y-114296709D01*
X143178571Y-114296709D02*
X143178571Y-113610995D01*
X142645238Y-114410995D02*
X142721428Y-114372900D01*
X142721428Y-114372900D02*
X142759523Y-114296709D01*
X142759523Y-114296709D02*
X142759523Y-113610995D01*
X141807142Y-113610995D02*
X141616666Y-114410995D01*
X141616666Y-114410995D02*
X141464285Y-113839566D01*
X141464285Y-113839566D02*
X141311904Y-114410995D01*
X141311904Y-114410995D02*
X141121428Y-113610995D01*
X140816665Y-114410995D02*
X140816665Y-113610995D01*
X140473808Y-114410995D02*
X140473808Y-113991947D01*
X140473808Y-113991947D02*
X140511903Y-113915757D01*
X140511903Y-113915757D02*
X140588094Y-113877661D01*
X140588094Y-113877661D02*
X140702380Y-113877661D01*
X140702380Y-113877661D02*
X140778570Y-113915757D01*
X140778570Y-113915757D02*
X140816665Y-113953852D01*
X139749998Y-114410995D02*
X139749998Y-113991947D01*
X139749998Y-113991947D02*
X139788093Y-113915757D01*
X139788093Y-113915757D02*
X139864284Y-113877661D01*
X139864284Y-113877661D02*
X140016665Y-113877661D01*
X140016665Y-113877661D02*
X140092855Y-113915757D01*
X139749998Y-114372900D02*
X139826189Y-114410995D01*
X139826189Y-114410995D02*
X140016665Y-114410995D01*
X140016665Y-114410995D02*
X140092855Y-114372900D01*
X140092855Y-114372900D02*
X140130951Y-114296709D01*
X140130951Y-114296709D02*
X140130951Y-114220519D01*
X140130951Y-114220519D02*
X140092855Y-114144328D01*
X140092855Y-114144328D02*
X140016665Y-114106233D01*
X140016665Y-114106233D02*
X139826189Y-114106233D01*
X139826189Y-114106233D02*
X139749998Y-114068138D01*
X139369045Y-113877661D02*
X139369045Y-114410995D01*
X139369045Y-113953852D02*
X139330950Y-113915757D01*
X139330950Y-113915757D02*
X139254760Y-113877661D01*
X139254760Y-113877661D02*
X139140474Y-113877661D01*
X139140474Y-113877661D02*
X139064283Y-113915757D01*
X139064283Y-113915757D02*
X139026188Y-113991947D01*
X139026188Y-113991947D02*
X139026188Y-114410995D01*
X138302378Y-113877661D02*
X138302378Y-114525280D01*
X138302378Y-114525280D02*
X138340473Y-114601471D01*
X138340473Y-114601471D02*
X138378569Y-114639566D01*
X138378569Y-114639566D02*
X138454759Y-114677661D01*
X138454759Y-114677661D02*
X138569045Y-114677661D01*
X138569045Y-114677661D02*
X138645235Y-114639566D01*
X138302378Y-114372900D02*
X138378569Y-114410995D01*
X138378569Y-114410995D02*
X138530950Y-114410995D01*
X138530950Y-114410995D02*
X138607140Y-114372900D01*
X138607140Y-114372900D02*
X138645235Y-114334804D01*
X138645235Y-114334804D02*
X138683331Y-114258614D01*
X138683331Y-114258614D02*
X138683331Y-114030042D01*
X138683331Y-114030042D02*
X138645235Y-113953852D01*
X138645235Y-113953852D02*
X138607140Y-113915757D01*
X138607140Y-113915757D02*
X138530950Y-113877661D01*
X138530950Y-113877661D02*
X138378569Y-113877661D01*
X138378569Y-113877661D02*
X138302378Y-113915757D01*
X149083334Y-114975140D02*
X149045238Y-114937045D01*
X149045238Y-114937045D02*
X148969048Y-114898950D01*
X148969048Y-114898950D02*
X148778572Y-114898950D01*
X148778572Y-114898950D02*
X148702381Y-114937045D01*
X148702381Y-114937045D02*
X148664286Y-114975140D01*
X148664286Y-114975140D02*
X148626191Y-115051331D01*
X148626191Y-115051331D02*
X148626191Y-115127521D01*
X148626191Y-115127521D02*
X148664286Y-115241807D01*
X148664286Y-115241807D02*
X149121429Y-115698950D01*
X149121429Y-115698950D02*
X148626191Y-115698950D01*
X148130952Y-114898950D02*
X148054762Y-114898950D01*
X148054762Y-114898950D02*
X147978571Y-114937045D01*
X147978571Y-114937045D02*
X147940476Y-114975140D01*
X147940476Y-114975140D02*
X147902381Y-115051331D01*
X147902381Y-115051331D02*
X147864286Y-115203712D01*
X147864286Y-115203712D02*
X147864286Y-115394188D01*
X147864286Y-115394188D02*
X147902381Y-115546569D01*
X147902381Y-115546569D02*
X147940476Y-115622759D01*
X147940476Y-115622759D02*
X147978571Y-115660855D01*
X147978571Y-115660855D02*
X148054762Y-115698950D01*
X148054762Y-115698950D02*
X148130952Y-115698950D01*
X148130952Y-115698950D02*
X148207143Y-115660855D01*
X148207143Y-115660855D02*
X148245238Y-115622759D01*
X148245238Y-115622759D02*
X148283333Y-115546569D01*
X148283333Y-115546569D02*
X148321429Y-115394188D01*
X148321429Y-115394188D02*
X148321429Y-115203712D01*
X148321429Y-115203712D02*
X148283333Y-115051331D01*
X148283333Y-115051331D02*
X148245238Y-114975140D01*
X148245238Y-114975140D02*
X148207143Y-114937045D01*
X148207143Y-114937045D02*
X148130952Y-114898950D01*
X147559524Y-114975140D02*
X147521428Y-114937045D01*
X147521428Y-114937045D02*
X147445238Y-114898950D01*
X147445238Y-114898950D02*
X147254762Y-114898950D01*
X147254762Y-114898950D02*
X147178571Y-114937045D01*
X147178571Y-114937045D02*
X147140476Y-114975140D01*
X147140476Y-114975140D02*
X147102381Y-115051331D01*
X147102381Y-115051331D02*
X147102381Y-115127521D01*
X147102381Y-115127521D02*
X147140476Y-115241807D01*
X147140476Y-115241807D02*
X147597619Y-115698950D01*
X147597619Y-115698950D02*
X147102381Y-115698950D01*
X146416666Y-114898950D02*
X146569047Y-114898950D01*
X146569047Y-114898950D02*
X146645238Y-114937045D01*
X146645238Y-114937045D02*
X146683333Y-114975140D01*
X146683333Y-114975140D02*
X146759523Y-115089426D01*
X146759523Y-115089426D02*
X146797619Y-115241807D01*
X146797619Y-115241807D02*
X146797619Y-115546569D01*
X146797619Y-115546569D02*
X146759523Y-115622759D01*
X146759523Y-115622759D02*
X146721428Y-115660855D01*
X146721428Y-115660855D02*
X146645238Y-115698950D01*
X146645238Y-115698950D02*
X146492857Y-115698950D01*
X146492857Y-115698950D02*
X146416666Y-115660855D01*
X146416666Y-115660855D02*
X146378571Y-115622759D01*
X146378571Y-115622759D02*
X146340476Y-115546569D01*
X146340476Y-115546569D02*
X146340476Y-115356093D01*
X146340476Y-115356093D02*
X146378571Y-115279902D01*
X146378571Y-115279902D02*
X146416666Y-115241807D01*
X146416666Y-115241807D02*
X146492857Y-115203712D01*
X146492857Y-115203712D02*
X146645238Y-115203712D01*
X146645238Y-115203712D02*
X146721428Y-115241807D01*
X146721428Y-115241807D02*
X146759523Y-115279902D01*
X146759523Y-115279902D02*
X146797619Y-115356093D01*
X145426190Y-114860855D02*
X146111904Y-115889426D01*
X145007142Y-114898950D02*
X144930952Y-114898950D01*
X144930952Y-114898950D02*
X144854761Y-114937045D01*
X144854761Y-114937045D02*
X144816666Y-114975140D01*
X144816666Y-114975140D02*
X144778571Y-115051331D01*
X144778571Y-115051331D02*
X144740476Y-115203712D01*
X144740476Y-115203712D02*
X144740476Y-115394188D01*
X144740476Y-115394188D02*
X144778571Y-115546569D01*
X144778571Y-115546569D02*
X144816666Y-115622759D01*
X144816666Y-115622759D02*
X144854761Y-115660855D01*
X144854761Y-115660855D02*
X144930952Y-115698950D01*
X144930952Y-115698950D02*
X145007142Y-115698950D01*
X145007142Y-115698950D02*
X145083333Y-115660855D01*
X145083333Y-115660855D02*
X145121428Y-115622759D01*
X145121428Y-115622759D02*
X145159523Y-115546569D01*
X145159523Y-115546569D02*
X145197619Y-115394188D01*
X145197619Y-115394188D02*
X145197619Y-115203712D01*
X145197619Y-115203712D02*
X145159523Y-115051331D01*
X145159523Y-115051331D02*
X145121428Y-114975140D01*
X145121428Y-114975140D02*
X145083333Y-114937045D01*
X145083333Y-114937045D02*
X145007142Y-114898950D01*
X144473809Y-114898950D02*
X143978571Y-114898950D01*
X143978571Y-114898950D02*
X144245237Y-115203712D01*
X144245237Y-115203712D02*
X144130952Y-115203712D01*
X144130952Y-115203712D02*
X144054761Y-115241807D01*
X144054761Y-115241807D02*
X144016666Y-115279902D01*
X144016666Y-115279902D02*
X143978571Y-115356093D01*
X143978571Y-115356093D02*
X143978571Y-115546569D01*
X143978571Y-115546569D02*
X144016666Y-115622759D01*
X144016666Y-115622759D02*
X144054761Y-115660855D01*
X144054761Y-115660855D02*
X144130952Y-115698950D01*
X144130952Y-115698950D02*
X144359523Y-115698950D01*
X144359523Y-115698950D02*
X144435714Y-115660855D01*
X144435714Y-115660855D02*
X144473809Y-115622759D01*
X143064285Y-114860855D02*
X143749999Y-115889426D01*
X142378571Y-115698950D02*
X142835714Y-115698950D01*
X142607142Y-115698950D02*
X142607142Y-114898950D01*
X142607142Y-114898950D02*
X142683333Y-115013235D01*
X142683333Y-115013235D02*
X142759523Y-115089426D01*
X142759523Y-115089426D02*
X142835714Y-115127521D01*
X141692856Y-115165616D02*
X141692856Y-115698950D01*
X141883332Y-114860855D02*
X142073809Y-115432283D01*
X142073809Y-115432283D02*
X141578570Y-115432283D01*
D11*
X128979366Y-101749999D02*
X129012700Y-101716666D01*
X129012700Y-101716666D02*
X129046033Y-101616666D01*
X129046033Y-101616666D02*
X129046033Y-101549999D01*
X129046033Y-101549999D02*
X129012700Y-101449999D01*
X129012700Y-101449999D02*
X128946033Y-101383333D01*
X128946033Y-101383333D02*
X128879366Y-101349999D01*
X128879366Y-101349999D02*
X128746033Y-101316666D01*
X128746033Y-101316666D02*
X128646033Y-101316666D01*
X128646033Y-101316666D02*
X128512700Y-101349999D01*
X128512700Y-101349999D02*
X128446033Y-101383333D01*
X128446033Y-101383333D02*
X128379366Y-101449999D01*
X128379366Y-101449999D02*
X128346033Y-101549999D01*
X128346033Y-101549999D02*
X128346033Y-101616666D01*
X128346033Y-101616666D02*
X128379366Y-101716666D01*
X128379366Y-101716666D02*
X128412700Y-101749999D01*
X128412700Y-102016666D02*
X128379366Y-102049999D01*
X128379366Y-102049999D02*
X128346033Y-102116666D01*
X128346033Y-102116666D02*
X128346033Y-102283333D01*
X128346033Y-102283333D02*
X128379366Y-102349999D01*
X128379366Y-102349999D02*
X128412700Y-102383333D01*
X128412700Y-102383333D02*
X128479366Y-102416666D01*
X128479366Y-102416666D02*
X128546033Y-102416666D01*
X128546033Y-102416666D02*
X128646033Y-102383333D01*
X128646033Y-102383333D02*
X129046033Y-101983333D01*
X129046033Y-101983333D02*
X129046033Y-102416666D01*
X128346033Y-102650000D02*
X128346033Y-103083333D01*
X128346033Y-103083333D02*
X128612700Y-102850000D01*
X128612700Y-102850000D02*
X128612700Y-102950000D01*
X128612700Y-102950000D02*
X128646033Y-103016666D01*
X128646033Y-103016666D02*
X128679366Y-103050000D01*
X128679366Y-103050000D02*
X128746033Y-103083333D01*
X128746033Y-103083333D02*
X128912700Y-103083333D01*
X128912700Y-103083333D02*
X128979366Y-103050000D01*
X128979366Y-103050000D02*
X129012700Y-103016666D01*
X129012700Y-103016666D02*
X129046033Y-102950000D01*
X129046033Y-102950000D02*
X129046033Y-102750000D01*
X129046033Y-102750000D02*
X129012700Y-102683333D01*
X129012700Y-102683333D02*
X128979366Y-102650000D01*
D12*
G04 #@! TO.C,C23*
X126790000Y-102059420D02*
X126790000Y-102340580D01*
X127810000Y-102059420D02*
X127810000Y-102340580D01*
G04 #@! TD*
M02*
